<svg id="Layer_1" data-name="Layer 1" xmlns="http://www.w3.org/2000/svg" viewBox="0 0 481.89 481.89"><defs><style>.cls-1{fill:#f9d7ed;}.cls-2{fill:#fff;}.cls-3{fill:#2a1d75;}</style></defs><title>3D_scans</title><path class="cls-1" d="M431,257.26a1.61,1.61,0,0,0-1.46-1.26l-41.24-2.64c-2-.58-18-5.29-21.29-5.93s-12.47.88-16.24,1.92c-2.61-2.94-4.56-5.33-4.58-5.36a1.59,1.59,0,0,0-1.53-.56l-3.23.58-5.69-4.85a.39.39,0,0,0-.1-.08l-9.19-6.61a1.59,1.59,0,0,0-1.89,0l-2.84,2.09-7.92.17-4.23-3.69a1.63,1.63,0,0,0-.81-.37l-11.87-1.81a1.6,1.6,0,0,0-1.57.7l-1.66,2.51-3.13-2.48a1.55,1.55,0,0,0-.56-.28l-12.43-3.53-23.94-14.85a1.6,1.6,0,0,0-1.82.1l-5.25,4.09c-5.73.71-13.75,1.7-16.19,2-1.74-2.54-7.83-12.46-11.64-18.74a1.76,1.76,0,0,0-.24-.3l-17.76-17.6-2.9-5.94a1.56,1.56,0,0,0-.35-.46l-2.82-2.63a1.59,1.59,0,0,0-1.6-.34l-6.49,2.18a1.64,1.64,0,0,0-.8.6c-.81,1.16-3.39,4.42-5.52,5.56-2.3,1.22-4.87,5.67-6.45,8.75l-2.81-5a1.6,1.6,0,0,0-2.16-.62c-4,2.19-8.5,4.56-9.9,5.23-.67-.26-2-.83-3.12-1.34a1.59,1.59,0,0,0-1.47.07l-1.78,1.05-5-1a1.55,1.55,0,0,0-.74,0l-2.07.56-4.86-.18-1-2.6a1.65,1.65,0,0,0-1.09-1.06c-.77-.23-1.13-.33-5.18,2.92l-.14.13-7.55,7.74H120.2a1.59,1.59,0,0,0-1.58,1.35l-1.42,9a10.46,10.46,0,0,0-3.44,2.08C110,209.08,108.1,217.7,107,224c-.08.42-.13.72-.17.88-.2.91-2,6-3.25,9.23l-4.75,3.63a1.62,1.62,0,0,0-.63,1.21l-.42,11L39.29,281.82a1.61,1.61,0,0,0,.65,3l33.74,2.39a49.32,49.32,0,0,1,2.07,6.12A2.39,2.39,0,0,0,77,294.93c2,1,5.79-.28,13.47-3.59,1.42-.61,2.65-1.14,3.43-1.42,2.81-1,5.08-3.42,7.48-6,2.79-2.95,5.95-6.31,10.47-8,7.08-2.61,18-18.13,21.37-23.1,1.82,1.25,4.48,3.28,5.35,4.82,1.69,3,10.43,14.24,15.29,18.12a19.56,19.56,0,0,1,4.19,4.91c1.37,2.06,2.67,4,5.36,5.21,3.75,1.68,13.71,14.05,16.91,20.33,3.83,7.53,16.62,10.16,20.45,10.79a31.91,31.91,0,0,1,5.47,1.63A113.76,113.76,0,0,0,226.64,324a42.86,42.86,0,0,0,7.42.64,48.5,48.5,0,0,0,22.66-5.8c6.2.94,25.26-1.56,28.18-1.95l31.68,2a1.58,1.58,0,0,0,.85-.18L430.22,259A1.59,1.59,0,0,0,431,257.26Z"/><path class="cls-2" d="M223.65,197.31a1.5,1.5,0,0,0-.24-.31l-17.76-17.6-2.9-5.93a1.35,1.35,0,0,0-.35-.47l-2.82-2.63A1.59,1.59,0,0,0,198,170l-2.66,4.27-2.52,3.42-9.23,13.9-3.23-.47c.47-1-4.43-9-4.43-9a1.6,1.6,0,0,0-2.16-.62c-2.34,1.27-4.83,2.6-6.78,3.63.57,1,3.21,13.57,3.21,13.57a.91.91,0,0,0,.43.63l5.33,3.15.23.1,22.57,5.77a.92.92,0,0,0,.49-.44l6-11.92,10.21,3.72a.86.86,0,0,0,.42,0S223.91,197.73,223.65,197.31Z"/><path class="cls-2" d="M222.53,274.63,233,258.17c-.49-.48-9-4.77-9-4.77l5.54-3.59a.81.81,0,0,0,.33-.38l9-19.05,4-7.78s5.41-7.16,5.78-8.19c-5.27.66-11.29,1.4-13.35,1.64-.33-.49-17.57,26.83-17.86,27.84-.51,1.72-11.7,17-18.64,26.24a.86.86,0,0,0-.18.6c.6,10.54,1,10.54,1.93,10.54.34,0,.77,0,6.08-3.89L217,274Z"/><path class="cls-2" d="M343.4,281.05l-8.94-6.62-7.42-5.3a1,1,0,0,0-.23-.12l-6.09-2.1-5.24-4.8-11-11.84V244.4a.84.84,0,0,0-.07-.35l-4.07-9.83-3-4.24a5.36,5.36,0,0,1-2.07,2.56c.93,1.66,1.84,4.05,1.18,6.29l-.76,1.68c-3,5.45-12.55,19-12.66,19.17a.75.75,0,0,0-.07.12l-8.48,19.32c.12.07,10.41,1.24,10.41,1.24a.7.7,0,0,0,.32,0l10-2.43,2.45-.09,2.21-.19L314,279.9l4.55,3.39c-.15.37,18.18,1.43,18.18,1.43h0c.1,0,6.41-2.08,6.41-2.08a.92.92,0,0,0,.62-.72A.93.93,0,0,0,343.4,281.05Z"/><path class="cls-2" d="M371.42,264.08a.9.9,0,0,0-.34-.68c-.11-.08-19.92-20.45-19.94-20.48a1.61,1.61,0,0,0-1.53-.56l-3.23.59-5.68-4.86-.11-.08-9.19-6.61a1.59,1.59,0,0,0-1.88,0l-3,.51s8.83,25,18.36,32.87l1.85,1.36,8.27,5a1,1,0,0,0,.47.14h8.47a.91.91,0,0,0,.63-.25l6.61-6.26a.84.84,0,0,0,.23-.41l0,0h0A.78.78,0,0,0,371.42,264.08Z"/><path class="cls-2" d="M210.11,289.64l-12.61-7.88-3-6.81a.94.94,0,0,0-.27-.35l-9.8-7.7-8.54-7c-.26.55,1.16,10.92,2.28,11.48.77.41,5.2,5.05,9.08,9.33l3.51,8a.92.92,0,0,0,.61.51s23.6,6.07,24.09,5.72l-5.18-5.17Z"/><path class="cls-3" d="M441.08,250.52a1.75,1.75,0,0,0-1.6-1.37l-42-2.7c-2.05-.6-18.3-5.38-21.7-6s-12.62.88-16.53,2c-2.63-3-4.59-5.38-4.61-5.41a1.78,1.78,0,0,0-1.67-.62l-3.24.59L344,232l-.11-.09-9.37-6.74a1.74,1.74,0,0,0-2.06,0l-2.86,2.11-8,.17-4.27-3.73a1.74,1.74,0,0,0-.89-.41l-12.09-1.84a1.76,1.76,0,0,0-1.73.77L301,224.72l-3.08-2.45a1.76,1.76,0,0,0-.61-.31l-12.65-3.59-24.38-15.12a1.75,1.75,0,0,0-2,.1l-5.32,4.15c-5.79.72-13.84,1.71-16.39,2-1.83-2.67-8-12.69-11.82-19a1.84,1.84,0,0,0-.27-.34l-18.08-17.92-3-6a1.58,1.58,0,0,0-.38-.51L200.17,163a1.75,1.75,0,0,0-1.75-.38l-6.61,2.22a1.75,1.75,0,0,0-.88.66c-.83,1.18-3.45,4.48-5.59,5.62-2.31,1.24-4.9,5.64-6.51,8.78L176.07,175a1.77,1.77,0,0,0-2.37-.68c-4.06,2.21-8.57,4.61-10,5.31-.69-.26-2-.84-3.12-1.34a1.75,1.75,0,0,0-1.62.08l-1.77,1-5.09-1a1.85,1.85,0,0,0-.81,0l-2.09.57-4.86-.18c-.46-1.26-.89-2.41-.94-2.57a1.8,1.8,0,0,0-1.19-1.15c-.83-.25-1.21-.36-5.39,3l-.16.14L129,186H124.2a1.75,1.75,0,0,0-1.73,1.47L121,196.58a10.6,10.6,0,0,0-3.47,2.12c-3.84,2.69-5.81,11.49-7,17.92-.07.42-.13.72-.16.88-.21.92-2.06,6-3.3,9.36l-4.82,3.68a1.76,1.76,0,0,0-.68,1.33L101.2,243,41.68,275.48a1.75,1.75,0,0,0-.87,1.9,1.77,1.77,0,0,0,1.59,1.38l34.3,2.43a47.23,47.23,0,0,1,2.08,6.15,2.55,2.55,0,0,0,1.36,1.7c2.1,1.06,6-.27,13.83-3.66,1.44-.62,2.69-1.15,3.48-1.44,2.89-1,5.21-3.5,7.67-6.11,2.84-3,6-6.41,10.62-8.09,7.21-2.65,18.27-18.31,21.77-23.48,2,1.39,4.53,3.39,5.32,4.8,1.73,3.07,10.65,14.54,15.61,18.51a19.85,19.85,0,0,1,4.25,5c1.34,2,2.74,4.12,5.51,5.36,3.8,1.7,13.92,14.28,17.18,20.67,3.93,7.72,17,10.41,20.92,11.05a33.23,33.23,0,0,1,5.55,1.66,115.67,115.67,0,0,0,20.8,5.43,43.63,43.63,0,0,0,7.57.66,49.53,49.53,0,0,0,23.12-5.91c6.38.95,25.69-1.58,28.71-2l32.26,2a1.69,1.69,0,0,0,.93-.2l115-60.86A1.77,1.77,0,0,0,441.08,250.52ZM350,282.27a44.53,44.53,0,0,0-4.59,1c-2.41.6-6.37,1.57-7.31,1.62l-3.82-2.15a1.13,1.13,0,0,0-.5-.13c-3.85,0-9.77.07-12.06,0,.27-.9.82-2.39,1.39-3.78l16.72.81h.05a.84.84,0,0,0,.31-.05l6.24-2.06a1,1,0,0,0,.28-1.76l-9.11-6.74-2.26-1.62,3-3.24L350,260.77l8.4,5.07a1,1,0,0,0,.52.14l8.63,0h0a1,1,0,0,0,.69-.28l6.73-6.38a1,1,0,0,0,.26-.46l0,0h0a.74.74,0,0,0,0-.29,1,1,0,0,0-.37-.74c-.11-.08-9.15-7.27-14.4-12.21a73.27,73.27,0,0,1,11.14-1.81l9.7,7.72a.89.89,0,0,0,.25.14l9.71,4L388.91,264l-4.1,2.88-20.05,7.68-.12.05C358.28,278.06,351.08,281.89,350,282.27Zm-44.77-6.4-2.74-3.38,9.62,1.47ZM317,272.69l-16.79-2.57h-.08l-.06,0h0l-.1,0h-.13l-11.39,2.76,1.85-8.09,6.26-8.76,9.47-9.72L316.84,258l5.53,5.08a1.13,1.13,0,0,0,.35.21l6.25,2.15,7.43,5.3,7.54,5.59-4.23,1.4-16.93-.81-5.35-4A1,1,0,0,0,317,272.69Zm-19.5-46.26c.94,1.67,1.88,4.08,1.24,6.34l-5.18-1.52a1,1,0,0,0-.77.09l-5.21,2.9H284l-.48-2.84C288.18,230.4,294.71,227.66,297.49,226.43Zm2.75,8a8.1,8.1,0,0,0,.39-5.56,1.63,1.63,0,0,0,.37.13l4,9.75v5.74l-10,10.24a.52.52,0,0,0-.1.11l-6.42,9a.86.86,0,0,0-.16.35l-2.06,9-7.94-.89,8.34-17.12C287.62,253.87,298,239.12,300.24,234.41ZM330,263.68a1.3,1.3,0,0,0-.26-.14l-6.19-2.13-5.32-4.88-11.22-12v-5.95a1,1,0,0,0-.07-.38L304.85,233c2.12-1,4.38-1.95,5.09-2.15,1.08.42,6,2.4,9.58,3.86l1,8.37a1.15,1.15,0,0,0,.12.37c5.59,9.92,10.59,16.32,15.62,20l-2.62,2.79Zm3.46-34.91,8.27,5.95,6.33,5.4a1.73,1.73,0,0,0,1.45.39l3-.55c.78.94,2.2,2.62,3.9,4.55h0c2.31,3,12,11.55,16.2,14.27L367.15,264h-8l-8.51-5.14c-10.33-7.4-16.59-25.32-17.95-29.53Zm-28.58-3.64,10.48,1.6,4.41,3.83A1.82,1.82,0,0,0,321,231l9.22-.19a1.83,1.83,0,0,0,.83-.25c1.65,5,7.37,20.72,17,28.73l-10,3c-4.94-3.42-9.87-9.65-15.48-19.57l-1.07-8.76a1,1,0,0,0-.62-.8c-1.66-.67-10-4-10.44-4.2s-.82-.27-6.3,2.27l-1.23-3Zm-51.06-14.22a1.81,1.81,0,0,0,.86-.35l1.42-1.11-4,9,1.83.82,5.16-11.53,9.05,34.41,1.94-.51L261.21,208,283,221.47a1.51,1.51,0,0,0,.45.2l12.09,3.43c-3.37,1.44-9.43,3.87-13.29,4.5a1,1,0,0,0-.83,1.16l.79,4.64a1,1,0,0,0,1,.83h4.64a1,1,0,0,0,.49-.13l5.08-2.82,4.51,1.32c-3,5.59-12.75,19.3-12.86,19.45a.64.64,0,0,0-.08.14l-8.52,17.49-7-4.14c-2-1-6.87-3.27-7.54-3.44-1.28-.32-8.15,3.13-8.63,3.6a1.12,1.12,0,0,0-.32,1c.05.43.16,1.3,6,4.93-3.16,1.79-8.82,4.42-11.73,3.31-4.17-1.59-13.5,1.06-16.6,2l-2.58-9.54a1,1,0,0,0-.76-.72l-2.94-.61,13.9-22,7.78,14.79,1.77-.93-8.58-16.33a1,1,0,0,0-.85-.53,1,1,0,0,0-.88.46l-5.08,8-7.4-3.88,5.55-3.59a1,1,0,0,0,.37-.41l9.14-19.41,4.12-7.93,4.09-4.75Zm-18,2.19c.24,0,1.42-.13,9.58-1.14l-2.73,3.18a.64.64,0,0,0-.13.19l-4.19,8.06-9,19.19-6.51,4.2-7.94,0c2.82-4,5-7.26,5.27-8.2C220.62,236.87,229.69,222.54,235.81,213.1Zm-22.37,35.66,9.4,0,8.56,4.48-9.08,14.35-4.3-.89a.89.89,0,0,0-.51,0l-11,3.59a1.25,1.25,0,0,0-.28.15c-1.59,1.17-3.43,2.46-4.53,3.18-.22-1.66-.49-5-.67-8.05C203.07,262.92,208.78,255.28,213.44,248.76ZM234.11,212c-1.73,2.67-5.51,8.54-9,14.06l-25,4.08-6.57-1.57-.47,1.95,6,1.43v4.49l-9.85,2.36a.83.83,0,0,0-.32.14l-6.73,4.46-9.78-4.73a1,1,0,0,0-1.24,1.48l6.07,8.41-12.11-3.25L155.38,231c.51-.48,1.28-1.25,2.52-2.51s3.1-3.14,3.75-3.67c.67,0,2.3.06,6.5,0a1,1,0,0,0,.83-.46l5-7.71,7-1.09a1,1,0,0,0,.77-.6l2.48-5.88,7.57,15.12,1.78-.89-8-16.08,13.7-5.33a1,1,0,0,0,.53-.48l6.14-12.09,10.35,3.77a1,1,0,0,0,.45.06l5.15-.57C229.71,205.46,232.67,210.26,234.11,212ZM187,174.22c2.77-1.47,5.49-4.91,6.46-6.23l2.06-.69-2.39,3.24-9.39,14.13-3.11-.45C182.3,180.53,185.32,175.11,187,174.22Zm-13.13,4,3.56,6.32a1.74,1.74,0,0,0,1.35.87l.1.18a1,1,0,0,0,.73.5l4.47.65h.15a1,1,0,0,0,.83-.45l9.71-14.61,3.91-5.3,1.75,1.63,2.93,6a2.08,2.08,0,0,0,.34.48l16.38,16.23-3.34.37-10.61-3.87-6.3-11.38a1,1,0,0,0-.87-.52h0a1,1,0,0,0-.87.53l-6.79,12.63,1.76.95,5.92-11,5.33,9.64-5.92,11.69-21.51-5.68-4.92-2.9-1.9-10.9Zm-59.33,88.23c-5.34,2-8.86,5.69-12,9-2.26,2.39-4.21,4.46-6.31,5.22-.9.32-2.19.88-3.69,1.52C90,283.3,84.06,285.84,82,285.91a62.12,62.12,0,0,0-2.51-7.08A1.74,1.74,0,0,0,78,277.78L48.6,275.69l54.34-29.61.49,4.47c-3.59,4.13-7.57,8.62-8.12,9.05l1.2,1.6c.87-.65,6.89-7.56,8.72-9.67a1,1,0,0,0,.23-.76l-.78-7.15.41-10.8,4.57-3.48a1.71,1.71,0,0,0,.57-.78c.55-1.46,3.28-8.81,3.61-10.29,0-.18.11-.54.2-1,2.13-11.87,4.41-14.93,5.57-15.7a1.5,1.5,0,0,0,.25-.19,6.49,6.49,0,0,1,2.92-1.6,1.74,1.74,0,0,0,1.52-1.47l1.39-8.75h4A1.75,1.75,0,0,0,131,189l8.1-8.3c.55-.45,1.18-.93,1.73-1.34l.64,1.73a1.77,1.77,0,0,0,1.58,1.14l5.71.2-5.32,7.23-11.67,12.67a.94.94,0,0,0-.22.39l-3.83,12.86L117.5,231.43l1.68,1.08,10.27-16a1.15,1.15,0,0,0,.12-.25l3.8-12.78,8.62-9.36L137.58,209a1.18,1.18,0,0,0,0,.25L137,224.21l-1,8.15-8.15,7.08a1,1,0,0,0-.34.67L126,255.91l-1.09,1.31-16.52,5.54h-4.64a1,1,0,0,0-.81.42L98.74,269l1.62,1.17,3.87-5.39h4.28a.43.43,0,0,0,.32-.05l13.38-4.49C119.37,263.27,116.64,265.68,114.53,266.45ZM324,310l-32-2a1.28,1.28,0,0,0-.34,0c-5.16.7-17.48,2.16-24.36,2.21l22.55-8.44,14.29-5.3-.69-1.87-14.3,5.29-26.79,10,0,.07a1.65,1.65,0,0,0-.36.16c-.13.08-13.13,7.9-28.86,5.14A112.39,112.39,0,0,1,213,310a34.9,34.9,0,0,0-6.16-1.81C199.64,307,191,303.94,188.5,299c-3.35-6.58-13.94-20.07-18.87-22.27-1.85-.83-2.76-2.2-4-4.1a22.87,22.87,0,0,0-5-5.77c-4.59-3.66-13.16-14.66-14.75-17.48-1.76-3.14-7.32-6.61-7.95-7a1.77,1.77,0,0,0-.91-.26,1.74,1.74,0,0,0-1.46.79c-1.53,2.33-4.24,6.21-7.32,10.17l1.16-12.36,8.14-7.07a1,1,0,0,0,.34-.63l.69-5.44,8.89,3.5,3.19,8.4a.89.89,0,0,0,.08.17L162,258l.11.15,13.62,14.94,7.06,9.49a1,1,0,0,0,.26.25l16.33,10.54,1.08-1.68-16.18-10.44-7-9.4-.06-.07-13.6-14.91-11.21-18.23-3.3-8.74a1,1,0,0,0-.57-.57l-9.78-3.85.14-1.12.56-14.91,5.56-18.72,6.51-8.83.17,0,5.35,1.1a1.73,1.73,0,0,0,1.24-.2l1.56-.92a31.16,31.16,0,0,0,3,1.22l1.36,14.4a.9.9,0,0,0,.09.32l2.79,6.22-3.34,5.15-7.23-14.64-1.8.88L162,210l-12.91-1.62a1,1,0,0,0-1,.44l-4.49,6.7,1.66,1.12,4.15-6.2,14.15,1.77a1,1,0,0,0,1-.45l4.6-7.07a1,1,0,0,0,.07-1l-2.95-6.57L164.9,182.9c.61-.27,1.6-.76,3.28-1.64L170.05,192a1,1,0,0,0,.48.69l5.43,3.21a1.09,1.09,0,0,0,.25.1l19.45,5.13-11.85,4.61a1,1,0,0,0-.56.54l-3.11,7.37-6.91,1.07a1,1,0,0,0-.69.45l-4.95,7.63c-2.73,0-5.59,0-5.92,0-.73-.18-.92-.07-5.19,4.25-1.17,1.19-2.63,2.66-2.87,2.85a1,1,0,0,0-.39,1.45l10.47,15.45a.8.8,0,0,0,.2.21h0l11.75,9.6c.56,5.73,1.43,8.93,2.6,9.5.78.44,5.28,5.15,9.22,9.49l3.57,8.12a1,1,0,0,0,.67.56l21.63,5.57,11.56,11.52,1.41-1.42L211,284.72l-.17-.14-12.84-8-3-6.92a1,1,0,0,0-.3-.39l-10-7.84-15.92-13,10.69,2.87a1.09,1.09,0,0,0,.26,0,1,1,0,0,0,.81-1.59l-5.4-7.47,6.72,3.26a1,1,0,0,0,1-.07l7.06-4.68,1.76-.42,2.85,3.72-2.69,4.36a1,1,0,0,0,.1,1.18l4.94,5.72a1,1,0,0,0,.76.34h.09l5.33-.52-.19-2-4.82.47-4.12-4.77,2.66-4.33a1,1,0,0,0-.06-1.13l-2.72-3.56,6.55-1.56a1,1,0,0,0,.77-1v-5.23l22.64-3.7c-2.87,4.63-5.23,8.62-5.53,9.65-.52,1.74-11.92,17.3-19,26.71a1,1,0,0,0-.2.66c.62,10.8,1,10.8,2,10.8.4,0,.8,0,6.23-4l10.59-3.46,8.46,1.76,2.69,10a1,1,0,0,0,.49.62,1,1,0,0,0,.47.12.87.87,0,0,0,.32-.06,58.26,58.26,0,0,1,12.29-2.69l5.59,8a1,1,0,0,0,.82.43l8.52,0,3.22,5.88a1,1,0,0,0,.88.52h.08l9.28-.78-.17-2-8.63.72L259,285.38a1,1,0,0,0-.87-.52l-8.6,0L245,278.45a5.88,5.88,0,0,1,1.54.32c5,1.89,13.91-3.69,14.91-4.34a1,1,0,0,0,.46-.86,1,1,0,0,0-.49-.84,61.73,61.73,0,0,1-6-4,45.07,45.07,0,0,1,6.13-2.61c.85.33,4.53,2.06,7,3.22l7.82,4.66a.94.94,0,0,0,.4.13h0L287,275.25a1,1,0,0,0,.35,0l10-2.43-5,6,1.54,1.28,6.11-7.42,3.92,4.83,2,5.14,1.86-.73-1.69-4.25,10.46-2.9,4.57,3.41c-2,4.84-1.73,5.44-1.56,5.79a1.2,1.2,0,0,0,.67.58c.15.05.6.18,10.62.1l-11,9L305.59,301h-6.41v2h6.65a1,1,0,0,0,.46-.11L321,295.37l.18-.12,12.73-10.41,8.19,4.64,1-1.74-2.27-1.28c1.19-.26,2.83-.66,5.09-1.21,1.76-.44,3.76-.93,4.18-1h0c.46,0,2-.53,15.49-7.91l20.1-7.7a.65.65,0,0,0,.22-.11l4.49-3.15a1,1,0,0,0,.38-.54l2.74-9.49a1,1,0,0,0-.58-1.2l-10.41-4.28-7.63-6.07.26,0c3.38.65,21.38,6,21.56,6a1.59,1.59,0,0,0,.38.06l36,2.31ZM177.86,258.42l5.56,4.55,9.81,7.7,3.08,7a1,1,0,0,0,.38.44l13,8.13.84.84-17.87-4.6-3.44-7.82a1.27,1.27,0,0,0-.18-.27c-1.94-2.15-8.3-9.11-9.84-10C178.76,263.8,178.22,261.19,177.86,258.42Z"/><path class="cls-3" d="M215.82,200.11c.58.83,2.61,8,4.24,14.43l1.94-.49c-1.06-4.21-3.65-14.12-4.66-15.25Z"/><path class="cls-3" d="M260.86,260.12h2v-5.55a1,1,0,0,0-.07-.38c-2.45-6-6.65-16.13-7.17-16.78l-1.6,1.19c.47.77,4.41,10.24,6.84,16.17Z"/></svg>