<svg id="Layer_1" data-name="Layer 1" xmlns="http://www.w3.org/2000/svg" viewBox="0 0 481.89 481.89"><defs><style>.cls-1{fill:#f9d7ed;}.cls-2{fill:#fff;}.cls-3{fill:#2a1d75;}</style></defs><title>AI_general_purpose_artificial_intelligence</title><path class="cls-1" d="M389.28,234.08a8.43,8.43,0,0,0,1.26-4,1.71,1.71,0,0,0-.12-.71l-18-47.44a1.76,1.76,0,0,0-2.28-1l-.07,0a11.94,11.94,0,0,0-.3-1.67c-.15-.52-1-1.37-2.66-2.54l1.57-1.52c-.12-.13-6.35-6.56-13.73-14.06l.19,0c.32-2.26-6.23-23.1-6.3-23.31-2.4-7.6-7-10.81-11.78-12.44v0a14.07,14.07,0,0,0-2.08-.6c-.62-.16-1.23-.3-1.85-.43-5.49-1.13-59.3-4.86-67.74-4.67-2,0-5.89.09-10.78.15-15.08.2-37.88.49-45,1-10.11.69-34.37,4.84-41.56,6.1h0l-32.92,6.58L85,125.34a1.73,1.73,0,0,0-1.51.48,1.77,1.77,0,0,0-.5,1.51,305.93,305.93,0,0,1,1.21,87.23,1.75,1.75,0,0,0,1.74,2H86l54.3-3.73.33-.06,14.26-3.81a74.8,74.8,0,0,0,28.85,25.8c14.43,7.16,25.87,9,33.89,9a37.67,37.67,0,0,0,12.42-1.84c2.47,2.07,4.94,4,7.11,5.65,5.17,3.84,7.38,4.78,8.65,4.78a1.9,1.9,0,0,0,.25,0c1.5,1.85,4.23,3.31,9,3.48a15.62,15.62,0,0,0,7.72,2.67c.59,0,3.76.06,8.06.06,8,0,19.87-.09,26.09-.38,4.11,4.79,3.47,9,3.15,10.25l-.69,2.64a3.82,3.82,0,0,0-2.61,2.49,3.4,3.4,0,0,0,.54,2.69l-.38,1.3c-4.5.2-7.19,1.38-7.73,3.48s1.18,4.4,5,6.73a38.72,38.72,0,0,0,5.24,2.64c-1.36,5.26-3.63,13.84-8.56,27.53-5.09,14.12-18.65,29.75-18.79,29.91a1,1,0,0,0-.21.4l-1.44,5.55c-.64,2.47,1,5.29,4.57,7.93a39.76,39.76,0,0,0,13.26,5.9,44.25,44.25,0,0,0,10.88,1.48,27.36,27.36,0,0,0,3.59-.22c4.41-.57,7.19-2.24,7.83-4.71h0L312,358.6h0a.9.9,0,0,0,0-.46c0-.21-4.33-20.45-1.94-35.27A286.79,286.79,0,0,1,316,294.63a42.84,42.84,0,0,0,4.41.25c4.76,0,8.4-1,9-3.49.54-2.11-1.22-4.46-5.1-6.82l.39-1.33a3.35,3.35,0,0,0,1.71-2.06,3.31,3.31,0,0,0-.33-2.32l15.57-7.55,3.63,3.71a2,2,0,0,0,1.45.59,1.77,1.77,0,0,0,.32,0c4.46-.55,40.26-23.35,42.88-29.7a2.62,2.62,0,0,0-.06-2.44,10,10,0,0,0,.61-3.63A14.59,14.59,0,0,0,389.28,234.08Zm-65.95-13.76,6.26,3c4.08,10.12,6.29,15.55,7.5,18.48-.88-.14-2.22.55-5.85,2.57a16.43,16.43,0,0,0-1.9-1.52,6.1,6.1,0,0,0,1.2-2.4,5.94,5.94,0,0,0-11.51-3,6.19,6.19,0,0,0-.12,2.69,15.91,15.91,0,0,0-2.64.48s0-.05,0-.07c-1.14-6.62-3.75-11.6-7.77-14.89C317.41,223.19,321.46,221.48,323.33,220.32Z"/><path class="cls-2" d="M279.45,244.65H259a15.36,15.36,0,0,1-9.27-4.43,1.08,1.08,0,0,1-.24-.64l-.07-4.19a1,1,0,0,1,.75-1,1,1,0,0,1,1.13.48h0s1.38,2,7.91,3.18l20.26.33a1,1,0,0,1,1,1v4.26A1,1,0,0,1,279.45,244.65Z"/><path class="cls-2" d="M232.62,225.16a1,1,0,0,1-.68-.26l-6-5.56a1,1,0,0,1-.32-.74v-4.49a1,1,0,0,1,.57-.9,1,1,0,0,1,1.06.12l6.35,5.16a1,1,0,0,1,.37.84l-.32,4.9a1,1,0,0,1-.63.86A1,1,0,0,1,232.62,225.16Z"/><path class="cls-2" d="M297.81,176.69a1,1,0,0,1-.6-.2c-.12-.1-12.57-9.39-18.54-9.8a1,1,0,0,1-.88-.67,1,1,0,0,1,.28-1.07l3.35-3a1,1,0,0,1,.63-.25c6.86-.22,19.58,9.34,20.12,9.75a1,1,0,0,1,.07,1.54l-3.76,3.42A1,1,0,0,1,297.81,176.69Z"/><path class="cls-2" d="M323.91,160.45a1.06,1.06,0,0,1-.42-.09c-.08,0-8.78-4-13.27-5.86a17.45,17.45,0,0,0-9.1-.77,1,1,0,0,1-1.11-1.4l1.45-3.11a1,1,0,0,1,.59-.52c2.67-.89,8.38.35,10.7,1.18,2.95,1.05,13.67,5.75,14.13,6a1,1,0,0,1,.58.72,1,1,0,0,1-.26.88l-2.57,2.71A1,1,0,0,1,323.91,160.45Z"/><path class="cls-2" d="M335.25,148.81a1,1,0,0,1-.81-.42c-.07-.1-7.53-10.22-18-10.47a1,1,0,0,1-.82-1.54l1.41-2.19a1,1,0,0,1,.66-.44c9.79-1.81,21.15,11,21.63,11.53a1,1,0,0,1-.26,1.53l-3.27,1.86A1,1,0,0,1,335.25,148.81Z"/><path class="cls-2" d="M343.77,140.84c-1.18-2.51-4.67-9.32-6.6-10.67a59.92,59.92,0,0,0-7.9-4l.78-1.84a58.94,58.94,0,0,1,8.26,4.24c2.72,1.9,6.81,10.49,7.27,11.46Z"/><path class="cls-2" d="M372.25,202a1,1,0,0,1-.94-.66c-2.78-7.77-7.43-20.48-8.05-21.48-.37-.53-2.6-1.7-4.44-2.46a1,1,0,0,1-.6-.72,1,1,0,0,1,.26-.9l2.26-2.32a1,1,0,0,1,1.13-.21c.79.36,4.79,2.21,5.75,3.16s5.11,12.54,8.52,22.2a1,1,0,0,1-.37,1.15l-2.94,2.06A1,1,0,0,1,372.25,202Z"/><path class="cls-2" d="M351.14,216.89H351a1,1,0,0,1-.71-.56c-.08-.15-7-14.87-9.51-19.25l-5.2-2.3A1,1,0,0,1,335,194a1,1,0,0,1,.28-.9l3-3a1,1,0,0,1,1.08-.21c4.72,1.94,5.89,2.91,6.36,3.47a1.64,1.64,0,0,1,.14.22l9,19.24a1,1,0,0,1-.23,1.16l-2.81,2.58A1,1,0,0,1,351.14,216.89Z"/><path class="cls-2" d="M104.77,147.05h0L87,146.74a1,1,0,0,1-1-1l.16-9.35a1,1,0,0,1,1-1c1,0,20.07,1.72,22.24,1.92A1,1,0,0,1,110,139a22.84,22.84,0,0,0-4,6.75l-.32.71A1,1,0,0,1,104.77,147.05Z"/><path class="cls-3" d="M393.23,230.26a8.46,8.46,0,0,0,1.25-4,1.58,1.58,0,0,0-.11-.71l-18-47.44a1.75,1.75,0,0,0-.93-1,1.71,1.71,0,0,0-1.35,0l-.08,0a10.64,10.64,0,0,0-.3-1.67c-.14-.52-1-1.37-2.65-2.54l1.57-1.52c-.12-.13-6.35-6.56-13.74-14.06l.19,0c.33-2.26-6.22-23.1-6.29-23.31-2.4-7.6-7-10.81-11.78-12.44v0A15.15,15.15,0,0,0,339,121c-.62-.16-1.24-.31-1.86-.44-5.49-1.13-59.3-4.86-67.74-4.67-2,0-5.85.09-10.7.16-15.11.19-38,.48-45.07,1-10.12.68-34.37,4.83-41.57,6.09h0l-32.93,6.59-50.16-8.2L88.35,125l48.93,8a17.08,17.08,0,0,0-5,7c-8.21,20-6.86,40.7,3.88,59.84a21.63,21.63,0,0,0,4.7,5.87l-51.1,3.51.24,3.5L144.27,209a1.88,1.88,0,0,0,.33-.05l14.26-3.82a74.8,74.8,0,0,0,28.85,25.8c14.43,7.17,25.87,9,33.89,9A37.68,37.68,0,0,0,234,238.11c2.47,2.06,4.94,4,7.11,5.64,5.17,3.84,7.39,4.78,8.66,4.78a2.13,2.13,0,0,0,.25,0c1.5,1.85,4.23,3.32,9,3.49a15.68,15.68,0,0,0,7.72,2.66c.59,0,3.78.07,8.1.07,8,0,19.84-.1,26.05-.38,4.11,4.78,3.46,9,3.14,10.24l-.68,2.64a3.82,3.82,0,0,0-2.61,2.49,3.43,3.43,0,0,0,.54,2.7l-.38,1.3c-4.51.19-7.19,1.38-7.73,3.48s1.18,4.39,4.95,6.73a38.15,38.15,0,0,0,5.24,2.63c-1.36,5.26-3.63,13.84-8.56,27.53-5.09,14.12-18.65,29.75-18.79,29.91a1,1,0,0,0-.21.41L274.41,350c-.64,2.47,1,5.28,4.57,7.92a39.76,39.76,0,0,0,13.26,5.9,44.25,44.25,0,0,0,10.88,1.48,29,29,0,0,0,3.58-.21c4.42-.58,7.2-2.25,7.84-4.72l1.43-5.55a1,1,0,0,0,0-.46c0-.2-4.33-20.45-1.94-35.27a286.79,286.79,0,0,1,5.86-28.24,42.94,42.94,0,0,0,4.41.26c4.76,0,8.39-1,9-3.5.55-2.11-1.21-4.46-5.09-6.82l.38-1.31a3.38,3.38,0,0,0,1.71-2.07A3.28,3.28,0,0,0,330,275l15.58-7.54,3.62,3.7a2,2,0,0,0,1.45.6l.33,0c4.46-.56,40.26-23.36,42.88-29.7a2.68,2.68,0,0,0-.06-2.45,10,10,0,0,0,.61-3.63A14.69,14.69,0,0,0,393.23,230.26ZM364.5,255a1.79,1.79,0,0,0-.4-.09l-.77-.06a9.4,9.4,0,0,0,2.16-6,9.2,9.2,0,0,0-.69-3.52c1.21-.61,2.32-1.19,3.27-1.71a6.74,6.74,0,0,0,1.24-.87,7,7,0,0,1,.59,3.86C369.37,250.46,365.92,253.76,364.5,255ZM258,245.7a13.89,13.89,0,0,1-7.78-3.57c0-.54,0-1.07,0-1.6a21.81,21.81,0,0,0,7.55,2.56l.17,0,19.36.31v2.28Zm1.23-16.14h-.12c-1,0-1.88-.57-1.88-1.21s.88-1.22,1.88-1.22a2.12,2.12,0,0,1,1.72.75A22.72,22.72,0,0,0,259.18,229.56Zm-1.37,1.83c-.16.25-.31.5-.44.75-1.92-.55-3.29-1.89-3.34-3.44a14,14,0,0,1,1.41-1.47,2.71,2.71,0,0,0-.26,1.13A3.33,3.33,0,0,0,257.81,231.39Zm-5.25-.56a6.66,6.66,0,0,0,4.14,3.22c-.09.87-.36,3.66-.52,6.67-3.88-.93-5.42-2.09-5.92-2.57A18.47,18.47,0,0,1,252.56,230.83Zm9.71-4.28a4.16,4.16,0,0,0-3.21-1.41,4.77,4.77,0,0,0-1.08.14c.23-.15.47-.29.7-.42l.57,0A6.29,6.29,0,0,1,263,226Zm2.32-1.84a7.48,7.48,0,0,0-2.27-1.32,8.88,8.88,0,0,1,4.22-.06C265.92,223.75,265.26,224.21,264.59,224.71Zm6.66-3.85c-1.17-.51-4.91-2.16-7.33-3.52-1.86-1-11.88-9.31-19.57-15.8,9.2-2.06,31.53-7.62,38.88-11.29l9,4.85a15.36,15.36,0,0,0-5.68,5.84,1.74,1.74,0,0,0-.12,1.34,1.71,1.71,0,0,0,.87,1c1.06.55,4.82,2.36,9.69,4.69-1.7,3.69-3.77,9.13-3.29,12.89A203.53,203.53,0,0,0,271.25,220.86Zm-31.06-22a2.29,2.29,0,0,0-.28.09h0c-7.81,2.78-16.23,7-17.18,21.62-.14,2.11-.19,3.9-.16,5.46-.25,1,.21,2.14,6.58,7.88.55.49,1.11,1,1.68,1.48a35.77,35.77,0,0,1-4.16.73,13.64,13.64,0,0,1-7.51-8.11c-1.46-3.74-.35-12.75,2.41-19.65,3.51-8.8,15.07-10.49,23.34-10.51C242.73,198.34,241.06,198.7,240.19,198.85Zm-13.8,20.21,4.52,3.67-.15,2.3-4.49-4.14-.06.06a1,1,0,0,0,0-.17C226.26,220.18,226.33,219.62,226.39,219.06ZM299,145.92a6.94,6.94,0,0,1,2.35-1.43c-2.66,3.28-3.57,9.06-3.88,12.76-.39-.18-.83-.38-1.31-.56C296,154.87,295.7,149,299,145.92ZM319,134.43c6.94-.05,14.82,7.48,17.37,10.12l-1.43.81c-1.8-2.22-7.82-8.85-16.28-10.29ZM317.79,137c9.44,1.35,16,10.2,16,10.3a1,1,0,0,0,1.31.28l3.28-1.87a1,1,0,0,0,.25-1.52c-.42-.49-9.47-10.66-18.35-11.63a2.6,2.6,0,0,1,1.43-.84c3.65-.4,9.6,3.66,13.59,7.29,5.8,5.28,18.5,18.15,26.85,26.69-9.46-5.08-27.93-15-33-17.44a85.47,85.47,0,0,0-13.43-4.41A42.59,42.59,0,0,1,317.79,137ZM375,197.5l-1.25.88c-2.11-5.88-7.1-19.64-7.86-20.71s-2.76-2-4.19-2.69l.64-.83a34.63,34.63,0,0,1,4.81,2.56C367.85,177.75,372.21,189.72,375,197.5Zm-21.75,49c-7.45,2.54-11.11-1.77-11.94-2.94-.6-1.34-5.54-13.52-8.87-21.78V214c1.1-2.78,5.33-6.9,12-11.72,2.81,5.67,5.93,12.28,6,12.38a1,1,0,0,0,.71.55.62.62,0,0,0,.19,0A1,1,0,0,0,352,215l2.81-2.58a1,1,0,0,0,.23-1.16L349.27,199c1.05-.69,2-1.28,2.72-1.74l15.94,38.92a3.5,3.5,0,0,1-1.54,4.4A86.69,86.69,0,0,1,353.22,246.46Zm.7,6.59a38,38,0,0,1-5.73-2.34l.67,0a17,17,0,0,0,5.49-1l1.9-.68A4.68,4.68,0,0,1,353.92,253.05Zm-63.25-52c1.25-1.63,3.57-3.92,6.42-3.37l28.66,15.4a1.76,1.76,0,0,0,2.52-1.06s.08-.31.23-.77a7.93,7.93,0,0,0,1,.69,9.17,9.17,0,0,0-.52,1.19,1.84,1.84,0,0,0-.09.57v5.59C321.18,215.65,297.74,204.51,290.67,201.07Zm-6.4-14.23c-6.24-5.4-4.72-14.19.09-20.53,6.28,1.36,17.23,9.54,17.35,9.62a1,1,0,0,0,1.27-.06l3.76-3.42a1,1,0,0,0-.07-1.53c-.45-.34-9.42-7.09-16.34-9.16a11.22,11.22,0,0,1,6.78,0l43.29,23.56c-8.12,5.51-13.14,18.6-14.85,23.71Zm3.21-23.64c5.3.48,14.09,6.5,17,8.6l-2.25,2c-2.39-1.74-10.56-7.47-16.45-9.21A12.71,12.71,0,0,1,287.48,163.2ZM303,148.49c2.09-.39,6.66.43,9,1.27s9.67,4,12.69,5.33l-1.1,1.16c-2.11-1-8.88-4-12.68-5.59a18.16,18.16,0,0,0-8.31-1.15C302.71,149.16,302.85,148.81,303,148.49Zm39.78,39.45a19.49,19.49,0,0,1,7,6.52c-.59.37-1.28.81-2,1.31L346,192a1,1,0,0,0-.14-.22c-.4-.49-1.34-1.28-4.65-2.75A14.7,14.7,0,0,1,342.77,187.94Zm8.76,5.46h0l0,0,0,0Zm-20,11.57a2,2,0,0,1,4-.07c-.78.71-1.5,1.39-2.15,2A2,2,0,0,1,331.54,205Zm5.68-1.53a4,4,0,0,0-3.69-2.47,3.92,3.92,0,0,0-1,.14c.36-.73.73-1.47,1.13-2.2a6,6,0,0,1,5.19,3.19C338.3,202.55,337.75,203,337.22,203.44Zm3.25-2.56a8,8,0,0,0-5.7-3.88c.67-1.14,1.39-2.25,2.16-3.31l4,1.75c.49.88,1.17,2.18,1.94,3.7Q341.6,200,340.47,200.88Zm2-6.72a1,1,0,0,0-.47-.41l-3.8-1.68c.45-.54.92-1.06,1.4-1.54C343,192,344,192.72,344.26,193l8.64,18.45-1.27,1.16C349.83,208.84,344.46,197.6,342.47,194.16Zm-11.92,16.09a6,6,0,0,1-1.35-1.06c.24-.68.52-1.45.85-2.3a4,4,0,0,0,1.81,1.69C331.37,209.16,330.93,209.71,330.55,210.25Zm22-18.6-.19-.16c.26-.55.62-1.33,1.07-2.24.1.11.2.2.31.3Zm2.33-3.77a1.68,1.68,0,0,1-.41-.75c.34-.7.71-1.42,1.08-2.16a1.78,1.78,0,0,1,2.07.55A16.24,16.24,0,0,0,354.84,187.88Zm4.39-3.48a3.77,3.77,0,0,0-2.62-1.51c.4-.75.8-1.49,1.2-2.18a6.16,6.16,0,0,1,3.47,2.47C360.52,183.61,359.84,184,359.23,184.4Zm3.8-2.18a8.28,8.28,0,0,0-4.18-3.29c.48-.78.95-1.48,1.36-2l.22-.29a14.15,14.15,0,0,1,3.79,2.18,23.57,23.57,0,0,1,1,2.3C364.42,181.49,363.69,181.86,363,182.22Zm-35.35-30.86c5.18,2.53,25.38,13.36,34.25,18.13a22.75,22.75,0,0,0-3.61,4.12l-.89,1.17c-2.8,3.66-7.2,12.9-8.41,15.49a21.3,21.3,0,0,0-4.16-3.41,1.73,1.73,0,0,0,.06-3.08l-44.08-24a41,41,0,0,1,1.12-8.21,16.75,16.75,0,0,1,8.17.91c4.49,1.89,13.19,5.82,13.28,5.86a1,1,0,0,0,.41.09,1,1,0,0,0,.72-.31l2.57-2.71a1,1,0,0,0,.26-.88,1,1,0,0,0-.58-.72c-.46-.2-11.18-4.9-14.13-6a29,29,0,0,0-8.34-1.49,2.79,2.79,0,0,1,1.33-.84C307.74,145.13,322.57,148.86,327.68,151.36Zm-45.34,11.86c-5.31,6.34-7.72,15.7-3.42,22.7a13.5,13.5,0,0,1-5.75-7.09c-1.21-4,0-8.67,3.62-13.85,2.94-4.22,6.43-6.71,10.37-7.41a14.38,14.38,0,0,1,5.71.2A14.65,14.65,0,0,0,282.34,163.22Zm15.1,58.07c-1.05-1,.21-6.2,2.74-11.77l18.88,9a143.36,143.36,0,0,1-14.93,4.69,22.58,22.58,0,0,0-4.36-1.48C299.07,221.56,298.29,221.42,297.44,221.29Zm25.6-.89,6.25,3c4.08,10.12,6.3,15.55,7.51,18.48-.89-.14-2.23.55-5.85,2.57A16.54,16.54,0,0,0,329,242.9a6.18,6.18,0,0,0,1.21-2.4,5.95,5.95,0,0,0-11.52-3,6,6,0,0,0-.11,2.69,15.84,15.84,0,0,0-2.65.48.2.2,0,0,0,0-.07c-1.14-6.62-3.75-11.6-7.77-14.89C317.11,223.27,321.16,221.56,323,220.4Zm12.67,32.4,1.39.36.12.05.48,1.51a10.75,10.75,0,0,0-1.69.05A16.14,16.14,0,0,0,335.71,252.8Zm-19.53-10.1a13.79,13.79,0,0,1,3.26-.53,6.25,6.25,0,0,0,3.63,2.32,7.44,7.44,0,0,0,1.93.26,5.34,5.34,0,0,0,2.39-.53A14,14,0,0,1,334,255.08c-.62.14-1.27.31-1.95.53a1.58,1.58,0,0,1-.86,0l-18.64-4.82A9.32,9.32,0,0,0,316.18,242.7Zm12.13-2.7a3.64,3.64,0,0,1-1.58,2.33,5,5,0,0,1-5.82-1.51,3.65,3.65,0,0,1-.24-2.8,3.94,3.94,0,0,1,3.81-3,4.29,4.29,0,0,1,1,.13,3.91,3.91,0,0,1,2.41,1.82A4,4,0,0,1,328.31,240Zm-15.8,1.22c1.08,6.2-3,8.07-7.65,9.17-.41.09-.74.17-.91.23-.7.15-4.25.29-8.9.4-3.14-.92-6.5-2.65-6.5-5.86,0-6.89,1.42-10.76,4.61-12.56,2.5-1.41,11.3-1.07,15.9-.72A24,24,0,0,1,312.51,241.22Zm-2.3,11.06,20.5,5.3a3.56,3.56,0,0,0,.86.11,3.64,3.64,0,0,0,1.12-.18,12.05,12.05,0,0,1,5.9-.67,1.23,1.23,0,0,0,1.14-.39.9.9,0,0,0,.17-.26l1.68,2.06a1,1,0,0,1,.19.89l-.41,1.6-8.83.25a2.53,2.53,0,0,1-.68-.07l-24.37-6.3a2.35,2.35,0,0,1-.63-.27l-1-.6A21.65,21.65,0,0,0,310.21,252.28Zm32,10.35a1.53,1.53,0,0,0,1-1.06l.5-1.93a3,3,0,0,0-.57-2.65c-1-1.25-3-3.66-3.91-4.75a3.1,3.1,0,0,0-1.63-1l-2.54-.66a16.5,16.5,0,0,0-1.78-3.44c1.14-.63,1.94-1,2.47-1.32a26.65,26.65,0,0,0,5,4.63,49.24,49.24,0,0,0,12.91,6.19c1.49.42,2.95.73,4.27,1l-28,13.55c.48-1.76,2.73-7.08,12.26-8.47Zm14.1-8.93a6.66,6.66,0,0,0,1.92-4.7c0-.23,0-.45,0-.68,1.69-.69,3.29-1.4,4.76-2.1a7.16,7.16,0,0,1,.51,2.63,7.57,7.57,0,0,1-2.65,5.68C359.56,254.35,358,254.09,356.33,253.7ZM387,235.62a6.17,6.17,0,0,1-1.43,6.11,30.81,30.81,0,0,1-9.88-2.08,59.26,59.26,0,0,0,6-1.75A37.3,37.3,0,0,0,387,235.62Zm1.79-1.07a16.46,16.46,0,0,0,3-2.44,12,12,0,0,1,.39,5.89,3.8,3.8,0,0,1-2.67,3.15l-.16.06a5.84,5.84,0,0,1-1.15.32A8.36,8.36,0,0,0,388.82,234.55Zm2.14-8.14c-.72,6-12.74,9.35-19.29,10.53a7.21,7.21,0,0,0-.5-2.11l-16.4-40.05,2.22-3.93c.42-.75,2.19-2.81,9.46-6.47,1.75,4.64,4.13,11.18,5.83,15.9a1,1,0,0,0,.63.62,1,1,0,0,0,.88-.13l2.95-2.07a1,1,0,0,0,.37-1.15c-1.86-5.27-4-11.14-5.65-15.53.88-.39,1.67-.73,2.3-1Zm-19.12-50.33a15,15,0,0,1,.28,1.84c-.56.24-1.22.52-1.93.84a18,18,0,0,0-1.61-3.41,26.43,26.43,0,0,0-4.89-2.76,2.49,2.49,0,0,1,1.81-.93C368.55,173.54,371.36,175.44,371.84,176.08Zm-22.36-41c2.17,6.87,4.16,13.78,5.26,18-6.53-6.6-13.25-13.26-17-16.72a46.19,46.19,0,0,0-7.48-5.59,5.8,5.8,0,0,1,2.35-4.46,49.08,49.08,0,0,1,6.59,3.47c1.93,1.35,5.42,8.16,6.6,10.67l1.81-.85c-.46-1-4.55-9.56-7.26-11.46a43,43,0,0,0-5.68-3.08,4.69,4.69,0,0,1,3.53-.69C342.6,125.51,347.16,127.76,349.48,135.11ZM143.9,205.48a17.64,17.64,0,0,1-6-6.63c-10.44-18.59-11.75-38.68-3.79-58.1,2.23-5.43,5.7-7.33,7.42-8l19.4-3.88a37.2,37.2,0,0,0-6.26,8.08c-.15.26-.28.48-.4.66-1.67,2.67-12.2,27.76-5.28,47.52A90,90,0,0,0,156.88,202Zm45.36,22.29a72.65,72.65,0,0,1-28.39-26.08l-.19-.71-.23.07a84.38,84.38,0,0,1-8.18-17c-6.48-18.51,3.38-42,4.94-44.52l.43-.7c1.93-3.21,6.46-10.73,15-12.24h.07c7.18-1.25,31.23-5.37,41.17-6,7-.48,30.72-.78,44.88-1,4.85-.07,8.74-.12,10.72-.16,6.73-.16,46.07,2.47,61.32,3.93l0,0a8.75,8.75,0,0,0-3.8,5.81,11.59,11.59,0,0,0-5.58-1c-5.42.64-8,10.32-9,14.8-1-.21-1.89-.4-2.75-.54v-.07c-5.26-1.16-9.29-.46-12,2.08-3.52,3.32-3.69,8.83-3.53,11.53a16.43,16.43,0,0,0-7.26-.4c-4.5.79-8.43,3.56-11.69,8.23-4,5.72-5.3,11-3.89,15.59s5.35,7.56,7.7,8.88c-6.37,2.46-18.1,5.64-27.12,7.87a63,63,0,0,0-12.39-.09c-10.32,1-17.14,5-19.74,11.51s-4.25,16.4-2.42,21.13a17,17,0,0,0,5.7,7.64C215.42,236.58,204,235.07,189.26,227.77Zm47.92,8.42c-6.09-5-10.24-9.08-11.11-10.26,0-.76,0-1.59,0-2.49l4.85,4.47a1,1,0,0,0,1.05.2,1,1,0,0,0,.63-.86l.32-4.9a1,1,0,0,0-.37-.85l-5.83-4.72c1.78-8.85,7.27-11.93,13.4-14.21,4,3.38,19.26,16.25,22.07,17.83l1.41.75a16.77,16.77,0,0,0-9.18,4.27c-4.91,4.23-7.11,11.14-6.06,19A83.86,83.86,0,0,1,237.18,236.19ZM250.51,245a16.64,16.64,0,0,0,5.68,2.43,6.37,6.37,0,0,0,.59,2.38C253.19,249.24,251.12,247.65,250.51,245Zm16.5,6.18a11.49,11.49,0,0,1-7.16-3,3,3,0,0,1-.1-.41h18.46a1,1,0,0,0,1-1v-4.26a1,1,0,0,0-1-1l-18.56-.3c.16-3.06.45-6,.53-6.79,1.34-3.62,9-8.74,11.23-10,2.83-.14,20.25-.92,27.56.78a16.25,16.25,0,0,1,8.39,4.62c-4.57-.27-12.38-.48-15.2,1.11-3.88,2.2-5.62,6.61-5.62,14.3,0,2.74,1.6,4.64,3.71,6C280.78,251.27,269.49,251.32,267,251.16Zm36.87,3.76,1.95,1.16a4.42,4.42,0,0,0,1.15.47l24.37,6.3a4.19,4.19,0,0,0,1.12.14h.12l2.18-.06a12.76,12.76,0,0,0-6.76,7.84l-.83,3.21c-.35,1.35-5.14,2.19-11.85.46s-10.49-4.8-10.14-6.14l.83-3.22C306.36,263.77,307,259.67,303.88,254.92Zm-1.16,15.29a1.41,1.41,0,0,1,.64-.74c1,2.85,6.09,5.51,11.47,6.91a31,31,0,0,0,7.52,1c2.55,0,4.68-.47,5.87-1.52a1.41,1.41,0,0,1,.19,1c-.17.66-1.33,1.45-4.07,1.7a30.23,30.23,0,0,1-9.8-1.06C306.7,275.47,302.31,271.83,302.72,270.21Zm3.73,92.84a42.13,42.13,0,0,1-26.29-6.79c-2.84-2.09-4.23-4.21-3.81-5.81L277,348a15.52,15.52,0,0,0,3.82,3.14,50,50,0,0,0,13.33,5.34,53.71,53.71,0,0,0,12.81,1.8,18,18,0,0,0,6.3-.92l-.64,2.47C312.19,361.42,309.94,362.6,306.45,363.05Zm5.62-44.33c-2.32,14.39,1.34,33,1.89,35.7-.87,2-8.39,2.94-19.33.11a48.15,48.15,0,0,1-12.78-5.1c-3.12-1.93-4.13-3.51-4.08-4.36,1.78-2.07,14-16.6,19-30.31s7.17-22.15,8.55-27.46a64,64,0,0,0,6.22,2,62.51,62.51,0,0,0,6.4,1.29A287.24,287.24,0,0,0,312.07,318.72Zm19.34-31.66c-.54,2.06-8.18,3.16-19.41.26a48,48,0,0,1-12.78-5.11c-3.33-2.06-4.27-3.72-4.07-4.52s1.77-1.75,5.41-2a1.51,1.51,0,0,0,.13.29c1.91,2.56,6.67,5.08,12.43,6.57a34.9,34.9,0,0,0,8.58,1.2,13.29,13.29,0,0,0,5.6-1,1,1,0,0,0,.21-.15C330.68,284.63,331.62,286.24,331.41,287.06Zm-5.37-5.9c-2.54,1-7.43.77-12.42-.52s-9.2-3.41-11-5.45l.29-1c2.51,2.2,6.81,4.13,11.15,5.25a35.18,35.18,0,0,0,8.58,1.19c.66,0,1.29,0,1.9-.08a13.43,13.43,0,0,0,1.78-.27Zm25.06-13.05-2.19-2.23,15.86-7.69a1.73,1.73,0,0,0,1-1.64c1.57-1.32,5.51-5,6.15-9.66a8.92,8.92,0,0,0-1.18-5.8c.09-.16.18-.32.26-.49l1.21-.21c6.23,2.65,10.71,3.35,13.64,3.35a16.35,16.35,0,0,0,2.33-.16c-2.66,2.45-7.71,6.44-16.54,12.33C361.66,262.53,353.56,267.14,351.1,268.11Z"/><path class="cls-3" d="M102.6,142.07l-14.11-.3,0,2,14.77.31h0a1,1,0,0,0,.91-.59l.33-.71a22.81,22.81,0,0,1,4-6.75,1,1,0,0,0,.22-1,1,1,0,0,0-.84-.64c-1.87-.2-18.28-1.93-19.25-1.93v2c.68,0,10,1,17.18,1.72a30.6,30.6,0,0,0-3.16,5.82Z"/></svg>