<svg id="Layer_1" data-name="Layer 1" xmlns="http://www.w3.org/2000/svg" viewBox="0 0 481.89 481.89"><defs><style>.cls-1{fill:#f9d7ed;}.cls-2{fill:#fff;}.cls-3{fill:#2a1d75;}</style></defs><title>Augmented_reality</title><path class="cls-1" d="M292.35,223.54h.53a1.75,1.75,0,0,0,1.75-1.75V208a1.75,1.75,0,0,0-1.75-1.75h-.53v-6.85h.53a1.75,1.75,0,0,0,1.75-1.75V167.19a1.75,1.75,0,0,0-1.75-1.75h-.53v-42a16.93,16.93,0,0,0-16.91-16.91H187.66a16.93,16.93,0,0,0-16.91,16.91V349.56a16.93,16.93,0,0,0,16.91,16.91h87.78a16.93,16.93,0,0,0,16.91-16.91Z"/><path class="cls-2" d="M165.68,233.6c11.83-1.5,23.45-2.95,24.83-3.12l50.24,7.31c-9,1.32-29.05,4.22-37.63,5.18-8.29.92-12.86,5.78-12.86,13.65l0,.52-24.73-3.68"/><line class="cls-2" x1="165.51" y1="253.06" x2="165.68" y2="233.2"/><path class="cls-2" d="M194.93,169.63a11.23,11.23,0,0,1,11.92-9.69l43.78,3.23a5.07,5.07,0,0,1,3,1.57c2.44,2.58,2.21,7.31,2.21,7.33L252,216.14l-62.33-6.88Z"/><path class="cls-2" d="M248.85,125.42H216.53a7.22,7.22,0,0,1-7.2-7.21c0-1.31-1.06-4.27-2.37-4.27a1,1,0,1,1,0-2h51.46a1,1,0,0,1,0,2c-1.3,0-2.36,3-2.36,4.26A7.23,7.23,0,0,1,248.85,125.42Z"/><path class="cls-3" d="M317.42,274.09V113.47h-2V273.69H285.5V228H286a1.75,1.75,0,0,0,1.75-1.75v-13.8a1.75,1.75,0,0,0-1.75-1.75h-.54v-6.85H286a1.75,1.75,0,0,0,1.75-1.75V171.64a1.75,1.75,0,0,0-1.75-1.75h-.54v-42A16.92,16.92,0,0,0,268.59,111H180.82a16.92,16.92,0,0,0-16.91,16.91V273.69h-38v2h38V354a16.92,16.92,0,0,0,16.91,16.91h87.77A16.92,16.92,0,0,0,285.5,354V275.69h30.67l39.32,20.77.93-1.77ZM246.61,114.47a4.26,4.26,0,0,0-.71,2.36,5.22,5.22,0,0,1-5.21,5.22H208.38a5.22,5.22,0,0,1-5.21-5.22,4.26,4.26,0,0,0-.71-2.36Zm-65.79,0h18a2.37,2.37,0,0,1,2.36,2.37,7.22,7.22,0,0,0,7.21,7.21h32.31a7.22,7.22,0,0,0,7.21-7.22,2.37,2.37,0,0,1,2.37-2.36h18.32A13.42,13.42,0,0,1,282,127.88V273.69H260.76l-5.24-30a79.21,79.21,0,0,1,0-13.44l5-54.3a10.07,10.07,0,0,0-9.29-11l-2.45-.18a9,9,0,0,0-1.38-.1l-42.47-3.13A13.23,13.23,0,0,0,190.83,173l-5.43,40.64a1,1,0,0,0,.2.75,1,1,0,0,0,.6.35l-1.65,13.54-17.14,2.15V127.88A13.42,13.42,0,0,1,180.82,114.47Zm-13.41,118,24.62-3.1,50.25,7.31c-9,1.32-29.05,4.22-37.64,5.18-8.29.93-12.85,5.79-12.85,13.66l0,.52-24.36-3.63Zm82.44-12.68-62.33-6.88,5.3-39.63a11.19,11.19,0,0,1,11.92-9.68l43.78,3.22a5.21,5.21,0,0,1,3,1.57c2.44,2.58,2.21,7.31,2.21,7.33Zm-57.92-4.38-1.33,12.13-.88.11,1.33-12.33Zm2,.22,53.62,5.92-.54,10c-.07,1.22-.11,2.48-.13,3.76l-54.24-7.89Zm-5.74-.63.88.1-1.38,12.8-1.08.14Zm2.45,42.89,1.09.16v78l-1.09-.41Zm3.09.05.07-2.39c0-8.65,6-11.14,11.08-11.7,10.71-1.2,39.14-5.4,42-5.82,0,.7,0,1.42.05,2.15-5.28.7-32.36,4.31-41.92,5.82-2.43.39-9.81,1.55-9.81,8.87v2h0v15.37h0v63.19l-1.48.58Zm3.48,26.87L201,308.39h-.89l-2.89-18.33Zm5.67,22.75-5.67-35.38v-3l6.2,38Zm-5.67-50.76v-1.93c0-4.94,4.11-6.26,8.12-6.89,9.44-1.5,36.05-5,41.69-5.79h0l5.19,31.48H200ZM249,241.94a92.08,92.08,0,0,1,0-10.25l.53-9.91.22,0-.07,11.84c0,1.13,0,2,.06,2.71,0,1.56,0,2.69.18,5.2,0,0,0,.08,0,.11l12.74,78-1-.54Zm15.78,78.21-12.87-78.74c-.12-2.45-.14-3.56-.17-5.09,0-.74,0-1.59-.06-2.7l.07-12.66,4-45.08c0-.22.26-5.06-2.27-8.3a8.06,8.06,0,0,1,5,8.22l-5,54.31a81.25,81.25,0,0,0,0,13.88l13.19,75.43Zm-97.37-65.71,21.22,3.16v16.09H167.41ZM282,354a13.42,13.42,0,0,1-13.41,13.41H180.82A13.42,13.42,0,0,1,167.41,354V275.69h21.22v60.66a1,1,0,0,0,.65.94l3.09,1.16a1,1,0,0,0,.35.06.89.89,0,0,0,.36-.07l3.48-1.35a1,1,0,0,0,.64-.93V302.88l1.05,6.66a1,1,0,0,0,1,.85h2.91a1,1,0,0,0,.61-.21l2.33-1.8a1,1,0,0,0,.38-.95l-5.18-31.74h52.24l7.27,44.2a1,1,0,0,0,.5.71l3.2,1.79a1.05,1.05,0,0,0,.49.13.87.87,0,0,0,.35-.07l3.87-1.45a1,1,0,0,0,.64-1.11l-7.74-44.2H282Z"/></svg>