<svg id="Layer_1" data-name="Layer 1" xmlns="http://www.w3.org/2000/svg" viewBox="0 0 481.89 481.89"><defs><style>.cls-1{fill:#f9d7ed;}.cls-2{fill:#fff;}.cls-3{fill:#2a1d75;}</style></defs><title>Biometrics</title><path class="cls-1" d="M324.11,119.27H254.72a1.75,1.75,0,0,0-1.26,3l14.1,14.59V194a19.54,19.54,0,0,0,19.52,19.52h37A19.55,19.55,0,0,0,343.63,194V138.79A19.55,19.55,0,0,0,324.11,119.27Z"/><path class="cls-1" d="M251.87,284.65c-1.68-3.67-4-8.71-4.49-12.56-.23-1.68-2.8-12.62-5.08-16-.28-7-.77-19.72-.77-21.12a35.51,35.51,0,0,0-.82-5.59,45.29,45.29,0,0,1-1-6.54c-.12-6.51,2-35.29,2.4-37.66a59.72,59.72,0,0,0-.33-15.23c-.48-3.37-1.57-23.46-1.47-28.79s-1.41-15.79-4.09-21a17.12,17.12,0,0,0-2.57-3.83c-.38-2.28-3.12-5.77-9.07-5.77-3.72,0-6.35.86-7.83,2.55a4.59,4.59,0,0,0-1.2,3.15,11.27,11.27,0,0,0-2.44,5.81c-.64,4-.49,12.81-.37,19.85,0,2.83.09,5.29.06,6.68,0,1.67,0,4,.12,6.56.14,4.65.32,10.43-.17,13-.88,4.5-2.33,29-2,34.06.48,8,0,14.93-1.1,16.74-.54-2.05-1.33-4.93-2-7.15A48.94,48.94,0,0,1,206,201.81l-.14-1.46c-.54-5.5-3.82-10.15-4.9-11.68l-.25-.37c-1.36-2-4.19-6.24-13.79-5.62-8.9.57-10.87,3.72-12.78,6.77-.21.35-.43.7-.67,1.05-1.58,2.37-1.85,7.07-.82,14l0,.29c0,.23,0,1.08,0,2.22a9.78,9.78,0,0,0-5.1-2.87c-3.82-.53-11.24,1.28-13.92,3.4-2.27,1.79-6.05,6-5.83,14.35A175.68,175.68,0,0,0,150,240c.08.5.15,1,.22,1.48a12.64,12.64,0,0,0-6.84.85c-4.77,2-8.7,5.56-9.91,8.91-.76,1-3.29,4.42-4,6.68-.27.89-1,2.66-1.74,4.36a33.46,33.46,0,0,0-2.29,6.25c-.21,1.66.44,13.33,1.48,16.11a6.62,6.62,0,0,1,.11,3.81c-.08.45-.16.89-.21,1.33-.17,1.55.66,3.18,1.4,4.62.25.5.64,1.26.68,1.43a237.52,237.52,0,0,0,4.91,25.43c1.28,4.93,7.3,17.54,11.27,25.89,1.36,2.86,2.54,5.32,2.78,6a31.46,31.46,0,0,1,1.58,6.69l.21,1.36a37.61,37.61,0,0,1,.07,6.17c-.33,3.28-.36,9.61-.32,14.07a4.07,4.07,0,0,0,4.82,4c23.15-4.33,45.77-3.36,68.16.06a4.94,4.94,0,0,0,5.67-4.49c.51-6.18,1.57-15.57,2.77-19.18a35.94,35.94,0,0,1,3.7-7.59c.81-1.38,1.72-2.94,2.81-4.93,4.3-7.93,8.13-17.67,9.12-23.15,1.14-6.31,4.14-16,6.12-22.42a60.27,60.27,0,0,0,2-7.1,19.44,19.44,0,0,0-.89-7.51A45.48,45.48,0,0,0,251.87,284.65Z"/><path class="cls-2" d="M308.62,130.17a30.46,30.46,0,0,1,14.84,3.66l1-1.74a33.92,33.92,0,0,0-31.62,0l1,1.74A30.54,30.54,0,0,1,308.62,130.17Z"/><path class="cls-2" d="M308.62,136.23c8.14,0,15.76,3.44,19.89,9l1.61-1.2c-4.58-6.12-12.61-9.77-21.5-9.77s-17,3.74-21.49,9.78l1.6,1.19C292.86,139.67,300.49,136.23,308.62,136.23Z"/><path class="cls-2" d="M319.32,142.24l-.91,1.78A21.48,21.48,0,0,1,330,160.72h-3.63a14.26,14.26,0,0,0-1.47-4.95h0c-3.65-6.6-9.75-10.54-16.32-10.54a18.29,18.29,0,0,0-14.34,7.53l1.58,1.22c3.36-4.35,7.9-6.75,12.76-6.75,5.83,0,11.28,3.56,14.57,9.51h0a12.32,12.32,0,0,1,1.19,4h-3.81c-1.06-4.35-3.25-6.18-3.34-6.26a13,13,0,0,0-8.61-3.46,12.87,12.87,0,0,0-8.34,3.24,11.3,11.3,0,0,0-3.69,6.48H293a18.3,18.3,0,0,1,1-4h0l-.91-.41-.91-.42a19.75,19.75,0,0,0-1.24,4.8h-3.73a21.57,21.57,0,0,1,28.07-18l.62-1.9a23.57,23.57,0,0,0-30.71,19.89h-3.91v2.54h5.77l3.58,0h36l3.54,0h9v-2.54h-7.14A23.47,23.47,0,0,0,319.32,142.24Zm-14.41,18.48a4.66,4.66,0,0,1,3.77-2,4.88,4.88,0,0,1,3.57,1.59.65.65,0,0,1,.21.41Zm10,0h-.11a4.63,4.63,0,0,0-1.07-1.77,6.89,6.89,0,0,0-5-2.23,6.79,6.79,0,0,0-6.09,4h-4a9.55,9.55,0,0,1,2.93-4.94,10.42,10.42,0,0,1,14.38.2,10,10,0,0,1,2.56,4.74Z"/><path class="cls-2" d="M302.15,167.23a59.21,59.21,0,0,0,12.18,29l1.58-1.23a57.05,57.05,0,0,1-11.75-27.73Z"/><path class="cls-2" d="M313.62,167.23c.83,6.46,4.45,16.48,9.75,22.09l1.46-1.37c-5.16-5.46-8.35-14.95-9.18-20.72Z"/><path class="cls-2" d="M325,167.23c.89,4.54,3.88,10.25,4,10.53l1.77-.93a48.72,48.72,0,0,1-3.75-9.6Z"/><path class="cls-2" d="M292.43,167.23h-2v1.28c.08,5.67-2.78,12.43-2.81,12.5l1.84.79c.13-.3,3.06-7.21,3-13.32Z"/><path class="cls-2" d="M319.21,167.23c.8,7.55,6.94,16.45,7.22,16.85l1.64-1.14c-.07-.09-6-8.72-6.84-15.71Z"/><path class="cls-2" d="M296,167.23c-.63,6.4-1.87,15.84-4.22,20.24l1.76.94c2.57-4.8,3.83-14.53,4.47-21.18Z"/><path class="cls-2" d="M309.81,167.23h-2a29.71,29.71,0,0,0,.54,3.37l2-.45A25,25,0,0,1,309.81,167.23Z"/><path class="cls-2" d="M309,173.59c.13.47,3.25,11.54,10.48,19.94l1.52-1.3c-6.94-8-10-19.06-10.07-19.17Z"/><path class="cls-2" d="M300.52,180.28a1,1,0,0,0-.86.7l-3.41,10.78,1.91.6,2.69-8.52,6.59,12.28,1.76-1-7.71-14.37A1,1,0,0,0,300.52,180.28Z"/><path class="cls-2" d="M212,272.08l-1.74-1a132.13,132.13,0,0,0-9.08,20.79,117.8,117.8,0,0,0-3.28,11.56,64.12,64.12,0,0,1-1.78-10.51l-2,.18c.1,1.12,1,10.61,3.07,13.75-1.64,8.63-2.24,18.2-.14,27.16l1.95-.46C192.66,306.29,211.83,272.42,212,272.08Z"/><path class="cls-2" d="M193.4,310.26l-1.92-.58c-.23.77-5.58,19,2.81,33.34l1.72-1C188.07,328.47,193.34,310.44,193.4,310.26Z"/><path class="cls-2" d="M225.24,147.16c2.58-.41,10.44-1.63,15.5.78l.86-1.81c-5.62-2.67-13.94-1.37-16.67-.95l-.75.11,0,2A7.54,7.54,0,0,0,225.24,147.16Z"/><path class="cls-2" d="M223.47,173.45l.23,2c.13,0,12.67-1.46,18.78.67l.65-1.89C236.59,171.93,224,173.39,223.47,173.45Z"/><path class="cls-2" d="M224.52,176.44l-.63,1.9a47.86,47.86,0,0,0,12.86,2.26,15.72,15.72,0,0,0,4.72-.62l-.6-1.91C235.14,179.88,224.62,176.47,224.52,176.44Z"/><path class="cls-2" d="M206.64,204.57l.31-2c-5.87-.92-17.52,2.7-18,2.85l.6,1.91C189.65,207.32,201.26,203.73,206.64,204.57Z"/><path class="cls-2" d="M237.25,316.41l.7-1.87c-9-3.39-18.12-21.06-18.21-21.24l-1.78.91C218.34,295,227.47,312.75,237.25,316.41Z"/><path class="cls-2" d="M236.77,320.2c-7.33-2.82-18-20.82-18.1-21l-1.72,1c.45.77,11.13,18.79,19.1,21.85Z"/><path class="cls-2" d="M207.25,340.48l-.91,1.78c4.18,2.16,15.09,9.11,15.41,15.23l2-.1C223.3,348.88,207.91,340.82,207.25,340.48Z"/><path class="cls-2" d="M176.78,323.94l2,0c.14-7.35,3.91-18.94,3.95-19.05l-1.9-.63C180.67,304.79,176.93,316.29,176.78,323.94Z"/><path class="cls-2" d="M222.39,211.44c.31.15,7.51,3.68,11.32,4.44l.39-2c-3.55-.71-10.75-4.24-10.82-4.27Z"/><path class="cls-2" d="M222.3,215.46a31.91,31.91,0,0,0,9.06,2.75l.27-2a30.33,30.33,0,0,1-8.43-2.56Z"/><path class="cls-2" d="M181,240.27c-2.81.2-7.33,2.14-7.52,2.22l.79,1.84c.05,0,4.4-1.89,6.87-2.06,2.89-.21,6.94-3.18,7.39-3.52l-1.2-1.6C186.21,238,182.94,240.13,181,240.27Z"/><path class="cls-2" d="M184.77,235.82l.2-2c-3.44-.33-12.68,3.16-12.77,3.19l.74,1.86C174.67,238.19,182.29,235.59,184.77,235.82Z"/><path class="cls-2" d="M222.53,257.43l.44,2c9.23-2.1,11.79-11.16,11.9-11.54l-1.93-.53C232.92,247.4,230.56,255.61,222.53,257.43Z"/><path class="cls-3" d="M330,113.1H260.62a1.75,1.75,0,0,0-1.26,3l14.1,14.59v57.15A19.53,19.53,0,0,0,293,207.32h37a19.54,19.54,0,0,0,19.52-19.51V132.62A19.55,19.55,0,0,0,330,113.1Zm16,74.71a16,16,0,0,1-16,16H293a16,16,0,0,1-16-16V130a1.78,1.78,0,0,0-.49-1.22L264.74,116.6H330a16,16,0,0,1,16,16Z"/><path class="cls-3" d="M309.88,128.05a30.57,30.57,0,0,1,14.84,3.65l1-1.74a34,34,0,0,0-31.62,0l1,1.74A30.47,30.47,0,0,1,309.88,128.05Z"/><path class="cls-3" d="M309.88,134.1c8.13,0,15.76,3.44,19.89,9l1.6-1.2c-4.57-6.11-12.61-9.77-21.49-9.77s-17,3.75-21.5,9.78l1.61,1.2C294.12,137.54,301.74,134.1,309.88,134.1Z"/><path class="cls-3" d="M320.57,140.12l-.91,1.78a21.5,21.5,0,0,1,11.64,16.7h-3.64a14.49,14.49,0,0,0-1.46-5h0c-3.65-6.59-9.75-10.53-16.32-10.53a18.28,18.28,0,0,0-14.34,7.52l1.58,1.23c3.36-4.36,7.89-6.75,12.76-6.75,5.83,0,11.27,3.55,14.57,9.5h0a12.39,12.39,0,0,1,1.19,4h-3.82c-1.05-4.36-3.24-6.19-3.34-6.27a12.43,12.43,0,0,0-17-.22,11.3,11.3,0,0,0-3.68,6.49h-3.62a19,19,0,0,1,1-4h0l-.9-.41-.91-.42a19.43,19.43,0,0,0-1.25,4.81h-3.72a21.6,21.6,0,0,1,28.07-18l.62-1.9a23.61,23.61,0,0,0-30.72,19.9h-3.9v2.53h5.76l3.58,0h36l3.53,0h9V158.6H333.3A23.43,23.43,0,0,0,320.57,140.12Zm-14.4,18.48a4.67,4.67,0,0,1,3.77-2,4.87,4.87,0,0,1,3.56,1.59.68.68,0,0,1,.21.42Zm10,0h-.1a4.51,4.51,0,0,0-1.08-1.77,6.88,6.88,0,0,0-5-2.24,6.76,6.76,0,0,0-6.09,4h-4a9.48,9.48,0,0,1,2.93-4.95,10.94,10.94,0,0,1,7.07-2.77,11.09,11.09,0,0,1,7.31,3,10.11,10.11,0,0,1,2.56,4.75Z"/><path class="cls-3" d="M303.41,165.1a59.07,59.07,0,0,0,12.18,29l1.58-1.23a56.92,56.92,0,0,1-11.75-27.73Z"/><path class="cls-3" d="M314.88,165.1c.83,6.46,4.45,16.48,9.75,22.1l1.45-1.38c-5.15-5.46-8.35-14.94-9.17-20.72Z"/><path class="cls-3" d="M326.27,165.1a47.25,47.25,0,0,0,4,10.53l1.77-.93a48.15,48.15,0,0,1-3.75-9.6Z"/><path class="cls-3" d="M293.69,165.1h-2c0,.42,0,.84,0,1.28.08,5.68-2.78,12.43-2.81,12.5l1.84.79c.12-.29,3-7.21,3-13.32C293.68,165.92,293.68,165.51,293.69,165.1Z"/><path class="cls-3" d="M320.47,165.1c.79,7.55,6.93,16.46,7.21,16.86l1.64-1.15c-.06-.09-6-8.72-6.84-15.71Z"/><path class="cls-3" d="M297.26,165.1c-.63,6.4-1.87,15.84-4.22,20.24l1.76.94c2.56-4.79,3.83-14.53,4.47-21.18Z"/><path class="cls-3" d="M311.07,165.1h-2a27.41,27.41,0,0,0,.55,3.37l1.95-.45A24.63,24.63,0,0,1,311.07,165.1Z"/><path class="cls-3" d="M310.29,171.47c.12.46,3.24,11.54,10.48,19.93l1.52-1.3c-6.94-8-10.05-19.06-10.08-19.17Z"/><path class="cls-3" d="M301.77,178.15a1,1,0,0,0-.86.7l-3.4,10.78,1.91.6,2.69-8.52L308.7,194l1.76-.94-7.71-14.37A1,1,0,0,0,301.77,178.15Z"/><path class="cls-3" d="M258.83,276.63c-1.67-3.68-4-8.71-4.49-12.56-.22-1.68-2.8-12.62-5.08-16-.28-7-.77-19.72-.77-21.12a35.51,35.51,0,0,0-.82-5.59,46.73,46.73,0,0,1-1-6.54c-.12-6.51,2-35.29,2.4-37.66a59.72,59.72,0,0,0-.33-15.23c-.48-3.37-1.57-23.46-1.47-28.79s-1.41-15.79-4.09-21a17.12,17.12,0,0,0-2.57-3.83c-.38-2.28-3.12-5.77-9.07-5.77-3.71,0-6.35.86-7.83,2.54a4.68,4.68,0,0,0-1.2,3.16,11.44,11.44,0,0,0-2.44,5.81c-.64,4-.49,12.81-.37,19.85.05,2.84.09,5.29.06,6.68,0,1.67,0,4,.12,6.57.14,4.64.32,10.42-.17,13-.87,4.5-2.33,29-2,34.06.48,8,0,14.93-1.09,16.74-.55-2.05-1.34-4.93-2-7.15a49,49,0,0,1-1.65-10.07l-.13-1.45c-.55-5.5-3.83-10.15-4.91-11.68l-.25-.37c-1.36-2-4.16-6.24-13.79-5.62-8.9.57-10.87,3.72-12.78,6.77q-.31.52-.66,1c-1.59,2.37-1.86,7.08-.82,14l0,.28c0,.23,0,1.08,0,2.22a9.78,9.78,0,0,0-5.1-2.87c-3.83-.53-11.24,1.28-13.92,3.39-2.27,1.8-6,6-5.82,14.36C155,219,156.2,227.11,157,232c.08.5.15,1,.23,1.48a12.66,12.66,0,0,0-6.85.85c-4.77,2-8.7,5.56-9.91,8.91-.76,1-3.29,4.42-4,6.68-.27.89-1,2.66-1.74,4.37a34,34,0,0,0-2.29,6.24c-.21,1.66.44,13.32,1.49,16.11a6.7,6.7,0,0,1,.1,3.81c-.08.45-.16.89-.2,1.33-.18,1.55.65,3.18,1.39,4.62.25.5.64,1.26.68,1.43a235.79,235.79,0,0,0,4.92,25.43c1.27,4.93,7.29,17.54,11.27,25.89,1.36,2.85,2.53,5.32,2.77,5.95a30.81,30.81,0,0,1,1.58,6.7l.21,1.35a37.61,37.61,0,0,1,.07,6.17c-.53,5.27-.27,18.46-.26,19l3.5-.07c0-.13-.27-13.53.25-18.59a41.29,41.29,0,0,0-.1-7.09c-.08-.44-.14-.88-.21-1.32a34.2,34.2,0,0,0-1.77-7.42c-.28-.72-1.18-2.62-2.88-6.2-3.69-7.72-9.85-20.66-11.05-25.26a244.52,244.52,0,0,1-4.8-24.55,7.23,7.23,0,0,0-1.06-3,8.57,8.57,0,0,1-1-2.64c0-.37.11-.74.18-1.12a9.93,9.93,0,0,0-.28-5.64c-.75-2-1.46-13.08-1.29-14.45a47.84,47.84,0,0,1,2.05-5.32c.79-1.87,1.53-3.64,1.86-4.7a26.12,26.12,0,0,1,3.57-5.79,1.83,1.83,0,0,0,.3-.55c.64-2.09,3.61-5.18,8-7a8.94,8.94,0,0,1,6.81-.13,2,2,0,0,0,.37.12c2.1,1.18,5.81,4,8.38,10.28,1.39,3.39,4.42,7.12,5.87,8.92.29.34.56.69.69.86l1.77,4.2c-2.17,2.23-7.2,5-8.82,5.71l.84,1.82a43.6,43.6,0,0,0,8.81-5.57c2,4.56,3.6,8.24,4.12,9a9,9,0,0,0,3.9,2.66c.52.95,1.07,2,1.59,3.13a5.33,5.33,0,0,0-2.34-1.33,5.1,5.1,0,0,0-4,.87,9.74,9.74,0,0,0-4.37,5.64,8.7,8.7,0,0,0,1.58,7c.78,1.16,1.47,2.15,2.11,3a8,8,0,0,1-3.18-1.81c-2.95-2.65-15.42-18.23-16-19.32h0c-.46-.8-2.74-3.18-14-14.09L144.36,260l4.33,4.22a21.23,21.23,0,0,1-9.5-1.67l-.88,1.8a22.74,22.74,0,0,0,9.27,1.91,22.18,22.18,0,0,0,3-.21c3.69,3.63,7.07,7,7.44,7.53h0a28.06,28.06,0,0,0,2.19,3c-2.83,1.4-11,5-19.65,5H140l0,2h.59c9.61,0,18.33-4.09,20.89-5.41.94,1.17,2.11,2.63,3.59,4.45,2.19,2.67,7.47,9.08,9.4,10.82a9.45,9.45,0,0,0,6.32,2.57H181a4.4,4.4,0,0,0,3,1.29c1.29,0,2.73-.63,4.66-1.76a5,5,0,0,0,2.39-3.46,12.81,12.81,0,0,0-.8-6.33c.25-2.32-1.65-6.6-3-9.32h0a5.66,5.66,0,0,0,1.1.76,6.52,6.52,0,0,0,3.07.7,12.78,12.78,0,0,0,4.2-.82,8.07,8.07,0,0,0,5.23-4.68,9,9,0,0,0,.59-2.88v0c.5-.88,2-3.55.42-9.29-.8-2.86-1.73-5.86-2.52-8.37a13.36,13.36,0,0,0,3.68-4.31c3.39,5.25,12.94,14.93,15.5,16.73s5.08,5.65,5.51,7.73a21,21,0,0,1,.16,4.16,29,29,0,0,0,.36,6.46c0,.15.07.36.12.6,2.14,11.16,7.35,18.31,15.5,21.26l.68-1.88c-7.44-2.69-12.22-9.34-14.21-19.75-.06-.27-.1-.49-.13-.65a27,27,0,0,1-.32-6,35.24,35.24,0,0,0-.06-3.62c11.19-2.7,15.16-14.47,15.33-15l-1.9-.63c0,.12-3.77,11.18-13.85,13.66a18.79,18.79,0,0,0-6-8c-2.61-1.84-13.95-13.49-15.74-17.54-1.6-3.62-1-7.09,2.22-12.81a9.94,9.94,0,0,1,1.81-2.26c-.78,2.38-1.9,5.88-2.62,8.34-1.21,4.14.83,6.38,1.39,6.9s2.51,3.06,9.14,6.85a7.92,7.92,0,0,0,3.91,1.16,5.91,5.91,0,0,0,2.23-.44c3.69-1.47,5.33-6.28,5.56-7,3.05-6.49,0-10.62-.16-10.81a36.3,36.3,0,0,0-4.88-4.73,93.74,93.74,0,0,1,10.83,8.06c.56.53,1.52,1.34,2.74,2.35a121.32,121.32,0,0,1,10.39,9.49c1.12,1.58,4,11.15,4.42,14.37.58,4.36,3,9.67,4.76,13.54a42,42,0,0,1,1.69,4,16.11,16.11,0,0,1,.76,6.16c-.08.56-1,3.52-1.89,6.39-2,6.5-5,16.31-6.22,22.85-.92,5.07-4.68,14.57-8.76,22.09-1.05,1.94-1.95,3.47-2.75,4.83a39.61,39.61,0,0,0-4,8.25c-1.95,5.87-3.28,23.06-3.27,25.65h3.5c0-2.86,1.4-19.43,3.09-24.54a36.11,36.11,0,0,1,3.7-7.58c.81-1.38,1.72-2.94,2.81-4.93,4.3-7.93,8.14-17.67,9.12-23.15,1.14-6.32,4.14-16,6.13-22.43a59.07,59.07,0,0,0,2-7.09,19.49,19.49,0,0,0-.89-7.52A46.6,46.6,0,0,0,258.83,276.63Zm-27.26-172a9.43,9.43,0,0,1,4,.81,14.75,14.75,0,0,0-3.39-.36h0a17.09,17.09,0,0,0-6.43.94C226.94,105.09,228.93,104.61,231.57,104.61Zm-48.25,79.81q.38-.57.72-1.14c1.7-2.71,2.93-4.67,10-5.13,7.59-.49,9.51,2.37,10.65,4.08l.3.44c1.05,1.48,3.83,5.42,4.28,10l.14,1.43a52.3,52.3,0,0,0,1.79,10.79c.95,3,2.1,7.39,2.51,9a97.77,97.77,0,0,1,1.36,11.7l-.37-.13c-.66-1.77-4.14-9.89-12.84-9.05a7.57,7.57,0,0,0-5.56,3.06c-2.31,3.09-2.44,7.87-2,10.33.42,2.15,1.71,6.95,2.49,9.79a14,14,0,0,1-1.37-1.52c-.3-.36-.64-.77-1-1.22a2.67,2.67,0,0,1-.31-.48l-.45-1.09h0q-.13-.34-.27-.75h0l-.14-.38c-1.6-5-3.63-15.39-4.83-21.56a86.55,86.55,0,0,0-1.88-8.68c-.49-1.15-1-2.41-1.54-3.66-.72-1.7-1.45-3.43-2.08-4.9C181.85,187.41,182.94,185,183.32,184.42ZM186.69,214a54.73,54.73,0,0,0-4.17-8.91,1.74,1.74,0,0,0,.6-1.26c0-.72,0-1.79,0-2.91l0,.1c.53,1.26,1.06,2.52,1.55,3.67.25.58,1,4.32,1.75,8.28C186.56,213.3,186.63,213.64,186.69,214ZM169.1,247.05c-2.43-5.9-5.79-9-8.21-10.64a1.89,1.89,0,0,0,.09-.34c.06-.44,0-.82-.57-4.62-.1-.67-.21-1.4-.33-2.18,2.95,4.75,6.89,11.54,7.45,13,.26.67,1.49,3.72,3.11,7.65A20.52,20.52,0,0,1,169.1,247.05ZM189,291.67a3,3,0,0,1-1.43,2.12c-4,2.36-4.54,2.66-9.08-4.16a6.78,6.78,0,0,1-1.31-5.39,7.82,7.82,0,0,1,3.45-4.39.1.1,0,0,0,.05,0,3.19,3.19,0,0,1,2.49-.61c1.57.38,2.69,2.36,3.24,3.31a6.32,6.32,0,0,0,.39.64C187.3,283.77,189.69,288.52,189,291.67Zm9.91-20a6.15,6.15,0,0,1-4,3.52c-2.48.86-4.34.93-5.69.22a4,4,0,0,1-.91-.67l0-.08-.12,0c-1.51-1.52-2.31-4.3-3.14-7.24-.25-.89-.5-1.8-.79-2.7-1.81-5.8,4.47-8.81,5.2-9.14a5.1,5.1,0,0,1,4.1.46c3,1.75,4,6.22,4.05,6.26a.85.85,0,0,0,.09.24S200.48,267.77,199,271.64Zm1-10.93a18,18,0,0,1,.6,3.2,19.31,19.31,0,0,0-.93-2.25c-.22-.83-1.53-5.37-4.94-7.39a7.16,7.16,0,0,0-5.73-.66l-.12,0c-3.06,1.3-8.32,5.4-6.38,11.6.27.89.52,1.78.77,2.65a33.78,33.78,0,0,0,1.94,5.66,7,7,0,0,1-2.91-1.88c-.64-1-3.57-7.78-6.47-14.7a1.12,1.12,0,0,0-.12-.29c-2.92-7-5.77-13.95-6.2-15.09a185.07,185.07,0,0,0-10-17.06c-.52-3.81-1-7.86-1.08-10.78-.18-6.79,2.74-10.13,4.5-11.52s8.17-3.11,11.27-2.68c2,.28,4.63,3.32,5.81,5.16.05.08.12.13.17.2a51.51,51.51,0,0,1,6.87,17.45,55.48,55.48,0,0,0,3.62,10.38c.44,1,.83,1.92,1,2.37h0c.18.55.37,1,.54,1.43a89,89,0,0,1,3.35,9.13c.2,1.07.91,3.31,1.8,6.15S199.05,257.66,199.9,260.71Zm-1.22-10.91c-.64-2-1.15-3.71-1.29-4.47a28.57,28.57,0,0,0-1.2-3.76c1.07.74,2.42,1.12,5,1.38l0-.16a11,11,0,0,0,.7,2.6A17,17,0,0,1,198.68,249.8Zm5.7-18.54c-1.94,3.44-3.25,6.55-3.32,9.67-.72-.08-1.32-.17-1.82-.27-.55-2-2.41-8.71-2.9-11.27-.4-2-.31-6.2,1.6-8.76a5.65,5.65,0,0,1,4.16-2.26c6.25-.62,9.25,4.28,10.34,6.7a4.66,4.66,0,0,0-1.31.21,3.88,3.88,0,0,0-2,1.45A11.59,11.59,0,0,0,204.38,231.26Zm21.42,5c.1.13,2.45,3.41-.1,8.79l-.06.14s-1.41,4.58-4.41,5.78a4.87,4.87,0,0,1-4.39-.61c-6.88-3.92-8.53-6.3-8.54-6.31a1,1,0,0,0-.21-.24c-.08-.06-1.84-1.58-.86-4.9,1.17-4,3.43-10.8,3.43-10.8a1.87,1.87,0,0,1,1.14-.91c.8-.25,2.29-.21,4.85,1.37A40.19,40.19,0,0,1,225.8,236.23Zm17.4-21.3a48.17,48.17,0,0,0,1,7.13A36.74,36.74,0,0,1,245,227c0,1.51.49,14.26.7,19.56-2.95-2.88-6-5.48-8.34-7.4-1.19-1-2.13-1.78-2.63-2.26-2-1.92-12.28-9.82-15.9-10.67-.44-.11-1-.22-1.72-.32a73.43,73.43,0,0,0-1-10c1.28-.14,2.35-1.38,3.32-2.74,2.46-3.44,2.08-14.49,1.81-19.07s1.17-29.11,2-33.2c.57-2.94.39-8.68.24-13.75-.08-2.47-.15-4.81-.12-6.38s0-3.95-.06-6.82c-.11-6.54-.26-15.5.33-19.25.89-5.65,4.14-6.09,8.63-6.1h0c3.94,0,5.86,1.28,7.91,5.25,2.21,4.27,3.8,13.89,3.7,19.31s1,25.76,1.5,29.34c.45,3.15,1,9.69.34,14.22C245.28,179.08,243.08,208.31,243.2,214.93Z"/><path class="cls-3" d="M213.28,270l-1.73-1a130.13,130.13,0,0,0-9.08,20.78,113.24,113.24,0,0,0-3.28,11.56,64.14,64.14,0,0,1-1.79-10.51l-2,.18c.1,1.12,1,10.61,3.07,13.75-1.63,8.63-2.23,18.2-.13,27.16l2-.45C193.92,304.16,213.09,270.29,213.28,270Z"/><path class="cls-3" d="M194.65,308.13l-1.91-.57c-.23.77-5.59,19,2.81,33.33l1.72-1C189.33,326.34,194.6,308.31,194.65,308.13Z"/><path class="cls-3" d="M226.49,145c2.59-.4,10.45-1.63,15.51.78l.85-1.81c-5.61-2.67-13.93-1.37-16.66-.95-.38.06-.63.11-.75.11l0,2A7.3,7.3,0,0,0,226.49,145Z"/><path class="cls-3" d="M224.73,171.32l.23,2c.13,0,12.66-1.47,18.77.66l.66-1.88C237.85,169.81,225.26,171.26,224.73,171.32Z"/><path class="cls-3" d="M225.77,174.31l-.62,1.9A47.77,47.77,0,0,0,238,178.47a15.77,15.77,0,0,0,4.72-.62l-.61-1.9C236.4,177.76,225.88,174.35,225.77,174.31Z"/><path class="cls-3" d="M207.9,202.44l.31-2c-5.87-.92-17.52,2.7-18,2.85l.6,1.91C190.91,205.2,202.51,201.61,207.9,202.44Z"/><path class="cls-3" d="M238.5,314.29l.71-1.88c-9.05-3.39-18.12-21.06-18.21-21.24l-1.79.91C219.6,292.83,228.73,310.62,238.5,314.29Z"/><path class="cls-3" d="M238,318.07c-7.32-2.82-18-20.82-18.1-21l-1.72,1c.45.77,11.13,18.79,19.1,21.86Z"/><path class="cls-3" d="M208.51,338.35l-.92,1.78c4.18,2.16,15.1,9.11,15.41,15.23l2-.1C224.56,346.75,209.17,338.69,208.51,338.35Z"/><path class="cls-3" d="M178,321.81l2,0c.14-7.35,3.91-18.93,4-19.05l-1.9-.62C181.93,302.66,178.18,314.16,178,321.81Z"/><path class="cls-3" d="M223.65,209.32c.31.15,7.51,3.67,11.31,4.43l.4-2c-3.55-.71-10.76-4.23-10.83-4.27Z"/><path class="cls-3" d="M223.55,213.33a32.18,32.18,0,0,0,9.07,2.75l.27-2a30.22,30.22,0,0,1-8.44-2.56Z"/><path class="cls-3" d="M182.24,238.14c-2.82.2-7.33,2.14-7.52,2.22l.79,1.84s4.39-1.89,6.87-2.06c2.89-.21,6.93-3.18,7.39-3.51l-1.2-1.61C187.47,235.84,184.19,238,182.24,238.14Z"/><path class="cls-3" d="M186,233.69l.2-2c-3.44-.33-12.68,3.16-12.77,3.2l.74,1.85C175.92,236.06,183.55,233.46,186,233.69Z"/><path class="cls-3" d="M223.78,255.31l.44,1.95c9.23-2.09,11.8-11.15,11.9-11.54l-1.93-.53C234.17,245.28,231.82,253.49,223.78,255.31Z"/></svg>