<svg id="Layer_1" data-name="Layer 1" xmlns="http://www.w3.org/2000/svg" viewBox="0 0 481.89 481.89"><defs><style>.cls-1{fill:#f9d7ed;}.cls-2{fill:#fff;}.cls-3{fill:#2a1d75;}</style></defs><title>Body_scans</title><path class="cls-1" d="M329.53,337.3c-1.79-3.37-6.53-13.33-10.11-29.86a8.53,8.53,0,0,0,5.31-2.88c2.12-2.6,2.42-6.52.9-11.64-2.78-9.35-5.25-30.79-5.27-31,.24-.37.47-.75.69-1.15.09-.16,8.31-15.74,8.12-28.52-.16-10.8-2.42-18.12-6.73-21.84-.3-1.24-1.07-5.24-3-18.22-3.26-21.9-10.61-30.56-26.94-48.07-9.73-10.43-25.84-17-47.9-19.37-.8-.08-1.39-.15-1.72-.2-2.8-.47-28.74-1-34.75,3-5.09,3.39-12.38,6.55-16.61,7.18-4.81.72-13.22,4.38-17.45,6.74s-7.81,5.69-19.09,19.82A38.5,38.5,0,0,0,147,191c-4.49,11.94-1.44,33.62-.28,41.85.17,1.2.3,2.11.36,2.66.11,1.06.19,2.14.26,3.25a47.35,47.35,0,0,0,1.87,11.43c1.12,3.49,3.57,5.37,5.74,7a14.77,14.77,0,0,1,4.27,4.32c2.31,4,2.82,14.73,3.13,21.11l.09,1.85c.38,7.57,9.22,21.44,13.5,25.49A47.66,47.66,0,0,1,185,322.51c1.41,3.21,14.43,23.81,18.61,30.09,3.52,5.28,7.94,6.23,12.22,6.23,1.25,0,2.49-.08,3.69-.16.78-.05,1.57-.1,2.36-.13,4.19-.16,8.82-1.58,15.11-3.83,6.11,4.55,10,9.2,11.49,13.86a1.28,1.28,0,0,0,1.85.73c29.84-16.66,57.73-29.94,78.4-30.66A.92.92,0,0,0,329.53,337.3Z"/><path class="cls-2" d="M209.05,251.5a39.43,39.43,0,0,1-8.81-1.08,12.27,12.27,0,0,1-8.34-6.68h0a60,60,0,0,1-3.19-10.29c-2.23-8.86,7.52-15.6,10.93-16.53,4.06-1.1,17.68-2,26.65,8.05,3.47,3.89,4.93,7.76,4.33,11.51-.72,4.52-4.39,8.74-10.91,12.52A21.28,21.28,0,0,1,209.05,251.5Z"/><path class="cls-2" d="M199.62,278.79a10.62,10.62,0,0,1-2.58-.33c-7.07-1.73-12.82-10-12.88-10.11h0c-.07-.11-6.51-11.09-4.53-15.72a3.16,3.16,0,0,1,2.28-1.9c4.4-1,10.56,3.91,13.52,6.28.43.35.88.71,1,.8s11.64,7.55,11.66,14.23c0,2.11-1.09,3.87-3.25,5.21A9.8,9.8,0,0,1,199.62,278.79Z"/><path class="cls-2" d="M174.72,268.24a3.23,3.23,0,0,1-.68-.08,6.71,6.71,0,0,1-4.48-5.34c-.17-1.74-4.53-8.33-8.33-13.06-2.35-2.94-2.26-7,.27-11.56l.06-.11a7.53,7.53,0,0,1,6.9-3.26c2.9.43,5.84,1.12,7.65,3.21a8,8,0,0,1,1.11,3.53c.05.35.11.7.17,1,.28,1.35-.39,3.09-1.24,5.29-1.85,4.82-3,8.68.61,10.9a2.05,2.05,0,0,1,.85,1c.09.25.2.61.3,1a7.37,7.37,0,0,1-.77,6A2.76,2.76,0,0,1,174.72,268.24Z"/><path class="cls-2" d="M256.49,275,252.87,271l-3-5a1,1,0,0,0-.52-.43,7.14,7.14,0,0,0-4.86.14c-1.7.76-2.39,2.68-2.67,3.88a6.77,6.77,0,0,0-4.27,1.18,11.38,11.38,0,0,0-3.18,3.92,8.8,8.8,0,0,0-4.85,1.31,9.18,9.18,0,0,0-3.39,4.26,7.43,7.43,0,0,0-4.2,1.49,5.89,5.89,0,0,0-2,4.8,40.07,40.07,0,0,0-4.31-.92c-1.17-.09-2.66,1.25-3.47,2.55a5.29,5.29,0,0,0-.83,2.27,5.92,5.92,0,0,0-3.48-.79,4.52,4.52,0,0,0-2.57,2.73c-1.19-.95-3-2-4.59-1.48a5.16,5.16,0,0,0-3.08,3.76,3.17,3.17,0,0,0-1.59,0,3.49,3.49,0,0,0-2.25,2.29,3.78,3.78,0,0,0-.22,1.06,2.69,2.69,0,0,0-3.08.83c-1.4,1.75,1.15,6.75,2.8,9.58a1,1,0,0,0,.86.49,1.19,1.19,0,0,0,.37-.06l.44-.18a31,31,0,0,0,6,5.11,1.36,1.36,0,0,0,.3.13,2.6,2.6,0,0,0,.61.07c1.54,0,2.94-1.4,3.68-2.3a2.82,2.82,0,0,0,.65.08,7,7,0,0,0,3.48-1.25,4.49,4.49,0,0,0,2,.56,2.89,2.89,0,0,0,.82-.11,3.35,3.35,0,0,0,2.23-2.21,13.26,13.26,0,0,0,2.4.26,3.81,3.81,0,0,0,2.09-.47c1-.69,1.27-2.5,1.32-4a8.28,8.28,0,0,0,2.91.62,4.07,4.07,0,0,0,2.55-.81c1-.8,1.21-3.14,1.16-5.07a13.24,13.24,0,0,0,3,.39,5.07,5.07,0,0,0,2.67-.62,4.32,4.32,0,0,0,2-3.18,16.82,16.82,0,0,0,4.75-1.76A6.47,6.47,0,0,0,243,288.6a12.24,12.24,0,0,0,1.45.09,7,7,0,0,0,4.2-1.23c1.76-1.31,2.19-3.63,2.27-5.22a5.81,5.81,0,0,0,4.78-3.11.47.47,0,0,0,.06-.15c.37-1.11.61-2,.88-3.12A1,1,0,0,0,256.49,275Z"/><path class="cls-3" d="M333.85,331.7c-.09-.16-6.51-10.79-11-31.91a7.7,7.7,0,0,0,4.89-2.61c1.95-2.4,2.21-6.08.76-10.95-2.49-8.37-4.72-26.26-5.2-30.3a16.11,16.11,0,0,0,1.34-2.08c.08-.15,8.3-15.75,8.12-28.52-.16-10.8-2.42-18.11-6.73-21.84-.3-1.23-1.08-5.24-3-18.22-3.26-21.89-10.62-30.56-26.94-48.07-9.73-10.43-25.85-16.95-47.9-19.36-.81-.09-1.39-.15-1.72-.21-2.81-.46-28.73-1-34.75,3-5.09,3.4-12.38,6.55-16.61,7.18-4.8.72-13.22,4.38-17.45,6.74s-7.81,5.69-19.09,19.82a38.5,38.5,0,0,0-8,29.71c-4.5,11.94-1.44,33.62-.28,41.85.17,1.2.3,2.11.35,2.66.12,1.06.19,2.14.27,3.24a46.39,46.39,0,0,0,1.87,11.44c1.11,3.5,3.57,5.37,5.73,7a14.81,14.81,0,0,1,4.28,4.32c2.31,4,2.82,14.72,3.12,21.11l.09,1.85c.39,7.58,9.23,21.44,13.51,25.5a47.71,47.71,0,0,1,9.12,12.5c1.41,3.22,14.43,23.82,18.61,30.09,3.52,5.28,7.93,6.23,12.22,6.23,1.25,0,2.49-.08,3.69-.16.78-.05,1.57-.1,2.36-.13,4.19-.16,8.82-1.58,15.11-3.82,6.78,5,10.79,10.21,11.9,15.39l3.42-.74c-1.19-5.53-5-10.92-11.43-16.07l1-.38,6.62-2.4c10.5-3.75,29.43-21.6,40.74-32.28,2.9-2.73,5.2-4.89,6.61-6.12,6.83-5.92,6.13-20.59,5.75-28.47,0-.84-.08-1.61-.1-2.27-.14-4,.33-11.83.71-17.42a9,9,0,0,0,6.56,4,12.48,12.48,0,0,0,2.74-.11c.81,48.05,15.1,71.61,15.71,72.6ZM161.3,156.57c10.85-13.58,14.47-16.93,18.07-18.94,4-2.22,12.09-5.71,16.26-6.34,4.74-.71,12.49-4,18-7.73,3.15-2.1,16-2.78,24.65-2.78a64.71,64.71,0,0,1,7.58.3c.37.06,1,.14,1.91.24,21.21,2.32,36.59,8.47,45.73,18.27,15.81,17,22.93,25.33,26,46.2,1,7,1.86,12.17,2.45,15.44h0a13.8,13.8,0,0,0-7.75,0A44.89,44.89,0,0,0,313,196.6c-.62-1.62-1.32-6.52-1.89-10.47-.41-2.82-.76-5.26-1.07-6.58a55,55,0,0,0-2.45-6.69,49,49,0,0,1-2.59-7.23c-.52-3.11-15.84-27.95-34.12-33.92-18.66-6.1-54.41-1.79-72.71,6-20.55,8.72-37.34,30.42-37.51,30.64-1.69,2.24-3.17,5.69-6.17,12.91a9.89,9.89,0,0,0-.67.75A35.6,35.6,0,0,1,161.3,156.57Zm153.29,56.54c.11,1.66-.19,8.8-3.64,13.27a17.66,17.66,0,0,0-3.21,6.39,12.53,12.53,0,0,1-2.14,4.48c-1.71,2.27-5.44,6.63-6.77,7.23-.67.25-3.52-1.11-4.89-1.77-2.09-1-3.42-1.61-4.34-1.56s-2,1.25-4.17,4.14c-.72,1-1.39,1.89-1.89,2.42a4.22,4.22,0,0,1-3.07,1.33H280c.08-8,3.69-23,3.73-23.13l-1.94-.47c-.17.68-4,16.71-3.78,24.63h0a77.56,77.56,0,0,0,1.53,12.45,32.75,32.75,0,0,1,.43,8.75,15.88,15.88,0,0,0,.23,6,30.79,30.79,0,0,1,.67,5,8.35,8.35,0,0,1-.49,3.36,36.16,36.16,0,0,1-2.21,5.35,4.93,4.93,0,0,1-1.15.85c-1.83,1.17-5.63,3.59-13.53,11.26l-1.73,1.69c-3.71,3.64-15,14.68-16.18,15.46-.72.37-3.57,2.55-12.09,9.22-2.18,1.71-4.06,3.19-4.4,3.42-1.16.83-13.39,7.55-16.19,7.64s-3.81-.48-4.49-1.77c-.79-1.48-1.26-5.77-1.08-8.23S207,322,204.81,319a3,3,0,0,1-.31-2.06,6.2,6.2,0,0,0,3.19-2.22,3,3,0,0,0,.67.08,7,7,0,0,0,3.48-1.26,4.45,4.45,0,0,0,2,.56,3,3,0,0,0,.82-.11,3.32,3.32,0,0,0,2.22-2.21,13.36,13.36,0,0,0,2.4.26,3.81,3.81,0,0,0,2.09-.47c1-.69,1.28-2.49,1.32-4a8.33,8.33,0,0,0,2.91.63,4.08,4.08,0,0,0,2.55-.82c1-.79,1.21-3.14,1.17-5.06a13.76,13.76,0,0,0,3,.38,5.23,5.23,0,0,0,2.68-.61,4.37,4.37,0,0,0,2-3.19,16.25,16.25,0,0,0,4.74-1.76,6.42,6.42,0,0,0,3.38-5.55,12.08,12.08,0,0,0,1.45.1,6.94,6.94,0,0,0,4.2-1.23c1.76-1.32,2.19-3.63,2.27-5.23a6.73,6.73,0,0,0,1.61-.34,47.61,47.61,0,0,1-10.47,15l1.4,1.42c23.27-23,11.86-49,10.17-52.49,3.22-3.37,7.49-7.7,10.62-10.82L265,236.54c-1.46,1.46-14.31,14.29-15.46,16.28a10.11,10.11,0,0,1-3.87,3.84,2,2,0,0,1-.59.17c-2.23.21-10.84,4-10.48,12.35l2-.09c-.3-6.95,7.07-10.12,8.67-10.27l.21,0,4.05,9.41a6.13,6.13,0,0,0-2.88.49c-1.7.77-2.39,2.68-2.66,3.88a6.78,6.78,0,0,0-4.28,1.18,11.47,11.47,0,0,0-3.18,3.92,8.84,8.84,0,0,0-4.84,1.31,9.21,9.21,0,0,0-3.4,4.26,7.43,7.43,0,0,0-4.2,1.49,5.87,5.87,0,0,0-2,4.8,42.79,42.79,0,0,0-4.32-.92c-1.14,0-2.65,1.26-3.47,2.55a5.47,5.47,0,0,0-.83,2.27,5.9,5.9,0,0,0-3.48-.79,4.56,4.56,0,0,0-2.57,2.74c-1.18-1-3-2-4.59-1.49a5.2,5.2,0,0,0-3.08,3.77,3,3,0,0,0-1.58,0,3.49,3.49,0,0,0-2.25,2.29,3.53,3.53,0,0,0-.23,1.06,2.89,2.89,0,0,0-2.28.15c-.83-1.58-1.77-3.2-2.44-4.36l-.1-.17c-1-1.77-2.71-9.76-2.55-10.83.22-1.42-1-4-2.48-5.22a3.07,3.07,0,0,0-3-.78l-.76.27c-2.14.77-4.35,1.57-6.41-1.85-1.1-1.81-2.47-5.63-3.91-9.68-1.36-3.79-2.75-7.66-4.15-10.64a22.75,22.75,0,0,0-1.05-3.45c2.16,3.16,3.84,6.05,3.94,7.11A6.74,6.74,0,0,0,175,266.9a3.23,3.23,0,0,0,.69.07,2.76,2.76,0,0,0,2.42-1.47,8.37,8.37,0,0,0,.57-1.17c1.06,2.28,2,3.94,2.08,4h0c.11.16,5.81,8.38,12.87,10.11a10.71,10.71,0,0,0,2.6.33,9.75,9.75,0,0,0,5.23-1.53c2.17-1.35,3.26-3.1,3.25-5.21,0-6.68-11.54-14.17-11.66-14.24s-.58-.45-1-.8c-3-2.37-9.11-7.29-13.51-6.28a3.16,3.16,0,0,0-2.29,1.9,6.39,6.39,0,0,0-.34,3c-1.16-2.26-.18-5.36,1.22-9,.85-2.2,1.52-3.93,1.25-5.29-.15-.73-.32-1.44-.48-2.12-.52-2.22-1-4.14-.41-5.21a4,4,0,0,1,2.82-1.71,6.6,6.6,0,0,1,5.61,1.78,46.61,46.61,0,0,1,3.69,4c3,3.47,6.07,7,9.3,7.25a12.43,12.43,0,0,0,5.71,3.08,39.52,39.52,0,0,0,8.82,1.08,21.22,21.22,0,0,0,10.64-2.5c6.52-3.78,10.19-8,10.91-12.53.6-3.74-.85-7.61-4.32-11.5-9-10.05-22.59-9.15-26.66-8.05-3.4.93-13.16,7.66-10.93,16.52a59,59,0,0,0,3.2,10.3c.09.2.21.38.31.57a35.75,35.75,0,0,1-5.47-5.52,47.31,47.31,0,0,0-3.85-4.16,8.64,8.64,0,0,0-7.31-2.27,5.86,5.86,0,0,0-4.25,2.75,5.31,5.31,0,0,0-.45,2.81,19.77,19.77,0,0,0-5.82-2.28c-3.55-.53-6.34,2.25-6.9,3.26l-.06.11c-2.52,4.51-2.62,8.61-.26,11.56l.59.75c-.71-.63-1.43-1.18-2.12-1.71s-1.2-.93-1.75-1.4a17.27,17.27,0,0,1-2.88-7.69c-.43-5.69-1.25-16.28-3-22.88-.2-.76-.42-1.54-.65-2.34-.05-.19-.11-.39-.16-.59-.59-6.61-.87-14.18,0-20.53q.41-1.22.93-2.49c1-2.3,1.82-4.35,2.58-6.17.15-.36.29-.69.42-1,3.71-3.56,8.56-2.73,12-2.13,2.12.37,3.51.61,4.27-.32,10.08-12.35,37.88-15.36,53.37-12.07,7.16,1.52,11.78,4.28,12.67,7.57,3.21,11.77,17.24,17.83,25.62,21.46,1.37.59,2.56,1.1,3.47,1.54,2.55,1.24,3.48,4.4,4.67,8.41,1.4,4.73,3.15,10.63,8.57,14.88a12.83,12.83,0,0,0,8,3,11.12,11.12,0,0,0,2.06-.19c4.3-.75,7.94-3.69,10.46-6.35a30.55,30.55,0,0,0-.18,3.3h3.5c0-5.71,1.81-10.71,3.61-13.14a13,13,0,0,1,4.81-3.12C313.89,208.9,314.54,212.44,314.59,213.11ZM196,303.38l0-.05a18.44,18.44,0,0,0,3.19,5.35l-2.51,1c-1.63-3-2.78-5.94-2.53-6.57C194.71,302.41,196,303.37,196,303.38Zm3.86-3.56c.59,1.31,2.5,4.54,3.58,6.33l-2.37,1.62c-1.81-2.11-4-5.43-3.29-7.08.18-.44.48-1,.92-1.11A1.63,1.63,0,0,1,199.84,299.82ZM207,297.7a38.74,38.74,0,0,0,3.18,6.39,9.61,9.61,0,0,1-4.84,1.41c-1.75-2.91-3.58-6.09-3.75-6.63a3.38,3.38,0,0,1,1.85-3.09C204.33,295.5,206,296.7,207,297.7Zm7.06-1.68c1.06,1.84,2.22,3.61,2.82,4.51a13.78,13.78,0,0,1-4.67,3.09,55.81,55.81,0,0,1-3.29-6.45c.07-.7.89-2.42,1.56-2.6C211,294.45,212.61,295.14,214.08,296Zm8.45-4.32,2.4,3.86a6.53,6.53,0,0,1-2.26,3.17,1.07,1.07,0,0,0-.23.2c-.32.37-2,.65-3.77.65-.56-.84-1.87-2.82-3-4.78a2.2,2.2,0,0,1,0-2.06,4.81,4.81,0,0,1,1.92-2.14C218.26,290.64,220.82,291.26,222.53,291.7Zm5.88-6.48,4.23,6.1a8.67,8.67,0,0,1-2.65,3,4,4,0,0,1-3.3.33l-2.56-4.13c-.13-1-.13-3.22,1.13-4.16A5.43,5.43,0,0,1,228.41,285.22Zm8.15-5.56,4,5.66a13.06,13.06,0,0,1-2.8,2.77,11.14,11.14,0,0,1-3.5,2.07l-4.19-6.06a7.29,7.29,0,0,1,2.65-3.44A7,7,0,0,1,236.56,279.66Zm7.69-5.07,2.14,2.6L248,280.3c-.34.34-1,1-2.38,2.12-1.9,1.63-2.94,1.88-3.33,1.91l-4.06-5.73a9.58,9.58,0,0,1,2.59-3.23A5,5,0,0,1,244.25,274.59Zm10-24.25a45.09,45.09,0,0,1,3,26.11L255,273.92,252,269l-4.74-11a13,13,0,0,0,3.94-4.21A36.86,36.86,0,0,1,254.28,250.34Zm-1.17,32.86-2.47-3.73a6.27,6.27,0,0,0,2.24-1.2,7.35,7.35,0,0,0,1.69-1.81l2.16,2.38c-.21.8-.45,1.6-.71,2.4A3.8,3.8,0,0,1,253.11,283.2Zm-3.53,5.64c-1.57,1.18-4,.81-4.87.63l-2.27-3.14c.94-.07,2.39-.58,4.51-2.39,1.34-1.14,2.17-1.87,2.67-2.39l1.45,2.19h0C251.15,284.77,251.13,287.68,249.58,288.84Zm-8.74,6.51a15.73,15.73,0,0,1-4,1.52l-2.6-4.38c.07-.11.14-.22.19-.32a11.83,11.83,0,0,0,4.55-2.51,23.62,23.62,0,0,0,2.05-1.83l2.09,2.88C243.19,291.52,243.14,294.16,240.84,295.35Zm-6.86,5c-1,.64-3.54.21-5.08-.25l-2.34-3.2a2.56,2.56,0,0,0,.11-.24,7,7,0,0,0,1.4.15,5.5,5.5,0,0,0,3-.85,8.71,8.71,0,0,0,1.94-1.7l2.07,3.49A2.85,2.85,0,0,1,234,300.36Zm-7,5.42c-1.27,1-3.6-.1-4.59-.55l-.24-.11a14.66,14.66,0,0,1-2.38-3.57c1.42-.07,3.22-.34,4.1-1.2a8.28,8.28,0,0,0,1.59-1.57l1.86,2.54C227.43,303.32,227.27,305.41,227,305.78Zm-6.68,4.1a7.52,7.52,0,0,1-3.53-.22l-3.37-4.36a16.42,16.42,0,0,0,4.53-2.94,17.84,17.84,0,0,0,2.81,4.17A7.53,7.53,0,0,1,220.29,309.88Zm-12.19,2.85c-.63-.17-2.4-2.32-3.9-4.69l.81-.56a4.28,4.28,0,0,0,.56,0,7.78,7.78,0,0,0,1.39-.13l3.22,4.78A3.49,3.49,0,0,1,208.1,312.73Zm3.82-1.55L209,306.83a15.45,15.45,0,0,0,2.25-1l3.88,5c-.11.41-.36,1.06-.94,1.21A3.11,3.11,0,0,1,211.92,311.18Zm38.57-40.84,2.67,4.44a3.82,3.82,0,0,1-1.53,1.93,2.9,2.9,0,0,1-2.32.87l-3.47-4.21c.15-.89.61-2.42,1.6-2.87A5,5,0,0,1,250.49,270.34ZM201.26,310h0a1,1,0,0,0,.21-.1l1.08-.74A25.08,25.08,0,0,0,206,313.6c-.69.77-1.49,1.38-2,1.35a29.86,29.86,0,0,1-4.91-4.07Zm-25.38-70.39c.16.67.32,1.36.46,2.07s-.5,2.51-1.14,4.18c-1.55,4-3.84,10,1.39,13.27.12.41.25.82.4,1.22a5.43,5.43,0,0,1-.66,4.12.78.78,0,0,1-1,.45,4.78,4.78,0,0,1-2.92-3.58c-.28-2.95-6.57-11.39-8.75-14.11-2.33-2.91-1-6.68.45-9.34l.06-.11a5.54,5.54,0,0,1,4.86-2.25c2.2.32,5.36,2.14,6.52,2.85C175.69,238.8,175.79,239.21,175.88,239.63Zm3,20.08c0-.14-.08-.23-.08-.25h0c-.86-2.51-1.29-4.82-.77-6a1.18,1.18,0,0,1,.89-.74c3.46-.8,9.53,4.06,11.82,5.89a11.74,11.74,0,0,0,1.23.94c1.66,1,10.69,7.66,10.7,12.54a4.09,4.09,0,0,1-2.3,3.51c-8.34,5.18-17.74-8-17.93-8.24A45.13,45.13,0,0,1,178.88,259.71ZM198,240.81a57.3,57.3,0,0,1-3.07-9.92c-1.87-7.42,6.67-13.33,9.52-14.11,3.05-.83,16.19-2,24.64,7.45,3,3.42,4.34,6.74,3.84,9.86-.62,3.9-4,7.64-9.94,11.11-5.81,3.37-13.77,2.2-18,1.2A10.29,10.29,0,0,1,198,240.81Zm107.47-34.49a22.49,22.49,0,0,0-3.45,8.07c-2.05,2.65-6.33,7.34-11.47,8.24a10.51,10.51,0,0,1-8.51-2.44c-4.91-3.86-6.49-9.18-7.88-13.88-1.28-4.3-2.38-8-5.72-9.64-.95-.46-2.15-1-3.54-1.58-8.05-3.48-21.53-9.3-24.49-20.14-1.11-4.1-6.15-7.3-14.18-9-18.07-3.83-45.16.43-55.26,12.66a11.9,11.9,0,0,1-2.45-.29c-2.79-.48-7.08-1.23-10.94.64,2.11-5,3.35-7.7,4.65-9.42.16-.22,16.62-21.49,36.69-30,18-7.63,53.05-11.88,71.31-5.92,17.2,5.62,32.29,29.5,32.77,32.36a48,48,0,0,0,2.71,7.65,55.42,55.42,0,0,1,2.35,6.38c.29,1.24.65,3.75,1,6.42.64,4.46,1.31,9.07,2,10.9a41.84,41.84,0,0,1,1.24,4.53A16.75,16.75,0,0,0,305.49,206.32ZM181.9,300.55c-4.34-4.1-12.11-17.08-12.42-23.13l-.09-1.84c-.13-2.83-.29-6.05-.57-9.22.35.95.69,1.91,1,2.84,1.49,4.15,2.89,8.06,4.09,10.05,2.91,4.81,6.6,3.49,8.8,2.69l.69-.24a1.27,1.27,0,0,1,1.11.4,5.59,5.59,0,0,1,1.81,3.39c-.27,1.74,1.69,10.24,2.79,12.13l.1.17c.83,1.43,2.07,3.57,3,5.43,0,2.27,1.88,5.93,3.2,8.19a1,1,0,0,0,.86.5,1.16,1.16,0,0,0,.37-.07l.45-.18a30.75,30.75,0,0,0,5.46,4.74,5,5,0,0,0,.65,3.73c1.62,2.25,2.37,7.58,2.18,10.25a28.77,28.77,0,0,0,.5,6.82c-5.63-8.82-13.16-21-14.06-23A51.09,51.09,0,0,0,181.9,300.55Zm130.75-43c-3.53-.22-5.8-5.42-6.37-7.41a1.75,1.75,0,0,0-3.43.34c-.06.71-1.42,17.42-1.19,24.1,0,.68.06,1.46.1,2.32.35,7.29,1,20.85-4.54,25.66-1.47,1.27-3.79,3.45-6.72,6.22-10.38,9.79-29.71,28-39.52,31.53q-3.6,1.29-6.64,2.41c-8.62,3.15-14.32,5.23-19,5.4-.82,0-1.64.09-2.45.14-5.22.34-9.35.61-12.77-4.52-.36-.54-.76-1.14-1.18-1.8a8,8,0,0,0,3.39.6l.67,0c3.61-.12,16.41-7.39,17.28-8,.35-.25,1.86-1.42,4.48-3.48,3.82-3,10.95-8.58,11.68-9,.52-.21,2.14-1.55,16.75-15.85l1.73-1.69c7.74-7.52,11.43-9.87,13.2-11a5.28,5.28,0,0,0,1.77-1.46,34.6,34.6,0,0,0,2.4-5.76,10.32,10.32,0,0,0,.61-4.16,34.12,34.12,0,0,0-.71-5.32,14.16,14.16,0,0,1-.2-5.35,35.4,35.4,0,0,0-.47-9.39,74.73,74.73,0,0,1-1.43-11h.37a6.22,6.22,0,0,0,4.53-2,31.9,31.9,0,0,0,2-2.6,21.5,21.5,0,0,1,2.76-3.32,18.3,18.3,0,0,1,3.28,1.36c3.08,1.48,5.21,2.4,6.57,1.79,2.36-1.07,7.5-7.78,7.55-7.85a14.7,14.7,0,0,0,2.45-5.1,15.48,15.48,0,0,1,2.89-5.76c4.41-5.72,4-14.54,4-14.62-.06-.93-.75-4.63-1.55-8.35a10.55,10.55,0,0,1,5.92-.07,7.9,7.9,0,0,1,2.18,1.12,1.46,1.46,0,0,0,.87.72c3.32,3.15,5.13,9.61,5.27,19,.14,10-5.66,23-7.7,26.81C320.41,254.33,317.73,257.88,312.65,257.56Zm8.88.32c.75,6.05,2.76,21.19,5.06,28.92,1.25,4.19,1.12,7.25-.38,9.1a5.86,5.86,0,0,1-3.75,1.93,207.09,207.09,0,0,1-3.81-38A12.48,12.48,0,0,0,321.53,257.88Z"/></svg>