<svg id="Layer_1" data-name="Layer 1" xmlns="http://www.w3.org/2000/svg" viewBox="0 0 481.89 481.89"><defs><style>.cls-1{fill:#f9d7ed;}.cls-2{fill:#fff;}.cls-3{fill:#2a1d75;}</style></defs><title>Camera</title><path class="cls-1" d="M396,239.69a1.7,1.7,0,0,0-.52-.75L377.25,224a1.65,1.65,0,0,0-.77-.35L230.49,198a1.69,1.69,0,0,0-1.76.85L221.54,212a1.59,1.59,0,0,0-.2.93c0,.54-.19,2.49-.46,4.75-1.46,12.1-5.32,44.23,2.17,91.28a1.69,1.69,0,0,0,1.24,1.36l144.09,37a1.52,1.52,0,0,0,.42.06h.09c.57,0,14.06-.81,21.46-3.65a1.65,1.65,0,0,0,1-1.24c0-.18,3.67-18.66,6-40.38C400.62,272.72,400.13,251.75,396,239.69Z"/><path class="cls-1" d="M352.36,155.21c-4.15-5.15-16.6-11.46-22.58-14.49l-.5-.25a84,84,0,0,0-8.56-3.54,39.12,39.12,0,0,0-19.55-1.87l-20.06,3.17c-3.23-1.75-8.69-.66-9.73-.43l-69.77,11.58-17.87-5.21a4.39,4.39,0,0,0-2.7.19c-2.89,1.17-13.81,5.12-33.08,6.65-5.73.46-13.88,4.39-15,9.59l-10.38,1.71v0a41.42,41.42,0,0,0-26.72,14.9C86.78,188.13,82,203.93,82,222.93c0,39.69,31.23,83.28,59.67,83.28a38.81,38.81,0,0,0,6.33-.52l34.94,9.3a1.68,1.68,0,0,0,.45.05,1.82,1.82,0,0,0,.46-.06l161.29-44.21a1.74,1.74,0,0,0,1.29-1.68V174.22l4.95-1.09a1.75,1.75,0,0,0,1.37-1.71V156.31A1.75,1.75,0,0,0,352.36,155.21Z"/><path class="cls-2" d="M142.08,269a12.19,12.19,0,0,1-3-.35l-14.44-3.25C109.62,260.89,110,247.14,110,247V223.35c0-8.21,4.8-11.31,5-11.44a1,1,0,0,1,.74-.13l27.4,5.59a1,1,0,0,1,.62.4l6.61,9.36a1,1,0,0,1,.19.57v36.79a1,1,0,0,1-.19.58A9.7,9.7,0,0,1,142.08,269Z"/><path class="cls-3" d="M95.43,250.91l5.16,12.91a1,1,0,0,0,.68.6h0l48.22,12.22a1.07,1.07,0,0,0,.25,0,1,1,0,0,0,.61-.21l3.9-3h0l.07-.05,6.62-6.13a1,1,0,0,0,.32-.73V223.44a1,1,0,0,0-.19-.58l-6.61-9.36a1,1,0,0,0-.62-.4l-49.05-10h0l-3.68-.7a1,1,0,0,0-1.07.5l-4.54,8.29a1,1,0,0,0-.12.48v38.88A.9.9,0,0,0,95.43,250.91Zm3.8-38.25v36.22l-1.87.42V212.66Zm-1.51,38.6,1.92-.42,4.06,9.43-1.77,1.51Zm51.79,23.32L103.63,263l1.53-1.32,46.23,11.48Zm7.32-6.26-40.32-10.08-6.09-11.49V215.26l3.71-8.22,10,2c-1.46,1.63-3.4,4.78-3.4,10v23.65c0,.14-.34,13.89,14.65,18.44l14.44,3.25a13.06,13.06,0,0,0,3,.34,10.37,10.37,0,0,0,6.44-2v3.36Zm2.42-44.56v36.11c-3.14,4.07-8.72,2.68-9,2.61l-14.41-3.24c-13.42-4.08-13.18-15.93-13.16-16.47V219.08c0-6,2.83-8.77,3.77-9.52L153,215ZM105.09,205.2l7,1.43-3.61,8a1,1,0,0,0-.09.41V247a.94.94,0,0,0,.12.47L115,259.57a1,1,0,0,0,.64.5l39.49,9.87-1.73,1.61L105.63,259.7l-4.4-10.22V211.93Zm-3.66-.71,1.59.3-3.37,5.87H98Z"/><path class="cls-3" d="M404.4,231.09a1.75,1.75,0,0,0-.54-.78l-19-15.65a1.72,1.72,0,0,0-.81-.37l-45.78-8V177.78l4.95-1.09a1.75,1.75,0,0,0,1.37-1.71V159.87a1.76,1.76,0,0,0-.39-1.1c-4.15-5.15-16.6-11.46-22.58-14.49l-.5-.25a81.74,81.74,0,0,0-8.55-3.53A39.15,39.15,0,0,0,293,138.62l-20.06,3.17c-3.23-1.75-8.68-.66-9.73-.43l-69.76,11.58-17.87-5.21a4.38,4.38,0,0,0-2.7.19c-2.89,1.18-13.81,5.12-33.08,6.65-5.74.46-13.88,4.4-15,9.59l-10.38,1.71v0a41.47,41.47,0,0,0-26.73,14.9c-9.08,10.89-13.88,26.69-13.88,45.69,0,39.7,31.23,83.28,59.67,83.28a40,40,0,0,0,6.33-.51l34.94,9.29a1.76,1.76,0,0,0,.91,0l49.48-13.43,150.41,38.61a1.59,1.59,0,0,0,.43.06h.1c.6,0,14.72-.85,22.47-3.82a1.74,1.74,0,0,0,1.09-1.3C400.25,335.5,414.76,261.05,404.4,231.09Zm-4.5.5-2.61.89-15.58-12.13,1.72-2.3Zm-25.62,96.74L357.15,324c2.76-11.66,4.56-27,5.34-45.88.52-12.43.45-23.54.33-30.08l15,3Zm-200.1-13.55L148.63,308c10.59-1.09,17.7-4.06,25.55-10.32Zm.75-20.19a1.13,1.13,0,0,0-.39.21h0c-7.77,6.55-14.31,9.7-24.12,11a36.88,36.88,0,0,0,9.61-7.12c11.44-11.7,17.43-31.9,16.86-56.86-.79-34.78-23.95-69-49-75.22a116.18,116.18,0,0,1,14.72-.17c5.35.48,12.39,4.55,17,8.38a10.56,10.56,0,0,0,6.84,2.6,8,8,0,0,0,2.22-.28l24.13-4.34a2.77,2.77,0,0,0,1.75-1.11l1.62-2.27A71.6,71.6,0,0,1,221.84,202l0,.08a1.63,1.63,0,0,0-.21,1c0,.56-.2,2.61-.49,5-.08.7-.17,1.48-.27,2.3l-15.17,5.33v0l-.16,0a1,1,0,0,0-.49.67c-1.11,5-.18,19.53,2.59,25-.95,2.67-5.67,16.53-3,22.15a1,1,0,0,0,.59.52l5,1.68h0l.17.05,9,1.37q.45,7.36,1.28,15.48ZM112.36,169.72a40.76,40.76,0,0,1,7.47-.68c12.23,0,25.33,8.13,35.93,22.31a89.65,89.65,0,0,1,17.63,50.52c.55,24-5.08,43.31-15.86,54.33-.68.7-1.38,1.35-2.09,2A32.37,32.37,0,0,1,138.09,303c-12,0-25.79-9.2-36.94-24.6C89.6,262.38,83,242.9,83,224.9,83,195.63,94.05,175.3,112.36,169.72Zm14-4.05Zm42.81,3.16a5,5,0,0,0,.53-.05l20.6-3.7.16-.05,1.57,5.82-23.81,4.29-.13,0a5.94,5.94,0,0,1-1.7.2Zm26.8-9.26h.11c.53.39,1.06.74,1.52,1s.86.58,1.12.79a.54.54,0,0,1,.12.75l-5.14,7.2-1.43-5.27a4.51,4.51,0,0,0,.37-.39Zm145.05,6-8.75-3.23a1,1,0,0,0-.54,0L214.85,185c-.46-.65-.94-1.29-1.43-1.92L330.9,159.94l10.16,4.12Zm-133.22,81.7c.22,5.21.71,10.55,1.48,16.08l-3.07-1C205,259.07,206.38,252.45,207.84,247.28Zm0-12a65.6,65.6,0,0,1-1-17.38l2.64.95A139.92,139.92,0,0,0,207.81,235.31Zm11.42,29.83L211.41,264a147.94,147.94,0,0,1,0-45l8.78-2.92A312.61,312.61,0,0,0,219.23,265.14Zm1.2-51.27-9.89,3.29-1.57-.57,11.61-4.07Q220.51,213.18,220.43,213.87ZM310.6,201.4l-9.79-1.72c2.31-.68,5.47-1.65,9.79-3Zm70.83,16-1.54,2.05L230.75,193l1-1.9Zm-46.7-29.89L326.52,190V184.5l8.22-6.39Zm-105,7.37L379.9,221.48l4.77,3.71L378.15,249l-15.37-3c-.06-2.58-.12-4.07-.12-4.11,0-12.89-10.61-14.42-11.6-14.54l-125.42-25Zm150.08,56.38,11.71.72-4,73.44-11.21,2.89Zm.34-2,6.22-22.75L396,234l-4.15,16ZM326.52,204.2V192.07l8.21-2.48v16Zm9.59-29.53a1.83,1.83,0,0,0-.87.51l-10.34,8a1,1,0,0,0-.38.79v19.83l-11.92-2.1v-6.43a1,1,0,0,0-.4-.8,1,1,0,0,0-.89-.15c-4.66,1.46-11.63,3.6-15,4.53l-65.19-11.45a1.76,1.76,0,0,0-1.83.89l-6.25,11.39a77.06,77.06,0,0,0-7-12.92l115.78-22.49,9.18,3.39v5.87Zm-42.58-32.6a35.86,35.86,0,0,1,17.8,1.71,81.56,81.56,0,0,1,8.18,3.37l.5.25c5.14,2.61,16.95,8.6,21.05,13.11v1.39L331.37,158a1,1,0,0,0-.57-.05L212,181.33a71.71,71.71,0,0,0-14.68-13.58l3.16-4.44a2.55,2.55,0,0,0-.48-3.46,5.2,5.2,0,0,0-.49-.36c15.91.11,22.16,7.64,22.22,7.72a1,1,0,0,0,.79.37h.18l66.9-12.69a1,1,0,0,0,.74-.62,1,1,0,0,0-.13-1c-2.86-3.74-8.69-6.59-13.79-8.51Zm-29.67,2.73a20.84,20.84,0,0,1,4.6-.47c4.17,1.13,14.26,4.23,19.05,8.91l-64.6,12.26c-1.79-1.89-9.43-8.67-26.15-7.95a9.89,9.89,0,0,1-1.44-1.38Zm-89.69,6.37a.82.82,0,0,1,.47-.06l18.19,5.3.23,0a9.36,9.36,0,0,0,1.46,1.79l-3.39,4.19a1.91,1.91,0,0,1-1.15.68l-20.6,3.7a1.59,1.59,0,0,1-1.21-.26c-2.93-2-11-7.14-19.93-9.34C163,155.33,171.61,152.21,174.17,151.17Zm-35.65,7.11c11.48-1,24.65,7.27,28.52,9.92l.21.12-2.87,6.78a9.19,9.19,0,0,1-3.49-1.86c-4.49-3.73-11.93-8.28-18.1-8.83a114.07,114.07,0,0,0-14.47.12C129.26,162,134,159.14,138.52,158.28ZM95.92,281.2c-11.84-16.35-18.63-36.29-18.63-54.71,0-19.83,6.33-39.77,20-50.15C86.91,186.36,81,203.28,81,224.9c0,38.15,29.88,80,57.11,80a37.76,37.76,0,0,0,7.14-.68,34.06,34.06,0,0,1-11.77,2C121.32,306.27,107.29,296.9,95.92,281.2Zm80.26,33.57V296.33l44.66-11.66q.9,8.31,2.3,17.36Zm48.4-106.34c.23-1.93.38-3.23.46-4.16l125.67,25,.11,0c.4,0,9.84,1,9.84,12.59,0,.64,2.42,63-8.6,92.16l-125.4-32.19C219.13,253.73,223.08,220.86,224.58,208.43ZM396.38,337c-6.85,2.31-18.36,3.13-20.25,3.25L354,334.58a84.87,84.87,0,0,0,2.68-8.64l18.3,4.63h0a.87.87,0,0,0,.49,0l13.23-3.41a1,1,0,0,0,.75-.91l4.13-75.07,4.35-16.81,3.47-1.19C410.24,261.05,398.05,328.13,396.38,337Z"/><path class="cls-3" d="M301.37,180.76h-.1c-3,0-5.14,1.93-5.14,4.7s2.11,4.69,5.14,4.69h.1c2.22,0,4-2.1,4-4.69S303.59,180.76,301.37,180.76Zm0,7.39c-1.13,0-2.05-1.21-2.05-2.69s.92-2.7,2.05-2.7,2,1.21,2,2.7S302.49,188.15,301.37,188.15Z"/><path class="cls-3" d="M316,176.53H316a5.94,5.94,0,1,0,0,11.88H316c2.7,0,4.9-2.66,4.9-5.94S318.74,176.53,316,176.53Zm0,9.88c-1.6,0-2.9-1.77-2.9-3.94s1.3-3.94,2.9-3.94,2.9,1.77,2.9,3.94S317.64,186.41,316,186.41Z"/></svg>