<svg id="Layer_1" data-name="Layer 1" xmlns="http://www.w3.org/2000/svg" viewBox="0 0 481.89 481.89"><defs><style>.cls-1{fill:#f9d7ed;}.cls-2{fill:#fff;}.cls-3{fill:#2a1d75;}</style></defs><title>Camera_phone</title><path class="cls-1" d="M355.19,304.65,247,120.8a14.77,14.77,0,0,0-19.63-5.59L158,151.7a14.35,14.35,0,0,0-5.68,20L268.59,369.3a13.21,13.21,0,0,0,8.92,6.28,13,13,0,0,0,2.23.23,13.15,13.15,0,0,0,8.37-2.8l63.52-49.62A14.53,14.53,0,0,0,355.19,304.65Z"/><path class="cls-2" d="M174.84,176.21a7.57,7.57,0,0,1-6.6-4.2,7.81,7.81,0,0,1-.66-5.57,6.5,6.5,0,0,1,3.3-4.22c3.35-1.74,7.62-.17,9.52,3.49h0c1.9,3.66.71,8.06-2.64,9.79A6.32,6.32,0,0,1,174.84,176.21Z"/><path class="cls-2" d="M187.07,196.21a6.9,6.9,0,0,1-2.42-.45,8,8,0,0,1-4.83-9.33,6.52,6.52,0,0,1,3.3-4.22c3.35-1.73,7.63-.17,9.52,3.5h0c1.9,3.66.71,8-2.64,9.79A6.37,6.37,0,0,1,187.07,196.21Z"/><path class="cls-3" d="M343.53,299.17,232.09,117.28a14.77,14.77,0,0,0-19.73-5.23l-68.7,37.72a14.35,14.35,0,0,0-5.32,20.06L258.11,365.36a13.19,13.19,0,0,0,9,6.12,12.91,12.91,0,0,0,2.23.19,13.22,13.22,0,0,0,8.32-2.95L340.31,318A14.51,14.51,0,0,0,343.53,299.17ZM267.73,368a9.68,9.68,0,0,1-6.64-4.5L141.32,168a10.84,10.84,0,0,1,4-15.16L214,115.12a11.26,11.26,0,0,1,5.44-1.41c.23,0,.46,0,.7.05-.23.11-.45.21-.67.33l-72.26,39.7a9.92,9.92,0,0,0-3.68,13.88L262.61,362a12.32,12.32,0,0,0,8.42,5.7c.31.06.62.09.93.12A9.74,9.74,0,0,1,267.73,368Zm70.37-52.78-61.82,50.11a10.29,10.29,0,0,1-12-4.42l-119-194.32a7.92,7.92,0,0,1,2.95-11.08l72.25-39.7a12.14,12.14,0,0,1,3.38-1.23,11.2,11.2,0,0,1,5.25,4.5L340.55,301A11,11,0,0,1,338.1,315.25Z"/><path class="cls-3" d="M182.23,167.05l-4.72-7.68a11.44,11.44,0,0,0-15.72-3.76l-.39.24a11.44,11.44,0,0,0-3.76,15.72l15.41,25.1a11.38,11.38,0,0,0,7.08,5.13,11.68,11.68,0,0,0,2.68.32,11.35,11.35,0,0,0,5.81-1.62,10.58,10.58,0,0,0,1.47-.73h0l.34-.21a10,10,0,0,0,3.3-13.79Zm.75,32a8,8,0,0,1-5-3.6l-15.52-25.28a8,8,0,0,1,2.63-11l.35-.21a8,8,0,0,1,11,2.64l4,6.55,10.69,17.41a9.45,9.45,0,0,1-3.1,13l-.37.23A8,8,0,0,1,183,199Zm-8.22-3.41-15.41-25.09a9.42,9.42,0,0,1,3.1-13l.39-.24a9.31,9.31,0,0,1,4.85-1.4,10,10,0,0,0-3.27,1.28l-.34.21a10,10,0,0,0-3.3,13.79l15.52,25.27a10.13,10.13,0,0,0,2.52,2.77A9.35,9.35,0,0,1,174.76,195.62Z"/><path class="cls-3" d="M190.06,166.41a4.08,4.08,0,0,0,3.48,1.94,4,4,0,0,0,2.13-.6l.12-.07a4.09,4.09,0,0,0,1.34-5.62l-8.94-14.55a4.08,4.08,0,0,0-5.61-1.35l-.12.08a4.08,4.08,0,0,0-1.34,5.61Zm-7.49-17.18a2.06,2.06,0,0,1,.94-1.29l.12-.07a2,2,0,0,1,1.08-.31,2.08,2.08,0,0,1,1.78,1l8.94,14.56a2.08,2.08,0,0,1-.69,2.86l-.11.07h0a2.09,2.09,0,0,1-2.87-.68l-8.94-14.55A2.09,2.09,0,0,1,182.57,149.23Z"/><path class="cls-3" d="M185.62,154.05a1.49,1.49,0,0,0,.9.66,2.09,2.09,0,0,0,.35,0,1.52,1.52,0,0,0,.76-.22h0a1.44,1.44,0,0,0,.66-.9,1.46,1.46,0,0,0-.18-1.1l-1.88-3.06a1.44,1.44,0,0,0-2-.47,1.46,1.46,0,0,0-.48,2Z"/><path class="cls-3" d="M176.76,164.61a7.79,7.79,0,0,0-4.17-3.75,6.45,6.45,0,0,0-8.66,4.48,8,8,0,0,0,4.83,9.33,6.91,6.91,0,0,0,2.43.45,6.43,6.43,0,0,0,2.93-.71C177.47,172.67,178.65,168.28,176.76,164.61Zm-6.61,6.49a2.51,2.51,0,0,1-2.08.09,3.31,3.31,0,0,1-1.77-1.61,3.35,3.35,0,0,1-.3-2.37,2.57,2.57,0,0,1,1.28-1.65,2.42,2.42,0,0,1,1.11-.27,3.18,3.18,0,0,1,2.73,1.79A2.94,2.94,0,0,1,170.15,171.1Zm3,1.53a4.43,4.43,0,0,1-2.56.44l.43-.19a5,5,0,0,0,1.83-6.72,5.06,5.06,0,0,0-5.53-2.74,3.86,3.86,0,0,1,.79-.52,4.27,4.27,0,0,1,2-.49,4.76,4.76,0,0,1,1.72.32,5.82,5.82,0,0,1,3.09,2.8C176.37,168.22,175.57,171.4,173.2,172.63Z"/><path class="cls-3" d="M189.35,185.14c-1.89-3.66-6.16-5.23-9.52-3.49s-4.53,6.12-2.64,9.79a7.58,7.58,0,0,0,6.6,4.2,6.36,6.36,0,0,0,2.93-.71C190.07,193.2,191.25,188.8,189.35,185.14Zm-6.61,6.49a3,3,0,0,1-3.85-1.52,3.37,3.37,0,0,1-.29-2.38,2.51,2.51,0,0,1,1.27-1.64,2.43,2.43,0,0,1,1.12-.27,3.18,3.18,0,0,1,2.73,1.79A2.94,2.94,0,0,1,182.74,191.63Zm3.06,1.53a4.44,4.44,0,0,1-2.55.43c.14-.06.28-.11.41-.18a4.94,4.94,0,0,0,1.83-6.72A5,5,0,0,0,180,184a4.66,4.66,0,0,1,.78-.53,4.38,4.38,0,0,1,2-.48,5.57,5.57,0,0,1,4.81,3.12C189,188.74,188.17,191.93,185.8,193.16Z"/><path class="cls-3" d="M201,170.25a4,4,0,0,0-3.23.17,4.28,4.28,0,0,0-1.6,5.83.05.05,0,0,1,0,0,.08.08,0,0,1,0,.05c0,.07.09.12.13.18a4.55,4.55,0,0,0,2.3,1.95,4.09,4.09,0,0,0,1.45.27,3.79,3.79,0,0,0,1.77-.43,4.28,4.28,0,0,0,1.6-5.83A4.62,4.62,0,0,0,201,170.25Zm-2,5.64a.79.79,0,0,1-1-.36l-.09-.15a.93.93,0,0,1-.08-.67.6.6,0,0,1,.31-.41.52.52,0,0,1,.26-.06.73.73,0,0,1,.22,0,1,1,0,0,1,.56.5A.83.83,0,0,1,199,175.89Zm2.08.53a3,3,0,0,0-1.82-4,2.26,2.26,0,0,0-.68-.12l.08-.06a2,2,0,0,1,1.61-.06,2.6,2.6,0,0,1,1.39,1.27A2.33,2.33,0,0,1,201.11,176.42Z"/></svg>