<svg id="Layer_1" data-name="Layer 1" xmlns="http://www.w3.org/2000/svg" viewBox="0 0 481.89 481.89"><defs><style>.cls-1{fill:#f9d7ed;}.cls-2{fill:#fff;}.cls-3{fill:#2a1d75;}</style></defs><title>Deepfake</title><path class="cls-1" d="M344.82,175.46c0-.09-.06-.18-.1-.27-.38-.84-9.4-20.69-17.23-28.76-4.5-4.64-10.35-7.21-15.06-9.27-3.27-1.44-6.37-2.8-7.31-4.24-2.81-4.29-8.2-5.45-9.95-5.82h0c-.19-.19-.48-.51-.73-.78-1.94-2.11-5.55-6-9.54-6.69a15.27,15.27,0,0,1-4.45-2,34.48,34.48,0,0,0-17.53-5.08c-3.95-.09-38.79-.69-46.52,3.34a24.9,24.9,0,0,0-9.21,8.22,16.86,16.86,0,0,1-3.28,3.64c-4.5,3.37-7.39,7-9.7,16.64-6.64,7-10.77,16.29-14.1,23.8-.65,1.47-1.27,2.87-1.86,4.14a30.43,30.43,0,0,1-2.48,3.75,26.85,26.85,0,0,0-3.53,5.77l-19.82,6.81a5.94,5.94,0,0,0-4,5.8l.11,4a2.68,2.68,0,0,1-.32,1.32c-1.19,2.21-3.22,6.39-3.4,9.6-.19,3.39,2.87,8,5.89,12.12.29.39.51.68.56.76a15.67,15.67,0,0,1,.44,1.94,22.65,22.65,0,0,0,1.88,6.31,29.67,29.67,0,0,0-3.15,5.9c-.52,2.29,1,4.44,3,6.19a35.28,35.28,0,0,0-1.08,7.26c-.24,5.43,3.6,15.85,6.4,23.46a67.84,67.84,0,0,1,2.22,6.51,84.87,84.87,0,0,0,4.26,15.29c3.73,9.79,8.51,16.65,14.18,20.38a18.7,18.7,0,0,0,11,3.2,21.55,21.55,0,0,0,5.21-.8c2.11-.58,4.3-1.32,6.56-2.16l7.87-.8c6.87-.42,9.34.6,11.08,2.38,2.2,2.25,17.86,30.78,20.3,53.79a23.15,23.15,0,0,1,.11,4.16,6.47,6.47,0,0,0,.09,2c33.94-28.71,66.65-50.35,97.91-63.79a.47.47,0,0,0,0-.86c-4-1.77-18.25-9.41-19.6-29.09a3.5,3.5,0,0,1,.29-1.66c3.26-7.54,20.57-48,20.53-56.89,0-10.36,1.05-18.48,3.34-24.82C346.68,193,348,187.83,344.82,175.46Z"/><path class="cls-2" d="M181.06,311.53a17.18,17.18,0,0,1-10.44-1.68c-5.63-2.77-10.78-8.51-15.32-17.06a77.77,77.77,0,0,1-5.64-13.52,61.49,61.49,0,0,0-2.78-5.71c-3.43-6.65-8.13-15.76-8.54-20.76a82.19,82.19,0,0,1-.1-10.53c-.7-1.84-1.6-5.38-2.48-8.81-.59-2.31-1.32-5.17-1.6-5.84l-.58-.62c-3.23-3.4-6.57-7.3-6.78-10.43-.2-3,1.18-7,2-9.18a2.55,2.55,0,0,0,.14-1.25l-.55-3.63a5.46,5.46,0,0,1,3-5.76c8-3.91,32.26-15.77,41.87-20.44a11.13,11.13,0,0,1,9.42-.17c5.88,2.62,16.81,7.81,23.88,13.14,9.13,6.87,26.24,62.79,31.27,79.76a4.59,4.59,0,0,1-1.31,4.71c-7.18,6.59-32.08,28.68-50.83,36.45A20,20,0,0,1,181.06,311.53Z"/><path class="cls-3" d="M303.71,225.76c.18-.42,1.72-4.19-.64-5.86a3.37,3.37,0,0,0-3.33-.51,4,4,0,0,0-2.23,3.15c-.08.55-.28,1.83-.4,2.57a1.33,1.33,0,0,1-.25.6,18.58,18.58,0,0,0-1.29,1.93,3.16,3.16,0,0,0-.08,2.75,2.76,2.76,0,0,0,2.21,1.39l.48,0a4.12,4.12,0,0,0,2.95-1.57,3.82,3.82,0,0,1,.68-.59,2.47,2.47,0,0,1,1.21.15,5.68,5.68,0,0,0,1.78.28c1.38-.05,5.5-3.21,7.45-6.51,1.49-2.5,1.71-4.93.66-7-1.66-3.27-4.15-3.78-7.7-3.9a7.42,7.42,0,0,1,.69-4.67c2.27-4,5.92-4.14,8.58-3,2.83,1.27,5.48,4.44,4.42,9.54s-3.08,11.21-9.6,16.33l1.23,1.57c7.08-5.54,9.24-12.26,10.33-17.49,1.31-6.27-2.18-10.26-5.57-11.77A8.34,8.34,0,0,0,304.16,207c-2.82,4.95.88,11.58,1,11.86l1.74-1a18.41,18.41,0,0,1-1.29-3.19c3.14.16,4.42.71,5.47,2.78a4.67,4.67,0,0,1-.13,4.22,15.65,15.65,0,0,1-6.25,6.4,5.31,5.31,0,0,1-1.21-.21,3.74,3.74,0,0,0-2.44-.08,4,4,0,0,0-1.38,1.05c-.64.65-1.07,1-1.73,1-.27,0-.6-.13-.71-.33a1.26,1.26,0,0,1,.08-.92,18.62,18.62,0,0,1,1.13-1.66,3.37,3.37,0,0,0,.6-1.45c.13-.75.33-2,.41-2.6a2.08,2.08,0,0,1,1-1.61,1.42,1.42,0,0,1,1.4.31c.82.58.32,2.56-.05,3.43Z"/><path class="cls-3" d="M344.55,171a1.4,1.4,0,0,0-.09-.29c-.37-.88-9.18-21.76-17.08-30.38-4.55-4.94-10.56-7.78-15.39-10-3.36-1.59-6.54-3.09-7.48-4.61-2.78-4.53-8.33-5.89-10.15-6.33h0c-.19-.2-.49-.54-.74-.83-2-2.24-5.59-6.43-9.71-7.21a16.12,16.12,0,0,1-4.58-2.17,35.88,35.88,0,0,0-18.06-5.78c-4.1-.2-40.29-1.81-48.43,2.15a26,26,0,0,0-9.8,8.28,17.5,17.5,0,0,1-3.51,3.69c-4.77,3.38-7.89,7.11-10.56,17-7.1,7.06-11.65,16.62-15.32,24.33-.72,1.51-1.4,2.94-2,4.25a31.94,31.94,0,0,1-2.68,3.83,26.71,26.71,0,0,0-3.83,5.89l-20.8,6.52a6.15,6.15,0,0,0-4.33,5.9v4.13a2.75,2.75,0,0,1-.37,1.36c-1.31,2.26-3.53,6.56-3.81,9.89-.29,3.51,2.76,8.41,5.78,12.75l.56.81a17,17,0,0,1,.4,2,23.53,23.53,0,0,0,1.77,6.61,31,31,0,0,0-3.44,6c-.61,2.37.95,4.65,3,6.52a37.35,37.35,0,0,0-1.33,7.52c-.4,5.63,3.29,16.57,6,24.55a68.93,68.93,0,0,1,2.12,6.83,87.42,87.42,0,0,0,4,16c3.6,10.28,8.37,17.54,14.16,21.58a19.39,19.39,0,0,0,11.33,3.64,22.64,22.64,0,0,0,5.44-.68c2.21-.55,4.51-1.25,6.88-2.06l8.2-.61c7.15-.24,9.68.89,11.44,2.79,2.22,2.4,17.69,32.49,19.57,56.47a23.47,23.47,0,0,1,0,4.32,6.69,6.69,0,0,0,0,2.05l3.42-.74a4.74,4.74,0,0,1,0-1,27.58,27.58,0,0,0,0-4.88c-2-25-17.87-55.73-20.49-58.57a11.2,11.2,0,0,0-6.1-3.39c59.34-17.87,79.77-47.91,80-48.22l-1.67-1.11c-.21.32-21.38,31.36-83.6,48.79h-.39c18.81-8.33,38.53-21.14,45.44-25.77a5.18,5.18,0,0,0,2.25-5c-2.72-19.74-12.29-84.86-21.29-94.06-7-7.13-18.25-14.76-24.35-18.67a12.55,12.55,0,0,0-10.52-1.42L170,171.19c.55-.77,1.14-1.54,1.66-2.22a31.87,31.87,0,0,0,3-4.4c.66-1.32,1.35-2.77,2.08-4.3,3.61-7.58,8.1-17,15-23.67a1.64,1.64,0,0,0,.2-.26c7.43-4.64,19.42-5.52,33.64-2.22,16.6,3.86,30.17,12.23,31.57,19.47,2.44,12.6,13.16,23.26,17.74,27.81l.25.25c1.73,1.72,1.49,4.47,1.19,7.95-.37,4.29-.83,9.64,2.57,15,1.87,2.92,4.3,4.52,7.21,4.76q.38,0,.75,0c3.26,0,6.54-1.67,9.18-3.51-.29.86-.57,1.78-.82,2.75l3.39.88c1.79-6.93,4.42-10.27,9.1-11.54,1.77-.48,11.71-.71,16.45,5,3.79,4.59,3.27,11.91-1.54,21.75-4.32,8.84-15.24,17.73-18.72,20.14-2,1.37-5.92,3.29-10.22.75-3-1.76-2.67-7.33-2.3-9.33h0L288,235.6c-.08.39-1.79,9.63,3.95,13a12.08,12.08,0,0,0,6.18,1.72,13.66,13.66,0,0,0,7.81-2.61,88.1,88.1,0,0,0,10.54-9.06,154.56,154.56,0,0,0-4.32,42.51v.08A38.94,38.94,0,0,0,335,317l1.26-3.27c-.83-.32-20.12-8.08-20.63-32.15,2.29-4.9,23.11-49.65,23.33-59.34.25-10.77,1.61-19.17,4.18-25.69C346,189.27,347.52,183.9,344.55,171Zm-149.17-4a9.07,9.07,0,0,1,7.59,1c6,3.83,17,11.29,23.74,18.17,6.56,6.71,15,53.81,20.32,92.1a1.68,1.68,0,0,1-.73,1.64c-6.4,4.3-39.44,26-61.64,31.47a16.26,16.26,0,0,1-13.93-2.43c-13-9.08-16.64-34.84-16.67-35.1a54.22,54.22,0,0,0-2.29-7.56C149.32,259,145.61,248,146,243a30.55,30.55,0,0,1,.86-5.42c.45.3.89.58,1.3.82l.74.45c1.75,2.36,5.86,8.85,5.2,12.51l2,.36c.56-3.07-1.3-7.18-3-10.19,5.22,3.64,6.56,5.77,6.84,6.8l1.93-.53c-.79-2.87-4.91-6.51-12.65-11.14-3.45-2.07-6.93-5.12-6.33-7.44s10.19-15.56,16.46-23.8l.09-.14c1.89-3.62,1.88-6.61-.09-9a63.4,63.4,0,0,0-6.63-4.88l-.89,1.79c.57.29,5.45,3.8,5.92,4.29l.13.15c1.32,1.6,1.27,3.83-.17,6.63-1.11,1.45-6.52,8.6-10.91,14.88a36.79,36.79,0,0,1-.73-3.65,11.13,11.13,0,0,0-.73-3.05c-.13-.24-.33-.53-.81-1.22-1.33-1.91-5.39-7.74-5.16-10.46s2.42-6.81,3.35-8.43a6.23,6.23,0,0,0,.84-3.11v-4.13a2.67,2.67,0,0,1,1.88-2.56C154.88,179.59,183.89,170.5,195.38,166.93ZM339.86,195.3c-2.72,6.91-4.16,15.71-4.42,26.89-.16,7.1-14.22,38.94-21.44,54.58a150.19,150.19,0,0,1,5.32-41.21,43.62,43.62,0,0,0,6.44-9.32c5.48-11.19,5.84-19.78,1.1-25.52-5.89-7.12-17.48-6.88-20.07-6.18a14.06,14.06,0,0,0-9.1,7.44c-2.72,2.38-7.28,5.68-11.42,5.33-2.29-.18-4.15-1.44-5.69-3.84-3-4.74-2.62-9.5-2.26-13.7.32-3.68.62-7.15-1.77-9.53l-.25-.25c-4.45-4.43-14.86-14.78-17.18-26.78-1.78-9.18-18-17.53-33.09-21-13.57-3.16-25.25-2.56-33.19,1.39,2.27-7.58,4.79-10.53,8.69-13.29a20.62,20.62,0,0,0,4.23-4.38,22.48,22.48,0,0,1,8.59-7.3c6.21-3,35.84-2.33,46.72-1.8a32.3,32.3,0,0,1,16.46,5.29,18.46,18.46,0,0,0,5.71,2.6c2.92.55,6.17,4.28,7.72,6.07,1,1.15,1.38,1.58,2,1.79l.57.15c1.47.36,6,1.46,8,4.76,1.49,2.42,4.79,4,9,5.94,4.55,2.15,10.22,4.82,14.3,9.26,7.17,7.82,15.59,27.39,16.37,29.23C343.78,183.33,342.72,188,339.86,195.3Z"/><path class="cls-3" d="M176.05,227.33l-1.74,1c2.23,3.94,1.47,7.4-2.4,10.87l1.33,1.49C177.8,236.59,178.75,232.1,176.05,227.33Z"/><path class="cls-3" d="M164.26,255.6c-1.22-.34-4-.76-8.14.82a4.61,4.61,0,0,0-2.41,2.62c-1.21,2.84-.89,6.87.86,11,0,.05.05.09.07.14a10.18,10.18,0,0,0,6,4.13,9.41,9.41,0,0,0,2.18.25,14.14,14.14,0,0,0,7.51-2.5,79.48,79.48,0,0,0,16-13.42,1,1,0,0,0,.24-.78,1,1,0,0,0-.42-.7,31.76,31.76,0,0,0-12-4.75A11.36,11.36,0,0,0,164.26,255.6Zm-8.71,4.23a2.67,2.67,0,0,1,1.29-1.54c4.63-1.79,7.19-.67,7.2-.66a1.21,1.21,0,0,0,1.44-.43,9.39,9.39,0,0,1,8.42-2.76,28.3,28.3,0,0,1,8.46,2.87c-7.75,1-21.91,4.87-26.6,10.19C154.83,264.53,154.73,261.75,155.55,259.83Zm13.7,10.6c-3.61,2.29-6.87,2.78-9.68,1.46a8.5,8.5,0,0,1-2.9-2.28c2.9-4.8,18-9.43,26.43-10.4A80.29,80.29,0,0,1,169.25,270.43Z"/><path class="cls-3" d="M161.05,230.66l-.13,0c-3.81-1.15-6.9,2.49-7,2.65l1.54,1.28a7.38,7.38,0,0,1,1.78-1.47,7.82,7.82,0,0,0,3.46,3.61,8.92,8.92,0,0,0,4.19,1.37,2.23,2.23,0,0,0,2.06-1h0c1-1.69-1-3.93-3.33-5.31a10.67,10.67,0,0,0-2.48-1.09h-.06Z"/></svg>