<svg id="Layer_1" data-name="Layer 1" xmlns="http://www.w3.org/2000/svg" viewBox="0 0 481.89 481.89"><defs><style>.cls-1{fill:#f9d7ed;}.cls-2{fill:#fff;}.cls-3{fill:#2a1d75;}</style></defs><title>Drone</title><path class="cls-1" d="M432.73,218.47c0-18.1-28-32.27-63.79-32.27s-63.79,14.17-63.79,32.27a17.52,17.52,0,0,0,.39,3.62L287,221.42c0-.93,0-2.22.07-4,.17-8.58-5.52-12.39-8.63-13.24l-19.61-7.29-.17-.05c-7-1.83-13.29,3.69-14.05,4.4l-5.46,4.28-12.42-15.05c22.78-4.64,38.47-15.82,38.47-29.2,0-17.68-27.34-31.52-62.25-31.52s-62.25,13.84-62.25,31.52c0,16.76,24.61,30.07,56.93,31.39l.14,2.75a1,1,0,0,0,1,1h5.13a1,1,0,0,0,1-.88l.33-2.73h.95l16,26.07-19,14.91-31.61-.51a18.76,18.76,0,0,0,2-8.35c0-18.79-29.13-33.51-66.31-33.51s-66.31,14.72-66.31,33.51c0,17.42,25,31.33,58.31,33.27v6.22a1,1,0,0,0,1,1h5.6a1,1,0,0,0,1-.67l2.18-6.33c15.44-.19,29.41-2.92,40.38-7.42l28.87,2.33-2.49,2c-5.1,4.17-7.81,11.71-6.84,15.66a3.43,3.43,0,0,0,2.56,2.74,3.54,3.54,0,0,0,3.85-2,4.2,4.2,0,0,1,.45-.62,1.06,1.06,0,0,1,.44.07l.71.32c-2.39,2.56-7.15,9-4.11,17.38a1.72,1.72,0,0,0,1,1L198.6,300.4h0a2.64,2.64,0,0,0,.56.19,3.29,3.29,0,0,0,.76.09,3.56,3.56,0,0,0,2-.64l8.68-6.15a1.72,1.72,0,0,0,.74-1.42v-6.82l.11-.07,6.25-4.54.07,2.15a1.75,1.75,0,0,0,2.89,1.26l13.38-11.55,3.48,3.68c-11.67,6.31-18.07,14.54-18.07,23.35,0,9.37,7.2,18.07,20.28,24.5,11.44,5.63,26.26,9,42.17,9.57l1.57,11.6a.94.94,0,0,0,.34.62l3,2.55a1,1,0,0,0,1.09.14l4.05-2a1,1,0,0,0,.56-.84l.75-12.11c15.57-.69,30-4,41.26-9.53,13.08-6.43,20.28-15.13,20.28-24.5s-7.2-18.06-20.28-24.49c-12.68-6.24-29.5-9.68-47.37-9.68a128.06,128.06,0,0,0-26.35,2.66l-8.7-11.08,18.36-15.86,51.33-1.07c11.14,6.15,27,10,45,10.32l2.6,7.54a1,1,0,0,0,.95.68h5.6a1,1,0,0,0,1-1v-7.45C408.8,248.56,432.73,235.19,432.73,218.47Z"/><path class="cls-2" d="M193.35,288.25c-.22,0-.44,0-.67,0a8,8,0,0,1-3.94-1.82,7.87,7.87,0,0,1-2.52-3.52,3.5,3.5,0,0,1,4-4.87,8,8,0,0,1,3.94,1.82c2.67,2.2,3.56,5.37,2,7.21A3.6,3.6,0,0,1,193.35,288.25Z"/><path class="cls-2" d="M293.93,302.15c-6.46,0-13.32-2-13.32-5.64s6.86-5.64,13.32-5.64,13.31,2,13.31,5.64S300.38,302.15,293.93,302.15Z"/><path class="cls-2" d="M377.71,220.62c-5.85,0-11.77-1.74-11.77-5.06s5.92-5.06,11.77-5.06,11.78,1.74,11.78,5.06S383.56,220.62,377.71,220.62Z"/><path class="cls-2" d="M210.52,163.07c-5.15,0-10.35-1.55-10.35-4.52s5.2-4.52,10.35-4.52,10.35,1.55,10.35,4.52S215.66,163.07,210.52,163.07Z"/><path class="cls-2" d="M116.13,227.05c-5.85,0-11.77-1.74-11.77-5.06s5.92-5.06,11.77-5.06,11.78,1.74,11.78,5.06S122,227.05,116.13,227.05Z"/><rect class="cls-3" x="195.72" y="242.74" width="96.75" height="2" transform="translate(-99.83 217.22) rotate(-40.55)"/><ellipse class="cls-3" cx="289.72" cy="297.45" rx="4.21" ry="1.59"/><path class="cls-3" d="M373.1,215.56c-2,0-3.69.62-3.69,1.39s1.66,1.39,3.69,1.39,3.69-.63,3.69-1.39S375.14,215.56,373.1,215.56Z"/><path class="cls-3" d="M207.93,138.81c-25.43,0-45.35,9.08-45.35,20.67h2c0-10.29,19.44-18.67,43.35-18.67Z"/><path class="cls-3" d="M158.61,223h2c0-12.32-21.23-22-48.33-22v2C137.83,203.07,158.61,212,158.61,223Z"/><path class="cls-3" d="M436.89,217c0-18.1-28-32.28-63.79-32.28S309.31,198.88,309.31,217a17.43,17.43,0,0,0,.39,3.61l-18.58-.66c0-.94,0-2.23.07-4,.17-8.57-5.52-12.38-8.63-13.23L263,195.41l-.17,0c-7-1.83-13.29,3.69-14,4.39L243.27,204l-12.42-15c22.78-4.64,38.47-15.82,38.47-29.21,0-17.67-27.34-31.51-62.25-31.51s-62.25,13.84-62.25,31.51c0,16.76,24.61,30.07,56.93,31.4l.14,2.74a1,1,0,0,0,1,1H208a1,1,0,0,0,1-.88l.34-2.72h1l16,26.07-19,14.91-31.61-.52a18.72,18.72,0,0,0,2-8.34c0-18.8-29.13-33.52-66.31-33.52s-66.31,14.72-66.31,33.52c0,17.42,25,31.33,58.31,33.27v6.22a1,1,0,0,0,1,1H110a1,1,0,0,0,1-.67l2.18-6.33c15.44-.19,29.41-2.92,40.37-7.42l28.88,2.33-2.49,2c-5.1,4.17-7.81,11.7-6.84,15.66a3.43,3.43,0,0,0,2.56,2.74,3.55,3.55,0,0,0,3.85-2,4.84,4.84,0,0,1,.45-.62,1.5,1.5,0,0,1,.44.08l1.45.65c-2.18,2.31-7.09,8.68-4.15,16.79a1,1,0,0,0,.55.58l24.89,10.59h0a1.88,1.88,0,0,0,.42.14,2.48,2.48,0,0,0,.61.07,2.8,2.8,0,0,0,1.59-.5l8.68-6.14a1,1,0,0,0,.42-.82v-6.37a9.28,9.28,0,0,0,.86-.52l6.25-4.53.07,2.15a1.75,1.75,0,0,0,2.89,1.26l13.38-11.55,3.48,3.68c-11.67,6.3-18.07,14.53-18.07,23.35,0,9.36,7.2,18.06,20.28,24.49,11.44,5.63,26.26,9,42.17,9.57l1.57,11.61a1,1,0,0,0,.34.62l2.95,2.55a1,1,0,0,0,.65.24,1,1,0,0,0,.44-.11l4-2a1,1,0,0,0,.56-.83l.75-12.11c15.57-.69,30-4,41.26-9.54,13.08-6.43,20.28-15.13,20.28-24.49s-7.2-18.06-20.28-24.5c-12.68-6.23-29.5-9.67-47.37-9.67a128.06,128.06,0,0,0-26.35,2.66l-8.7-11.08L274.6,240l51.34-1.06c11.13,6.15,27,10,45,10.31l2.6,7.55a1,1,0,0,0,.95.67h5.6a1,1,0,0,0,1-1V249C413,247.06,436.89,233.7,436.89,217Zm-63.79,3c-6,0-9.77-1.82-9.77-3.06s3.8-3.06,9.77-3.06,9.78,1.81,9.78,3.06S379.07,220,373.1,220Zm0,2c3.76,0,7.55-.73,9.78-2.12v3.55c0,3.43-4.39,6.21-9.78,6.21s-9.77-2.78-9.77-6.21v-3.55C365.55,221.28,369.34,222,373.1,222Zm0,20a9.77,9.77,0,0,1-8.14-4.38q3.54.24,7.26.24v-2c-2.84,0-5.61-.12-8.31-.34a9.74,9.74,0,0,1-.58-3.3V228a14.95,14.95,0,0,0,19.55,0v4.18A9.79,9.79,0,0,1,373.1,242Zm6,.34v3.3q-3,.13-6,.14l-1.24,0-.67-1.93a12,12,0,0,0,1.91.17A11.77,11.77,0,0,0,379.1,242.31Zm-17.74-9.55a11.71,11.71,0,0,0,.39,2.53,81.36,81.36,0,0,1-14.87-2.88Zm-6.53,3.59c-5,.09-12.94.24-25.29.49a47,47,0,0,1-8.11-5.06l19,.47A68.21,68.21,0,0,0,354.83,236.35Zm6.5-5.59-20.44-.5c-4.53-1.94-8.11-4.3-10.38-6.93,20.79.73,28.16,1,30.82,1Zm-25.22-.62-17-.41a21.82,21.82,0,0,1-5-7l13.92.49A23.94,23.94,0,0,0,336.11,230.14Zm-21.9-.53-36.93-.91a1,1,0,0,1-.91-.66,1,1,0,0,1,.3-1.08l5.94-5.07a1.08,1.08,0,0,1,.67-.24l27,1A22.2,22.2,0,0,0,314.21,229.61Zm-72.52-24.34-9.3,7.29-15.66-21.63a117.06,117.06,0,0,0,11.88-1.5Zm-43-42.73a20.91,20.91,0,0,0,16.7,0v2.85c0,2.85-3.82,5.26-8.35,5.26s-8.35-2.41-8.35-5.26Zm18.38,12.94,1.71,2.07c-.85.09-1.71.18-2.59.25A10,10,0,0,0,217.1,175.48Zm-10-13.2c-5.4,0-8.35-1.67-8.35-2.52s2.95-2.52,8.35-2.52,8.35,1.66,8.35,2.52S212.47,162.28,207.07,162.28Zm-8.35,7.38a13.26,13.26,0,0,0,16.7.06V173a8.29,8.29,0,0,1-1.67,5c-1.9.11-3.85.18-5.82.18v2c1.19,0,2.36,0,3.52-.07a8.27,8.27,0,0,1-4.38,1.26,8.36,8.36,0,0,1-8.35-8.35Zm6.62,13.52,2.49,4-.07.56h-.69c-1.17,0-2.34,0-3.49-.06l-.26-5.12A10.39,10.39,0,0,0,205.34,183.18Zm2.42.12a8.85,8.85,0,0,0,.9-.1l3.25,4.49-1.42.06Zm3-.64a10.38,10.38,0,0,0,4-2.74c1.91-.12,3.78-.31,5.6-.53l5.7,6.9a116.13,116.13,0,0,1-11.74,1.29Zm-62.41-22.88c0-15.44,26.35-28,58.75-28s58.75,12.57,58.75,28c0,11.88-15.59,22.05-37.52,26.12l-5.64-6.83c18-2.73,30.62-10.36,30.62-19.59h-2c0,8.3-12.67,15.36-30.12,17.77l-3.74-4.53V159.78h0v0c0-3-5.21-4.52-10.35-4.52s-10.35,1.55-10.35,4.52v0h0V173a10.36,10.36,0,0,0,4.54,8.56l.31,6.12C171.75,186.34,148.32,174.35,148.32,159.78Zm55.52,33.09-.07-1.38h3.54l-.17,1.38Zm8.76-1.7c.59,0,1.18,0,1.76-.09l16.45,22.72-2.92,2.29Zm-7.82,43L194,242.67c-3.75-.13-14.2-.58-26.61-1.12a31.34,31.34,0,0,0,7.21-7.84Zm-93.42,19.19q-3,0-6-.14v-4.52a11.68,11.68,0,0,0,6,1.67,12,12,0,0,0,1.91-.17l-1.09,3.15Zm0-5a9.73,9.73,0,0,1-7.66-3.73c2.78.22,5.64.34,8.58.34v-2c-3.39,0-6.68-.16-9.86-.46a9.54,9.54,0,0,1-.83-3.93v-4.18a14.93,14.93,0,0,0,19.54,0v4.18A9.79,9.79,0,0,1,111.36,248.4Zm-9.77-22.08c2.22,1.39,6,2.12,9.77,2.12s7.55-.73,9.77-2.12v3.55c0,3.43-4.38,6.21-9.77,6.21s-9.77-2.78-9.77-6.21Zm9.77.12c-6,0-9.77-1.82-9.77-3.06s3.8-3.06,9.77-3.06,9.77,1.81,9.77,3.06S117.33,226.44,111.36,226.44Zm11.39,15.12,35.76,1.61a68.31,68.31,0,0,1-8.84,4l-28.33-2.29A12.2,12.2,0,0,0,122.75,241.56Zm.34-2c0-.31,0-.63,0-.95v-5.75l47.26.77a33.93,33.93,0,0,1-8.68,7.66C148.43,240.72,133.83,240.06,123.09,239.57ZM48.55,223.38c0-16.55,28.17-30,62.81-30s62.81,13.47,62.81,30a16,16,0,0,1-2.45,8.28l-48.59-.79V223.4h0v0c0-3.33-5.92-5.06-11.77-5.06s-11.77,1.73-11.77,5.06v0h0v15.22a11.55,11.55,0,0,0,.6,3.69C80.49,240,65.94,232.25,65.94,223h-2c0,10.57,15.64,19.17,37.2,21.4a12,12,0,0,0,2.22,2.8v5.9C72.49,251.25,48.55,238.63,48.55,223.38ZM111,256.88l-.42,1.22h-5.19v-1.35C107.21,256.83,109.08,256.88,111,256.88Zm-5.61,5V260.1h4.5l-.61,1.77Zm9-8.52,1.3-3.76a11.79,11.79,0,0,0,4.26-2.85l25,2A115.43,115.43,0,0,1,114.31,253.35Zm43-5.6a56.66,56.66,0,0,0,7.53-4.3c15,.67,22.72,1,26.76,1.11l-6.9,5.4ZM190.76,285a.44.44,0,0,1,.31-.11,1.2,1.2,0,0,1,.72.29,1.22,1.22,0,0,1,.41.64.4.4,0,0,1,0,.33h0c-.13.16-.6.17-1-.18S190.63,285.19,190.76,285Zm-.91,2.52a3.17,3.17,0,0,0,2,.74,2.37,2.37,0,0,0,1.7-.69,1.37,1.37,0,0,1-.27.82,2,2,0,0,1-1.74.46,6.49,6.49,0,0,1-4.82-4,2,2,0,0,1,.13-1.79,1.62,1.62,0,0,1,1.3-.49,2.94,2.94,0,0,1,.44,0,5.11,5.11,0,0,1,1.52.47,2.22,2.22,0,0,0-.88.64A2.74,2.74,0,0,0,189.85,287.54Zm22.83,2-8.25,5.84a.73.73,0,0,1-.61.12l-.1,0h0a.73.73,0,0,1-.35-.3c-.89-1.55-1.28-7.42,1.4-10.39a8.38,8.38,0,0,0,4.55,1.28,11.25,11.25,0,0,0,3.39-.56ZM201,294.27l-1.57-.68c-1.48-4.95.6-9,2.71-11.54a5.94,5.94,0,0,0,1.07,1.46C200.68,286.43,200.33,291.27,201,294.27Zm-3.86-1.66-4.21-1.82a3.36,3.36,0,0,0,1.92-1.11,3.83,3.83,0,0,0,.48-3.69,8.48,8.48,0,0,0-6.46-5.34,3.51,3.51,0,0,0-4,4.87,7.34,7.34,0,0,0,1.4,2.39l-2.55-1.1c-2.14-6.68,2.08-11.76,4.23-13.81L199,277.94l.17.11a5.05,5.05,0,0,1,2.09,2C198.84,282.63,196.09,287,197.1,292.61Zm-15.76-6.81-1.19-.51c-2.21-6.77,2.27-11.82,4.43-13.77l1.39.62C183.63,274.59,180.09,279.52,181.34,285.8ZM238.74,269l-.5-4.42,7.63,8.42c-.65.3-1.31.6-2,.91l-.37.19Zm61.84,49c-3.3.32-6.71.49-10.23.49v2c3.22,0,6.36-.14,9.39-.39a11.31,11.31,0,0,1-21.34-5.23v-5.15c2.35,2.63,6.54,4.39,11.32,4.39s9-1.76,11.31-4.39v5.15A11.12,11.12,0,0,1,300.58,318Zm-11.05,10.18.06.9-1.95,0-.15-1.06A13.81,13.81,0,0,0,289.53,328.18Zm2-.13a13.23,13.23,0,0,0,4.23-1.33l-.15,2.3c-1.33.05-2.67.07-4,.08ZM276.4,308.94l-22.5-23.85c.65-.34,1.33-.66,2-1l20.48,22.61Zm13.32,3.17c-6.24,0-11.32-3.25-11.32-7.24v-4.36c2.51,1.69,7,2.58,11.32,2.58s8.81-.89,11.31-2.58v4.36C301,308.86,296,312.11,289.72,312.11Zm0-11c-6.91,0-11.32-2.16-11.32-3.64s4.41-3.64,11.32-3.64S301,296,301,297.45,296.62,301.09,289.72,301.09Zm-13.32-3.64v0h0v6.26l-18.54-20.47a71.75,71.75,0,0,1,14.23-4l10.5,13.39C279.05,293.55,276.4,295.17,276.4,297.45Zm-20-15.76-6.17-6.81a93.21,93.21,0,0,1,14.89-4.45l5.53,7A71,71,0,0,0,256.43,281.69Zm-1.91.87c-.71.33-1.39.67-2,1L246,276.73c.74-.36,1.51-.7,2.28-1Zm-27.38,15.87c0-8,6.46-15.3,17-20.77l6.56,6.95c-6.09,3.73-9.66,8.38-9.66,13.47h2c0-4.47,3.37-8.61,9.06-12l24.3,25.76v3a13.34,13.34,0,0,0,9,12.59l.21,1.51C252.89,327.59,227.14,314.43,227.14,298.43Zm62.65,34.15.44,7.58L289,339.08l-.89-6.52Zm-.38,9.52,1,.86.07,1.25-.87-.76Zm3.1,2.84-.09-1.53,2.37-1.16-.1,1.62Zm2.42-5-2.63,1.28-.51-8.65q1.81,0,3.6-.06Zm-3.64-72.2c35.37,0,64.15,13.76,64.15,30.67,0,15.89-25.41,29-57.82,30.52l.22-3.55a13.44,13.44,0,0,0,4.21-5.52c21.82-2.33,37.62-11.07,37.62-21.8h-2c0,9.41-14.85,17.35-35,19.7a13.31,13.31,0,0,0,.33-2.91V297.48h0v0c0-3.67-6.86-5.64-13.31-5.64a31,31,0,0,0-4.94.39l-10.45-13.31a104.53,104.53,0,0,1,16-1.21v-2a106.55,106.55,0,0,0-17.44,1.39L267.35,270A126.8,126.8,0,0,1,291.29,267.76Zm-43.48,4.42-9.75-10.77a1,1,0,0,1-.25-.67v-.05h0a1,1,0,0,1,.35-.69l10.47-9a1,1,0,0,1,.74-.23,1,1,0,0,1,.68.38l12.73,16.21A91,91,0,0,0,247.81,272.18Zm3.8-22.24a3,3,0,0,0-4.29-.42l-10.47,9a2.92,2.92,0,0,0-1,2.08,2,2,0,0,0,0,.35h0v0c0,.11,0,.22,0,.34l.77,6.86-11.3,9.76-.06-1.78a1.76,1.76,0,0,0-2.78-1.36l-8.85,6.43c-.19.13-4.67,3-7.89-.08-.12-.12-.1-.13-.21-.18a4.57,4.57,0,0,1-.8-1.57,7.86,7.86,0,0,0-3.7-4.25l-.27-.18-.26-.14-18.86-8.43-.15-.06a3.94,3.94,0,0,0-5,1.94l-.12.2c-.43-1.93,1.18-8.3,5.67-12l68.92-54,.13-.11s5.3-5,10.74-3.63l19.6,7.29.16.05c.26.07,6.27,1.81,6.11,9.8,0,1.73-.06,3-.07,3.95l-4.26-.16a2.87,2.87,0,0,0-2.05.72l-5.94,5.07a3,3,0,0,0-1,1.84h0l-2,10-18.29,15.8Zm22.66-12,1.52-7.69a3,3,0,0,0,1.44.41l38.84,1a39.41,39.41,0,0,0,6.64,5.33C310.53,237.22,294.75,237.55,274.27,238Zm59.5.78c14.9-.3,26.66-.53,29.23-.55a11.78,11.78,0,0,0,5.85,4.95l.88,2.54C356,245.34,343.54,242.78,333.77,238.76Zm41.44,16.68-.61-1.77h4.5v1.77Zm3.89-3.77h-5.19l-.84-2.42h0q3,0,6-.14Zm2-6.18v-4.68a11.72,11.72,0,0,0,3.78-8.62V217h0s0,0,0,0c0-3.32-5.93-5.06-11.78-5.06s-11.77,1.74-11.77,5.06v0h0v5.4c-3.86-.11-16.44-.54-32.29-1.1a9.19,9.19,0,0,1-1.31-4.62h-2a10.65,10.65,0,0,0,1,4.54l-13.43-.48a13.9,13.9,0,0,1-.53-3.74c0-15.87,27-28.78,60.29-28.78s60.29,12.91,60.29,28.78C433.39,231.55,410.58,243.61,381.1,245.49Z"/><path class="cls-3" d="M372.22,195.5v2c24.53,0,44.49,8.6,44.49,19.16h2C418.71,204.79,398.29,195.5,372.22,195.5Z"/><path class="cls-3" d="M111.36,222c-2,0-3.69.62-3.69,1.39s1.65,1.38,3.69,1.38,3.69-.62,3.69-1.38S113.4,222,111.36,222Z"/><ellipse class="cls-3" cx="207.07" cy="159.76" rx="3.2" ry="1.21"/></svg>