<svg id="Layer_1" data-name="Layer 1" xmlns="http://www.w3.org/2000/svg" viewBox="0 0 481.89 481.89"><defs><style>.cls-1{fill:#f9d7ed;}.cls-2{fill:#fff;}.cls-3{fill:#2a1d75;}</style></defs><title>Emotion_recognition</title><path class="cls-1" d="M347.28,334.12c-1.79-3.38-6.53-13.34-10.11-29.87a8.44,8.44,0,0,0,5.31-2.88c2.12-2.6,2.42-6.52.9-11.64-2.79-9.35-5.25-30.79-5.28-31,.25-.38.48-.76.7-1.16.08-.16,8.3-15.74,8.12-28.52-.16-10.8-2.42-18.11-6.73-21.84-.3-1.23-1.08-5.24-3-18.22-3.26-21.9-10.62-30.56-26.94-48.07-9.73-10.43-25.85-16.95-47.91-19.36l-1.71-.21c-2.81-.47-28.74-1-34.75,3-5.09,3.4-12.39,6.55-16.61,7.18-4.81.72-13.23,4.38-17.45,6.74S184,144,172.71,158.11a38.48,38.48,0,0,0-8,29.71c-4.5,11.94-1.44,33.62-.28,41.85.17,1.2.29,2.11.35,2.66.11,1.06.19,2.15.27,3.25A46.32,46.32,0,0,0,166.91,247c1.11,3.49,3.57,5.37,5.73,7a14.81,14.81,0,0,1,4.28,4.32c2.31,4,2.82,14.73,3.12,21.12l.09,1.84c.39,7.58,9.23,21.44,13.51,25.5a47.94,47.94,0,0,1,9.12,12.5c1.41,3.21,14.42,23.81,18.61,30.09,3.52,5.28,7.93,6.23,12.22,6.23,1.25,0,2.48-.08,3.68-.16.79-.05,1.58-.1,2.36-.13,4.2-.16,8.83-1.58,15.11-3.83,6.12,4.55,10,9.2,11.5,13.87a1.27,1.27,0,0,0,1.84.72c29.85-16.66,57.74-29.93,78.41-30.66A.91.91,0,0,0,347.28,334.12Z"/><circle class="cls-2" cx="202.24" cy="232.05" r="2.2"/><circle class="cls-2" cx="213.67" cy="221.84" r="2.2"/><circle class="cls-2" cx="236.08" cy="212.35" r="2.2"/><circle class="cls-2" cx="179.76" cy="236.45" r="2.2"/><circle class="cls-2" cx="168.21" cy="232.05" r="2.2"/><circle class="cls-2" cx="170.4" cy="238.65" r="2.2"/><circle class="cls-2" cx="248.81" cy="233.77" r="2.2"/><circle class="cls-2" cx="238.28" cy="233.59" r="2.2"/><circle class="cls-2" cx="225.03" cy="236.45" r="2.2"/><circle class="cls-2" cx="220.63" cy="245.86" r="2.2"/><circle class="cls-2" cx="231.68" cy="245.86" r="2.2"/><circle class="cls-2" cx="243.24" cy="240.85" r="2.2"/><circle class="cls-2" cx="191.76" cy="249.2" r="2.2"/><circle class="cls-2" cx="179.76" cy="249.2" r="2.2"/><circle class="cls-2" cx="187.36" cy="256.11" r="2.2"/><circle class="cls-2" cx="179.76" cy="259.75" r="2.2"/><circle class="cls-2" cx="222.96" cy="283.51" r="2.2"/><circle class="cls-2" cx="248.55" cy="291.89" r="2.2"/><circle class="cls-2" cx="196.87" cy="302.76" r="2.2"/><circle class="cls-2" cx="213.67" cy="302.41" r="2.2"/><circle class="cls-2" cx="204.44" cy="305.89" r="2.2"/><circle class="cls-2" cx="244.15" cy="304.61" r="2.2"/><circle class="cls-2" cx="227.23" cy="320.2" r="2.2"/><circle class="cls-2" cx="207.93" cy="322.4" r="2.2"/><circle class="cls-2" cx="204.44" cy="315.8" r="2.2"/><circle class="cls-2" cx="227.23" cy="304.61" r="2.2"/><circle class="cls-2" cx="236.08" cy="311.4" r="2.2"/><circle class="cls-2" cx="213.67" cy="311.4" r="2.2"/><circle class="cls-2" cx="215.87" cy="323.44" r="2.2"/><circle class="cls-2" cx="204.44" cy="292.76" r="2.2"/><circle class="cls-2" cx="191.76" cy="288.36" r="2.2"/><circle class="cls-2" cx="192.96" cy="271.22" r="2.2"/><circle class="cls-2" cx="192.96" cy="260.21" r="2.2"/><circle class="cls-2" cx="188.04" cy="241.92" r="2.2"/><circle class="cls-2" cx="213.67" cy="285.71" r="2.2"/><circle class="cls-2" cx="254.71" cy="214.55" r="2.2"/><circle class="cls-2" cx="214.54" cy="229.37" r="2.2"/><circle class="cls-2" cx="233.88" cy="217.76" r="2.2"/><path class="cls-3" d="M338.67,331.65c-.1-.15-6.37-10.54-10.84-31.16a8.58,8.58,0,0,0,5.32-2.88c2.11-2.61,2.41-6.52.89-11.64-2.78-9.35-5.24-30.77-5.27-31,.24-.37.48-.75.69-1.15.09-.16,8.31-15.74,8.12-28.52-.15-10.8-2.41-18.12-6.73-21.84-.29-1.24-1.07-5.24-3-18.22-3.27-21.9-10.62-30.56-27-48.07-9.72-10.43-25.84-17-47.9-19.37-.8-.09-1.39-.15-1.72-.2-2.8-.47-28.73-1-34.75,3-5.09,3.39-12.38,6.55-16.6,7.18-4.81.72-13.23,4.38-17.46,6.74a29.42,29.42,0,0,0-7.08,5.71h-31a1,1,0,0,0-1,1V332.58a1,1,0,0,0,1,1h59.92c3.12,4.95,6.12,9.61,7.75,12.07,3.52,5.27,7.94,6.23,12.23,6.23,1.24,0,2.48-.08,3.68-.16.78-.05,1.57-.11,2.36-.13,4.19-.16,8.83-1.59,15.11-3.83,6.78,5,10.79,10.21,11.91,15.39l3.42-.73c-1.19-5.53-5-10.92-11.43-16.07l1-.38,6.62-2.4c10.5-3.75,29.44-21.61,40.75-32.28,2.9-2.73,5.19-4.9,6.6-6.12,6.83-5.92,6.13-20.59,5.75-28.47,0-.85-.08-1.61-.1-2.27-.13-3.95.33-11.83.72-17.42a9,9,0,0,0,6.55,4,11.87,11.87,0,0,0,2.74-.11c.81,48,15.1,71.61,15.72,72.6ZM184.18,137.59c4-2.23,12.09-5.71,16.27-6.34,4.73-.71,12.48-4,18-7.73,3.15-2.1,16-2.78,24.66-2.78a64.62,64.62,0,0,1,7.57.3c.37.06,1,.13,1.91.23,21.2,2.33,36.58,8.47,45.72,18.27,15.81,17,22.94,25.34,26,46.21,1,7,1.87,12.16,2.46,15.44h0c-6.79-2.19-14.66,2.58-16.52,5.09a22.49,22.49,0,0,0-3.45,8.07c-2.06,2.64-6.34,7.34-11.48,8.23a10.49,10.49,0,0,1-8.5-2.43c-4.92-3.86-6.5-9.19-7.89-13.88-1.27-4.3-2.37-8-5.71-9.64-1-.46-2.16-1-3.55-1.58-2.8-1.21-6.26-2.71-9.7-4.6V141.24a1,1,0,0,0-1-1H180.46A20.78,20.78,0,0,1,184.18,137.59ZM176.53,252a2.15,2.15,0,0,0,1.18.35,2.2,2.2,0,0,0,1.95-1.2h8.1a.6.6,0,0,0,.06.11l-2.31,3.62-.2,0a2.2,2.2,0,0,0-2.2,2.14L179,259a2.12,2.12,0,0,0-1.32-.46,2.19,2.19,0,0,0-2,1.2h-3a29.29,29.29,0,0,0-1.22-4.79Zm-.77,9.7a2.19,2.19,0,0,0,4.14-.94l4.08-2a2.2,2.2,0,0,0,3.53-1.75,2.23,2.23,0,0,0-.31-1.11l1.82-2.86.68,6.23a2.19,2.19,0,0,0,.2,3.79v7.1a2.19,2.19,0,0,0-.13,3.83l-.93,13.24a2.2,2.2,0,0,0,.87,4.22,2.15,2.15,0,0,0,1.51-.61l9,3.12a2.2,2.2,0,0,0,4.37-.31,2.58,2.58,0,0,0,0-.39l6.12-4.68a2.17,2.17,0,0,0,1,.22,2.2,2.2,0,0,0,2.13-1.67l5.49-1.3a2.17,2.17,0,0,0,1.66.77,2.2,2.2,0,1,0-2.13-2.72l-5.49,1.3a2.18,2.18,0,0,0-1.66-.78,2.2,2.2,0,0,0-2.2,2.2,1.61,1.61,0,0,0,0,.39l-6.13,4.68a2.28,2.28,0,0,0-.94-.22,2.18,2.18,0,0,0-1.52.62l-9-3.12a2.16,2.16,0,0,0-1-1.57l.92-13.24a2.2,2.2,0,0,0,.14-4v-7.1a2.19,2.19,0,0,0-.22-4l-.77-7.12a2.2,2.2,0,0,0-1.2-4l-1.94-3.8a2.18,2.18,0,0,0,.42-1.28,2.2,2.2,0,1,0-2.2,2.2l1.94,3.8a1.61,1.61,0,0,0-.17.28h-8.1a2.19,2.19,0,0,0-4.15,1s0,.08,0,.12l-4.77,2.8-.12-.24a18,18,0,0,0-5.2-5.36c-2-1.54-3.74-2.87-4.52-5.31-.11-.35-.21-.7-.3-1l5.86-.39a2.18,2.18,0,0,0,1.88,1.07,2.21,2.21,0,0,0,2.13-1.67l5.56-1.31a2.2,2.2,0,1,0,.2-3l-7.92-3a2.19,2.19,0,0,0-4.35,0l-4.54,1.71c-.09-1-.16-2-.23-2.92-.08-1.15-.17-2.27-.28-3.37-.06-.57-.19-1.53-.37-2.78-1.1-7.77-3.93-27.88-.24-39.17,3.68-7.9,10.29-6.77,14.7-6,2.11.37,3.51.61,4.27-.32,3.76-4.62,10-7.93,17.15-10.09h42.64c3.46,1.5,5.66,3.43,6.25,5.59,2,7.37,8.26,12.5,14.71,16.19v140H207.15c-4.84-7.7-9.81-15.81-10.52-17.43a51.16,51.16,0,0,0-9.92-13.64c-4.34-4.11-12.11-17.09-12.42-23.13l-.08-1.83c-.21-4.22-.45-9.31-1.1-13.82Zm-11.08-27.08a2.15,2.15,0,0,0,2.93,0l6.69,2.54-4.28,1a2.21,2.21,0,0,0-1.67-.78,2.19,2.19,0,0,0-2,1.33l-6.21.41c-.19-.89-.34-1.77-.45-2.63Zm23.82-64.81c-5.26,2.22-9.72,5.12-12.69,8.73a12.05,12.05,0,0,1-2.46-.29c-3.76-.66-10.22-1.78-14.73,3.66a36.51,36.51,0,0,1,.93-12.1Zm56.75,5.06a9.3,9.3,0,0,0-4-5.06H258V189.3C252.3,185.86,247,181.24,245.25,174.9ZM145.36,331.58V169.84h10.55a37.73,37.73,0,0,0-.55,14.22c-4.49,11.94-1.44,33.62-.28,41.85.17,1.2.3,2.11.36,2.66.11,1.06.19,2.14.27,3.25a46.39,46.39,0,0,0,1.87,11.43c1.11,3.49,3.56,5.37,5.73,7a14.81,14.81,0,0,1,4.28,4.32c2.31,4,2.82,14.73,3.12,21.12l.09,1.84c.39,7.57,9.23,21.44,13.5,25.49a47.66,47.66,0,0,1,9.12,12.51c.79,1.78,5.15,8.94,9.6,16Zm172.1-74.06c-3.53-.22-5.79-5.43-6.37-7.41a1.74,1.74,0,0,0-1.85-1.26,1.76,1.76,0,0,0-1.58,1.6c-.05.71-1.42,17.42-1.19,24.1,0,.67.06,1.45.11,2.31.35,7.29,1,20.86-4.55,25.66-1.47,1.28-3.78,3.46-6.71,6.23-10.39,9.79-29.71,28-39.52,31.52-2.41.86-4.61,1.67-6.65,2.41-8.62,3.15-14.31,5.23-19,5.41-.82,0-1.64.08-2.46.14-5.22.34-9.34.6-12.76-4.52-1.61-2.41-4-6.13-6.54-10.13H259a1,1,0,0,0,1-1V192.72c3.18,1.69,6.32,3,8.91,4.16,1.37.6,2.55,1.11,3.46,1.55,2.55,1.24,3.49,4.4,4.67,8.4,1.41,4.74,3.16,10.64,8.57,14.89a12.84,12.84,0,0,0,8,3,12,12,0,0,0,2.06-.18c4.3-.75,7.95-3.7,10.47-6.35a30.42,30.42,0,0,0-.19,3.3h3.5c0-5.71,1.82-10.71,3.61-13.14,1.18-1.59,7.53-5.48,12.64-3.84a7.83,7.83,0,0,1,2.19,1.12,1.47,1.47,0,0,0,.86.72c3.33,3.15,5.14,9.6,5.27,19,.15,10-5.65,23-7.7,26.8C325.23,254.29,322.53,257.83,317.46,257.52Zm8.2.9c.8,6.37,2.77,21,5,28.55,1.15,3.87,1.07,6.78-.25,8.41a5.1,5.1,0,0,1-3.31,1.68,208,208,0,0,1-3.67-37.24A12.2,12.2,0,0,0,325.66,258.42Z"/><path class="cls-3" d="M324.9,221.6c-2.65-2.32-5-1.88-8.24-.72a7,7,0,0,1-1-4.35,6,6,0,0,1,6.52-5.65c3,.11,6.43,2,7.31,6.86s1.28,11-2.68,17.92l1.74,1c4.3-7.48,3.81-14.23,2.91-19.27-1.09-6.07-5.64-8.38-9.2-8.51a8,8,0,0,0-8.58,7.38c-.74,5.44,4.94,10,5.19,10.21l1.24-1.57a17.27,17.27,0,0,1-2.25-2.31c2.8-1,4.12-.93,5.77.52a4.46,4.46,0,0,1,1.38,3.73,15.1,15.1,0,0,1-3.25,7.92,4,4,0,0,1-1.13.24,3.66,3.66,0,0,0-2.22.81,3.83,3.83,0,0,0-.86,1.45c-.33.8-.57,1.29-1.17,1.44-.2.05-.55.11-.71,0a1.14,1.14,0,0,1-.24-.81,16.8,16.8,0,0,1,.4-1.87,3.13,3.13,0,0,0,0-1.52c-.16-.72-.44-1.94-.57-2.46a2,2,0,0,1,.33-1.76,1.34,1.34,0,0,1,1.31-.22c.92.22,1.18,2.13,1.16,3l1,0,1,0c0-.45,0-4.38-2.7-5a3.22,3.22,0,0,0-3.18.75,3.86,3.86,0,0,0-.86,3.63l.56,2.43a1.26,1.26,0,0,1,0,.61,13.36,13.36,0,0,0-.45,2.18,3,3,0,0,0,.93,2.5,2.42,2.42,0,0,0,1.61.57,3.7,3.7,0,0,0,.88-.12,3.77,3.77,0,0,0,2.53-2.61,3.31,3.31,0,0,1,.38-.76,2.26,2.26,0,0,1,1.11-.29,5.62,5.62,0,0,0,1.69-.39c1.22-.54,3.76-4.84,4.32-8.48C327.27,225.33,326.6,223.08,324.9,221.6Z"/><path class="cls-3" d="M229.62,249a2.2,2.2,0,0,0,2.19-2.05l8-3.46a2.19,2.19,0,0,0,3.38-2.61l3.15-4a1.93,1.93,0,0,0,.42,0,2.2,2.2,0,0,0,0-4.4,2.18,2.18,0,0,0-1.93,1.16l-6.63-.11a2.19,2.19,0,0,0-4.09.4l-9.43,2a2.2,2.2,0,0,0-3.9,1.39,2.16,2.16,0,0,0,.47,1.34l-2.75,5.87a2.2,2.2,0,0,0,.08,4.39,2.18,2.18,0,0,0,2-1.2h7.15A2.2,2.2,0,0,0,229.62,249Zm12-9.36a2,2,0,0,0-.42,0,2.2,2.2,0,0,0-2.19,2.05l-8,3.46a2.17,2.17,0,0,0-3.34.69h-7.15a2.39,2.39,0,0,0-.21-.34l2.74-5.87a2.18,2.18,0,0,0,2-1.63l9.44-2a2.17,2.17,0,0,0,3.62-.36l6.57.11Z"/><path class="cls-3" d="M246.49,290.66a2.2,2.2,0,1,0,2.2,2.2A2.21,2.21,0,0,0,246.49,290.66Z"/><path class="cls-3" d="M194.82,305.94a2.2,2.2,0,1,0-2.2-2.2A2.21,2.21,0,0,0,194.82,305.94Z"/><path class="cls-3" d="M200.19,316.78a2.2,2.2,0,0,0,2.2,2.2h0l1.65,3.14a2.17,2.17,0,0,0-.4,1.26,2.21,2.21,0,0,0,2.2,2.2,2.18,2.18,0,0,0,1.81-1l4.07.53a2.19,2.19,0,0,0,4.22-.31l7.6-2.16a2.19,2.19,0,0,0,3.8-1.5,2.09,2.09,0,0,0-.11-.67l6.08-6.05a2.17,2.17,0,0,0,2.88-2.08,2,2,0,0,0-.06-.49l5.08-4.28a2,2,0,0,0,.85.18,2.2,2.2,0,1,0-1.92-3.25c-3.29,0-9.6,0-13.06,0a2.18,2.18,0,0,0-3.7-.28l-9.71-1.58a2.19,2.19,0,0,0-4.26.43l-5.58,2.11a2.17,2.17,0,0,0-1.47-.58,2.19,2.19,0,0,0-1,4.15v6A2.2,2.2,0,0,0,200.19,316.78Zm4.37-9.66,5.59-2.11a2.15,2.15,0,0,0,1.47.58,2.2,2.2,0,0,0,1.76-.9l9.71,1.57a2.18,2.18,0,0,0,4,.31c1.93,0,4.07,0,6.12,0L213.3,311a2.19,2.19,0,0,0-3.88,1.34l-5.7,2.72a3,3,0,0,0-.33-.21v-6A2.18,2.18,0,0,0,204.56,307.12ZM234,310.18a2.2,2.2,0,0,0-2.2,2.2,2.08,2.08,0,0,0,.12.66l-6.09,6.06a2.21,2.21,0,0,0-.68-.12,2.18,2.18,0,0,0-2.15,1.77l-7.6,2.17a2.17,2.17,0,0,0-3.41.25l-4.08-.53a2.18,2.18,0,0,0-2.06-1.46h0L204.18,318a2.15,2.15,0,0,0,.4-1.2l5.71-2.72a2.18,2.18,0,0,0,3.45-1.19l24.59-5.48-3.45,2.9A2.2,2.2,0,0,0,234,310.18Z"/><path class="cls-3" d="M230.66,220.6a2.18,2.18,0,0,0,3.24-1.17l17-2.62a2.19,2.19,0,1,0,0-2.51l-14.75-1.74a2.19,2.19,0,0,0-4.24.61l-18.82,8a2.18,2.18,0,0,0-1.4-.52,2.2,2.2,0,0,0-2.2,2.2,2,2,0,0,0,.08.55L201,231a2.31,2.31,0,0,0-.79-.15,2.2,2.2,0,1,0,2.12,2.76l8.49-1.85a2.17,2.17,0,0,0,1.69.81,2.21,2.21,0,0,0,2.2-2.2.77.77,0,0,0,0-.15Zm-19.83,4.27a2.26,2.26,0,0,0,.79.15,2.19,2.19,0,0,0,2.18-2l18.82-8a2.18,2.18,0,0,0,1.4.52,2.21,2.21,0,0,0,1.83-1l9.39,1.11-11.64,1.79a2.2,2.2,0,0,0-4,1.29.68.68,0,0,0,0,.14l-16,9.6a2.19,2.19,0,0,0-3.28,1.31l-6.68,1.45Z"/><path class="cls-2" d="M150.86,161.54V151.08h1.48l3.35,5.29a30,30,0,0,1,1.88,3.4l0,0c-.13-1.39-.16-2.67-.16-4.3v-4.37h1.28v10.46h-1.37L154,156.23a33.45,33.45,0,0,1-2-3.49h0c.08,1.32.11,2.58.11,4.32v4.47Z"/><path class="cls-2" d="M161.79,158a2.4,2.4,0,0,0,2.57,2.61,4.88,4.88,0,0,0,2.08-.39l.24,1a6.25,6.25,0,0,1-2.5.46,3.48,3.48,0,0,1-3.69-3.78c0-2.27,1.33-4,3.52-4,2.45,0,3.1,2.15,3.1,3.53,0,.28,0,.5,0,.64Zm4-1a1.94,1.94,0,0,0-1.89-2.22,2.28,2.28,0,0,0-2.1,2.22Z"/><path class="cls-2" d="M175.09,159.49c0,.77,0,1.46.06,2h-1.21l-.08-1.23h0a2.81,2.81,0,0,1-2.48,1.4c-1.18,0-2.59-.65-2.59-3.29V154h1.36v4.16c0,1.42.44,2.38,1.68,2.38a2,2,0,0,0,1.8-1.24,1.92,1.92,0,0,0,.12-.69V154h1.37Z"/><path class="cls-2" d="M179,151.87V154h2v1h-2v4.05c0,.93.26,1.45,1,1.45a3,3,0,0,0,.8-.09l.06,1a3.63,3.63,0,0,1-1.21.18,1.91,1.91,0,0,1-1.48-.57,2.82,2.82,0,0,1-.52-2v-4.09H176.5v-1h1.17v-1.8Z"/><path class="cls-2" d="M182.49,156.37c0-.89,0-1.64-.06-2.34h1.2l0,1.47h.06a2.25,2.25,0,0,1,2.08-1.64,1.51,1.51,0,0,1,.39,0v1.29a2.09,2.09,0,0,0-.46-.05,1.92,1.92,0,0,0-1.84,1.76,3.85,3.85,0,0,0-.06.63v4h-1.35Z"/><path class="cls-2" d="M191.65,161.54l-.11-.95h0a2.79,2.79,0,0,1-2.29,1.12,2.14,2.14,0,0,1-2.3-2.16c0-1.82,1.61-2.81,4.52-2.79v-.16a1.56,1.56,0,0,0-1.71-1.74,3.77,3.77,0,0,0-2,.56l-.31-.9a4.69,4.69,0,0,1,2.47-.66c2.3,0,2.86,1.56,2.86,3.07v2.81a11,11,0,0,0,.12,1.8Zm-.2-3.84c-1.49,0-3.18.24-3.18,1.7a1.21,1.21,0,0,0,1.28,1.3,1.87,1.87,0,0,0,1.82-1.26,1.31,1.31,0,0,0,.08-.43Z"/><path class="cls-2" d="M195,150.52h1.37v11H195Z"/></svg>