<svg id="Layer_1" data-name="Layer 1" xmlns="http://www.w3.org/2000/svg" viewBox="0 0 481.89 481.89"><defs><style>.cls-1{fill:#f9d7ed;}.cls-2{fill:#fff;}.cls-3{fill:#2a1d75;}</style></defs><title>Facial_recognition</title><path class="cls-1" d="M326.71,237.34c-1.59-11.78-11.48-12.12-11.48-12.12-.12-3.58-.26-7.78-.31-13-.31-33.63-29.64-60.89-67.54-60.89h0c-37.9,0-67.23,27.26-67.53,60.89,0,5.2-.19,9.4-.32,13h0s-9.89.34-11.47,12.12a43.43,43.43,0,0,0,3.06,22.43c.58,1.31,4.07,11.53,15.23,13.89l-.06-.46c1.58,9,3.09,17.61,4.22,21.11,4.58,14.11,8.48,16.3,13.3,21.85s18.3,16,24.35,19.39a41.28,41.28,0,0,0,38.45,0c6.05-3.4,19.52-13.84,24.34-19.39s8.72-7.74,13.3-21.85c1.14-3.5,2.64-12.12,4.23-21.11l-.07.46c11.17-2.36,14.66-12.58,15.24-13.89A43.54,43.54,0,0,0,326.71,237.34Z"/><circle class="cls-2" cx="237.51" cy="329.18" r="3.88"/><circle class="cls-2" cx="242.93" cy="306.64" r="3.88"/><circle class="cls-2" cx="242.09" cy="279.94" r="3.88"/><circle class="cls-2" cx="241.36" cy="261.23" r="3.88"/><circle class="cls-2" cx="203.93" cy="309.13" r="3.88"/><circle class="cls-2" cx="181.92" cy="258.59" r="3.67"/><circle class="cls-2" cx="195.65" cy="237.64" r="3.88"/><circle class="cls-2" cx="184.04" cy="202.5" r="3.88"/><circle class="cls-2" cx="196.51" cy="201.8" r="3.88"/><circle class="cls-2" cx="213.56" cy="157.58" r="3.88"/><circle class="cls-2" cx="236.11" cy="218.14" r="3.88"/><circle class="cls-2" cx="225.89" cy="263.79" r="3.88"/><circle class="cls-2" cx="209.47" cy="288.01" r="3.67"/><circle class="cls-2" cx="281.61" cy="306.94" r="3.88"/><circle class="cls-2" cx="302.71" cy="258.59" r="3.88"/><circle class="cls-2" cx="287.08" cy="237.64" r="3.88"/><circle class="cls-2" cx="303.65" cy="204.27" r="3.88"/><circle class="cls-2" cx="286.21" cy="201.8" r="3.88"/><circle class="cls-2" cx="269.86" cy="156.2" r="3.88"/><circle class="cls-2" cx="246.62" cy="218.14" r="3.88"/><circle class="cls-2" cx="256.84" cy="263.79" r="3.88"/><circle class="cls-2" cx="273.26" cy="288.01" r="3.88"/><path class="cls-3" d="M151.24,151.24h30.57v-2H150.24a1,1,0,0,0-1,1v31.58h2Z"/><path class="cls-3" d="M331.65,149.24H300.08v2h30.57v30.58h2V150.24A1,1,0,0,0,331.65,149.24Z"/><path class="cls-3" d="M330.65,330.66H300.08v2h31.57a1,1,0,0,0,1-1V300.09h-2Z"/><path class="cls-3" d="M151.24,300.09h-2v31.57a1,1,0,0,0,1,1h31.57v-2H151.24Z"/><path class="cls-3" d="M318.69,255.9l.12-.3A45.17,45.17,0,0,0,322,232.23c-1.35-10-8.29-12.7-11.51-13.39-.11-3.29-.22-7-.26-11.5-.32-35.11-30.75-62.62-69.28-62.62h0c-38.53,0-69,27.51-69.28,62.62,0,4.51-.15,8.21-.26,11.5-3.22.69-10.16,3.35-11.51,13.39a45.19,45.19,0,0,0,3.19,23.37l.12.3c3.83,9.35,10.17,13,15.21,14.32,1.49,8.48,2.9,16.34,4,19.75,3.9,12,7.46,15.8,11.23,19.82.78.83,1.59,1.69,2.41,2.64,4.92,5.66,18.58,16.27,24.82,19.76a43,43,0,0,0,40.15,0c6.24-3.49,19.9-14.1,24.82-19.76.82-.95,1.63-1.81,2.41-2.64,3.77-4,7.33-7.81,11.23-19.82,1.1-3.41,2.51-11.27,4-19.75C308.52,268.87,314.86,265.25,318.69,255.9Zm-53.63-98.3a3.42,3.42,0,0,0,3.27,2.44h0L281,200.1a3.44,3.44,0,0,0-1.49,2.84c0,.11,0,.21,0,.32l-31,12.81a3.41,3.41,0,0,0-5.92,1.18H239.3a3.41,3.41,0,0,0-5.92-1.18l-31-12.81c0-.11,0-.21,0-.32a3.44,3.44,0,0,0-1.49-2.84L213.53,160h0a3.42,3.42,0,0,0,3.27-2.44ZM186,205.79l9.84-1.4a3.44,3.44,0,0,0,2,1.8l-.63,26.25L185,207.75A3.41,3.41,0,0,0,186,205.79Zm56.59,13.46a3.43,3.43,0,0,0,1.88,2.13l-3.53,29-3.52-29a3.43,3.43,0,0,0,1.88-2.13Zm53.3-13.46a3.41,3.41,0,0,0,1,2l-12.27,24.69L284,206.19a3.44,3.44,0,0,0,2-1.8Zm2.43,48.78-39.75,5a3.4,3.4,0,0,0-2.87-2l-8.15-36.36a3.27,3.27,0,0,0,.83-.65l32,15.41a3.19,3.19,0,0,0-.06.53,3.44,3.44,0,0,0,3.44,3.43,3.38,3.38,0,0,0,1.55-.38l13.4,13.93A3.31,3.31,0,0,0,298.32,254.57Zm-55.25,47a3.38,3.38,0,0,0-2.13-.76,3.42,3.42,0,0,0-2.13.76L214.34,284.7a3.56,3.56,0,0,0,.15-.79L238,278.5a3.41,3.41,0,0,0,5.93,0l23.49,5.41a3.56,3.56,0,0,0,.15.79Zm-13.23-40.09,8-1.33a3.41,3.41,0,0,0,2.06,1.75v11.66a3.8,3.8,0,0,0-.47.18l-10.07-11A3.3,3.3,0,0,0,229.84,261.44Zm12.58,12.26a3.41,3.41,0,0,0-.48-.18V261.86a3.37,3.37,0,0,0,2.07-1.75l8,1.33a3.3,3.3,0,0,0,.44,1.28Zm10-14.23-8-1.33a3.42,3.42,0,0,0-2-2.69l3.82-31.33,7.6,33.89A3.41,3.41,0,0,0,252.37,259.47Zm-14.82-1.33-8,1.33a3.47,3.47,0,0,0-1.38-1.46l7.6-33.89,3.82,31.33A3.42,3.42,0,0,0,237.55,258.14Zm-12.08,6.12a3.19,3.19,0,0,0,1,.16,3.49,3.49,0,0,0,1.48-.34l10.06,11a3.43,3.43,0,0,0-.46,1.49L214,282c0-.09-.09-.18-.15-.27ZM267.85,282l-23.49-5.41a3.31,3.31,0,0,0-.47-1.49l10.07-11a3.49,3.49,0,0,0,1.48.34,3.19,3.19,0,0,0,1-.16L268,281.69C267.94,281.78,267.9,281.87,267.85,282ZM282,206.23l.65,27a3.37,3.37,0,0,0-1.44.92l-32-15.41a4.57,4.57,0,0,0,.05-.52c0-.12,0-.22,0-.33l31-12.81A3.39,3.39,0,0,0,282,206.23Zm-49.38,12.54-32,15.41a3.37,3.37,0,0,0-1.44-.92l.65-27a3.39,3.39,0,0,0,1.72-1.12l31,12.81c0,.11,0,.21,0,.33A4.57,4.57,0,0,0,232.64,218.77Zm-36,20.79a3.38,3.38,0,0,0,1.55.38,3.44,3.44,0,0,0,3.44-3.43,3.19,3.19,0,0,0-.06-.53l32-15.41a3.27,3.27,0,0,0,.83.65l-8.15,36.36a3.4,3.4,0,0,0-2.87,2l-39.75-5a3.31,3.31,0,0,0-.38-1.08Zm-13.26,17,39.74,5a3.39,3.39,0,0,0,.74,1.59l-11.51,17.3a3.53,3.53,0,0,0-1.22-.23,3.4,3.4,0,0,0-1.73.48l-26.07-24.07Zm54.35,46.62a3.53,3.53,0,0,0-.17,1,3.42,3.42,0,0,0,2.43,3.27v19.64l-25.38-39.84Zm4.26,4.3a3.42,3.42,0,0,0,2.44-3.27,3.53,3.53,0,0,0-.17-1l23.12-15.9-25.39,39.84Zm30.6-26.77a3.4,3.4,0,0,0-1.73-.48,3.53,3.53,0,0,0-1.22.23l-11.51-17.3a3.48,3.48,0,0,0,.74-1.59l39.74-5,.05.08Zm27.6-28.61-13.4-13.93a3.35,3.35,0,0,0,.45-1.66,3.44,3.44,0,0,0-1.08-2.5l12.35-24.87,2.08,42.79Zm-4-48.29-9.84-1.4a3.43,3.43,0,0,0-3.39-2.91h0l-11.34-35.93L296.67,203A3.35,3.35,0,0,0,296.17,203.81ZM199,199.5h0a3.43,3.43,0,0,0-3.39,2.91l-9.84,1.4a3.35,3.35,0,0,0-.5-.78l25.09-39.46Zm-15.55,9.64L195.78,234a3.44,3.44,0,0,0-1.08,2.5,3.38,3.38,0,0,0,.45,1.66l-13.4,13.93-.4-.17Zm24.56,73a3.37,3.37,0,0,0,1,4.21l-7,18.85-.19,0-.3,0L182.8,258.92Zm-4.06,23.75,6.95-18.85.2,0A3.39,3.39,0,0,0,212,287l26,40.77-32.76-18.35a3.33,3.33,0,0,0-1.28-3.46Zm66-19a3.39,3.39,0,0,0,.91.13l.2,0L278,305.93a3.33,3.33,0,0,0-1.28,3.46l-32.76,18.35ZM280,305.22l-.19,0-7-18.85a3.37,3.37,0,0,0,1-4.21l25.19-23.26-18.76,46.33Zm30.58-82.79c2.57.72,6.95,3,7.92,10.26a41.44,41.44,0,0,1-2.92,21.49l-.16.39c-2.89,7.06-7.37,10.3-11.28,11.76,1.47-8.35,3-16.56,4.27-21C310.92,236.75,310.91,231.35,310.61,222.43Zm-3.88-15.05c0,5.37.2,9.61.32,13.34.35,10,.52,15-2,23.6-.58,2-1.19,4.7-1.82,7.78a4.12,4.12,0,0,0-.72-.27l-2.1-43.35a3.43,3.43,0,0,0-1.16-6.66,3.46,3.46,0,0,0-.91.14l-27.43-43.13a3.46,3.46,0,0,0,.83-2.23,3.36,3.36,0,0,0-.55-1.86C292.28,164.46,306.52,184.15,306.73,207.38ZM241,148.22a72.56,72.56,0,0,1,26.73,5,3.42,3.42,0,0,0-2.62,2.37H216.83a3.42,3.42,0,0,0-2.62-2.37A72.57,72.57,0,0,1,241,148.22Zm-66.11,72.51c.12-3.74.27-8,.32-13.35.21-23.23,14.45-42.92,35.52-52.64a3.37,3.37,0,0,0-.56,1.86,3.47,3.47,0,0,0,.84,2.23L183.53,202a3.39,3.39,0,0,0-4.35,3.3,3.42,3.42,0,0,0,2.28,3.22l-2.1,43.35a4.12,4.12,0,0,0-.72.27c-.63-3.08-1.24-5.78-1.83-7.78C174.32,235.74,174.49,230.72,174.84,220.73Zm-8.4,33.85-.16-.4a41.46,41.46,0,0,1-2.92-21.49c1-7.19,5.34-9.5,7.91-10.24-.29,8.91-.3,14.31,2.18,22.85,1.31,4.47,2.8,12.68,4.27,21C173.81,264.87,169.33,261.63,166.44,254.58Zm29.75,52.81c-3.65-3.88-6.79-7.23-10.45-18.5-1.08-3.33-2.54-11.63-4.09-20.42-.58-3.34-1.18-6.71-1.77-9.91.11,0,.21,0,.32,0l.3,0L199.7,306a3.43,3.43,0,0,0-1.28,2.66,3.32,3.32,0,0,0,.45,1.66l-.17-.19C197.83,309.13,197,308.25,196.19,307.39Zm3.84,4.17a3.45,3.45,0,0,0,1.83.54,3.41,3.41,0,0,0,2.37-1l33.36,18.68a3.55,3.55,0,0,0-.08.73,3.42,3.42,0,0,0,1.9,3.06,38.11,38.11,0,0,1-16.83-4.47C217.13,326.09,205.47,317.11,200,311.56Zm59.28,17.58a38.18,38.18,0,0,1-16.83,4.47,3.42,3.42,0,0,0,1.9-3.06,3.55,3.55,0,0,0-.08-.73l33.36-18.68a3.41,3.41,0,0,0,2.37,1,3.45,3.45,0,0,0,1.83-.54C276.42,317.11,264.76,326.09,259.31,329.14Zm36.84-40.25c-3.66,11.27-6.8,14.62-10.45,18.5-.8.86-1.64,1.74-2.51,2.74l-.17.19a3.32,3.32,0,0,0,.45-1.66,3.43,3.43,0,0,0-1.28-2.66l19.2-47.44.3,0c.11,0,.21,0,.32,0-.59,3.19-1.19,6.56-1.77,9.9C298.69,277.25,297.23,285.56,296.15,288.89Z"/></svg>