<svg id="Layer_1" data-name="Layer 1" xmlns="http://www.w3.org/2000/svg" viewBox="0 0 481.89 481.89"><defs><style>.cls-1{fill:#f9d7ed;}.cls-2{fill:#fff;}.cls-3{fill:#2a1d75;}</style></defs><title>Filtering</title><path class="cls-1" d="M324,144.75c-2.57-4.55-7.85-7.38-14.5-7.77-9.21-.54-17.36-7.28-18.31-8.62a3.84,3.84,0,0,1-.23-.34c-3.84-5.73-8.19-8.88-12.94-9.35s-9.42,1.68-14.14,6.38a50.12,50.12,0,0,0-10.15,14c-15.17-7.35-29.74-4.35-35.14-2.79a50,50,0,0,0-9.66-15.57c-4.43-5-9-7.4-13.72-7.24s-9.31,3.06-13.49,8.54l-.25.32c-1,1.28-9.54,7.48-18.75,7.48h-.07c-6.62,0-12.1,2.48-15,6.86-3.21,4.95-2.94,11.72.83,20.11A70.05,70.05,0,0,0,159,172.5c-6.53,12.45-4.62,28.53-3.57,34.62-4-.23-11,.51-15.11,5.16-4.36,4.9-4.33,12.44.09,22.4s16.49,19.24,16.61,19.33a12,12,0,0,0,7.2,2.57,10.7,10.7,0,0,0,3.52-.62c1.49,5,5.79,18.62,9.36,24,4.49,6.73,12.36,12.94,16.61,14.3,2.72.87,7.9,3,11.69,4.52,1.52.62,2.82,1.15,3.63,1.46s2.37,1,4.15,1.7c4.72,2,8.58,3.54,10.65,4.22a23.48,23.48,0,0,1-1.26,2.94c-.12.21-.74,1-1.35,1.75-5.16,6.52-18.87,23.81-17.65,37.67,1.38,15.8,17,28.77,26.76,30.41A104.85,104.85,0,0,0,247,380.2a100.94,100.94,0,0,0,10.67-.55c15.35-1.63,27-6.69,34.65-15,11.4-12.44,9.12-29.62-6.76-51.05l-.85-1.16c-1.87-2.62-9.83-11.74-18.25-21.4l-4.82-5.53c7.69-6.38,17.33-26.85,18.52-30.42s3.25-12.71,2.67-17.84c-.16-1.4-.53-3.13-1-5.13-1-4.68-2.41-11.1-1.55-16.62.16-1,.39-2.35.65-3.92,2.31-13.75,3.77-24.43,3.64-31.3,3.23,3.48,7.43,6,12.43,6a15.67,15.67,0,0,0,3.07-.31c11.4-2.28,21.68-21,21.78-21.17C326.18,156.63,326.88,149.89,324,144.75Z"/><path class="cls-2" d="M234.33,281a40.69,40.69,0,0,1-6.16-.48h0c-7.16-1.08-15.87-12.19-16.24-12.66a1,1,0,0,1,.46-1.56c.09,0,9.53-3.42,13-6.14,4.14-3.26,9.72-5.29,11.69-5.52a6.88,6.88,0,0,1,3.78,1,15.24,15.24,0,0,1,2.6-1.21c1.85-.61,5.93-.43,7.73.6,2.79,1.48,4.45,3.76,4.64,6.43a6.63,6.63,0,0,1-1.59,4.95c0,.39.05.79.08,1.19a8.56,8.56,0,0,1,0,2.63,13.32,13.32,0,0,1-1.55,3.13c-.24.4-.45.76-.58,1l-.12.18C251.78,274.89,246.57,281,234.33,281Z"/><path class="cls-2" d="M236.17,245c-5.63,0-13.59-5.21-14.12-10.65s5-10.61,12.38-11.32A16,16,0,0,1,244,225a9,9,0,0,1,4.72,6.8c.23,2.39-.9,5.27-3.1,7.9-2.55,3-5.92,5.07-8.79,5.3C236.63,245,236.4,245,236.17,245Z"/><path class="cls-3" d="M247,222.89a16.77,16.77,0,0,0-18.63,1.8,9,9,0,0,0-3.33,7.58c.52,5.44,8.48,10.65,14.11,10.65.23,0,.46,0,.68,0,2.88-.23,6.25-2.26,8.79-5.3,2.2-2.63,3.33-5.51,3.1-7.9A9,9,0,0,0,247,222.89Zm-.72,4a4,4,0,0,0-3.95,4.11c0,2.13,2.83,4.82,5,5l-.26.33a13.65,13.65,0,0,1-6.14,4.34c.4-4.38-.87-11.37-.93-11.7l-2,.36c0,.08,1.4,7.66.87,11.61-3.29-.06-6.91-2-9.29-4.37,2.21-.39,5.21-3.6,5.17-5.69a4,4,0,0,0-6.55-3,9.13,9.13,0,0,1,1.45-1.64,13.93,13.93,0,0,1,7.9-3.24c.53-.05,1-.07,1.56-.07a13.4,13.4,0,0,1,6.82,1.74,7.82,7.82,0,0,1,3.26,3.47A4,4,0,0,0,246.32,226.87Z"/><path class="cls-3" d="M220.6,236.79a1.15,1.15,0,0,0-2.24.53,1.16,1.16,0,0,0,1.39.86A1.15,1.15,0,0,0,220.6,236.79Z"/><path class="cls-3" d="M221.5,230.16a1.15,1.15,0,0,0-.53-2.24,1.14,1.14,0,0,0-.85,1.38A1.15,1.15,0,0,0,221.5,230.16Z"/><path class="cls-3" d="M214.6,241.16a1.15,1.15,0,1,0-1.39-.85A1.14,1.14,0,0,0,214.6,241.16Z"/><path class="cls-3" d="M214.5,232.86a1.15,1.15,0,1,0,1.38.85A1.14,1.14,0,0,0,214.5,232.86Z"/><path class="cls-3" d="M214.28,244.54a1.14,1.14,0,0,0-.85,1.38,1.15,1.15,0,1,0,2.23-.53A1.14,1.14,0,0,0,214.28,244.54Z"/><path class="cls-3" d="M222.34,242.58a1.15,1.15,0,1,0,1.39.86A1.16,1.16,0,0,0,222.34,242.58Z"/><path class="cls-3" d="M220.6,248.39a1.15,1.15,0,0,0,.53,2.23,1.15,1.15,0,1,0-.53-2.23Z"/><path class="cls-3" d="M227,243.71a1.15,1.15,0,1,0,1.39.85A1.14,1.14,0,0,0,227,243.71Z"/><path class="cls-3" d="M253.68,241.39a1.14,1.14,0,1,0,1.38.85A1.15,1.15,0,0,0,253.68,241.39Z"/><path class="cls-3" d="M262.87,239.65a1.14,1.14,0,0,0-1.38-.85A1.15,1.15,0,1,0,262,241,1.14,1.14,0,0,0,262.87,239.65Z"/><path class="cls-3" d="M261.17,232.66a1.14,1.14,0,1,0-.85,1.38A1.15,1.15,0,0,0,261.17,232.66Z"/><path class="cls-3" d="M262.87,244.92a1.15,1.15,0,0,0,.53,2.24,1.15,1.15,0,1,0-.53-2.24Z"/><path class="cls-3" d="M266,241a1.15,1.15,0,1,0,1.38.86A1.14,1.14,0,0,0,266,241Z"/><path class="cls-3" d="M256.15,246a1.16,1.16,0,0,0-.85,1.39,1.15,1.15,0,0,0,2.24-.53A1.16,1.16,0,0,0,256.15,246Z"/><path class="cls-3" d="M256.1,237.62a1.14,1.14,0,0,0,.86-1.38,1.15,1.15,0,1,0-.86,1.38Z"/><path class="cls-3" d="M265.5,234.33a1.14,1.14,0,1,0-.85,1.38A1.14,1.14,0,0,0,265.5,234.33Z"/><path class="cls-3" d="M259,227.67a1.16,1.16,0,0,0-1.39-.86,1.15,1.15,0,1,0,1.39.86Z"/><path class="cls-3" d="M317.57,138.73c-2.57-4.55-7.85-7.38-14.5-7.77-9.21-.54-17.36-7.29-18.31-8.63a3.43,3.43,0,0,1-.23-.33c-3.84-5.74-8.19-8.88-12.94-9.36s-9.42,1.69-14.14,6.38a50.61,50.61,0,0,0-10.15,14c-15.17-7.35-29.74-4.35-35.14-2.78a49.73,49.73,0,0,0-9.66-15.57c-4.43-5-9-7.42-13.72-7.24s-9.31,3-13.49,8.54c-.11.13-.19.24-.25.32-1,1.27-9.54,7.48-18.75,7.48h-.15c-6.62,0-12,2.5-14.87,6.86-3.21,5-2.93,11.72.83,20.11a70.29,70.29,0,0,0,10.54,15.77c-6.53,12.45-4.62,28.53-3.56,34.61-4-.22-11,.51-15.12,5.17-4.36,4.9-4.33,12.43.09,22.4S150.54,247.9,150.66,248a12,12,0,0,0,7.21,2.57,10.44,10.44,0,0,0,3.51-.63c1.49,5,5.79,18.63,9.36,24,4.49,6.74,12.36,12.95,16.62,14.31,2.71.87,7.88,3,11.66,4.51,1.53.62,2.83,1.15,3.65,1.47s2.37,1,4.15,1.7c4.71,1.95,8.58,3.54,10.65,4.22a25,25,0,0,1-1.26,2.94c-.12.2-.74,1-1.34,1.75-5.17,6.51-18.88,23.81-17.66,37.67,1.38,15.79,17,28.76,26.76,30.41a105.38,105.38,0,0,0,16.66,1.27,103.56,103.56,0,0,0,10.67-.54c15.35-1.63,27-6.69,34.65-15,11.4-12.44,9.12-29.62-6.76-51.06-.34-.45-.62-.84-.85-1.16-1.87-2.61-9.83-11.74-18.25-21.39l-4.82-5.53C263,273.07,272.6,252.6,273.79,249s3.25-12.71,2.67-17.85c-.16-1.39-.53-3.12-1-5.12-1-4.69-2.41-11.1-1.55-16.62.16-1,.39-2.34.65-3.91,2.31-13.75,3.77-24.44,3.64-31.31,3.23,3.48,7.43,6,12.43,6a15.6,15.6,0,0,0,3.07-.31c11.4-2.28,21.68-21,21.78-21.17C319.78,150.6,320.48,143.87,317.57,138.73ZM145.3,149.28c-3.21-7.14-3.58-12.94-1.09-16.78,2.14-3.3,6.6-5.26,11.93-5.26h.15c10.58,0,20-7,21.46-8.77.08-.09.19-.23.32-.41,3.52-4.61,7.17-7,10.84-7.16s7.27,1.9,11,6.06c11,12.39,11.21,23.42,11.07,26.15l-5.39,4.23a73,73,0,0,0-4.35-15.53c-.21-.52-5.34-12.59-9.65-11.74-2.58.5-2.64,4.11-2.67,5.65-.17,10.93-4.77,27-7.86,33.19-1.14,2.29-7.35,13.6-17.6,10.89C155.1,167.59,146.88,152.81,145.3,149.28ZM186.06,156c3-8,6.18-20.7,6.33-30.19a14.18,14.18,0,0,1,.13-1.75c1.67,1.74,4.55,7,5.47,9.14a69.59,69.59,0,0,1,4.38,16.68l-11.93,9.37A9.8,9.8,0,0,1,186.06,156Zm2.6,4.65-5.44,4.27-1-1.1a30.48,30.48,0,0,0,1.93-3.33c.34-.69.7-1.49,1.07-2.38A11.69,11.69,0,0,0,188.66,160.62Zm68.79,126.66c8,9.17,16.27,18.65,18.05,21.13.23.33.53.73.88,1.21,5.5,7.41,22.22,30,7,46.61-6.26,6.84-15.59,11.29-27.74,13.28,1.56-7-.51-24.48-1.27-30.28a435.64,435.64,0,0,0-13.64-63.94l-1.92.56c13.51,46.29,17.06,87.29,14.77,94-.86.12-1.74.23-2.64.32a103.55,103.55,0,0,1-26.37-.69c-7.49-1.27-22.6-12.87-23.87-27.27-1.09-12.47,12.47-29.57,16.92-35.19.94-1.18,1.36-1.72,1.58-2.08.69-1.12,2-4.59,4-10.17,1.6-4.35,3.41-9.27,4.31-11,1.74-3.42,4.46-13.9,5.1-16.41a11.94,11.94,0,0,1,4.32.58,1,1,0,0,0,.71.05s1-.28,2.68-.73C241.45,268.82,245.06,273.07,257.45,287.28Zm-6.63-17.34a5.22,5.22,0,0,1,0,1.34,9.52,9.52,0,0,1-.93,1.91l-1.7-2C249.26,270.72,250.16,270.28,250.82,269.94Zm-4-.33c-1-1.21-1.89-2.24-2.52-3a15.87,15.87,0,0,1,6.09,1.33C249.64,268.3,248.42,268.92,246.79,269.61Zm-5.47-4.73c-2,.51-3.3.87-3.87,1-2.27-.83-6.94-.83-10.76,0-1.85.42-5.5.85-8.8,1.18a36.4,36.4,0,0,0,7.17-3.9,27.89,27.89,0,0,1,10.68-5.09,5.46,5.46,0,0,1,3,1,1,1,0,0,0,1.1,0,15.11,15.11,0,0,1,2.7-1.33,10.87,10.87,0,0,1,6.14.46c2.81,1.48,3.51,3.44,3.61,4.82a5,5,0,0,1-.8,3.13A16.93,16.93,0,0,0,241.32,264.88Zm-14.19,3q.9-.19,1.83-.33c-.31,1.18-.69,2.62-1.11,4.14-4.16-.69-8.35-1.69-11.26-2.43C220.27,268.92,224.88,268.41,227.13,267.9Zm.17,5.74c-.58,2-1.2,4-1.77,5.68-3.7-2.05-8-5.84-10.79-8.46C217.59,271.62,222.45,272.83,227.3,273.64Zm41.86-27.31c-2,3.38-6.35,5-9.78,5.48-5.12.65-8.34-1.38-11.46-3.34-.67-.42-1.31-.82-1.95-1.18-5-2.85-10.2-2.15-15.91,2.14-5.48,4.13-12.92,4.38-17.14,2.53-.35-.16-8.56-4-2.79-18,5.4-13.09,20.64-15.36,29.24-15.55,22.07-.5,25.8,8.83,29.77,18.7C270.6,240.78,270.61,243.86,269.16,246.33Zm2-41.37c-.26,1.57-.48,2.92-.64,3.94-1,6.16.51,12.95,1.58,17.9.42,1.91.78,3.56.91,4.78a25.36,25.36,0,0,1-.18,5.37c-.12-.36-.26-.73-.41-1.1C267.33,223.3,262,214.47,239.29,215c-9.45.21-26.23,2.78-32.39,17.71-7.06,17.13,4.13,22.28,4.61,22.49a18.67,18.67,0,0,0,7.35,1.4,22.26,22.26,0,0,0,13.3-4.33c5.89-4.43,9.55-3.34,12.08-1.9.59.34,1.19.71,1.82,1.1,3.3,2.08,7.41,4.66,13.76,3.85a18.79,18.79,0,0,0,9.07-3.54c-3.28,7.17-10.45,20.61-15.91,25.07l-1.75-2a13,13,0,0,0,1.49-3,8.26,8.26,0,0,0,0-2.63c0-.4-.07-.81-.08-1.19a6.66,6.66,0,0,0,1.59-4.95,8,8,0,0,0-4.65-6.43c-1.8-1-5.88-1.22-7.73-.61a15.57,15.57,0,0,0-2.6,1.22,6.8,6.8,0,0,0-3.78-1c-2,.22-7.55,2.25-11.68,5.51-3.47,2.73-12.9,6.11-13,6.15a1,1,0,0,0-.38,1.63c.35.37,8.07,8.39,14.38,11.77-.15.34-.28.66-.41.91-1,1.94-2.76,6.75-4.48,11.41-.39,1.07-.81,2.21-1.23,3.33-2-.65-7.08-2.75-10.55-4.19-1.81-.75-3.36-1.39-4.22-1.72l-3.6-1.45c-3.83-1.56-9.08-3.7-11.92-4.6-3.19-1-10.54-6.56-14.77-12.92-3.48-5.22-8-20-9.16-23.87,3.47-3.42,2.52-10,2.47-10.27l-3.45.53c0,.06.83,6.16-2.17,7.78a7.79,7.79,0,0,1-8.58-1c-2.93-2.19-12.07-10.21-15.51-17.95-3.81-8.6-4-14.87-.67-18.65,4.21-4.74,12.67-4.24,14.16-3.77,3.92,1.22,6.06,4.15,7.36,10.12l3.42-.75c-1.47-6.71-4.19-10.57-8.74-12.36-.78-4-3.43-20.42,2.5-32.8a18.81,18.81,0,0,0,7.25,4.15,15.41,15.41,0,0,0,3.95.53c5.48,0,10.15-3.08,13.6-7.08l1.64,1.82a1.75,1.75,0,0,0,2.38.2l29.61-23.25a1.77,1.77,0,0,0,.65-1.11,28.05,28.05,0,0,0-1.11-10.74c5-1.41,18.64-4.15,32.54,2.6l1-2c-3.45,7.8-3,13.41-3,13.77a1.84,1.84,0,0,0,.61,1.18l26.29,22.31a1.76,1.76,0,0,0,2.27,0l1.43-1.23C275.92,176.44,272.37,197.58,271.13,205Zm-.24-45.06a16.7,16.7,0,0,1-5.34,2.53l-9.83-8.34c.39-3.49,2.23-11.2,5-16.21,2.55-4.55,4.8-7.64,6.06-8.83a12.75,12.75,0,0,1,0,1.71C266.44,139.72,268.57,151.74,270.89,159.9Zm.61,2c.48,1.52,1,2.86,1.42,3.95.09.21.18.43.28.64l-1.39,1.2L267.35,164A18.73,18.73,0,0,0,271.5,161.94Zm40.91-4.82c-1.81,3.44-10.92,17.68-19.37,19.37-10.42,2.08-15.9-9.6-16.89-12-2.7-6.41-6.31-22.69-5.81-33.61.07-1.51.24-5.07-2.24-5.78a2.63,2.63,0,0,0-.78-.13c-1.41,0-4.12,1.36-9.61,11.15a53.75,53.75,0,0,0-5.13,15.26l-5.32-4.52c0-2.79.94-13.75,12.66-25.39,3.94-3.93,7.76-5.74,11.32-5.38s7.15,3,10.38,7.81c.12.19.22.33.29.43,1.35,1.88,10.36,9.47,21,10.08,5.35.32,9.71,2.56,11.66,6C316.78,144.43,316,150.2,312.41,157.12Z"/><path class="cls-3" d="M159.44,229a1,1,0,0,1-.18-.47c-.08-.65-.21-1.76-.26-2.24a3.59,3.59,0,0,0-1.91-2.9,3.05,3.05,0,0,0-3,.34c-2.19,1.43-.94,4.83-.79,5.22l1.87-.73c-.27-.7-.65-2.38,0-2.81a1.11,1.11,0,0,1,1.09-.21,1.66,1.66,0,0,1,.77,1.32c.05.48.18,1.61.27,2.26a3.12,3.12,0,0,0,.5,1.34c.56.84.84,1.3.91,1.45a1,1,0,0,1,.05.68c-.06.1-.25.17-.53.2-.5,0-.78-.22-1.35-.84a3.67,3.67,0,0,0-1.21-1,3.52,3.52,0,0,0-2.2,0,3.47,3.47,0,0,1-.95.14,13.41,13.41,0,0,1-5.2-5.74,3.87,3.87,0,0,1,0-3.46c.92-1.67,2-2.11,4.53-2.16a15.52,15.52,0,0,1-1.15,2.51l1.7,1c.15-.24,3.61-5.93,1.28-10.37a7.43,7.43,0,0,0-9.68-3.7c-3,1.22-6.23,4.62-5.28,10.17.78,4.59,2.45,10.51,8.43,15.57l1.29-1.53c-5.46-4.61-7-9.85-7.75-14.37s1.6-7,4.05-8a5.39,5.39,0,0,1,7.17,2.76,6.19,6.19,0,0,1,.46,3.88c-3.06,0-5.24.39-6.8,3.19-1,1.82-.89,4,.34,6.23,1.65,3,5.13,5.86,6.36,5.95a5.26,5.26,0,0,0,1.59-.19,2.11,2.11,0,0,1,1-.1,2.9,2.9,0,0,1,.52.5,3.63,3.63,0,0,0,2.71,1.5h.33a2.5,2.5,0,0,0,2.06-1.2,2.87,2.87,0,0,0,0-2.51A13.18,13.18,0,0,0,159.44,229Z"/></svg>