<svg id="Layer_1" data-name="Layer 1" xmlns="http://www.w3.org/2000/svg" viewBox="0 0 481.89 481.89"><defs><style>.cls-1{fill:#f9d7ed;}.cls-2{fill:#fff;}.cls-3{fill:#2a1d75;}</style></defs><title>Image_generation</title><path class="cls-1" d="M364.28,275.26a54,54,0,0,1-1.14-6.51c.11-1.13,1-11.15-1.85-17.3-1.84-4-2.82-5-9.14-11.69-2.66-2.81-6.31-6.66-11.43-12.21-.45-.48-.9-.94-1.35-1.4.85-2.41,1.32-5.89,2-10.77.38-2.86.82-6.1,1.42-9.86.94-5.8.08-9.32-2.55-10.45-3.08-1.32-6.73,1.5-8.43,3.72-2.38,3.1-11.43,12.85-14,15.59a32,32,0,0,0-8.33-.26,28.1,28.1,0,0,0,5.55-9.94c1.81-6.36-.52-20.25-.54-20.39a33.58,33.58,0,0,0-2.48-6.12c-.54-1.15-1.28-2.74-1.37-3.09-.09-.63-.92-6.28-3.35-9.36-1.57-2-2.33-2.48-6.55-5.22-1.7-1.12-4-2.63-7.24-4.78a33.75,33.75,0,0,0-.32-6.88c-.18-1.7-.37-3.62-.54-5.87-.29-3.85-1.47-6-3.51-6.33-2.22-.38-4.21,1.67-5.13,3.73s-4.87,9.08-5.92,10.93a17.59,17.59,0,0,0-6.38,1.94c-4.56-1.05-9.44.35-11.48,1.07-2.34-1.8-9.28-7.11-12.47-9.33a5.11,5.11,0,0,0-4.35-.9c-2.71.71-4.23,3.56-4.49,4.08-3.36,6.11-2.26,15.36-.35,22.27-1.51,1.3-3.68.18-7.4,1.28-4.24-1.37-12.52-1.1-23.27-1.1-2.12-1.09-11.45-2.08-20.63-2.33-2.28-3.63-11.45-18.27-13.92-23.21-1.62-3.24-5.52-7.72-9.62-6.82-3.49.77-5.37,5.05-5.61,12.72-.15,5.2-.4,9.64-.63,13.57-.39,6.93-.66,11.79-.07,15.17-.82.56-1.64,1.13-2.47,1.74-8.27,6.11-14.14,10.33-18.43,13.4-10.1,7.25-11.65,8.36-15.08,13.13-5.39,7.49-6.74,21.75-6.79,22.35-.09,1-1.85,5.21-3.25,8.6-2.26,5.44-4.82,11.61-5.29,14.87-.73,5.12-3.68,36,.84,49.53,4.6,13.71,16.38,27.68,31.51,37.34a86.92,86.92,0,0,0,47,13.85,91.73,91.73,0,0,0,14-1.09,128.45,128.45,0,0,0,15.66-3.41,36.06,36.06,0,0,0,23.14,4c12-1.85,21.52-7.22,28.34-16a91.23,91.23,0,0,0,17.79,8.57,64.36,64.36,0,0,0,46.05-.76c12.35-4.92,22.87-13.43,28.13-22.77s7.35-32,7.53-35.81C366.16,284.36,365.2,279.73,364.28,275.26Z"/><path class="cls-2" d="M152.72,229.63h-.12c-8.21-1-10.42-9-11-12.45a3.6,3.6,0,0,1,1.4-3.48c1.95-1.45,7.52-4.34,11.37-3.51,5.24,1.13,8.43,8.66,8.56,9a1,1,0,0,1-.22,1.1l-9.29,9.08A1,1,0,0,1,152.72,229.63Z"/><path class="cls-2" d="M214.22,239.51c-4.32,0-13.61-1.39-15.31-5.92h0c-2.06-5.51,3.05-9.25,8.31-12.19,4.54-2.52,10.41.15,13.5,2,1.66,1,6,3.86,6,5.49,0,3.41-7.07,10.14-11.12,10.59A12.78,12.78,0,0,1,214.22,239.51Zm10.52-10.42Z"/><path class="cls-2" d="M341.75,262.88l-.66,0a1,1,0,0,1-.75-.43l-5.44-7.83a1,1,0,0,1,0-1.13c.15-.21,3.57-5.31,7.64-5.4,3-.11,6.68,2.85,7.91,4.19a2.88,2.88,0,0,1,.58,3C350.14,257.58,347.53,262.88,341.75,262.88Z"/><path class="cls-2" d="M299.66,261.85a21.25,21.25,0,0,1-5.41-.64c-2.71-.84-7.26-6.75-6.73-9.49.3-1.56,5-3.26,5.24-3.33,2.54-.9,7.25-2,10.27.5,3.47,2.92,6.71,6.43,4.36,10.28l-.86-.52.86.52C306.12,261.24,302.75,261.85,299.66,261.85Z"/><path class="cls-2" d="M299.57,173.26a1,1,0,0,1-.67-.25L295,169.53a1,1,0,0,1-.28-1.09c.13-.35,1.35-3.51,3.69-4.13,1.74-.46,4.2.67,5.11,1.28a2.05,2.05,0,0,1,.89,1.94c-.38,3.15-2.13,5.29-4.68,5.72Z"/><path class="cls-2" d="M274.73,178.36h-.24c-1.78-.12-5.14-2.86-5.22-4.62,0-1,1.79-2.33,2.57-2.85,1.32-.85,3.85-2.13,6-1.06,1.45.72,4.84,2.42,3.86,5.46h0C280.9,177.69,276.3,178.36,274.73,178.36Z"/><path class="cls-2" d="M222.07,293a1.71,1.71,0,0,0-.61-.25c-1.92-.42-4.11,1.58-4.11,1.58s.3,4.11,3,5.36a4.4,4.4,0,0,1-1-2.83C219.33,294.76,220.15,293.48,222.07,293Z"/><path class="cls-2" d="M221.49,301h-.12c-2.56-.32-4.41-2.37-4.93-5.5a2,2,0,0,1,.79-2c.89-.66,3.3-1.89,5.05-1.51,2.37.51,3.72,3.61,3.87,4a1,1,0,0,1-.22,1.1l-3.74,3.65A1,1,0,0,1,221.49,301Z"/><path class="cls-2" d="M246.25,304.93c-1.79,0-5.92-.53-6.75-2.76h0c-1.12-3,2.19-4.84,3.61-5.63,2.08-1.16,4.66,0,6,.79.81.48,2.7,1.7,2.7,2.73,0,1.77-3.24,4.65-5,4.85Z"/><path class="cls-2" d="M238.34,214.36a20.78,20.78,0,0,1-7.91-1.76c-2.36-1.22-5.57-7.42-4.64-9.86.55-1.42,5.2-2.21,5.4-2.24,2.48-.41,7-.68,9.37,2.16,2.72,3.26,5.12,7,2.31,10.2h0C241.89,214,240.19,214.36,238.34,214.36Z"/><path class="cls-2" d="M307.83,240.91a15.58,15.58,0,0,1-6-1.33c-1.86-1-4.31-5.69-3.56-7.63.43-1.15,3.57-1.72,4.19-1.82,1.9-.32,5.36-.52,7.2,1.69s3.94,5.38,1.71,7.9h0A4.65,4.65,0,0,1,307.83,240.91ZM300,233Z"/><path class="cls-2" d="M298.28,283a15.6,15.6,0,0,1-6-1.32c-1.87-1-4.32-5.69-3.57-7.64.44-1.14,3.58-1.71,4.2-1.82,1.9-.31,5.35-.51,7.2,1.69,2,2.36,3.94,5.39,1.7,7.91h0A4.63,4.63,0,0,1,298.28,283Zm-7.89-7.94Z"/><path class="cls-2" d="M198.46,197.59A4.33,4.33,0,0,1,196,197c-1-.77-.73-4.2-.66-4.88.22-2.07,1-5.74,3.84-7,3.21-1.46,6.76-2.55,8.72.47h0c1.8,2.77-1.6,8.47-2.92,9.9C203.9,196.66,200.83,197.59,198.46,197.59Zm-1-1.92Z"/><path class="cls-2" d="M191.24,210.45a1.69,1.69,0,0,1-.56-.09c-.36-.14-.78-.42-1.15-2.13-.21-1-.78-4.48,1.1-6.3,1.05-1,3.52-3.42,5.56-1.49h0c1.73,1.64.1,6.37-.19,7A7,7,0,0,1,191.24,210.45Z"/><path class="cls-2" d="M200.29,259.55c-2.95,0-6.24-.58-7.43-2.58h0c-2.18-3.65.87-6.9,4.15-9.6,2.86-2.36,7.25-1.26,9.61-.39.19.06,4.61,1.7,4.89,3.19.47,2.57-3.84,8.07-6.39,8.83A19,19,0,0,1,200.29,259.55Zm9.37-8.73Z"/><path class="cls-2" d="M181.83,233.27l-.37,0c-2.34-.28-9.94-2.86-10.44-6.77h0c-.53-4.21,3.57-6,7.65-7.14,3.55-1,7.14,1.75,9,3.48.15.14,3.55,3.41,3.21,4.88C190.27,230.13,184.63,233.27,181.83,233.27Zm7-5.71Z"/><path class="cls-2" d="M139.84,317.51a2.92,2.92,0,0,1-.94-.13c-1.14-.37-5.54-2.74-5.37-5.35.21-3.11,3.88-3.42,5.44-3.55,2.3-.19,4.13,1.87,5,3.11.52.75,1.7,2.58,1.29,3.5C144.67,316.41,141.74,317.51,139.84,317.51Z"/><path class="cls-2" d="M156.38,323.22h0c-1.2,0-6.1-1-6.68-3.59-.69-3,2.74-4.38,4.2-4.95,2.15-.85,4.48.6,5.68,1.53.72.57,2.38,2,2.24,3C161.54,320.89,158.12,323.22,156.38,323.22Zm3.46-3.88Z"/><path class="cls-2" d="M173,321.7c-1.76,0-3.76-.35-4.54-1.65h0c-1.61-2.66,1.22-5,2.43-6,1.78-1.48,4.45-.83,5.88-.32.86.31,2.88,1.14,3.06,2.13.32,1.69-2.25,5-3.9,5.53A11.79,11.79,0,0,1,173,321.7Zm5-5.11Z"/><path class="cls-2" d="M153.63,244.48c-1.73,0-5.16-2.34-5.39-4-.13-1,1.53-2.42,2.25-3,1.2-.94,3.53-2.38,5.69-1.53,1.46.58,4.88,1.93,4.18,5h0c-.59,2.55-5.49,3.55-6.69,3.58Zm-3.45-3.88Z"/><path class="cls-2" d="M171.56,250.23a11.37,11.37,0,0,1-2.88-.33c-1.65-.49-4.23-3.81-3.92-5.5.18-1,2.19-1.83,3.05-2.14,1.43-.53,4.09-1.19,5.88.29,1.21,1,4.05,3.34,2.46,6C175.36,249.87,173.33,250.23,171.56,250.23Zm-5-5.1Z"/><path class="cls-2" d="M134.62,212.89c-1.45,0-2.88-.3-3.61-1.27h0c-1.9-2.55.74-5.23,1.87-6.38,1.67-1.69,4.45-1.31,6-.93.91.23,3,.87,3.34,1.85.5,1.69-1.78,5.35-3.41,6A13,13,0,0,1,134.62,212.89Zm5.85-5.81Z"/><path class="cls-2" d="M149.81,204.85c-1.95,0-5.5-.46-6.35-2.46h0c-1.24-2.93,2-4.91,3.33-5.76,2-1.24,4.64-.2,6,.53.83.43,2.75,1.56,2.8,2.58.08,1.76-3,4.77-4.75,5A6.62,6.62,0,0,1,149.81,204.85Z"/><path class="cls-2" d="M165.62,207.78a5.4,5.4,0,0,1-2.6-.52c-1.05-.63-4.9-4-4.11-6.59h0c.92-3,4.65-2.49,6.25-2.26,2.34.35,3.68,2.82,4.27,4.27.35.87,1.1,3,.47,3.78S167.33,207.78,165.62,207.78Z"/><path class="cls-3" d="M161.61,287.06a34.69,34.69,0,0,0-17.74-4.81,74.78,74.78,0,0,1-9.07-.64l-2.15-.23c-3.76-.39-9.3-10-9.1-17.72.13-5.15,3.42-9.9,9.8-14.13a13.48,13.48,0,0,0-1.78,5.76c-.43,4.44,3.6,11.16,8.51,13a22.5,22.5,0,0,0,4.15,1,25.86,25.86,0,0,0,.15,7.19l2-.43a24,24,0,0,1-.11-6.53c4.46.38,9.5-.2,12.87-2.37,4-2.6,6-5.27,6.59-11.47.41-4.3-5.24-8.69-18.61-10.63a19.74,19.74,0,0,0-7.69.18c8.65-7.73,31.19-30.46,34.13-33.43l-1.43-1.41c-2.39,2.42-5,5.07-7.75,7.8-1.15-2.25-4-6.89-8-7.76-3.85-.83-9.41,2.06-11.36,3.51a3.56,3.56,0,0,0-1.4,3.48c.53,3.16,2.48,10.29,9.31,12.11-8.63,8.49-16.1,15.63-17.53,16.43-9,5-13.65,11-13.81,17.65-.18,7.25,4.56,17.67,9.77,19.5-.7,3.14-1.81,12.6,8.1,18.37C145.62,305.09,154,309,164,309A41.8,41.8,0,0,0,183.48,304l-.92-1.77c-18,9.35-32.65,3.08-42.14-2.44a14.27,14.27,0,0,1-7.14-16.29l1.31.14,3.25.33a24.86,24.86,0,0,0,14.93,5.18,20.27,20.27,0,0,0,6.59-1c.42.23.83.45,1.2.68a36.67,36.67,0,0,0,18.59,4.93,40,40,0,0,0,15.25-3.08l-.76-1.85C176.9,295.59,164,288.54,161.61,287.06Zm-10.93-60.71c-3.56-2.44-4.75-7-5.13-9.26a1.6,1.6,0,0,1,.62-1.55,19.43,19.43,0,0,1,7.52-3.17c-3.05,1.65-4.39,4.51-4.39,8.66A11,11,0,0,0,150.68,226.35ZM142,284.24c.67,0,1.32,0,1.92,0a32.88,32.88,0,0,1,12.59,2.51A21.46,21.46,0,0,1,142,284.24Z"/><path class="cls-3" d="M200.7,181.86,200,180c-.6.24-14.76,6-17.94,31.28l2,.25C187,187.55,200.56,181.92,200.7,181.86Z"/><path class="cls-3" d="M222.69,223.61c-3.09-1.82-9-4.49-13.5-2-5.26,2.94-10.36,6.68-8.3,12.19,1.69,4.53,11,5.92,15.31,5.92a12.45,12.45,0,0,0,1.35-.06c4.06-.45,11.12-7.18,11.12-10.6C228.67,227.47,224.36,224.58,222.69,223.61Zm-19.93,9.52c-.9-2.41-.63-5.26,7.41-9.74a6.66,6.66,0,0,1,3.21-.78,12.46,12.46,0,0,0-3.31,8.58,12.69,12.69,0,0,0,1.58,6.18C207.76,236.73,203.58,235.31,202.76,233.13Z"/><path class="cls-3" d="M354.88,276.9c-.9-.75-5.14-6.71-10.07-13.85,5-.61,7.36-5.39,8.17-7.58a2.86,2.86,0,0,0-.58-3c-1.21-1.33-4.84-4.19-7.81-4.19h-.1c-2.94.07-5.54,2.74-6.81,4.3l-4.31-6.39-1.66,1.11c1.68,2.5,14.35,21.38,19.72,28.5a15,15,0,0,0-5-1c-9.91-.45-14.6,1.93-14.9,5.09-.43,4.55.62,6.75,3.17,9.19,2.07,2,5.49,3.08,8.68,3.46a17.18,17.18,0,0,1-1,4.62l1.84.79a19.06,19.06,0,0,0,1.12-5.27,15.12,15.12,0,0,0,2.87-.17c3.79-.62,7.63-4.91,7.94-8.17a10.45,10.45,0,0,0-.31-3.84c3.68,3.74,5.26,7.41,4.67,10.94-.9,5.4-6.17,11.52-8.73,11.3l-1.57-.14a50.41,50.41,0,0,1-6.61-.79,26,26,0,0,0-13.61,1,26.1,26.1,0,0,1-23.1-3.18l-1.09,1.68a29,29,0,0,0,16,4.87,26,26,0,0,0,8.92-1.5l.84-.28a16.24,16.24,0,0,0,7.84,1.93,19.34,19.34,0,0,0,8.32-2l2.34.21.71.06a10.19,10.19,0,0,1-7.24,10.26c-8.18,2.87-19,5-30.47-4l-1.24,1.56a29.89,29.89,0,0,0,19,6.92,40.28,40.28,0,0,0,13.36-2.56,12.27,12.27,0,0,0,8.57-12.18c4.09-.86,8.87-7.62,9.74-12.86C363.3,286.86,360.74,281.85,354.88,276.9Zm-3.95-23a.89.89,0,0,1,.18.92c-.54,1.45-1.87,4.25-4.37,5.59a7.92,7.92,0,0,0,1.36-3.17c.52-2.68.1-4.77-1.41-6.33A14.71,14.71,0,0,1,350.93,253.85Zm-16.12,49.83a23,23,0,0,1,8.35.1l.28.06A15.61,15.61,0,0,1,334.81,303.68Z"/><path class="cls-3" d="M324.13,245.52l2,.13c1.22-18.81-8.32-25-8.72-25.29l-1.07,1.69C316.42,222.11,325.26,227.89,324.13,245.52Z"/><path class="cls-3" d="M296.22,261.44a20.71,20.71,0,0,0,5.41.65c3.09,0,6.47-.61,7.73-2.68,2.35-3.86-.88-7.36-4.36-10.28-3-2.53-7.73-1.4-10.26-.5-.21.07-4.95,1.77-5.25,3.33C289,254.7,293.51,260.61,296.22,261.44Zm11.43-3.07c-.81,1.33-3.8,1.75-6.56,1.7a9.37,9.37,0,0,0,1.79-4,9.22,9.22,0,0,0-1-6.33,4.48,4.48,0,0,1,1.86.89C308.73,254.88,308.57,256.86,307.65,258.37Z"/><path class="cls-3" d="M311.26,192.6l-.86.13a29.57,29.57,0,0,1-3.55.41,14.66,14.66,0,0,0-7.36,2.36,13.85,13.85,0,0,1-12.3,1.2l-.67,1.88a16.94,16.94,0,0,0,5.68,1,15.43,15.43,0,0,0,8.41-2.44l.23-.14a9.12,9.12,0,0,0,2.15.25,10.5,10.5,0,0,0,6.55-2.38l1.15-.17a5.09,5.09,0,0,1-2.45,5.49c-3.89,2.51-9.26,5-16.3,1.71l-.84,1.81a17.6,17.6,0,0,0,7.49,1.75,19.67,19.67,0,0,0,10.73-3.59,7.13,7.13,0,0,0,3.29-7.73c2.09-1.34,3.68-5.4,3.47-8.34s-2.29-5.37-6.19-7.33c-.56-.3-3.29-2.68-6.53-5.57a6.51,6.51,0,0,0,3-5.14,2,2,0,0,0-.88-1.94c-.92-.61-3.37-1.74-5.12-1.28a5.56,5.56,0,0,0-3.09,2.86c-.95-.86-1.85-1.7-2.67-2.45l-1.36,1.47c1.88,1.73,9.75,9,13.66,12.25a9.52,9.52,0,0,0-2,.18c-5.33,1-7.52,2.89-7.28,4.61.35,2.48,1.19,3.51,2.85,4.48a8.18,8.18,0,0,0,4.62.78,9.59,9.59,0,0,1,.08,2.46l2,.35a11,11,0,0,0-.08-3.14,8.44,8.44,0,0,0,1.07-.34,5.93,5.93,0,0,0,3.18-5.37,5.69,5.69,0,0,0-.3-1.22c1.92,1.34,3,2.84,3.08,4.48C314.28,188.78,312.36,192.43,311.26,192.6Zm-6.86-25.07a5.82,5.82,0,0,1-.89,2.58,3.44,3.44,0,0,0,.05-.85,4.16,4.16,0,0,0-.8-2.52A6.6,6.6,0,0,1,304.4,167.53Z"/><path class="cls-3" d="M288.87,166.18l2-.34c-1.8-10.43-7.91-12.61-8.17-12.7L282,155C282.23,155.11,287.28,157,288.87,166.18Z"/><path class="cls-3" d="M276.46,178.59h.25c1.56,0,6.16-.66,6.94-3.07,1-3-2.41-4.74-3.86-5.46-2.13-1.07-4.65.21-6,1.06-.79.52-2.62,1.82-2.58,2.85C271.32,175.73,274.69,178.47,276.46,178.59Zm5.29-3.69c-.17.53-1.38,1.06-2.66,1.38a5.07,5.07,0,0,0,.26-1.84,5.18,5.18,0,0,0-.94-2.75,1.66,1.66,0,0,1,.49.16C282.2,173.5,281.91,174.41,281.75,174.9Z"/><path class="cls-3" d="M226.56,323.08a14.58,14.58,0,0,0-7.46-2,29.21,29.21,0,0,1-3.57-.25l-.86-.09c-1.11-.12-3.2-3.67-3.12-6.51,0-1.65,1-3.19,2.86-4.62a6.91,6.91,0,0,0-.24,1.24,5.91,5.91,0,0,0,3.42,5.21,8.79,8.79,0,0,0,1.08.3,10.79,10.79,0,0,0,.07,3.13l1.95-.43a8.9,8.9,0,0,1,0-2.47,8.15,8.15,0,0,0,4.57-1c1.62-1,2.42-2.12,2.65-4.61.17-1.73-2.11-3.49-7.48-4.27a9.68,9.68,0,0,0-2-.09c3.75-3.45,11.29-11,13.08-12.86l-1.42-1.4-2.55,2.57a5.56,5.56,0,0,0-3.22-2.72c-1.76-.37-4.17.85-5,1.51a2,2,0,0,0-.8,2,6.5,6.5,0,0,0,3.26,5c-3.1,3-5.73,5.54-6.27,5.87-3.81,2.13-5.78,4.69-5.85,7.6s1.7,6.93,3.84,8.17a7.13,7.13,0,0,0,3.64,7.58A20.15,20.15,0,0,0,227.19,333a17.45,17.45,0,0,0,8.12-2.1l-.92-1.77c-6.88,3.57-12.36,1.36-16.36-1a5.14,5.14,0,0,1-2.69-5.38l1.15.12a10.56,10.56,0,0,0,6.2,2.09,9.17,9.17,0,0,0,2.58-.36l.24.14a15.41,15.41,0,0,0,7.79,2.07,16.72,16.72,0,0,0,6.35-1.28l-.75-1.85A13.84,13.84,0,0,1,226.56,323.08ZM222,294.49a4.22,4.22,0,0,0-.7,2.56,4.28,4.28,0,0,0,.08.81,5.89,5.89,0,0,1-1-2.53A7.39,7.39,0,0,1,222,294.49Z"/><path class="cls-3" d="M370,271.15a56.1,56.1,0,0,1-1.14-6.51c.11-1.12,1-11.15-1.84-17.3-1.85-4-2.82-5-9.15-11.68-2.66-2.81-6.31-6.66-11.43-12.21-.44-.49-.89-.95-1.34-1.4.85-2.41,1.32-5.9,2-10.78.39-2.85.82-6.09,1.43-9.86.93-5.8.07-9.32-2.56-10.45-3.08-1.32-6.73,1.5-8.43,3.73-2.37,3.1-11.42,12.84-14,15.58a32.41,32.41,0,0,0-8.32-.26,28.22,28.22,0,0,0,5.54-9.94c1.82-6.36-.52-20.25-.54-20.38a32.1,32.1,0,0,0-2.47-6.12c-.55-1.16-1.29-2.74-1.38-3.1-.08-.63-.92-6.28-3.35-9.36-1.57-2-2.33-2.48-6.54-5.22-1.7-1.11-4-2.62-7.24-4.78a33.93,33.93,0,0,0-.33-6.88c-.17-1.7-.37-3.62-.54-5.87-.29-3.84-1.47-6-3.51-6.33-2.2-.37-4.21,1.67-5.12,3.73s-4.87,9.08-5.92,10.93a17.82,17.82,0,0,0-6.39,1.95c-4.56-1.06-9.43.34-11.48,1.06-2.34-1.8-9.28-7.11-12.47-9.32a5.15,5.15,0,0,0-4.35-.91c-2.7.71-4.23,3.56-4.49,4.08-3.35,6.11-2.25,15.36-.35,22.27A9.16,9.16,0,0,0,240.9,171c-4.25-1.37-17.5-5-29.11-1.34A42.1,42.1,0,0,0,194,165.36c-2.28-3.63-12.51-20-15-24.9-1.62-3.23-5.52-7.7-9.61-6.81-3.49.76-5.38,5-5.61,12.72-.16,5.19-.41,9.64-.63,13.56-.39,6.93-.67,11.79-.08,15.18q-1.23.82-2.46,1.74c-8.28,6.1-14.15,10.32-18.43,13.39-10.1,7.25-11.65,8.37-15.09,13.14-5.39,7.48-6.74,21.74-6.79,22.34-.09,1-1.84,5.21-3.25,8.6-2.26,5.44-4.82,11.61-5.28,14.87-.73,5.12-3.69,36,.84,49.53,4.59,13.72,16.37,27.68,31.51,37.35a87,87,0,0,0,47,13.84,90.35,90.35,0,0,0,14-1.09,127.64,127.64,0,0,0,15.66-3.41,36.05,36.05,0,0,0,23.14,4c12-1.86,21.52-7.23,28.34-16a89.92,89.92,0,0,0,17.8,8.57,64.29,64.29,0,0,0,46-.76c12.36-4.91,22.87-13.43,28.13-22.77,5.18-9.19,7.35-32,7.53-35.81C371.84,280.25,370.89,275.62,370,271.15Zm-25-70.29c-.61,3.8-1.05,7.07-1.44,9.95-.34,2.54-.64,4.78-1,6.61-.81-2.76-1.68-6.57-1.13-9.23l.08-.4c.8-3.85,1.85-8.9,3.63-12.34A15.58,15.58,0,0,1,345,200.86Zm-4.75-4.05a7.81,7.81,0,0,1,3.29-2.55c-2,3.67-3.07,8.85-4,13.13l-.08.4c-.66,3.16.32,7.36,1.22,10.36a38.15,38.15,0,0,0-13.27-7C331,207.31,338.09,199.63,340.25,196.81ZM295.7,148.12a10.48,10.48,0,0,1-1.47-4.11,40.88,40.88,0,0,1,.32-7.34,12.43,12.43,0,0,1,.28,2c.17,2.29.37,4.24.55,6C295.51,145.87,295.63,147.08,295.7,148.12Zm-3.36-9.81a55.22,55.22,0,0,0-.11,5.76,10.17,10.17,0,0,0,1.18,4,21.37,21.37,0,0,0-5.61-1.35C289.14,144.28,291.22,140.54,292.34,138.31Zm-44.67,6.9a.41.41,0,0,0,.05-.09c.2-.4,1.15-2,2.25-2.26a1.63,1.63,0,0,1,1.46.39c3.63,2.52,12.55,9.38,13.07,9.78a17.3,17.3,0,0,1-1.16,4.6,23,23,0,0,0-5.22-7.59c-3.74-3.18-6-3.87-6.41-4a1.19,1.19,0,0,0-1.13.33c-1.14,1-3.31,5.5-2.35,12.07a29.17,29.17,0,0,0,4.06,9.42,12.39,12.39,0,0,0-2.65,2.81C247.65,165.86,243.63,152.51,247.67,145.21Zm6.27,21.58c-1-1.31-3.36-6-3.74-8.61-.8-5.52.82-9,1.5-10a19.87,19.87,0,0,1,5.12,3.39c3,2.52,4.93,7.4,5.21,8.12a19.65,19.65,0,0,0-2.42,3.23,4.79,4.79,0,0,1-2.19,2.27l-.71.3A23.4,23.4,0,0,0,253.94,166.79ZM244.88,168a27,27,0,0,0,2.87,6.61,22.07,22.07,0,0,0-.59,2.18l2,.4c1.44-7,5.77-8.76,8.35-9.82l.77-.32a6.65,6.65,0,0,0,3.07-3A17.05,17.05,0,0,1,263.5,161c2.06-2.17,2.76-5.79,3-7.83,1-.4,6.29-2.31,10.65-1a1.76,1.76,0,0,0,1.48-.23c.32-.21,7.93-5.11,18.23,1.8,3.44,2.31,5.89,3.9,7.67,5.06,4.18,2.72,4.52,3,5.71,4.47,1.51,1.9,2.38,5.84,2.63,7.66a18,18,0,0,0,1.67,4.1,36.1,36.1,0,0,1,2.2,5.29c.53,2.77,2,14.06.62,18.77-2.64,9.25-15.05,22-33.3,20l-.52-.1a4,4,0,0,0-1.6-.08c-5.63-7.08-12.65-9.6-17.11-11.2-.68-.24-1.3-.46-1.84-.68-3.15-1.23-4.43-3.1-6.38-5.93a45,45,0,0,0-6.24-7.58c-6.39-6.15-7.62-19.45-7.71-20.5A6.67,6.67,0,0,1,244.88,168Zm-69-25.94c2.27,4.56,10.52,17.82,14,23.42a51.52,51.52,0,0,0-21.84,6.62c2-3.61,5.14-10,5.06-14.88v-.55c-.09-6.33-.21-14.1-2.28-19.55C172.42,137.4,174.63,139.5,175.89,142Zm-9.23,18.11c.23-3.95.48-8.42.64-13.66.13-4.6.88-7.25,1.75-8.51,1.89,5.15,2,12.91,2.09,18.7v.55c.07,4.47-3,10.57-4.88,14C166.2,168.38,166.41,164.68,166.66,160.13ZM368.23,282.55c-.25,5.23-2.57,26.24-7.08,34.26-9.24,16.39-38.68,33.13-70,22a86.43,86.43,0,0,1-18.38-9.06,1.74,1.74,0,0,0-2.43.4c-6.31,8.74-15.4,14.09-27,15.89a32.65,32.65,0,0,1-20.78-3.58c-5.95-3.4-12.24-7.65-14.39-14.65-1.52-5-.64-16.62-.27-19.16a34.35,34.35,0,0,1,2-5.56,20.08,20.08,0,0,0,1.43-4c.17-1.89.89-6,2.41-8.14,1.22-1.69,1.64-2,5.68-4.89,1.72-1.24,4.09-2.93,7.42-5.39,10.42-7.7,18.62-2.87,19-2.66a1,1,0,0,0,.86.09c4.12-1.43,9.14-.1,10.81.42.21,1.69,1,6.12,3.46,8.51a16.48,16.48,0,0,1,2.32,2.83,6.59,6.59,0,0,0,3.21,2.9l.78.28c2.63.95,7,2.52,8.78,9.44L278,302a19.25,19.25,0,0,0-1-3c2.1-3.86,6.95-21,1.47-29.87-.07-.12-1.64-3-4.2-3.54a4.39,4.39,0,0,0-3.69,1c-3.18,2.44-10.47,8.56-12.32,10.12-1.73-.56-7-2-11.76-.58a16.86,16.86,0,0,0-7-1.74c-1.1-1.75-4.94-7.89-5.89-9.79-.69-1.39-2.38-3.3-4.19-2.9-1.56.34-2.39,2.16-2.49,5.39-.06,2.09-.16,3.87-.25,5.45a33.19,33.19,0,0,0-.05,6l-.86.61c-3.32,2.45-5.68,4.14-7.4,5.38-4.09,2.94-4.72,3.39-6.13,5.34-2.18,3-2.73,8.52-2.78,9.13a30.77,30.77,0,0,1-1.29,3.37,33.55,33.55,0,0,0-2.14,6.05c-.23,1.61-1.41,14.3.34,20,1.91,6.25,6.79,10.52,12.32,14a123.7,123.7,0,0,1-14,3c-45.05,7-80.4-23.25-88.61-47.75-4-12-1.7-40.84-.69-47.93.4-2.82,3-9,5-14,2.15-5.17,3.37-8.17,3.51-9.62.43-4.78,2.27-15.24,6.14-20.62,3.1-4.3,4.38-5.22,14.29-12.33,4.29-3.08,10.17-7.31,18.46-13.43,11.07-8.17,22.5-11.78,34-10.71a35.4,35.4,0,0,1,14,4.07,1.78,1.78,0,0,0,1.49.16c11.86-4.11,26.59.75,28.61,1.45.47,4,2.26,14.69,8.18,20.39a42.39,42.39,0,0,1,6,7.28c2,2.9,3.58,5.2,7.3,6.65.56.22,1.2.45,1.89.7,6.38,2.29,18.24,6.54,22.8,24.52l1.94-.5a41.66,41.66,0,0,0-4.4-11c1.12.1,2.24.16,3.32.16a35.34,35.34,0,0,0,22.92-8.38c1.38-.49,17.41-5.68,33.11,11.35,5.14,5.57,8.79,9.43,11.46,12.24,6.25,6.6,6.9,7.29,8.51,10.75,2,4.32,1.88,12,1.54,15.48-.12,1.14.33,3.38,1.19,7.57C367.33,275.72,368.32,280.52,368.23,282.55ZM231.48,271.16a31.93,31.93,0,0,0-.61-6.9,4.47,4.47,0,0,1,.85,1.17c.86,1.72,3.83,6.52,5.36,9a20.7,20.7,0,0,0-7.08,2,12,12,0,0,0,1.48-5.05Zm-2.91,1.43c.09-1.59.19-3.39.26-5.5a11.05,11.05,0,0,1,.2-1.95,34.45,34.45,0,0,1,.45,6.05v.22a9.32,9.32,0,0,1-1,3.64Q228.5,273.93,228.57,272.59Zm45.13,21.78c1.52-2.37,3.92-8.08,4.23-11.24.78-7.76-2-12.88-3.38-14a1.23,1.23,0,0,0-1.18-.3c-.29.09-3,1-7.31,5-2.68,2.5-4.56,6.36-5.55,8.77a19.49,19.49,0,0,1-1-4.39c1.78-1.5,9.1-7.66,12.27-10.08a2.46,2.46,0,0,1,2.06-.6c1.36.29,2.52,1.93,2.88,2.59,4.66,7.58.82,22-.93,26.68A12.49,12.49,0,0,0,273.7,294.37Zm2.24-11.44c-.29,2.92-2.63,8.25-3.82,10.21a18.45,18.45,0,0,0-4.19-2c-.26-.09-.51-.18-.72-.27a4.75,4.75,0,0,1-2.29-2.16,18.78,18.78,0,0,0-2.58-3.14,5.37,5.37,0,0,1-.58-.67c.55-1.55,2.56-6.74,5.66-9.63a22.84,22.84,0,0,1,6.08-4.39C274.32,272,276.62,276.1,275.94,282.93Z"/><path class="cls-3" d="M241.45,280c-.26.1-6.27,2.55-7.59,13.05l2,.25c1.17-9.24,6.13-11.36,6.34-11.44Z"/><path class="cls-3" d="M251.1,297.57c-1.35-.79-3.93-2-6-.79-1.41.79-4.72,2.63-3.61,5.63h0c.84,2.23,5,2.76,6.75,2.76l.58,0c1.77-.2,5-3.08,5-4.85C253.8,299.27,251.91,298.05,251.1,297.57Zm-7.75,4.14c-.18-.49-.52-1.39,2.71-3.19a2,2,0,0,1,.48-.17,5.09,5.09,0,0,0-.82,2.79,5.21,5.21,0,0,0,.34,1.82C244.77,302.69,243.54,302.23,243.35,301.71Z"/><path class="cls-3" d="M233.15,200.74c-.19,0-4.84.82-5.38,2.24-1,2.5,2.22,8.6,4.64,9.85a20.56,20.56,0,0,0,7.9,1.77c1.85,0,3.55-.39,4.53-1.5,2.81-3.18.41-6.94-2.31-10.2C240.16,200.06,235.64,200.33,233.15,200.74Zm10.19,11c-.94,1.06-3.68,1-6.15.47A8.84,8.84,0,0,0,239.4,209a8.55,8.55,0,0,0,.13-5.85,3.91,3.91,0,0,1,1.46,1.06C244.86,208.81,244.41,210.57,243.34,211.78Z"/><path class="cls-3" d="M303.82,239.82a15.58,15.58,0,0,0,6,1.33,4.65,4.65,0,0,0,3.56-1.19c2.22-2.51.38-5.4-1.71-7.9-1.84-2.21-5.29-2-7.19-1.7-.62.11-3.76.68-4.2,1.83C299.51,234.13,302,238.86,303.82,239.82Zm8-1.18c-.57.65-2.42.61-4.16.3a6.48,6.48,0,0,0,1.64-6.22,2.49,2.49,0,0,1,.78.62C312.86,236.63,312.58,237.83,311.86,238.64Z"/><path class="cls-3" d="M294.9,272.48c-.63.11-3.76.68-4.2,1.82-.74,1.95,1.7,6.67,3.57,7.64a15.6,15.6,0,0,0,6,1.32,4.7,4.7,0,0,0,3.56-1.18c2.23-2.52.26-5.55-1.71-7.91C300.25,272,296.8,272.17,294.9,272.48Zm7.41,8.28c-.58.65-2.42.61-4.16.29a6.64,6.64,0,0,0,1.43-2.21,6.38,6.38,0,0,0,.21-4,2.76,2.76,0,0,1,.77.62C303.31,278.74,303,279.94,302.31,280.76Z"/><path class="cls-3" d="M197.32,192.39c-.08.68-.38,4.1.66,4.86a4.19,4.19,0,0,0,2.45.58c2.37,0,5.44-.93,6.52-2.1,1.33-1.43,4.73-7.13,2.92-9.9h0c-2-3-5.51-1.93-8.72-.47C198.32,186.64,197.53,190.31,197.32,192.39Zm4.66-5.21c4.33-2,5.55-1.29,6.22-.26.55.85,0,2.85-.92,4.64a7.1,7.1,0,0,0-2-2.27,6.94,6.94,0,0,0-4.29-1.38A2.86,2.86,0,0,1,202,187.18Z"/><path class="cls-3" d="M192.61,202.17c-1.88,1.82-1.32,5.27-1.11,6.29.37,1.72.79,2,1.16,2.14a1.59,1.59,0,0,0,.55.09,7,7,0,0,0,4.76-3c.29-.61,1.93-5.34.19-7C196.13,198.75,193.66,201.14,192.61,202.17Zm4.2,2.36a3.38,3.38,0,0,0-1-.59,3.48,3.48,0,0,0-1.94-.12,1.77,1.77,0,0,1,.16-.22c1.37-1.33,2.05-1.63,2.41-1.63a.47.47,0,0,1,.37.16A4.17,4.17,0,0,1,196.81,204.53Z"/><path class="cls-3" d="M208.59,247.21c-2.37-.86-6.75-2-9.61.4-3.27,2.7-6.33,5.95-4.15,9.6,1.2,2,4.49,2.58,7.44,2.58a19.06,19.06,0,0,0,4.83-.55c2.54-.76,6.85-6.26,6.38-8.83C213.21,248.92,208.78,247.28,208.59,247.21Zm-12,9c-.83-1.38-1-3.19,3.7-7a4,4,0,0,1,1.64-.78,8.56,8.56,0,0,0-.95,5.78,8.8,8.8,0,0,0,1.57,3.64C200,257.81,197.27,257.4,196.55,256.18Z"/><path class="cls-3" d="M173,226.72c.5,3.92,8.09,6.49,10.43,6.77l.38,0c2.8,0,8.43-3.14,9-5.57.35-1.47-3.06-4.74-3.2-4.88-1.82-1.73-5.41-4.49-9-3.48C176.56,220.75,172.46,222.51,173,226.72Zm8.19-5.22a4,4,0,0,1,1-.14,4.3,4.3,0,0,1,.78.08,8.55,8.55,0,0,0-3.19,4.92,8.83,8.83,0,0,0,0,4c-2.32-1-4.64-2.45-4.82-3.85C174.78,224.87,175.39,223.16,181.19,221.5Z"/><path class="cls-3" d="M140.94,308.72c-1.56.13-5.22.44-5.43,3.55h0c-.18,2.61,4.22,5,5.37,5.35a2.92,2.92,0,0,0,.94.13c1.89,0,4.82-1.1,5.42-2.42.41-.92-.76-2.76-1.29-3.5C145.07,310.59,143.27,308.52,140.94,308.72Zm-3.44,3.68c0-.49.1-1.39,3.61-1.68a1.5,1.5,0,0,1,.47,0,4.84,4.84,0,0,0-1.8,2.08,5,5,0,0,0-.42,1.7C138.34,313.8,137.47,312.93,137.5,312.4Z"/><path class="cls-3" d="M161.5,316.45c-1.2-.93-3.52-2.38-5.68-1.54-1.46.58-4.88,1.93-4.19,5,.58,2.55,5.48,3.56,6.68,3.59h0c1.74,0,5.17-2.33,5.4-4C163.88,318.43,162.22,317,161.5,316.45Zm-7.92,3h0c-.11-.47-.31-1.35,3-2.64a1.89,1.89,0,0,1,.47-.11,4.86,4.86,0,0,0-1.13,2.52,5.09,5.09,0,0,0,.08,1.75C154.79,320.53,153.7,319.94,153.58,319.42Z"/><path class="cls-3" d="M178.79,314c-1.43-.52-4.1-1.17-5.89.31-1.21,1-4,3.36-2.43,6,.78,1.3,2.78,1.65,4.55,1.65a12.12,12.12,0,0,0,2.92-.33c1.65-.5,4.22-3.84,3.9-5.53C181.66,315.09,179.65,314.27,178.79,314Zm-6.61,5.3c-.25-.42-.71-1.19,2-3.45a1.54,1.54,0,0,1,.39-.23,4.84,4.84,0,0,0-.26,2.74,4.93,4.93,0,0,0,.62,1.63C173.68,319.93,172.46,319.71,172.18,319.26Z"/><path class="cls-3" d="M152.46,237.71c-.72.56-2.38,2-2.24,3,.22,1.69,3.65,4,5.39,4h0c1.2,0,6.1-1,6.68-3.58h0c.7-3-2.72-4.38-4.18-5C156,235.33,153.66,236.77,152.46,237.71Zm7.92,3h0c-.11.52-1.21,1.11-2.39,1.52a5.1,5.1,0,0,0,.08-1.75,4.85,4.85,0,0,0-1.12-2.52,1.4,1.4,0,0,1,.46.1C160.7,239.34,160.49,240.22,160.38,240.69Z"/><path class="cls-3" d="M169.79,242.49c-.86.31-2.88,1.15-3.06,2.15-.31,1.69,2.28,5,3.93,5.5a11.21,11.21,0,0,0,2.87.33c1.78,0,3.8-.36,4.59-1.67,1.59-2.68-1.24-5-2.46-6C173.88,241.32,171.22,242,169.79,242.49Zm6.61,5.28c-.27.45-1.49.67-2.74.7a4.88,4.88,0,0,0,.34-4.37,1.38,1.38,0,0,1,.39.23C177.12,246.57,176.65,247.35,176.4,247.77Z"/><path class="cls-3" d="M133,211.86c.72,1,2.15,1.27,3.6,1.27a12.89,12.89,0,0,0,4.15-.7c1.63-.68,3.91-4.34,3.42-6-.29-1-2.43-1.62-3.34-1.85-1.51-.38-4.3-.76-6,.93-1.13,1.14-3.78,3.83-1.87,6.38Zm3.29-5a1.73,1.73,0,0,1,.41-.3,5,5,0,0,0,0,2.88,5.32,5.32,0,0,0,.82,1.63c-1.3.11-2.59,0-2.92-.43h0C134.28,210.25,133.71,209.49,136.28,206.88Z"/><path class="cls-3" d="M151.78,205.08a6.87,6.87,0,0,0,1.05-.06c1.74-.27,4.83-3.28,4.75-5,0-1-2-2.14-2.79-2.58-1.39-.73-4-1.77-6-.53-1.37.85-4.58,2.83-3.34,5.75C146.29,204.63,149.83,205.08,151.78,205.08Zm-2-6.51a2.2,2.2,0,0,1,.47-.19,5.1,5.1,0,0,0-.69,2.79A5.27,5.27,0,0,0,150,203c-1.28-.21-2.52-.61-2.74-1.12S146.7,200.5,149.82,198.57Z"/><path class="cls-3" d="M165,207.5a5.33,5.33,0,0,0,2.59.52c1.71,0,3.62-.45,4.29-1.32s-.13-2.92-.48-3.78c-.59-1.45-1.92-3.93-4.27-4.27-1.6-.23-5.32-.78-6.25,2.26C160.1,203.47,163.94,206.87,165,207.5Zm-2.21-6c.15-.48.43-1.39,4.05-.86a1.82,1.82,0,0,1,.5.16,5,5,0,0,0-3.17,3.32C163.31,203.13,162.63,202,162.79,201.49Z"/></svg>