<svg id="Layer_1" data-name="Layer 1" xmlns="http://www.w3.org/2000/svg" viewBox="0 0 481.89 481.89"><defs><style>.cls-1{fill:#f9d7ed;}.cls-2{fill:#fff;}.cls-3{fill:#2a1d75;}</style></defs><title>Machine_learning</title><path class="cls-1" d="M378.37,196.25l-22.54-29.89a4.12,4.12,0,0,0-1.4-1.19l-14.35-7.57a2.9,2.9,0,0,1-.6-.44l-23.29-23.41a1.77,1.77,0,0,0-1.17-.51l-6.94-.26a2.43,2.43,0,0,1-.83-.18L268.8,117.24a2.07,2.07,0,0,0-.49-.12l-37.68-3.56-.24,0L191.89,106a1.76,1.76,0,0,0-1.57.47l-17.44,17.2-.4.45-7.29,9.61a2.2,2.2,0,0,1-.2.23L150,149.2a2.49,2.49,0,0,1-1,.62l-22,7.26-1,.49-23.65,15.74a1.74,1.74,0,0,0-.66.83L86.33,213.75a1.74,1.74,0,0,0,.24,1.69l13.19,17.29a4.24,4.24,0,0,0,2.35,1.54l24,5.88a2.57,2.57,0,0,1,.78.34l37.69,25.12a4.07,4.07,0,0,0,1.6.65l29.8,5.29a2.6,2.6,0,0,1,.65.21l15.08,7.36a4.25,4.25,0,0,0,2.91.3l26-6.72a2.85,2.85,0,0,1,3.42,1.86l6.58,19.9.22.55,15.43,31.09a2.47,2.47,0,0,1,.18.52l7.65,31.72a1.64,1.64,0,0,0,.36.72l18.65,22.07a1.77,1.77,0,0,0,1.34.62,1.74,1.74,0,0,0,.88-.24l14.29-8.39a1.74,1.74,0,0,0,.81-1.93l-9.12-36.83a2.51,2.51,0,0,1,.07-1.41l7.7-21.7a2.39,2.39,0,0,1,.61-.95l6.89-6.69a4.33,4.33,0,0,0,.93-1.32l6.19-14.08a2.53,2.53,0,0,1,1.15-1.2l29-14.66a4.2,4.2,0,0,0,2.24-3l7.39-37.83a2.16,2.16,0,0,1,.21-.62l15-30.29A4.21,4.21,0,0,0,378.37,196.25Z"/><circle class="cls-2" cx="187.3" cy="140.11" r="6.49"/><circle class="cls-2" cx="273.64" cy="187.76" r="6.12"/><circle class="cls-2" cx="344.2" cy="155.84" r="6.05"/><circle class="cls-2" cx="367.42" cy="227.67" r="6.01"/><circle class="cls-2" cx="359.6" cy="211.54" r="4.25"/><circle class="cls-2" cx="352.29" cy="203.58" r="4.25"/><circle class="cls-2" cx="367.42" cy="187.76" r="4.25"/><circle class="cls-2" cx="351.71" cy="171.86" r="3.65"/><circle class="cls-2" cx="359.6" cy="179.86" r="3.65"/><circle class="cls-2" cx="352.04" cy="251.28" r="6.01"/><circle class="cls-2" cx="281.35" cy="235.73" r="6.01"/><circle class="cls-2" cx="265.93" cy="227.24" r="3.96"/><circle class="cls-2" cx="256.26" cy="221.24" r="3.96"/><circle class="cls-2" cx="242.47" cy="221.24" r="3.96"/><circle class="cls-2" cx="226.54" cy="219.24" r="3.96"/><circle class="cls-2" cx="234.76" cy="211.58" r="3.34"/><circle class="cls-2" cx="234.52" cy="203.39" r="3.34"/><circle class="cls-2" cx="249.78" cy="203.58" r="2.95"/><circle class="cls-2" cx="249.78" cy="195.51" r="2.95"/><circle class="cls-2" cx="249.78" cy="179.84" r="5.33"/><circle class="cls-2" cx="226.54" cy="179.84" r="4.09"/><circle class="cls-2" cx="218.36" cy="172.03" r="2.74"/><circle class="cls-2" cx="210.83" cy="155.84" r="3.27"/><circle class="cls-2" cx="210.83" cy="147.63" r="3.27"/><circle class="cls-2" cx="207.32" cy="171.62" r="2.74"/><circle class="cls-2" cx="344.06" cy="234.98" r="5.59"/><circle class="cls-2" cx="93.46" cy="211.37" r="7.87"/><circle class="cls-2" cx="132.75" cy="155.84" r="5.98"/><circle class="cls-2" cx="124.69" cy="171.76" r="5.49"/><circle class="cls-2" cx="132.26" cy="187.97" r="3.89"/><circle class="cls-2" cx="176.48" cy="171.76" r="3.01"/><circle class="cls-2" cx="171.92" cy="187.33" r="3.01"/><circle class="cls-2" cx="179.82" cy="187.33" r="2.67"/><circle class="cls-2" cx="187.3" cy="171.76" r="3.44"/><circle class="cls-2" cx="195.11" cy="187.33" r="5.65"/><circle class="cls-2" cx="179.82" cy="195.54" r="3.68"/><circle class="cls-2" cx="179.82" cy="211.75" r="5.39"/><circle class="cls-2" cx="179.82" cy="235.11" r="3.09"/><circle class="cls-2" cx="189.07" cy="235.11" r="4"/><circle class="cls-2" cx="163.86" cy="219.94" r="5.39"/><circle class="cls-2" cx="117.05" cy="211.37" r="6.35"/><circle class="cls-2" cx="132.75" cy="235.61" r="6.35"/><circle class="cls-2" cx="171.49" cy="261.43" r="6.35"/><circle class="cls-2" cx="202.85" cy="266.92" r="6.35"/><circle class="cls-2" cx="218.81" cy="274.94" r="6.35"/><circle class="cls-2" cx="195.11" cy="251.28" r="4.21"/><circle class="cls-2" cx="203.18" cy="243.08" r="4.21"/><circle class="cls-2" cx="226.54" cy="251.28" r="3.99"/><circle class="cls-2" cx="234.52" cy="243.26" r="3.99"/><circle class="cls-2" cx="249.9" cy="266.92" r="3.99"/><circle class="cls-2" cx="257.88" cy="274.94" r="3.99"/><circle class="cls-2" cx="257.88" cy="291.07" r="3.99"/><circle class="cls-2" cx="273.59" cy="322.74" r="4.93"/><circle class="cls-2" cx="289.48" cy="330.89" r="5.28"/><circle class="cls-2" cx="304.86" cy="330.55" r="5.63"/><circle class="cls-2" cx="281.35" cy="354.92" r="4.45"/><circle class="cls-2" cx="300" cy="376.99" r="5.23"/><circle class="cls-2" cx="257.88" cy="259.12" r="2.82"/><circle class="cls-2" cx="265.93" cy="259.12" r="2.82"/><circle class="cls-2" cx="273.99" cy="293.37" r="2.82"/><circle class="cls-2" cx="286.66" cy="287.66" r="2.82"/><circle class="cls-2" cx="304.8" cy="306.72" r="2.82"/><circle class="cls-2" cx="304.86" cy="314.32" r="2.82"/><circle class="cls-2" cx="312.78" cy="297.88" r="2.82"/><circle class="cls-2" cx="278.53" cy="303.06" r="2.82"/><circle class="cls-2" cx="281.85" cy="294.69" r="2.25"/><circle class="cls-2" cx="203.18" cy="219.24" r="2.97"/><circle class="cls-2" cx="203.18" cy="211.58" r="2.97"/><circle class="cls-2" cx="210.83" cy="203.39" r="4.17"/><circle class="cls-2" cx="155.69" cy="237.19" r="5.17"/><circle class="cls-2" cx="166.92" cy="239.27" r="2.82"/><circle class="cls-2" cx="148.37" cy="219.24" r="3.05"/><circle class="cls-2" cx="139.98" cy="219.24" r="3.05"/><circle class="cls-2" cx="140.41" cy="195.54" r="4.26"/><circle class="cls-2" cx="107.18" cy="229.35" r="5.46"/><circle class="cls-2" cx="257.92" cy="163.96" r="6.11"/><circle class="cls-2" cx="179.49" cy="122.02" r="4.08"/><circle class="cls-2" cx="171.92" cy="131.98" r="4.08"/><circle class="cls-2" cx="156.04" cy="148.15" r="4.08"/><circle class="cls-2" cx="108.82" cy="171.76" r="4"/><circle class="cls-2" cx="163.86" cy="156.21" r="3.98"/><circle class="cls-2" cx="147.98" cy="171.76" r="3.98"/><circle class="cls-2" cx="156.04" cy="179.73" r="3.98"/><circle class="cls-2" cx="179.49" cy="156.21" r="5.49"/><circle class="cls-2" cx="282.66" cy="130.45" r="3.29"/><circle class="cls-2" cx="312.78" cy="131.69" r="2.7"/><circle class="cls-2" cx="273.64" cy="131.98" r="2.7"/><circle class="cls-2" cx="234.4" cy="124.02" r="3.92"/><circle class="cls-2" cx="210.88" cy="116.2" r="3.92"/><circle class="cls-2" cx="203.39" cy="124.02" r="3.92"/><circle class="cls-2" cx="234.4" cy="143.05" r="3.36"/><circle class="cls-2" cx="250.45" cy="147.63" r="2.82"/><circle class="cls-2" cx="242.56" cy="131.98" r="2.82"/><circle class="cls-2" cx="253.45" cy="132.27" r="2.82"/><circle class="cls-2" cx="273.64" cy="139.83" r="2.82"/><circle class="cls-2" cx="265.66" cy="148.15" r="3.69"/><circle class="cls-2" cx="273.64" cy="155.84" r="3.69"/><circle class="cls-2" cx="289.3" cy="155.84" r="5.18"/><circle class="cls-2" cx="312.78" cy="171.86" r="5.18"/><circle class="cls-2" cx="336.22" cy="171.86" r="5.18"/><circle class="cls-2" cx="328.53" cy="187.76" r="3.99"/><circle class="cls-2" cx="312.78" cy="187.76" r="3.99"/><circle class="cls-2" cx="320.76" cy="195.51" r="3.99"/><circle class="cls-2" cx="336.22" cy="219.2" r="3.42"/><circle class="cls-2" cx="304.8" cy="219.2" r="4.02"/><circle class="cls-2" cx="296.76" cy="227.24" r="4.02"/><circle class="cls-2" cx="288.72" cy="214.61" r="4.42"/><circle class="cls-2" cx="320.76" cy="234.98" r="3.72"/><circle class="cls-2" cx="328.53" cy="251.28" r="3.04"/><circle class="cls-2" cx="320.08" cy="251.28" r="2.59"/><circle class="cls-2" cx="305.2" cy="267.24" r="2.59"/><circle class="cls-2" cx="304.8" cy="274.94" r="2.97"/><circle class="cls-2" cx="312.78" cy="283.5" r="4.15"/><circle class="cls-2" cx="295.33" cy="251.73" r="3.04"/><circle class="cls-2" cx="312.78" cy="259.12" r="3.99"/><circle class="cls-2" cx="312.78" cy="243.08" r="3.99"/><circle class="cls-2" cx="344.2" cy="219.2" r="3.42"/><circle class="cls-2" cx="289.3" cy="171.86" r="2.65"/><circle class="cls-2" cx="289.3" cy="179.84" r="2.65"/><circle class="cls-2" cx="304.88" cy="139.83" r="3.78"/><path class="cls-3" d="M386.8,189a5.94,5.94,0,0,0-2.11.39l-18-23.83a4.16,4.16,0,0,0,.53-2,4.24,4.24,0,0,0-4.24-4.25,4.2,4.2,0,0,0-2.59.91l-6.88-3.63a6.31,6.31,0,0,0,.11-1.15,6.05,6.05,0,0,0-6.05-6.06,6,6,0,0,0-2.85.72l-17.95-18a2.61,2.61,0,0,0,.05-.48,3,3,0,0,0-5.34-1.84l-3.22-.13a2.69,2.69,0,0,0-2.11-1,2.6,2.6,0,0,0-1.24.32L282.5,115.7c0-.11,0-.21,0-.32a5.46,5.46,0,0,0-10.44-2.23l-27.59-2.6a5.45,5.45,0,0,0-10-1.46l-30-5.88a4.08,4.08,0,0,0-8,1,4.23,4.23,0,0,0,.24,1.33l-12.33,12.16a4,4,0,0,0-1.39-.26,4.09,4.09,0,0,0-4.09,4.09,4,4,0,0,0,.47,1.86l-3.11,4.1a3.86,3.86,0,0,0-.84-.09,4.09,4.09,0,0,0-4.08,4.09,4,4,0,0,0,.26,1.39l-10.73,10.93a4.18,4.18,0,0,0-1.33-.24,4.08,4.08,0,0,0-4,3.58L141,151.91a6,6,0,0,0-10.86,3.46,6.1,6.1,0,0,0,.25,1.71l-16.19,10.77a3.91,3.91,0,0,0-2-.56,4,4,0,0,0-2.92,6.7L98,203.12a8.49,8.49,0,0,0-1.14-.09,7.87,7.87,0,1,0,3.26,15l5.93,7.77a5.46,5.46,0,1,0,9.14,6l14.63,3.58A6.34,6.34,0,0,0,140.27,240L168.85,259a6.35,6.35,0,0,0,11.75,4.71L200,267.19a6.34,6.34,0,0,0,10.86,3.66l5.16,2.52a5.62,5.62,0,0,0-.11,1.1,6.35,6.35,0,0,0,12.69.17L250.3,269a3.93,3.93,0,0,0,2.47,1.35l5.74,17.36a4,4,0,0,0,2.78,6.85h0l12.08,24.35a4.9,4.9,0,0,0,3,8.21l5.72,23.76a4.44,4.44,0,0,0,2.66,8,4.58,4.58,0,0,0,1.29-.21L298.9,373.9a5.17,5.17,0,0,0-.72,2.62,5.23,5.23,0,0,0,10.46,0,5.36,5.36,0,0,0-.1-1l7.15-4.19a3.79,3.79,0,1,0,2.9-6.89l-7.33-29.61a5.61,5.61,0,0,0,.45-9.21l5.93-16.72a2.81,2.81,0,0,0,1.9-2.66,2.45,2.45,0,0,0,0-.27l4.44-4.31a3.37,3.37,0,0,0,.71.09,3.21,3.21,0,0,0,2.69-5l3.78-8.57.53,0a5.58,5.58,0,0,0,5.59-5.58,4.5,4.5,0,0,0-.07-.83l21.19-10.71A6.42,6.42,0,1,0,366,261l5.45-27.87a6,6,0,0,0,3.5-10.34L385.78,201a6.79,6.79,0,0,0,1,.09,6.09,6.09,0,0,0,0-12.18Zm-66.65,69.37a4,4,0,0,0-.6-1.81l3.06-3.28a2.59,2.59,0,0,0,3.28-1.42h3.2A3,3,0,0,0,334,253l22.77,11.66Zm4,37.05a3.22,3.22,0,0,0-2.71,3.17,3.18,3.18,0,0,0,.07.62l-4,3.87-.18-3a2.82,2.82,0,0,0,1.66-2.57,2.7,2.7,0,0,0-.22-1.1l8.54-8.14Zm39.19-88.52-.33,0a4.19,4.19,0,0,0-2,.55l-1.74-1.9a4.27,4.27,0,0,0,.72-2.36s0-.05,0-.07l5.1-1.32Zm3.41,24.76-8.91,13.69a6,6,0,0,0-2.4-.5,6.1,6.1,0,0,0-1.71.25l-3-6.05a5.58,5.58,0,0,0,2.28-4.49,5.34,5.34,0,0,0-.05-.69l12.47-3.9A6.09,6.09,0,0,0,366.76,231.61ZM357.92,263l-21.83-11.18h13.44a6,6,0,0,0,7.58,4.77l2.35,4.9A6.14,6.14,0,0,0,357.92,263Zm-32-13.18a2.59,2.59,0,0,0-4.8,0L313,250l-1.88-3.74,2.11-1a3.93,3.93,0,0,0,5.95.06l8.71,4.54Zm-7.81,5.35a3.89,3.89,0,0,0-1.89-.5,4.6,4.6,0,0,0-.84.09L314,252l7.17-.13s0,0,0,0Zm-7.24,50.09a1.43,1.43,0,0,0-.13-.28l4.46-4.94a1.27,1.27,0,0,0,.18.06l.22,3.59a2.85,2.85,0,0,0-1.48,1.57ZM304,361.35,300.66,360l-2.93-12.83,6.93,7.81Zm2.47-4.38,7.6,8.56-8.14-3.38ZM303,370.42l-1.83-8.06,2.56,1.07ZM142.48,234.58a6.07,6.07,0,0,0-.27-1.36l11.93-6,2.12,5.2a5.15,5.15,0,0,0-2.13,3Zm-28.43-9.92.82-1.48,3.61,2.23-3,.94A5.52,5.52,0,0,0,114.05,224.66Zm1.78-3.24,2.5-4.55a6.22,6.22,0,0,0,4.7-.17l3.94,6.09-6,1.83Zm-11.16-9.52h9.53a6.38,6.38,0,0,0,2.37,4l-2.44,4.46L104,214.15A7.75,7.75,0,0,0,104.67,211.9Zm11.42-39.61h6.62a5.48,5.48,0,0,0,5.39,4.48,5.2,5.2,0,0,0,1.37-.18l3.71,7.94,0,0L116,172.66A2.65,2.65,0,0,0,116.09,172.29Zm39.26-15.69-3.66,10.74-.3,0a4,4,0,0,0-1.93.52l-8.5-8.9a5.81,5.81,0,0,0,1.08-2.49Zm41.83-36.68,7-1.29.53,1.63a3.93,3.93,0,0,0-1.55,2l-6.43-.53Zm-2.52,1.61-4.25-.36,4.58-.85Zm42.9-4.51-.3,2.66a3.92,3.92,0,0,0-2.73,1.72l-16-5.32L234,113.63A5.51,5.51,0,0,0,237.56,117Zm45.6,14.47,0,0-5,5.23-.11,0V134a2.72,2.72,0,0,0,1.65-2Zm41,3.58L334.44,161l-14.2,7.24a5.14,5.14,0,0,0-2.11-1.6Zm19.86,25.19L341,166.41a5.43,5.43,0,0,0-1.35-.2,4.92,4.92,0,0,0-.94.1L337,161.92l5.78-3A6,6,0,0,0,344.06,160.26Zm23.15,29.23-9.6,9.61L362.88,183H363a3.67,3.67,0,0,0,1.74-.46l2.47,2.49a4.14,4.14,0,0,0,0,4.42ZM334.8,249.81a3.34,3.34,0,0,0-.16-.38l5.31-5.58,9.79,5.11a5.56,5.56,0,0,0-.21.85ZM295,335.25a5.29,5.29,0,0,0,3.07-3.95l4.67-.1a5.54,5.54,0,0,0,.95,2.16L296.34,341ZM255.37,263a4,4,0,0,0-2.06-.59,3.8,3.8,0,0,0-1.26.23l-10.57-16.27L258.55,258a3.5,3.5,0,0,0-.08.65,2.86,2.86,0,0,0,.24,1.13Zm-46-45.27a3,3,0,0,0-1.79-1.79v-2.09a3,3,0,0,0,1.34-1l14.77,4.85Zm-8.77,29.4a4.08,4.08,0,0,0-4.16,0l-6.52-6.91,1.24-1.86a3.81,3.81,0,0,0,1.31.24,4,4,0,0,0,2.87-1.23l7.21,4.07a3.82,3.82,0,0,0-.18,1.13,4.22,4.22,0,0,0,.62,2.17Zm-36.34-10.51a5.15,5.15,0,0,0-2.1-4.08l3.75-7.92a5,5,0,0,0,1.35.2,5.36,5.36,0,0,0,3.14-1l10,9.53a3,3,0,0,0-.29,1.23L172.52,237a2.8,2.8,0,0,0-4.59.3Zm-10.89-11.31-12.07,6.08a.64.64,0,0,1-.1-.13l9.31-9.76a3,3,0,0,0,1.27.28h.15Zm-16.31-64.08a6,6,0,0,0,2.45-1l8.5,8.88a4,4,0,0,0-.47,1.1l-10.62,0Zm23.38-9.65a3.72,3.72,0,0,0,1-.42l2.4,2.48a3.94,3.94,0,0,0-.43,1l-3,0Zm17.9-17.38,6.23,3.29a6.4,6.4,0,0,0-.36,2.11c0,.21,0,.42,0,.63l-4.76,1.22-2-6.51A4.27,4.27,0,0,0,178.35,134.24Zm32.4-16.84c.06.13.13.25.2.37l-2.26,2.36a3.78,3.78,0,0,0-1.88-.51l-.23,0-.46-1.38Zm31.23-.92,3.86,4.37-4.53,1a3.89,3.89,0,0,0-2.07-1.9l.31-2.66A5.42,5.42,0,0,0,242,116.48Zm42.65,16.44a3.14,3.14,0,0,0,1.26.33l1.34,5.11h-7.55l-.09-.2Zm49.93,39.47a5,5,0,0,0,.31,1l-9.13,6.2-5.26-5.32a5.25,5.25,0,0,0,.79-1.9Zm25.32,8.83a3.59,3.59,0,0,0,1.09,1.2l-5.39,16.45a4.23,4.23,0,0,0-2.75,1.12l-17.13-11.4a3.87,3.87,0,0,0,.23-1.28ZM333.19,248a3,3,0,0,0-1.25-.27c-.11,0-.21,0-.32,0l-5-10.5a3.2,3.2,0,0,0,.27-.25l11.22,5.84Zm-15-8.87a4,4,0,0,0-2-.55l-.27,0-2.15-6.43,6.7,2.16s0,.09,0,.14a3.73,3.73,0,0,0,.5,1.84Zm-10.44.44-3.94-7.84,8.95,8.85s-.05.09-.07.14Zm-1.25,25.68a2.59,2.59,0,0,0,1,3.8l-.13,2.54a3,3,0,0,0-1.35.86l-9.12-3.71-.78-2.35L299,254.26a2.57,2.57,0,0,0,.4,0Zm5.59,18.14a4.35,4.35,0,0,0,.1.63L303.57,289l-2.41-7.29ZM295.68,326a5.17,5.17,0,0,0-2.13-.75l-.4-6.24,12-3.24Zm-6.38-17.41-1.7-8.05,2.25-1.3.54,8.26Zm1.27,1.57.41,6.41-1.19-5.64Zm-9.76-17.65,6.43-2.9L285.57,292a1.76,1.76,0,0,0-.31,0,2.23,2.23,0,0,0-1.81.93Zm-31.1-72.69a4.3,4.3,0,0,0-.48-1.12L255.4,212l2,5.5a3.92,3.92,0,0,0-1.56,2.25Zm-15.85-1.52a3.7,3.7,0,0,0-.44-1.35l3.11-2.9a3.25,3.25,0,0,0,1.64.45,3.21,3.21,0,0,0,1.2-.24l3.35,4.2a4.11,4.11,0,0,0-.51.89ZM230,214.81a4,4,0,0,0-2,.55l-10-10.11L234.83,211s0,.06,0,.08a3.32,3.32,0,0,0,.34,1.44l-3.09,2.89A4,4,0,0,0,230,214.81Zm-26.42,24.92-7.2-4.06a4.34,4.34,0,0,0,.14-1,4,4,0,0,0-.67-2.22l9.68-10.89.11,0v17A4.16,4.16,0,0,0,203.53,239.73Zm-22.77-3.24a3.18,3.18,0,0,0,.64.63l-1.48,4.67-6.73-2.86ZM172.42,218l6.58-3.37a5.39,5.39,0,0,0,3.23,2v15.16a2.65,2.65,0,0,0-.42.18l-10-9.52a5.41,5.41,0,0,0,.87-2.92A5.49,5.49,0,0,0,172.42,218Zm-23.5-.18h-2.66a3.06,3.06,0,0,0-1.82-1.85l.27-15,5.21,15.5A3,3,0,0,0,148.92,217.77Zm-12.19-34,.14-9.22,8,2-7.3,7.54A3.57,3.57,0,0,0,136.73,183.77Zm10.37-6.62,1.27.33-1.63,5.13-7.43,2.57Zm8.93.13a.25.25,0,0,0,0,.07l-5.07-1.29.26-.81.21,0a4,4,0,0,0,2-.57Zm11.24-17.56a4,4,0,0,0,1.65-.37l8.42,10.37a3,3,0,0,0-.45,1.57.28.28,0,0,0,0,.09l-14.23,5.56a4,4,0,0,0-1-1L167,159.69A2.3,2.3,0,0,0,167.27,159.72Zm20.17,12.57a3.42,3.42,0,0,0,3.27,2.43,3.68,3.68,0,0,0,.58-.05l3.85,7.67-.24.19-12.2-10.2s0,0,0,0Zm66.77-39.56a2.8,2.8,0,0,0,1.17,1.45l-1.94,9.92L248,133.4a2.75,2.75,0,0,0,.53-.82Zm20.35-.19a2.69,2.69,0,0,0,1.49,1.47v2.73a2.75,2.75,0,0,0-1.1.77l-12.78-4.79Zm49.5,48.21-5.25,3.55a4,4,0,0,0-1.62-.86v-7a5,5,0,0,0,1.86-.76Zm4.1,14.28a4,4,0,0,0-4-4,3.93,3.93,0,0,0-2.06.59l-2.46-2.39a4,4,0,0,0,.39-1h8a4,4,0,0,0,3.85,3,3.91,3.91,0,0,0,2.65-1l15.66,10.43Zm16.2,24.72a3.41,3.41,0,0,0,2.22,2.23l-.06,7a6.11,6.11,0,0,0-.74.17l-4.09-7.73a3.35,3.35,0,0,0,1.19-1.69ZM342,233.51H327.74a4,4,0,0,0-.38-.9l10.45-11a3.44,3.44,0,0,0,1.83.53h.15l4.23,8A5.55,5.55,0,0,0,342,233.51ZM303.86,229l7.55,2.44,2.51,7.5Zm-14.73-3.24,2.53-7.26a3.75,3.75,0,0,0,.47.05,4.45,4.45,0,0,0,1.46-.27l3.65,5.74a4.06,4.06,0,0,0-.95,1.74Zm16.11,48.66-5.83,2-1.7-5.17,7.54,3.07S305.24,274.4,305.24,274.43Zm-7.72,2.65-4.08,1.41-.23,0,2-8.2.09,0Zm.72,2.16-.58-.09.49-.17Zm-11,13.89,2-3,.34,5.23-2.1-1.1s0,0,0,0A2.27,2.27,0,0,0,287.22,293.13Zm4.44-8.28,1-4,1-.35,3.42.54Zm-31.24-81.16-4.27,4.58-1.07-2.91a2.92,2.92,0,0,0,1.06-2.25,2.74,2.74,0,0,0-.09-.7l3.21-2.13ZM240.94,213a3.31,3.31,0,0,0,.57-1.87,4.07,4.07,0,0,0-.06-.61l9.75-5.19-4.78,11.56a4.75,4.75,0,0,0-.53-.05,3.91,3.91,0,0,0-1.61.35Zm-37.81-22.84a5.61,5.61,0,0,0,.62-5.42l16.46-10.91a2.7,2.7,0,0,0,1.56.49,2.76,2.76,0,0,0,1.15-.25l3.49,3.33a4,4,0,0,0-.55,2,4.06,4.06,0,0,0,1.07,2.73L215.64,199a4.09,4.09,0,0,0-1.4-.26,4.14,4.14,0,0,0-2.1.59Zm-16.43,6.11a3.51,3.51,0,0,0,.21-1.17,3.42,3.42,0,0,0-.09-.79l7.28-3.91a5.65,5.65,0,0,0,4.43,2.14,7,7,0,0,0,.8-.06l5.37,16.15Zm1.82,14a5.41,5.41,0,0,0-4.29-4.25V198.6a3.68,3.68,0,0,0,1.34-.71l17.83,12.24Zm-40.58-16.17a4.16,4.16,0,0,0-.51-1.23l10-10.15a3.9,3.9,0,0,0,5-.87l9.88,4.72c0,.11,0,.21,0,.32a3,3,0,0,0,4.24,2.73l3.5,3.63a3.34,3.34,0,0,0-.36.85Zm87.92-67.14a3.67,3.67,0,0,0,1,.4l.07,12a3.37,3.37,0,0,0-1.29.7l-8-4.89Zm9.36,7.28a2.67,2.67,0,0,0,.75.11,2.4,2.4,0,0,0,.28,0l5.54,11a2.79,2.79,0,0,0-.75,1.89,2.81,2.81,0,0,0,2.82,2.81l.18,0,3.88,8.48a3.25,3.25,0,0,0-.42.31L240.87,144a3.32,3.32,0,0,0,.3-1.38,3.4,3.4,0,0,0-.65-2Zm29,5.17a2.77,2.77,0,0,0,.28,1.18l-3.72,3.87a3.62,3.62,0,0,0-3.1-.17L259.79,134Zm62.15,80.39c0,.11.07.22.11.32l-10.6,11.15a3.59,3.59,0,0,0-1.73-.45,3.69,3.69,0,0,0-1.83.5l-10.67-10.54a3.92,3.92,0,0,0,.42-1Zm-95.88-11.05a3.46,3.46,0,0,0-1.43-.82l-.06-1.84a3.3,3.3,0,0,0,2.07-2.1l8.19.1Zm-59-16.88L178,188.2a.67.67,0,0,0,.06-.12l2.93.24a2.6,2.6,0,0,0,1.23,1v2.21A3.78,3.78,0,0,0,181.51,191.84Zm2.72-.3v-2.21a2.67,2.67,0,0,0,1.48-1.47H193a5.11,5.11,0,0,0,.18.75l-7.28,3.91A3.66,3.66,0,0,0,184.23,191.54Zm32.62-42.44,4.17,1.45L216.49,153a3.27,3.27,0,0,0-1.23-.73v-2A3.24,3.24,0,0,0,216.85,149.1Zm39.61-.85,9,.31a3.65,3.65,0,0,0,1.12,1.85l-3.53,7.23a6,6,0,0,0-3.35,0l-3.88-8.47A2.81,2.81,0,0,0,256.46,148.25Zm31.18,8.12a5.17,5.17,0,0,0,4.07,4.07v8.49L280.24,157.2a3.57,3.57,0,0,0,.35-.83Zm27.55,20.09v7a4,4,0,0,0-1.62.86L302.84,177l8.9-3.06A5.14,5.14,0,0,0,315.19,176.46Zm-20.94,33.82a4.8,4.8,0,0,0-1.05-.42l.47-28a2.66,2.66,0,0,0,1-.73L312.23,187a2.4,2.4,0,0,0,0,.28,4,4,0,0,0,.67,2.21Zm-62.5-34.56,1.16-5.41,22.73-4.64a6.06,6.06,0,0,0,2.06,2.72l-3,5.88a5.22,5.22,0,0,0-1.49-.23,5.32,5.32,0,0,0-5.23,4.33H233.9A4,4,0,0,0,231.75,175.72Zm58.35-4a2.87,2.87,0,0,0,.18.67L287,175.81l-17.71-9.3Zm-23.9-4.59,19.29,10.13-4.92,5a6,6,0,0,0-6-.58L265.49,168A5.34,5.34,0,0,0,266.2,167.17Zm21.14,11.1,2.61,1.38-7.9,4Zm3.29-.52-1.83-1,2.91-2.95h0v3.08A2.75,2.75,0,0,0,290.63,177.75ZM248,180.37a5.33,5.33,0,0,0,4.23,4.23v7.67a3.19,3.19,0,0,0-.73.39l-17.68-11.91a2.78,2.78,0,0,0,.12-.38Zm3.23,16.83a3.2,3.2,0,0,0,1,.61v2.53a3,3,0,0,0-1.75,1.73L242,202Zm5.27-22,3-5.87a6,6,0,0,0,1.86.29,6.06,6.06,0,0,0,2.48-.53l9.08,13.74a6.21,6.21,0,0,0-1.25,1.63l-13.19-4.38a5.2,5.2,0,0,0,.07-.69A5.31,5.31,0,0,0,256.46,175.18Zm26.71,12.11a6.14,6.14,0,0,0-.28-1.83l8.1-4.1a2.56,2.56,0,0,0,.68.44l-.47,28c-.1,0-.19.06-.29.09l-10-17.85A6.12,6.12,0,0,0,283.17,187.29Zm31.05,3.7-2.64,10.39-14.33,8.54Zm-4.69-7L296,179.41l4.52-1.56Zm-32.48-24.93a3.61,3.61,0,0,0,1.76-.47l10.71,11L267.42,164c0-.17,0-.33,0-.5a6.12,6.12,0,0,0-.3-1.88l7.22-3.73A3.65,3.65,0,0,0,277.05,159.06Zm-21.81,4.65-21.87,4.46L236,155.76l19.3,6.7a5.89,5.89,0,0,0-.09,1C255.23,163.57,255.24,163.64,255.24,163.71Zm-31.17,6.36a2.74,2.74,0,0,0-2.3-1.25l-.16,0-5.16-11.09a3.24,3.24,0,0,0,1.05-2.38,2.91,2.91,0,0,0-.06-.6l6.14-3.33,10.54,3.66-2.89,13.51ZM235.48,145a3.52,3.52,0,0,0,.69.51l-1.63,7.63-8.58-3ZM256,160.57l-19.53-6.78,1.69-7.88a3.26,3.26,0,0,0,1.41-.46l16.63,14.79A3.62,3.62,0,0,0,256,160.57ZM223.4,149.26l-5.28-1.83,13.49-2.62Zm-8.86,9.34h.1l5.16,11.09a2.67,2.67,0,0,0-.53.79l-5-.18h-.93a2.71,2.71,0,0,0-1.05-1.41ZM210,173.77a3.09,3.09,0,0,0,.75.11,2.72,2.72,0,0,0,2.48-1.59h1l4.43.16-15.58,10.32ZM224.46,172l6.31-1.29-1,4.55a4.1,4.1,0,0,0-2,.62l-3.48-3.32A2.12,2.12,0,0,0,224.46,172Zm8.21,10.38,17.67,11.91a2.84,2.84,0,0,0-.1.72,2.45,2.45,0,0,0,0,.38l-10,5.15a3.36,3.36,0,0,0-2.38-1h-.07l-5.69-16.78A4.78,4.78,0,0,0,232.67,182.41ZM255,200.75a3.1,3.1,0,0,0-.76-.41v-2.53a2.94,2.94,0,0,0,0-5.54V185.4l4.41,12.93Zm.87-16.77a5.34,5.34,0,0,0,2-2L271,186.34a6,6,0,0,0,.46,3.45l-11.16,7.39ZM277,193.4l4.13,25.68-8.94,5a4.12,4.12,0,0,0-1.15-.83l5.82-29.81Zm-3.81,32.37,8.28-4.59.73,4.59ZM279,193.08l.13-.05,10,17.86a4.39,4.39,0,0,0-1.45,3.25,4.3,4.3,0,0,0,.19,1.2L283,218.05Zm17.32,19.72,14.57-8.68-2.69,10.59a4,4,0,0,0-3.44,2l-8.23-2.36c0-.07,0-.14,0-.21A4.28,4.28,0,0,0,296.32,212.8Zm14.28.6,2.72-10.73,7.53-4.48Zm9.76-17.25L314,199.93l2.19-8.65a4,4,0,0,0,2.05-.59l2.46,2.39a3.94,3.94,0,0,0-.54,2A4,4,0,0,0,320.36,196.15Zm-19.59-20.51-4.8-3.25h14.24Zm-2.37.81-3.64,1.25a2.63,2.63,0,0,0-1.05-.78v-3.08a2.34,2.34,0,0,0,.47-.25Zm-17.81-22.08a3.69,3.69,0,0,0-2.54-2.54v-.18l8.35,2.72Zm-4.54-2.54a3.7,3.7,0,0,0-2.69,3.54,3.65,3.65,0,0,0,.08.74l-7.22,3.73a6,6,0,0,0-1.34-1.32l3.53-7.22a3.6,3.6,0,0,0,3.73-1.57l3.91,1.27Zm-3.3-4s0-.09,0-.14a3.59,3.59,0,0,0-.52-1.86L276,142l.1,0v6.91Zm-15.41-13.25a1.68,1.68,0,0,0,.32-.09l8.46,11a3.53,3.53,0,0,0-.54,1.08l-9.07-.31a2.78,2.78,0,0,0-1.17-1.48Zm-22.77,7.2a3.11,3.11,0,0,0-.08.44l-17.19,3.34,8.89-8.93Zm-18.82,2.51a2.67,2.67,0,0,0-.46-.2V129.93l9.15,5.62Zm-3.51,13.65a2.71,2.71,0,0,0,.35.24l-2.29,10.28a2.71,2.71,0,0,0-2.15,1.84H194ZM194,172.29h14.27c0,.09.09.17.14.26l-7.18,9.34a5.53,5.53,0,0,0-2.68-.68,5.7,5.7,0,0,0-1.61.23l-3.84-7.67A3.37,3.37,0,0,0,194,172.29Zm-1,13.57h-7.26a2.67,2.67,0,0,0-2.13-1.64l-2.13-10.33,12.17,10.17A5.54,5.54,0,0,0,193,185.86Zm-11.33-1.14a2.68,2.68,0,0,0-1,1.56l-2.39-.19a3,3,0,0,0-1.14-1.66l2.63-9Zm36.63,17.2a4.14,4.14,0,0,0-1-1.8l11.28-16.91a4.1,4.1,0,0,0,1.36.25c.11,0,.21,0,.32,0l5.69,16.8a3.28,3.28,0,0,0-1.2,1.69Zm16.49,2a3.32,3.32,0,0,0,2.26,2.2l.06,1.84a3.3,3.3,0,0,0-1.6,1.17l-15.23-5.21Zm18.3,2.13h.15l1.42,3.86-5.7,6.12Zm17.51-13.26L262,202l-1-2.89Zm3.11-.4a6,6,0,0,0,1.24.62l-5.82,29.83h0l-6.36-18.66Zm8.86,35.38.29,1.8a6,6,0,0,0-2.77,2l-6.82-3.76Zm2.22,13.5a5.5,5.5,0,0,0,.91-.08l3.75,11.38L271.66,257l0,0,10.71-16.26A5.94,5.94,0,0,0,284.76,241.27Zm5.57,14-10.54,6.52-7.24-2.94,17.5-4.41ZM292,254l.75-.18-.68.41Zm-22.95,7.47a2.77,2.77,0,0,0,.3,0,2.84,2.84,0,0,0,2.06-.91l6.28,2.56L264,271.59a1.09,1.09,0,0,0-.11-.1Zm-3.8,12.63a4,4,0,0,0-.16-.79L280,264.06l13.33,5.43-2.09,8.65Zm28.54-6.56-11.71-4.76,8.89-5.51,3.06,9.26Zm-1.07-11.36,4.12-2.55.26.2-2.18,9Zm3-5.18-4.36,1.1-3.8-11.51.33-.2,8.21,9.39A3,3,0,0,0,295.73,251Zm-10.92-21.73-.24-1.48h1.74l-.54,1.57A7.79,7.79,0,0,0,284.81,229.25Zm-.56-3.48-.9-5.62,5.52-3.06a3.91,3.91,0,0,0,.9.77L287,225.77ZM304.17,227c0-.08,0-.16,0-.24a4,4,0,0,0-4-4,3.88,3.88,0,0,0-1.23.22l-3.66-5.74a4.66,4.66,0,0,0,.7-.95l8.22,2.35s0,.07,0,.1a4,4,0,0,0,4,4l.28,0,2.13,6.36Zm6.32-4.62,10,9.88L313,229.85Zm25.88-4.62-24.28,0a4,4,0,0,0-.88-1.66l11.64-17.29a3.91,3.91,0,0,0,1.32.24,4,4,0,0,0,1.21-.2l11.39,18.06A3.18,3.18,0,0,0,336.37,217.77Zm-8.28-31.48h-8c0-.11-.06-.22-.1-.33l5.55-3.77,3,3.07A4.08,4.08,0,0,0,328.09,186.29Zm-17-15.9h-16a2.64,2.64,0,0,0-1.45-1.45v-8.5a5.14,5.14,0,0,0,2.63-1.39l15.09,10.3A5.2,5.2,0,0,0,311.12,170.39Zm-22.9-17.54-10.17-3.3V142l.13-.05,10.27,10.5A3.3,3.3,0,0,0,288.22,152.85ZM243.61,133l-4.7,6.38-.07-12.09a4.08,4.08,0,0,0,1-.42l3.57,3.49a2.74,2.74,0,0,0,.22,2.64ZM234,124.55a4.16,4.16,0,0,0,.41,1l-8.55,8.57-10.6-6.51v-3Zm-23.44,0h2.7v1.8l-2.74-1.68A.56.56,0,0,1,210.59,124.55Zm1.81-5.4a3.86,3.86,0,0,0,.89.36v3h-2.7a4.06,4.06,0,0,0-.45-1Zm-2.89,7.23,3.78,2.32v12l-4.39-13.84A4,4,0,0,0,209.51,126.38Zm3.76,23.88v2a3.32,3.32,0,0,0-1,.54l-15.07-10.06,13.82,4.4h0A3.25,3.25,0,0,0,213.27,150.26Zm-2.16,4.22a3.25,3.25,0,0,0-.14.89,3.38,3.38,0,0,0,.14.9l-18.25,12.36a3.27,3.27,0,0,0-1.15-.61V146a6.44,6.44,0,0,0,3.77-2Zm-33,19.24-3,10.15a3,3,0,0,0-2,.86L163.36,180a3.77,3.77,0,0,0,.07-.76,3.57,3.57,0,0,0,0-.46l14.24-5.56A2.9,2.9,0,0,0,178.14,173.72ZM148.7,175.5l.45-.46-.17.53Zm1.61,2.47,5.17,1.31a2.58,2.58,0,0,0,0,.29l-6.41,2.22Zm5.41,3.64-9.69,9.8,2.31-7.24Zm24,14.46a3.67,3.67,0,0,0,2.52,2.53V206a5.4,5.4,0,0,0-3.51,2.36l-29.84-12.28Zm6.43,39.57h2.48a4,4,0,0,0,.89,1.65l-1,1.48-2.56-2.7A3.25,3.25,0,0,0,186.14,235.64Zm0-2a3,3,0,0,0-1.91-1.91V216.57a5.35,5.35,0,0,0,3.71-2.73l15.69,5a2.8,2.8,0,0,0,.36,1.32l-9.7,10.91a4,4,0,0,0-5.67,2.54ZM204.24,217l-14.76-4.74,14.33-.1a2.93,2.93,0,0,0,1.78,1.76V216A3,3,0,0,0,204.24,217Zm3.53-8.59a2.94,2.94,0,0,0-1.11-.24l-5.43-16.32a4.57,4.57,0,0,0,.47-.29l9,9.21a4.11,4.11,0,0,0,.05,4.45Zm51.91,8.43a2.45,2.45,0,0,0-.38,0l-2.37-6.47,4.22-4.54,6,17.63a4.51,4.51,0,0,0-.54.44l-3.17-2a4.15,4.15,0,0,0,.19-1.17A4,4,0,0,0,259.68,216.81Zm10.67,13.78a4,4,0,0,0,1.86-1.09l6.88,3.78a6.14,6.14,0,0,0-.34,2,6,6,0,0,0,1.11,3.47l-9.51,9.49Zm8.21,12.26-8.21,12.47V251ZM268.35,256a2.83,2.83,0,0,0-1.64,1.63h-2.79a.88.88,0,0,0-.05-.15l4.48-4.46Zm-4.43,3.63h2.79a2.89,2.89,0,0,0,.55.89l-5,9.76v-9A2.74,2.74,0,0,0,263.92,259.65Zm25.47,20.23-7.52,2.59-13.2-5.83Zm1,1.78-.67,2.74a2.86,2.86,0,0,0-1.65.8l-3.5-1.54ZM287.26,287s0,.09,0,.14a1,1,0,0,0,0,.17l-7.87,3.55a2.83,2.83,0,0,0-2-.83,2.62,2.62,0,0,0-1,.19l-2.56-2.93,7.91-2.72Zm-3.33,13.25,1-2.62.38,1.81Zm2.75-4.19,2.38,1.24-1.89,1.09Zm5.15,2.7,4.73,2.47-4.29,4.3Zm1.38-1.54,9.23-5.3.85,2.58L298,299.79Zm11-6.31,6.25-3.6-5.59,5.6Zm-.22,5.71,2.45,7.41-.09.07-6.45-3.38Zm1.58-1.58,8.27-8.28-5.61,16.32ZM301.8,290l-10.16,5.84-.4-6.11a2.84,2.84,0,0,0,1.65-2.57,3.18,3.18,0,0,0-.09-.69l6.36-4.45Zm-1.59-11.17-.17-.52,1.79-.61Zm-2.27-30.52c-.11,0-.22.06-.33.11l-8.2-9.38a6.13,6.13,0,0,0,.89-1.48l8.15,1.91Zm-7.19-12.7c0-.12,0-.25,0-.37a6,6,0,0,0-3.11-5.26l.77-2.23h7.86a4,4,0,0,0,2.66,2.82l-.39,6.87Zm10.2-4.91.07,0L305.2,239l-4.66-1.09Zm27.31,4.79H342a5.52,5.52,0,0,0,1,2.29l-3.42,3.59Zm14.77-19,9.07-8.57-3.51,6.78Zm-2-.85a3.35,3.35,0,0,0-1.38-.3,3.4,3.4,0,0,0-1.33.27l-11.24-17.81a3.86,3.86,0,0,0,.58-.81l23.81,6.09s0,0,0,.06a4.15,4.15,0,0,0,.58,2.09Zm-9.08-32.31a3.93,3.93,0,0,0-2,.55l-2.78-2.8,8.83-6a4.51,4.51,0,0,0,.53.45l-3.81,7.87A4,4,0,0,0,331.94,183.3Zm-19.38-15.6-15.09-10.3a5.14,5.14,0,0,0-.5-5l9.51-9.77a3.67,3.67,0,0,0,1.71.47L314,166.71A5.18,5.18,0,0,0,312.56,167.7Zm-7.89-27.34a3.65,3.65,0,0,0,.38.91L295.53,151a5.11,5.11,0,0,0-2.82-.84c-.1,0-.2,0-.31,0l-2.58-9.86Zm-14.21,10.36a6.55,6.55,0,0,0-.58.32l-10.27-10.5.07-.18h8.07Zm-15.92-20.18-14.81.22,13.79-11.22a5.43,5.43,0,0,0,2.53,1.21V129A2.72,2.72,0,0,0,274.54,130.54Zm-16.28-1.17a2.78,2.78,0,0,0-1.4-.39,2.72,2.72,0,0,0-1,.19l-1-1.15,14-7.25Zm-3.88,1.13a2.53,2.53,0,0,0-.12.23l-4.39-.12L253,129Zm-6.55-1.09a2.74,2.74,0,0,0-3-.45l-3.57-3.49a3.82,3.82,0,0,0,.5-1.71l5.65-1.18,4.29,4.85Zm-32.54-6.86v-3a3.9,3.9,0,0,0,2.28-1.64l14.07,4.68Zm-10.45,4.38a4,4,0,0,0,2,.54l.18,0,5.4,17a3.25,3.25,0,0,0-.79.78l-14.49-4.62a6.22,6.22,0,0,0-1.17-4.81Zm-20.09,15.28.12.23-4.18,2.87-.59-1.91Zm1.25,1.88a6.43,6.43,0,0,0,3.71,1.95v21l-3.5-7a5.49,5.49,0,0,0-3.31-9.86,4.62,4.62,0,0,0-.65.05l-.94-3Zm-5.66,6.8a5.49,5.49,0,0,0-2.83,3.85h-6.4c0-.12-.07-.23-.11-.35l8.59-5.9Zm-2.83,5.85a5.49,5.49,0,0,0,5.39,4.49,5.55,5.55,0,0,0,1.53-.22l3.91,7.8a3.37,3.37,0,0,0-.9,1.48h-4.72a3,3,0,0,0-2.83-2,2.78,2.78,0,0,0-1,.19l-8.42-10.38a4,4,0,0,0,.64-1.35Zm-14.09-.05a4,4,0,0,0,.41,1l-3.38,3.3v-4.35Zm1.6,2.65-4.57,13.74v-9.27Zm-6.57,16.09a4.14,4.14,0,0,0-1,.42l-2.61-2.58a3.92,3.92,0,0,0,.55-2,3.88,3.88,0,0,0-.54-2l3.62-3.55Zm-10.89-3.13a4.09,4.09,0,0,0,.44,1l-1.53,1.58-9.57-2.44v-.14Zm-14.48,1.29,1.8.45-.14,9.1-3.45-7.39A5.53,5.53,0,0,0,133.08,173.59Zm6.45,13.63L146,185l-1.87,5.85c-.1,0-.19,0-.29,0a4.28,4.28,0,0,0-2.35.71l-2.38-2.21a3.81,3.81,0,0,0,.47-1.81A2.4,2.4,0,0,0,139.53,187.22Zm1.44,11a4.19,4.19,0,0,0,1.77,1l-.3,16.72a3.11,3.11,0,0,0-1.44,1L126.71,212a6.59,6.59,0,0,0,.1-1.09,6.38,6.38,0,0,0-.6-2.69Zm-14.9,15.67,14.09,4.84L129,222.18l-4.25-6.57A6.39,6.39,0,0,0,126.07,213.88Zm14.87,6.69a3.09,3.09,0,0,0,.37.43l-3.53,8a6.34,6.34,0,0,0-4.18.33l-3.51-5.42Zm-1.33,9.25,3.54-8,.24,0a3,3,0,0,0,2.87-2h2.66a3.2,3.2,0,0,0,.16.39l-9.31,9.76Zm12.21-14.09-5.74-17.07a4.23,4.23,0,0,0,1.17-1.1L178,210.19a5.6,5.6,0,0,0-.11,1.09,5.15,5.15,0,0,0,.25,1.52l-6.58,3.37a5.38,5.38,0,0,0-9.63,3.3,5.64,5.64,0,0,0,.23,1.48l-6.93,3.49-1.39-3.39a3,3,0,0,0-2-5.32Zm11.19,7a5.12,5.12,0,0,0,1.1,1.08l-3.75,7.91a5.18,5.18,0,0,0-1.26-.17,5.36,5.36,0,0,0-1,.1l-2.18-5.35Zm9.35,18,7,2.95-3.48,11a7.3,7.3,0,0,0-.94-.08l-.29,0-2.77-13.45A2.71,2.71,0,0,0,172.36,240.75Zm8.8,3.73,2.76,1.17L178,254.56Zm.61-1.91,1.53-4.84a3.07,3.07,0,0,0,1.21-.28l2.87,3L185.05,244Zm7-.6,5.65,6-7.51-3.19ZM209.55,211a2.93,2.93,0,0,0-.33-1.28l3-3.21a4,4,0,0,0,4.14-.06l10,10.05Zm24.08,9.21,8.34,1a4,4,0,0,0,1.67,2.75l-5.34,14.8c-.13,0-.24,0-.37,0a2.3,2.3,0,0,0-.26,0l-5.56-16.74A4,4,0,0,0,233.63,220.24Zm8.05,23.89a4,4,0,0,0-1.5-4.63l5.35-14.8c.12,0,.23,0,.36,0a4,4,0,0,0,3.82-3h6.15a3.93,3.93,0,0,0,6.54,1.87l3.18,2a3.77,3.77,0,0,0-.2,1.16,4,4,0,0,0,3,3.82v19.62l-5.9,5.88a2.78,2.78,0,0,0-1.16-.26,2.72,2.72,0,0,0-1.61.52Zm37.41,39.29-6.64,2.29-7.43-8.5Zm-4.21,8.1-9.34-1.33,6.28-2.16Zm4.95,2.8,3.29.56a2.12,2.12,0,0,0,.47.84l-1.61,4h0l-.21,0-2.31-4.93A3.07,3.07,0,0,0,279.83,294.32Zm4.93,8.27a2.12,2.12,0,0,0-.05-.44l1.07-.61,1.83,8.69-1.14,1.15-2.64-6.71A2.8,2.8,0,0,0,284.76,302.59Zm3.35,10,1.13,5.37-.17.05-1.8-4.58Zm-1,5.94-5.74,1.55c-.09-.17-.17-.34-.27-.5l4.61-4.61ZM281.91,322l6-1.61,2.2,5.59a5.21,5.21,0,0,0-1.32,1.2l-7-3.6a4.59,4.59,0,0,0,.2-1.3C281.94,322.17,281.91,322.08,281.91,322Zm20.81,7.21-4.67.1a5.08,5.08,0,0,0-.9-2l10.06-10.85.06,0v8.06A5.63,5.63,0,0,0,302.72,329.2Zm2.76-15.63L293,316.93l-.56-8.7,6-6,7,3.67c0,.11,0,.22,0,.33a2.83,2.83,0,0,0,1.84,2.64l0,2.34A2.8,2.8,0,0,0,305.48,313.57Zm9.71-18.79a2.79,2.79,0,0,0-1.5,3.91L310.75,302,315.19,289Zm-2.84-13.33-10.1-1.58,4.25-3a3,3,0,0,0,1.71.55,3,3,0,0,0,1.27-.29l3.4,3.4A4.26,4.26,0,0,0,312.35,281.45Zm-2.84-17.1a2.43,2.43,0,0,0-.89-.17,3.13,3.13,0,0,0-.44,0l-6.87-10.79,10.95,4.64a3.68,3.68,0,0,0-.06.58,4,4,0,0,0,.63,2.14Zm3.53-8.12-9.58-4.06,8.28-.15,1.83,3.65A4.68,4.68,0,0,0,313,256.23Zm-9.86-6.06,6.11-3,1.45,2.9Zm-2.31-1.08a2.94,2.94,0,0,0-.93-.63l.48-8.51,5.95,1.39,2,4Zm8-7.16,3.3.78a4.41,4.41,0,0,0,.08.72l-2.11,1Zm10.7-1.36,2.78-2.82a3.7,3.7,0,0,0,1.78.48,3.39,3.39,0,0,0,.64-.07l4.94,10.38-9.68-5a3.74,3.74,0,0,0,.11-.89A4,4,0,0,0,319.61,240.57Zm31.06,6.61-9.29-4.83,3-3.17a5.57,5.57,0,0,0,3.07.92,5.42,5.42,0,0,0,1.52-.22l3,6.05A5.84,5.84,0,0,0,350.67,247.18ZM348.52,229l.06-7a3.44,3.44,0,0,0,1.75-1.21l4.06,1.48-4.72,7.11A5.5,5.5,0,0,0,348.52,229Zm6.18-21.8a3.92,3.92,0,0,0,3-.41l1.75,1.9a4.14,4.14,0,0,0-.72,2.36c0,.1,0,.2,0,.31l-7.51,2.42Zm4.68-27.93-22.24,5.65,13-8.91,9.27,3.18A.19.19,0,0,0,359.38,179.29Zm-24.83,5,0,0,3.81-7.88A5.08,5.08,0,0,0,344.1,174l3.66,1.26ZM336.84,167a5.19,5.19,0,0,0-2.28,3.35H321.27c0-.14-.08-.27-.12-.41l14-7.15Zm-21.68-33.33h0v29.44l-5.06-20.51a3.74,3.74,0,0,0,1.41-5.2Zm-25.86,4.65-1.47-5.61a3.33,3.33,0,0,0,.72-.63l14.8,6.24Zm-35.81-11.88-3.86-4.37,20.51-4.27Zm-10-11.32a5.8,5.8,0,0,0,.67-1.13l23.72,2.24-19.77,4.11Zm-33.09.27-4.9.91-2.84-8.67.21-.15,7.88,6.56A3.79,3.79,0,0,0,210.39,115.43Zm-9.93-7.12a2.4,2.4,0,0,0,.28,0l2.77,8.43-5.74,1.06,2.61-9.47Zm.31,15.73-5.08,1.29.46-1.67Zm2.62,1.4a.16.16,0,0,0,0,.07l-8.9,8.9a7,7,0,0,0-1.15-.68l1.7-6.19Zm-11.94,7.76a6.12,6.12,0,0,0-.74,0,6.43,6.43,0,0,0-5.19,2.61l-6.23-3.3a3.83,3.83,0,0,0,.13-1h0l13.43-3.4Zm-16.12,2.39.22,0,2,6.42-5.1,1.31,2.58-7.74A2.85,2.85,0,0,0,175.33,135.59Zm2.83,8.31.81,2.6-9.11,6.25a2.93,2.93,0,0,0-.43-.34l2.28-6.85Zm-10.63,7.89a2.3,2.3,0,0,0-.26,0,3.93,3.93,0,0,0-2,.53l-2.4-2.48a4.08,4.08,0,0,0,.62-2.13v0l5.87-1.51Zm-9.08,2.84h-.31l.31-.93Zm0,2V163l-4.75,4.66,3.76-11Zm-23.38,4.61-.14,9.12H133.5a5.45,5.45,0,0,0-2.07-3.43l3-5.85A5.17,5.17,0,0,0,135.07,161.24Zm-.6,29.94a3.69,3.69,0,0,0,1.2.21,3.86,3.86,0,0,0,2.07-.61l2.38,2.22a4.27,4.27,0,0,0-.56,2.07,4.33,4.33,0,0,0,.28,1.49l-14.75,10c-.12-.13-.25-.25-.38-.37Zm-6.37,33.35,3.82,5.9a6,6,0,0,0-.56.57l-8.08-5Zm35.8,14.1,3.66.68a2.81,2.81,0,0,0,2.32,2.27L172.65,255l-.33.14-9.61-14.75A5.2,5.2,0,0,0,163.9,238.63Zm15.31,17.68,6.58-9.86,8.6,3.65a3.53,3.53,0,0,0,0,1.4l-14.13,6.07A6.7,6.7,0,0,0,179.21,256.31Zm23.52-5.5a4.14,4.14,0,0,0-.67-2.26l2.36-2.36a4,4,0,0,0,1.17.49v13.45a6.23,6.23,0,0,0-1.14.23l-3.2-6.37A4.19,4.19,0,0,0,202.73,250.81Zm4.86-12.27v-17a3,3,0,0,0,1.79-1.79h16.75a4,4,0,0,0,3.82,3,1.9,1.9,0,0,0,.25,0l5.57,16.74a3.93,3.93,0,0,0-1.26,5.36L232,247.37a4,4,0,0,0-2-.56,4,4,0,0,0-3.31,1.77L210.75,243a2.58,2.58,0,0,0,0-.4A4.18,4.18,0,0,0,207.59,238.54Zm25.78,10.24,2.56-2.56a3.91,3.91,0,0,0,2,.56,4.07,4.07,0,0,0,1.26-.22l10.63,16.34L233.7,252.11a3.75,3.75,0,0,0,.24-1.3A3.9,3.9,0,0,0,233.37,248.78Zm23.39,15.69,3.35-3.26.18.07v9.34a3.66,3.66,0,0,0-1,.42l-2.56-2.57a3.88,3.88,0,0,0,0-4ZM263.07,278l7.33,8.39-5.78,2a4,4,0,0,0-2.33-1.65v-8.43A3.32,3.32,0,0,0,263.07,278Zm11.58,15.49a2.84,2.84,0,0,0,2.75,2.21l.21,0,2.07,4.42-13.44-7.81Zm7.5,12.35,2.78,7.06-5.22,5.23a4.32,4.32,0,0,0-.56-.3ZM287.84,329a5.08,5.08,0,0,0-.23,1.47,5.27,5.27,0,0,0,2.68,4.57l-.18.54-8.82-9.94Zm4.34,6.68a5.69,5.69,0,0,0,.71.07l.18,0,1,4.29-2.41-2.72Zm2.05,7.56-7.09,7.36,3.76-11.12ZM288.48,352l6.73-7,3.18,14-9.26-3.85a4.11,4.11,0,0,0-.65-3.15Zm8.48-8.78,8.19-8.5a5.65,5.65,0,0,0,1.55.73l-1.76,16.77Zm20.44-48.38-.21-.09v-7.73a4.17,4.17,0,0,0,3.09-3.33l5.91,0a5.33,5.33,0,0,0,.82,2Zm8.78-13.19-6.07,0a4.12,4.12,0,0,0-2.67-2.63l-.06-5.08,9.2,6.34A5.52,5.52,0,0,0,326.18,281.68ZM315.44,279a4,4,0,0,0-1,.33l-3.55-3.55a2.95,2.95,0,0,0-1.53-4l.13-2.54a2.08,2.08,0,0,0,.52-.25l5.35,3.69Zm-4.29-11.65a2.33,2.33,0,0,0,.06-.53,2.5,2.5,0,0,0-.24-1.06l3.33-3.56a3.83,3.83,0,0,0,.94.37l.09,7.66ZM364.89,228l-12.47,3.9a5.79,5.79,0,0,0-1.08-1.43l5-7.51,8.61,3.14a5.49,5.49,0,0,0-.11,1.08A5.55,5.55,0,0,0,364.89,228Zm-9.36-7.46L351,218.91c0-.06,0-.12,0-.18a3.43,3.43,0,0,0-1-2.42l9.39-3a3.58,3.58,0,0,0,.5.66Zm3.9-19.44a4.28,4.28,0,0,0-.4-.61l9.54-9.54-2.79,8.5Zm11.07-9.61c.11,0,.22,0,.33,0a4.23,4.23,0,0,0,3.26-1.56l6.88,3.34a5.78,5.78,0,0,0-.26,1.72c0,.18,0,.36,0,.54l-12.66,3.28Zm11.34,0L375,188.19a4.43,4.43,0,0,0,.1-.9,4.23,4.23,0,0,0-6.43-3.63l-2.47-2.49a3.6,3.6,0,0,0,.49-1.78A3.64,3.64,0,0,0,364,175.9v-8.18l17.88,23.72Zm-21-24.41a4.61,4.61,0,0,0,1.21.5v8.29a3.65,3.65,0,0,0-2,1.41l-7.85-2.69.63-.43a3.63,3.63,0,0,0,5.5-4.57Zm-9.34,4.28a3.65,3.65,0,0,0,.2,1.15l-1.86,1.27-5.07-1.73a5.38,5.38,0,0,0,.07-.69,5.12,5.12,0,0,0-2-4.08l3.07-6.16a6,6,0,0,0,1.76.27,6.15,6.15,0,0,0,1.62-.23l3.5,7.46A3.61,3.61,0,0,0,351.47,171.39Zm-9.63-14.2-5.61,2.86-9-22.63,15,15.07a6.1,6.1,0,0,0-.44,4.7Zm-19.49-23.11-5.16,26.82V133.72a2.59,2.59,0,0,0,1-.68l3.2.12A3,3,0,0,0,322.35,134.08Zm-8.62-1.76-3.63,3.74a3.81,3.81,0,0,0-1.81-.48,3.77,3.77,0,0,0-3,1.45l-13.8-5.82,22.11.9Zm-30.9-2.8-3.47.58a2.77,2.77,0,0,0-1.31-1.1v-8.25a6,6,0,0,0,1-.28l4.56,7.39A3.28,3.28,0,0,0,282.83,129.52Zm-64.95-15.37a3.93,3.93,0,0,0-3.59-2.35,3.87,3.87,0,0,0-2.27.74L205.31,107l26,5.08Zm-22.3,4-8.34,1.55L198.11,109Zm-12.68,7.45a4.06,4.06,0,0,0,3.84-2.76l7.38.62-.66,2.4L179,129.54l3-4A3.86,3.86,0,0,0,182.9,125.63Zm-12.74,18.26-6.07,1.56,8.39-8.54Zm-12.93,7.2L156,154.6l-11.56-.13,12-4A4.1,4.1,0,0,0,157.23,151.09Zm-24.62,9.08-3,5.85a5.56,5.56,0,0,0-1.54-.22,5.48,5.48,0,0,0-5.39,4.49H116.9L132.37,160ZM114.83,174.3,132,186.19a3.81,3.81,0,0,0-.24,1.31,3.93,3.93,0,0,0,.17,1.08l-13.42,8.09L114,174.86A3.9,3.9,0,0,0,114.83,174.3Zm17.63,16.3L123,205.1a6.35,6.35,0,0,0-2.58-.55l-.29,0L119,198.75ZM118.21,205a6.36,6.36,0,0,0-4,4.93h-9.53a7.59,7.59,0,0,0-.6-2.17l13.07-7.89ZM103,215.85l10.17,6.28-.86,1.57a5.38,5.38,0,0,0-1.71-.28,5.57,5.57,0,0,0-1.74.29l-5.93-7.77Zm13,12.41,4.72-1.46,7.42,4.58-12.13-3S116,228.31,116,228.26Zm26.32,8.31,11.65.8a5.14,5.14,0,0,0,7,4.15l9.34,14.32-28.16-18.77A4.07,4.07,0,0,0,142.34,236.57Zm38.71,22.84,14.13-6.08a4.17,4.17,0,0,0,3.35,1.68,4.08,4.08,0,0,0,.93-.11l3.19,6.33a6.27,6.27,0,0,0-2.12,2.5l-19.32-3.42A6.5,6.5,0,0,0,181.05,259.41Zm26.54.83V246.92l6.61,13.48-3,2.06A6.36,6.36,0,0,0,207.59,260.24Zm1.69-14.42a4.55,4.55,0,0,0,.83-.92L226,250.48c0,.11,0,.21,0,.33a4.09,4.09,0,0,0,.25,1.35l-10.34,7.09Zm18.06,8a5.07,5.07,0,0,0,.46.35l-4.58,14a5.55,5.55,0,0,0-1-.09,6.34,6.34,0,0,0-1.86.28l-3.6-7.33Zm-2.22,15,4.59-14,.24,0a4,4,0,0,0,2.64-1l17,11.36a3.8,3.8,0,0,0-.16.51l-21.71,5.6A6.4,6.4,0,0,0,225.12,268.82Zm32.75,3.63a3.63,3.63,0,0,0-.41,1l-.69-2.08Zm2.42,5.87V282l-1.45-4.4A3.82,3.82,0,0,0,260.29,278.32Zm18.87,23.81a3.41,3.41,0,0,0-.05.46,2.82,2.82,0,0,0,1.22,2.31l-3.12,12.46-.2,0a3.56,3.56,0,0,0-.47.05l-11.7-23.58Zm10.21,35.58-4,11.81L280,327.12Zm9.57,23.71,2.22,9.72L289.7,357.59Zm6,10.12.76-7.31,8.25,3.42a3.91,3.91,0,0,0-.05.48c0,.06,0,.12,0,.19l-7.17,4.21A5.16,5.16,0,0,0,304.94,371.54Zm1.8-17.26,1.7-16.24,6.24,25.18Zm2.53-37.8a2.81,2.81,0,0,0,0-5.27l0-2.34a2.82,2.82,0,0,0,1.61-1.62h3.25a2.82,2.82,0,0,0,.25.49L309.27,322Zm18.44-37.78-10.36-7.13-.11-9.08.2-.06,10.42,16.14Zm33.55-18.08-2.35-4.91a6,6,0,0,0,.61-9.32l8.25-12.67-5.2,26.65A6.32,6.32,0,0,0,361.26,260.62Zm4.35-36.39-8.15-3,4.12-6.21a4.28,4.28,0,0,0,1.44.26,3.74,3.74,0,0,0,.89-.1l3.44,7.09A6.19,6.19,0,0,0,365.61,224.23Zm.26-16.29a4,4,0,0,0-.62-.47l2.09-6.35,13.9-3.6,0,0Zm-7.08-44.7c0,.09,0,.16,0,.25a4.22,4.22,0,0,0,.63,2.2l-2.52,2.52a3.61,3.61,0,0,0-1.76-.47,3.68,3.68,0,0,0-.58.06l-3.49-7.46a6,6,0,0,0,.87-.73Zm-50.54-33.35-19-.78a3.26,3.26,0,0,0-3.15-2.41,3.35,3.35,0,0,0-.79.1l-4.56-7.38a5.32,5.32,0,0,0,.47-.48Zm-196,46.26,4.49,21.61L103,206a7.79,7.79,0,0,0-1.76-1.63Zm100.25,91.61a6.22,6.22,0,0,0-.28-3.56l2.9-2,3.48,7.07a6.79,6.79,0,0,0-1.06.94Zm123.15,10.93a5.55,5.55,0,0,0-3.95-1.63,5.67,5.67,0,0,0-2.14.42l-10.41-16.13a3.71,3.71,0,0,0,.7-1.05l36.86,6.37v.1a6.16,6.16,0,0,0,.12,1.22Zm36.2-57.42a6.4,6.4,0,0,0-1-.08,5.83,5.83,0,0,0-1.68.24l-3.44-7.1A4.18,4.18,0,0,0,367,209.6l15.4-10.38.25.26Z"/></svg>