<svg id="Layer_1" data-name="Layer 1" xmlns="http://www.w3.org/2000/svg" viewBox="0 0 481.89 481.89"><defs><style>.cls-1{fill:#f9d7ed;}.cls-2{fill:#fff;}.cls-3{fill:#2a1d75;}</style></defs><title>Microscope_or_telescope</title><path class="cls-1" d="M226.08,213.14a37.11,37.11,0,0,0,13.61-2.86l24.08,12.33a1.48,1.48,0,0,0,.29.12l18.77,5.61a1.75,1.75,0,0,0,1.31-.12l1.09-.57,6.72,2.79a14.86,14.86,0,0,0,6.92,1.69c7.82,0,16.21-5.85,21.83-15.9a34.49,34.49,0,0,0,4.58-18.38c-.35-6.15-2.85-11-6.88-13.24v-1.45a1.77,1.77,0,0,0-.66-1.35l-21.4-17-.17-.12-25.49-15.56a20.12,20.12,0,0,0-16.83-.19L248.1,146c-.14-1.59-1.93-17.26-18.15-18.53l-16.58-8.12c-.84-1-3.37-3.82-6.18-4.61-2.17-.62-15.59-4.75-21.25-6.5a17.11,17.11,0,0,0-5.81-.75l-18.88.83a8.86,8.86,0,0,0-7.15,4.7,21.87,21.87,0,0,0-1.21,3.24c-.85,2.76-1.83,5.89-6.42,10.3-.56.52-3.49,3.65-1.85,10.14a78.38,78.38,0,0,0,4.53,13,1.17,1.17,0,0,1,0,.11,65,65,0,0,0,21.16,20.94c.94,1.14,3.82,4.63,4.47,5.29s4,2.53,10.12,5.86a26.8,26.8,0,0,0,12.15,16.58,1.74,1.74,0,0,0,1.91,0l1.15-.78a91.23,91.23,0,0,1,7.89,7.77l3.13,3.28-.33,9.54a7.06,7.06,0,0,0,.14,1.08,16.31,16.31,0,0,0-3.91-.7,9,9,0,0,0-3.79.56,9.89,9.89,0,0,0-2.12.74c-5.38,2.62-7.36,9.7-4.39,15.81l34.43,68.15c2.34,4.42,5.27,7.09,8.46,7.72a7.46,7.46,0,0,0,1.49.15l.68,0v5.67c-8.73.75-17.55,3.25-19.66,7.38-25.08,3.91-40.65,12.77-40.65,23.16,0,.39,0,.82,0,1.28-.08,4.48-.25,12.83,6.91,20.13,9.66,9.85,29.81,14.84,59.9,14.84,31.19,0,50.9-4.62,60.25-14.11,6.77-6.89,6.64-14.7,6.55-20.41,0-.6,0-1.18,0-1.73,0-10.49-15.8-19.39-41.24-23.25-2.1-4-10.42-6.44-19.07-7.24V306.76c2.11-.08,5-.48,7-2,5-3.8,6.84-12.59,4-18.87l-33.29-65a10.51,10.51,0,0,0-6.36-5.45Z"/><path class="cls-2" d="M299.94,223a7.39,7.39,0,0,1-3.64-.91c-2.78-1.56-4.31-4.87-4.3-9.34a31.48,31.48,0,0,1,13.51-24.19c3.8-2.35,7.43-2.78,10.21-1.23s4.31,4.87,4.3,9.34a31.56,31.56,0,0,1-13.51,24.19A12.79,12.79,0,0,1,299.94,223Z"/><path class="cls-3" d="M321.05,185.77c-5.63-3.15-14.32,2-19.76,11.76a28.84,28.84,0,0,0-4,13.66c0,4.46,1.52,7.78,4.3,9.33a7.27,7.27,0,0,0,3.64.92,12.79,12.79,0,0,0,6.57-2.14,31.6,31.6,0,0,0,13.51-24.2C325.36,190.64,323.83,187.32,321.05,185.77Zm-1.4,22a27,27,0,0,1-8.86,9.8c-3.16,1.95-6.06,2.37-8.19,1.19s-3.28-3.88-3.27-7.59A27,27,0,0,1,303,198.5c3.91-7,9.9-11.64,14.41-11.64a5.35,5.35,0,0,1,2.64.65c2.12,1.19,3.28,3.88,3.27,7.59A26.93,26.93,0,0,1,319.65,207.79Z"/><path class="cls-3" d="M190.77,142.06a3.08,3.08,0,0,0-2.31-2.15l-2.92-.34h0a3.12,3.12,0,0,0-2.79,1.26,6.94,6.94,0,0,0-1.44,3.28,7.14,7.14,0,0,0,.24,3.57,3.13,3.13,0,0,0,2.27,2.15h.05l2.86.33a3,3,0,0,0,.41,0,3.24,3.24,0,0,0,2.44-1.3,7.46,7.46,0,0,0,1.19-6.85ZM183.43,147a5.16,5.16,0,0,1-.15-2.54,5,5,0,0,1,1-2.33,1.36,1.36,0,0,1,.9-.58h.08c.58.1,1.21,1.47.87,3.4s-1.38,3-2,2.91h0C183.88,147.81,183.61,147.48,183.43,147Zm5.62-1.7a5.28,5.28,0,0,1-1,2.34,1.25,1.25,0,0,1-1,.56h-.08a7.2,7.2,0,0,0,1.16-2.89h0a7,7,0,0,0-.22-3.44l.29,0c.27,0,.54.37.73.87A5.12,5.12,0,0,1,189.05,145.29Z"/><path class="cls-3" d="M232.36,208.29A37.07,37.07,0,0,0,246,205.43l24.08,12.33a1.48,1.48,0,0,0,.29.12l18.77,5.61a1.75,1.75,0,0,0,1.31-.12l1.09-.57,6.72,2.78a14.74,14.74,0,0,0,6.92,1.69c7.82,0,16.21-5.85,21.83-15.9,7-12.5,5.94-27-2.29-31.61l0-1.45A1.77,1.77,0,0,0,324,177l-21.39-17-.18-.12L277,144.24a20.13,20.13,0,0,0-16.83-.2l-5.74-2.93c-.14-1.59-1.93-17.26-18.15-18.53l-16.58-8.13c-.84-1-3.37-3.81-6.17-4.6-1.82-.52-12.17-3.7-21.26-6.51a17,17,0,0,0-5.81-.74l-18.88.83a8.87,8.87,0,0,0-7.15,4.7,20.39,20.39,0,0,0-1.2,3.24c-.86,2.76-1.84,5.88-6.42,10.29-.56.53-3.5,3.66-1.86,10.15a79.22,79.22,0,0,0,4.53,13l.06.1a64.68,64.68,0,0,0,21.15,21c.94,1.14,3.82,4.63,4.48,5.28s4,2.53,10.11,5.87a26.9,26.9,0,0,0,12.15,16.58,1.74,1.74,0,0,0,1.92,0l1.14-.78a92,92,0,0,1,7.9,7.79l3.12,3.27-.33,9.54a7.23,7.23,0,0,0,.14,1.08,16.23,16.23,0,0,0-3.9-.7,8.86,8.86,0,0,0-3.8.56,9.71,9.71,0,0,0-2.12.74,10.2,10.2,0,0,0-5.37,6.71,13.11,13.11,0,0,0,1,9.1L237.49,299c2.35,4.42,5.27,7.09,8.46,7.72a7.53,7.53,0,0,0,1.49.15c.23,0,.45,0,.68,0v5.68c-8.72.75-17.55,3.25-19.65,7.38-25.09,3.91-40.66,12.77-40.66,23.16,0,.39,0,.82,0,1.28-.08,4.48-.24,12.83,6.92,20.13,9.65,9.85,29.8,14.84,59.89,14.84,31.2,0,50.9-4.62,60.25-14.12,6.77-6.88,6.64-14.7,6.55-20.4,0-.6,0-1.18,0-1.73,0-10.49-15.79-19.39-41.24-23.25-2.09-4-10.42-6.45-19.07-7.25V301.9c2.11-.07,5-.47,7-2,5-3.79,6.84-12.58,3.95-18.87l-33.28-65c-1.72-3.72-5.79-6.08-10.65-6.2l.06-1.89A28.28,28.28,0,0,0,232.36,208.29Zm-13-2.85a17.87,17.87,0,0,0,6.73,2.19l-.21,6.68c-.14.74-.45,1.88-4,1.68-2.27-.13-2.77-1.14-2.85-2.63Zm78.49-44.31c-9,0-19.67,7.47-26.34,19.4-4.12,7.36-6.23,15.24-5.95,22.17A21.41,21.41,0,0,0,268.42,213l-.49-.25c-3-3-4.85-7.25-5.42-12.41-.77-7,1-14.86,5-22s9.73-12.76,16.13-15.79c4.7-2.23,9.34-2.86,13.44-1.89Zm-4.54,51.51a21,21,0,0,0,.47,3.29c-2.45-5.86-1.73-14.12,2.5-21.68a28.17,28.17,0,0,1,12.22-11.94,18.35,18.35,0,0,1,4.9-1.54c-5.75,2-11.6,7.17-15.6,14.33A32.92,32.92,0,0,0,293.36,212.64Zm30.56-3c-5.42,9.71-15.33,17.19-23.88,12.9-2.75-2-4.41-5.48-4.68-10a30.88,30.88,0,0,1,4.24-16.45c5.91-10.59,16-16.5,22.92-13.47h0a4,4,0,0,1,.42.2C329.43,186.42,329.9,199,323.92,209.67Zm-2.74-30c-4-1.66-8.73-1.37-13.49.87a30.31,30.31,0,0,0-13.11,12.77c-5.36,9.6-5.38,20.29-.72,26.71l-1.76-.73a1.78,1.78,0,0,0-1.48.07l-1.18.62-16.85-5c-3-2.64-4.76-6.9-5-12.28-.26-6.57,1.76-14.07,5.69-21.12,7.33-13.11,19.52-20.55,28.39-17.84l19.49,15.52Zm-46-32.36,17.89,10.92a24.5,24.5,0,0,0-10.3,2.52c-6.77,3.21-12.82,9.12-17,16.63s-6.06,15.76-5.25,23.21a24.56,24.56,0,0,0,3.23,10l-43.61-22.35c-1-4.22-.9-10.35,1.83-19.19.12-.38.2-.66.25-.83a5.73,5.73,0,0,0-2.65-6.27l-11.29-7.44a22.22,22.22,0,0,1,.59-2.91,23.34,23.34,0,0,1,2.33-5c1.75,1,8.37,4.61,15,8.17,16.63,9,16.65,8.94,17.85,7.75.06-.07.25-.28.53-.62,7.75-9.3,13.34-13,16.67-14.54A16.58,16.58,0,0,1,275.19,147.27Zm-40.63,52.31c-5.34-.59-9.28-2.44-11.75-5.55a9.3,9.3,0,0,1-.55-.76Zm-.84-66.72c1.71.82,13.26,6.71,22.79,11.58a17.74,17.74,0,0,0-3.27,1c-3.7-2.09-16.61-9.37-22.15-12.42A17.22,17.22,0,0,1,233.72,132.86Zm21.42,14a69.23,69.23,0,0,0-12.91,12.35c-.64-.3-1.55-.75-2.68-1.33C243.15,154.3,249.6,148.77,255.14,146.88ZM228,133.71l.11,0c2.11,1.1,14.07,7.82,22.92,12.82-.88.46-1.75,1-2.61,1.53-4.6-2.68-18.12-10.53-23.18-13.37C226.11,134.31,227,134,228,133.71Zm-5,2c2.4,1.3,14.56,8.33,23.6,13.58-.84.6-1.66,1.23-2.44,1.85-5.5-3.36-18.81-11.48-23.42-14.18A25.47,25.47,0,0,1,223,135.69Zm-4.09,2.49c2.64,1.51,14.74,8.86,23.62,14.28q-1,.82-1.8,1.59c-5-2.8-20.11-11.21-24.56-13.6A28.73,28.73,0,0,1,218.88,138.18Zm-4.2,3.76c2.72,1.43,15.25,8.39,24.48,13.54-.58.56-1.07,1.06-1.47,1.46-6.38-3.32-16.93-9.06-24.51-13.23C213.64,143.13,214.14,142.53,214.68,141.94Zm35.87-2.79-3.16-1.61c-3.62-4.28-10-8.7-20-5.75C211.11,136.62,207.1,150.49,207,151a21.34,21.34,0,0,0-.5,2.27l-2.35-1.55c2.47-10.29,15.27-26.46,31.61-25.71C246.53,126.78,249.66,135,250.55,139.15Zm-92,4.1A75.79,75.79,0,0,1,154.3,131c-1.21-4.75.74-6.63.79-6.68l.09-.08c5.24-5,6.4-8.77,7.34-11.78a18.38,18.38,0,0,1,1-2.73,5.34,5.34,0,0,1,4.18-2.76l18.86-.83a13.82,13.82,0,0,1,4.62.6l10.36,3.19c-9.21,1.59-17.85,8.23-23.83,18.94-6.34,11.35-8.18,22.14-5.52,29.58A60.72,60.72,0,0,1,158.57,143.25Zm25,25.42c-.45-.45-3-3.47-4.43-5.26a2,2,0,0,0-.43-.38c-1-.61-1.95-1.24-2.87-1.88-4.71-6.53-3.47-18.71,3.6-31.36,6.77-12.11,17.06-18.74,27.52-18.24,2.65.8,4.77,1.45,5.54,1.66,1.82.52,4,2.86,4.63,3.72a2,2,0,0,0,.61.5l13.82,6.77c-14.7,1.68-26.39,15.47-29.27,26.39L197,147.06a1.72,1.72,0,0,0-1.44-.23,1.77,1.77,0,0,0-1.11,1c-.09.2-5.41,12.24-4,24.79C187,170.72,184,169,183.59,168.67Zm24,20.56a1.7,1.7,0,0,0-1.09-.38,1.79,1.79,0,0,0-1,.3l-1.25.85c-7.79-5.35-11.35-13.63-10.59-24.63a53.22,53.22,0,0,1,3.12-14.21l20.89,13.76a2.29,2.29,0,0,1,1.12,2.41c0,.15-.11.38-.21.7-3.88,12.59-3.4,22.08,1.45,28.18,4.18,5.26,11.4,7.6,21.51,7l.12,0A28.4,28.4,0,0,1,228,204.41l-.86-.15c-2.62-.45-5.32-.9-7-2.68l-3.29-3.44C212.29,193.33,210.74,191.71,207.62,189.23Zm20.29,25.36a.66.66,0,0,0,0-.14l0-.77a10.36,10.36,0,0,1,5.12,5.23l31.39,63.75c2.29,5,1.31,12.25-2,14.95a7.57,7.57,0,0,1-1.21.79h-.32c1.66-4.13,1.8-9.2-.07-13L225.77,220.5a8.76,8.76,0,0,0-2-2.53C225.64,217.8,227.47,217.05,227.91,214.59Zm28.23,71.12,0,0-33.53-64.34a13.45,13.45,0,0,0-2.5-3.55,9.4,9.4,0,0,1,3.91,3.65l35.07,64.86c2,4.18,1.34,10-1.29,13.88h-.21v.27a9.39,9.39,0,0,1-1.86,2,5.12,5.12,0,0,1-.9.55C258.11,298.64,258.81,291.2,256.14,285.71Zm.8,18.27a8.39,8.39,0,0,0,.63-.56v11.39a13.19,13.19,0,0,1-5.95,0V306A11.63,11.63,0,0,0,256.94,304Zm-8,11.26c.62,1.81,4.75,1.91,5.64,1.91s4.91-.1,5.61-1.85c1.18.43,1.55.86,1.57,1-.11.54-2.71,1.8-7.29,1.8s-7.19-1.26-7.29-1.79C247.22,316.16,247.63,315.68,249,315.24Zm-2.81,2.82c1.62,1.37,5.06,2,8.34,2s6.75-.64,8.36-2c.41.7.91,1.67,1.36,2.6-1.22,1.39-4.76,2.74-9.57,2.74-5,0-8.74-1.46-9.76-3A24.15,24.15,0,0,1,246.15,318.06Zm-5.56-20.66L206.2,229.31a9.66,9.66,0,0,1-.74-6.64A6.76,6.76,0,0,1,209,218.2a6.29,6.29,0,0,1,2.77-.64,7.27,7.27,0,0,1,2.91.63,9.52,9.52,0,0,1,4.79,4.72L253,287.26c2.31,4.77,1.36,11.86-2,14.61a5.29,5.29,0,0,1-4.41,1.43C244.51,302.88,242.42,300.83,240.59,297.4Zm13.73,34c13.86,0,22.54-3.23,25.34-6.92a96.3,96.3,0,0,1,5.92,10.94c-3.52,4.83-14.84,9.49-30.78,9.49-17,0-28.54-5.21-31.31-10.33a67.8,67.8,0,0,1,5.61-10C232,328.2,240.62,331.36,254.32,331.36Zm58,31.38c-8.53,8.67-28,13.07-57.75,13.07-29.11,0-48.42-4.64-57.39-13.79a19.84,19.84,0,0,1-5.69-11.6c8.28,9.95,33,17,63.08,17,30.21,0,55.07-7.11,63.21-17.15A19.08,19.08,0,0,1,312.35,362.74Zm5.53-19.68c0,.57,0,1.16,0,1.78s0,1,0,1.46c-4.66,10.64-31.76,19.1-63.32,19.1s-58.68-8.46-63.33-19.11c0-.66,0-1.29,0-1.89s0-.93,0-1.34c0-7.81,13.48-15.29,33.94-19.06a74.91,74.91,0,0,0-5.29,9.86,1.71,1.71,0,0,0,0,1.35c3.1,7.74,17.43,13.16,34.86,13.16,16.21,0,30.32-4.94,34.29-12a1.77,1.77,0,0,0,.07-1.6,115,115,0,0,0-5.7-10.86C304.22,327.65,317.88,335.16,317.88,343.06Zm-39.23-21.25c0,3.57-10,7.55-24.33,7.55-12.83,0-22.17-3.19-24-6.42v0l-.06-.05a2.26,2.26,0,0,1-.29-1.06c0-2.71,5.85-5.85,15.85-7.05a2.35,2.35,0,0,0-.59,1.09,21.92,21.92,0,0,0-2.4,4.19,1,1,0,0,0,0,.77c1.07,2.69,5.93,4.58,11.8,4.58,5.54,0,10.2-1.67,11.6-4.15a1,1,0,0,0,0-.91,23.51,23.51,0,0,0-2.56-4.53,2.29,2.29,0,0,0-.53-1C272.94,316.05,278.65,319.16,278.65,321.81ZM235.57,217.57l33.28,65c2.16,4.7.74,11.77-2.92,14.56a4.13,4.13,0,0,1-.73.42c2.84-3.88,3.43-10.62,1.08-15.73l-.91.42.89-.45-31.39-63.74a13.19,13.19,0,0,0-2.51-3.67A6.76,6.76,0,0,1,235.57,217.57Z"/></svg>