<svg id="Layer_1" data-name="Layer 1" xmlns="http://www.w3.org/2000/svg" viewBox="0 0 481.89 481.89"><defs><style>.cls-1{fill:#f9d7ed;}.cls-2{fill:#fff;}.cls-3{fill:#2a1d75;}</style></defs><title>Motion_tracking</title><path class="cls-1" d="M358.05,341.73c-6.5-2.66-17.81-14-21.27-17.52,5-7,14.09-29,22.33-49.38,1.43-3.54,2.56-6.34,3.24-7.93a17.43,17.43,0,0,0,1.57-7.17A4.31,4.31,0,0,0,361.5,256a3.61,3.61,0,0,0-.62-.24,7,7,0,0,0,1.9-4c.51-4.8-4-8.52-8.6-9.35a8.65,8.65,0,0,0-4.53.31,4.34,4.34,0,0,0-2.45-3.94c-35.58-17.43-71.83-15.9-82.1-15a7.34,7.34,0,0,0-5,2.62,7.18,7.18,0,0,0-1.45,2.74,12,12,0,0,0-3.1-.45,7.91,7.91,0,0,0-2.32-5.73,2.48,2.48,0,0,0-.12-.64c-.46-1.36-1.09-3.21-16.42,1l0-.1c6.87-2.34,12.92-5.59,12.26-9.33l-5.28-41h0s0-.08,0-.12c-.24-1.24-.7-3.45-14-2l14.32-2.12a1.74,1.74,0,0,0,1.49-1.65l1.58-39.2a8.83,8.83,0,0,0,1.92.22c.21,0,.41,0,.61,0a7.32,7.32,0,0,0,1.78,8.41c.41.37,39.7,35.9,49,39.07.13.12.24.26.38.38.8.91,5.19,5.26,15.67,5.26h.85a3.08,3.08,0,0,0,2.46-1.33,1.26,1.26,0,0,0,.13-.26,5.42,5.42,0,0,0,1.43.2,5.34,5.34,0,0,0,1-.1,11.86,11.86,0,0,0,1.48,2.63,22.41,22.41,0,0,0,8.5,6.66,23.09,23.09,0,0,0,9.61,2.34c3.93,0,7.07-1.39,8.34-4.07,2.22-4.67-2.19-11.22-10-14.91a22.37,22.37,0,0,0-10.56-2.32,11.57,11.57,0,0,0-3.51.7,5.31,5.31,0,0,0-3-2.28l-.22-.05a2.94,2.94,0,0,0,0-1,3,3,0,0,0-1.85-2.17h0c-4.38-1.67-11.65-4.5-11.66-4.5l-.19-.07a10.74,10.74,0,0,0-1.34-.23c-17.14-21.77-32.15-37.23-42.28-43.52a7.46,7.46,0,0,0-8.21.19,8.73,8.73,0,0,0-8.41-6.38,10.18,10.18,0,0,0-1.23.09l.08-2a2.64,2.64,0,0,0,0-.63c-.19-1.63-.46-3.84-25-1.7a31.93,31.93,0,0,0,0-4.69,18.65,18.65,0,0,0-1.69-6.75,8.78,8.78,0,0,0,2.34-5.34c.13-.13.27-.25.39-.39,3.83-4.23,5-13.18,3.48-27.34-.92-8.75-2.55-17.41-8.26-21.54-3.36-2.43-7.83-3.08-13.31-1.92a18.27,18.27,0,0,0-12,7.88c-3.32,5.15-4,12.09-2.08,20.62,1.61,7.12,4.05,12.67,7.31,16.75-.32,4,.16,8,4,10.58a15.34,15.34,0,0,0-2.18,9.35,25.59,25.59,0,0,0,.84,5.11c-25.11,3.45-24.85,5.86-24.66,7.46,0,0,0,.06,0,.09h0l1,6a7.45,7.45,0,0,0-1.06-.08,8.72,8.72,0,0,0-8.73,8.7,8.14,8.14,0,0,0,.18,1.71,7.37,7.37,0,0,0-6.29,4.3C152,159.18,150.17,193.6,149.88,202a9.34,9.34,0,0,0-1.52,1.73l0,0c-2.45,3.6-12.56,31.35-16.8,43.11a2.62,2.62,0,0,0,.49,2.63,2.65,2.65,0,0,0,.76.58,4.86,4.86,0,0,0-.64,2.9c-4.53,2.46-6.86,10-7.89,13.37a30,30,0,0,0-1.39,11.6c.42,3.86,2,6.39,4.36,7.11a4.6,4.6,0,0,0,1.37.21c2,0,4.19-1.27,6.24-3.68a30.07,30.07,0,0,0,5.35-10.39c1.86-6.06,2-11.86.47-15.38a4.87,4.87,0,0,0,1.17-2.19,2.75,2.75,0,0,0,.7.1h.23a2.74,2.74,0,0,0,2.24-1.51l20.33-40.9a1.69,1.69,0,0,0,.15-.43,10.17,10.17,0,0,0,.19-1.66h0c5.37-4.53,13.94-38.26,17.85-54.69l3.57,20.88a1.74,1.74,0,0,0,1.72,1.45l.26,0,19.48-2.88c0,.23-.06.45-.08.69-18.88,4.57-18.32,7.46-18.07,8.7h0l8.34,40.46c.62,3.12,5.43,4.14,11.21,4.14,1.52,0,3.11-.08,4.7-.2a10.67,10.67,0,0,0,.57,2.76c-12.82,5-14,7.08-13.73,8.42-.43,2-.92,5.85,1.34,7.7a6.29,6.29,0,0,0,1.09.73A11.54,11.54,0,0,0,199.7,260a6,6,0,0,0-2.74,1.18A8,8,0,0,0,194,267.7c.56,14.54,1.88,40.53,4.48,51.29,2.44,10.1,4.47,22.56,5.47,29.08a7.38,7.38,0,0,0,5.39,6,8.19,8.19,0,0,0-2,5.37,7.88,7.88,0,0,0,.15,1.54h-.14a3.13,3.13,0,0,0-2.41,1.64c-3.76,6.92-2.55,24.88-.51,31.23,2.4,7.49,4.22,35.33,4.24,35.61a2.2,2.2,0,0,0,.06.37,4.55,4.55,0,0,0,.41,1,8.53,8.53,0,0,0-2.09,5.31,15.77,15.77,0,0,1-1.57,7.9c-.43.84-.92,1.71-1.41,2.59-1.48,2.63-3,5.31-3.32,7.7-2.91,1.34-6,4.1-6.52,6.89a10.12,10.12,0,0,0,2.77,9.37,18.31,18.31,0,0,0,9.75,4.67,18.1,18.1,0,0,0,3.49.34,15,15,0,0,0,9.34-3,10.06,10.06,0,0,0,3.89-7.68,21.14,21.14,0,0,0-.37-5.07,14.18,14.18,0,0,0,1.8-4.27c.26-.9.56-1.94.87-3a65.27,65.27,0,0,0,2-7.75c.65-6.95-.18-11.68-2.44-14.09a4.29,4.29,0,0,0,1.45-2.94c.09-2.57.13-7.5.18-13.73.12-14.51.3-36.44,1.46-43.6.65-4,.22-7.4-1.24-9.79a3.31,3.31,0,0,0-2.86-1.59h0a2.87,2.87,0,0,0-.5.07,8.12,8.12,0,0,0-1.69-4.69,7.4,7.4,0,0,0,5.75-6.9c.34-8.8,1-25.93,2.08-41.87a100.89,100.89,0,0,0-4-36,7.05,7.05,0,0,0-6.84-5,11.6,11.6,0,0,0,2-2.74c1.28,1.45,3.53,2.36,6.53,2.61.56,0,1.14.07,1.73.07a33.66,33.66,0,0,0,10.37-1.84A31.38,31.38,0,0,0,250.46,257a11.66,11.66,0,0,0,3.21-4.24,12.94,12.94,0,0,0,1.65.11,12,12,0,0,0,5.06-1.11,7.4,7.4,0,0,0,5.2,5.19c9,2.44,28.7,7,49.3,7a118.94,118.94,0,0,0,15.33-.95c-1.8,4.76-5.22,14.66-6,23.13-.85,9.64-4.79,21.67-7.4,29.64-.37,1.13-.71,2.16-1,3.08a6.72,6.72,0,0,0,.38,5.24,15.06,15.06,0,0,0-7.14,10.25c-.88,5.24,1.89,9.35,7.59,11.27,9.18,3.09,32.94,8,35.55,8.54,1.48.68,10.17,4.55,17.65,4.55a14.61,14.61,0,0,0,5.58-1c2.5-1,3-2.54,2.94-3.62C378.33,352.05,375.6,347.75,358.05,341.73Z"/><circle class="cls-2" cx="198.72" cy="16.31" r="2.83"/><circle class="cls-2" cx="207.7" cy="21.98" r="2.83"/><circle class="cls-2" cx="227.48" cy="149.13" r="2.83"/><circle class="cls-2" cx="140.15" cy="193.2" r="2.83"/><circle class="cls-2" cx="175.55" cy="197.99" r="2.83"/><circle class="cls-2" cx="112.19" cy="258.77" r="2.83"/><circle class="cls-2" cx="213.22" cy="330.41" r="2.83"/><circle class="cls-2" cx="297.94" cy="333.19" r="2.83"/><circle class="cls-2" cx="332.47" cy="337.89" r="2.83"/><circle class="cls-2" cx="342.77" cy="342.05" r="2.83"/><circle class="cls-2" cx="373.07" cy="338.57" r="2.83"/><circle class="cls-2" cx="192.22" cy="357.01" r="2.83"/><circle class="cls-2" cx="198.83" cy="426.98" r="2.83"/><circle class="cls-2" cx="190.52" cy="448.68" r="2.83"/><circle class="cls-2" cx="203.51" cy="464.02" r="2.83"/><circle class="cls-2" cx="224.77" cy="456.99" r="2.83"/><circle class="cls-2" cx="121.28" cy="247.51" r="2.83"/><circle class="cls-2" cx="136.8" cy="238.74" r="2.83"/><circle class="cls-2" cx="183.72" cy="235.91" r="2.83"/><circle class="cls-2" cx="293.95" cy="210.87" r="2.83"/><circle class="cls-2" cx="284.23" cy="176.06" r="2.83"/><circle class="cls-2" cx="310.85" cy="151.11" r="2.83"/><circle class="cls-2" cx="331.26" cy="159.99" r="2.83"/><circle class="cls-2" cx="352.77" cy="180.48" r="2.83"/><circle class="cls-2" cx="260.36" cy="212.2" r="2.83"/><circle class="cls-2" cx="222.95" cy="240.5" r="2.83"/><circle class="cls-2" cx="159.33" cy="108.43" r="2.83"/><circle class="cls-2" cx="249.56" cy="85.43" r="2.83"/><circle class="cls-2" cx="180.47" cy="42.03" r="2.83"/><path class="cls-3" d="M371.37,339.74a2.84,2.84,0,1,0-2.42-4.3l-23.68-2.21a154.48,154.48,0,0,1-14.59-13.41c5-7,14.09-29.13,22.33-49.6,1.43-3.55,2.56-6.36,3.23-8a17.65,17.65,0,0,0,1.58-7.2,4.35,4.35,0,0,0-2.42-3.78,5.36,5.36,0,0,0-.62-.25,7,7,0,0,0,1.9-4c.51-4.82-4-8.57-8.6-9.4a8.65,8.65,0,0,0-4.53.32,4.38,4.38,0,0,0-2.45-4,140.84,140.84,0,0,0-16.11-6.7L295,209.68a2.61,2.61,0,0,0,0-.48,2.83,2.83,0,0,0-5.51-.89l-28.3,1.12a2.83,2.83,0,0,0-5.18-.09l-13.4-1-5.2-40.6h0s0-.08,0-.12c-.25-1.24-.7-3.46-13.93-2l14.29-2.13a1.75,1.75,0,0,0,1.49-1.66l1.58-39.37a8.83,8.83,0,0,0,1.92.22,6,6,0,0,0,.61,0,7.37,7.37,0,0,0,1.78,8.46c.37.34,34,30.87,46.44,38l-7.22,3.17a2.8,2.8,0,0,0-1.91-.76,2.84,2.84,0,1,0,2.83,2.84,2.58,2.58,0,0,0,0-.29l8.41-3.69-.13-.28c.23.1.45.18.65.25s.24.27.38.39c.8.91,5.19,5.28,15.66,5.28h.85a3.09,3.09,0,0,0,2.47-1.33c.05-.09.09-.18.13-.27a5,5,0,0,0,1.43.21,5.56,5.56,0,0,0,1-.11c1.39,3.46,5,7,10,9.34a23.17,23.17,0,0,0,9.65,2.36c.31,0,.62,0,.92,0,3.61-.21,6.24-1.66,7.38-4.07h0a6.18,6.18,0,0,0,.56-2.33h3.77a2.83,2.83,0,1,0,0-2h-4a11,11,0,0,0-1.9-4,22.31,22.31,0,0,0-8.5-6.69c-.36-.17-.72-.33-1.09-.48l-1.72-6.09a2.8,2.8,0,0,0,1.15-2.27,2.84,2.84,0,1,0-3.08,2.81l1.34,4.7a20.5,20.5,0,0,0-7.16-1,11.88,11.88,0,0,0-3.51.7,5.4,5.4,0,0,0-3-2.29l-.22-.05a2.91,2.91,0,0,0-1.87-3.16h0l-.39-.15L311,151.54a2.8,2.8,0,0,0,.95-2.1,2.83,2.83,0,0,0-5.3-1.38L294,145.54a277.37,277.37,0,0,0-21.35-23.36L250.1,85.47a2.75,2.75,0,0,0,.59-1.71,2.84,2.84,0,1,0-5.67,0,2.8,2.8,0,0,0,1,2.17l-5.28,15.24c-1.76-1-7.12-1.66-24.1-.17a31,31,0,0,0,0-4.71A18.51,18.51,0,0,0,215,89.51a8.87,8.87,0,0,0,2.34-5.37c.13-.13.27-.25.39-.39,3.83-4.25,5-13.24,3.48-27.47h0c-.92-8.79-2.56-17.49-8.27-21.64-3.35-2.44-7.83-3.09-13.3-1.93-.55.12-1.08.27-1.6.42V27.41l6.42-4.74a2.78,2.78,0,0,0,1.56.47,2.84,2.84,0,1,0,0-5.67,2.79,2.79,0,0,0-1.8.67l-4.42-2.89a2.48,2.48,0,0,0,.07-.61A2.84,2.84,0,1,0,196,17.28V26.4L180.31,38a2.79,2.79,0,0,0-1.54-.46,2.84,2.84,0,1,0,2.84,2.83,2.8,2.8,0,0,0-.12-.76L196,28.88v4.93a17.48,17.48,0,0,0-8.37,6.82c-3.32,5.18-4,12.15-2.09,20.72,1.62,7.15,4.05,12.73,7.32,16.82-.32,4,.16,8,4,10.64a15.5,15.5,0,0,0-2.17,9.39,26.58,26.58,0,0,0,.83,5.13c-25.1,3.47-24.84,5.88-24.65,7.49,0,0,0,.06,0,.1h0l.49,2.88-11-6.54a2.73,2.73,0,0,0,.05-.5,2.83,2.83,0,1,0-4,2.6l-1.13,23.78c-7.07,16.53-9.86,39-11,52.92L140,189.18a2.76,2.76,0,0,0-1.58-.48,2.83,2.83,0,0,0-1.81,5L119.51,243a2.84,2.84,0,0,0-2.76,2.83,2.8,2.8,0,0,0,.4,1.43l-5.78,7.15a2.83,2.83,0,1,0,2,2.68,2.76,2.76,0,0,0-.4-1.42l5.77-7.16a2.79,2.79,0,0,0,3.72-2.68,3,3,0,0,0,0-.43l3-1.7a2.4,2.4,0,0,0,1.28,1.57,4.81,4.81,0,0,0-.64,2.91c-4.54,2.47-6.86,10.06-7.89,13.43a30.48,30.48,0,0,0-1.4,11.65c.42,3.88,2,6.42,4.36,7.15a4.42,4.42,0,0,0,1.35.2c4.25,0,9-5.7,11.62-14.13,1.86-6.09,2-11.91.47-15.45a4.93,4.93,0,0,0,1.16-2.2,2.83,2.83,0,0,0,.71.1h.23a2.72,2.72,0,0,0,2.23-1.52l20.34-41.08a2.16,2.16,0,0,0,.14-.43,2,2,0,0,0,0-.24c4.76-2.86,9.73-5.77,12.51-7.3a2.79,2.79,0,0,0,1.95.79,2.84,2.84,0,1,0-2.83-2.83c0,.07,0,.15,0,.22-1.89,1-4.93,2.76-10,5.77,5.36-8.58,12.77-38,16.33-53l3.57,21a1.76,1.76,0,0,0,1.73,1.46l.26,0,19.48-2.89c0,.23-.06.46-.08.69-18.88,4.59-18.32,7.5-18.07,8.75h0l8.34,40.64c.5,2.51,3.53,3.85,9.28,4.11.65,0,1.33.05,2,.05,1.45,0,3-.07,4.61-.19a10.67,10.67,0,0,0,.57,2.76c-12.82,5.06-14,7.11-13.74,8.45,0,.22-.09.46-.13.71l-10.49-1.23a2.83,2.83,0,1,0-2.74,3.52,3,3,0,0,0,.42,0l10.36,18.42a6.16,6.16,0,0,0-2,1,8,8,0,0,0-2.93,6.6c.55,14.6,1.87,40.71,4.47,51.52.42,1.73.82,3.53,1.21,5.35l-3.76,32.67a2.82,2.82,0,0,0-.07,5.46l6.11,64.71a2.83,2.83,0,1,0,3.51,4.23l3,.86a7.8,7.8,0,0,0-1.41,4.39,15.85,15.85,0,0,1-1.58,7.94c-.42.83-.91,1.71-1.41,2.6-1.47,2.63-3,5.33-3.31,7.73q-.57.27-1.14.6l-2.27-2.66a2.83,2.83,0,1,0-2.43,1.39,2.72,2.72,0,0,0,.86-.15l2.17,2.55a9.52,9.52,0,0,0-3.71,5.19c-1.34,7,3.46,12.37,12.51,14.11a19.09,19.09,0,0,0,3.5.33,15,15,0,0,0,9.34-3,10.15,10.15,0,0,0,3.89-7.72c0-1.07,0-2-.06-2.88l3.56-1.17a2.83,2.83,0,1,0,2.19-4.61h-.13l-2.6-6A43.53,43.53,0,0,0,221.7,441c.64-7-.18-11.74-2.44-14.16a4.33,4.33,0,0,0,1.45-2.95c.09-2.58.13-7.53.18-13.79.12-14.58.3-36.61,1.46-43.81.65-4,.22-7.43-1.24-9.83a3.31,3.31,0,0,0-2.86-1.6h0a2.87,2.87,0,0,0-.5.07,8.17,8.17,0,0,0-1.7-4.71,7.43,7.43,0,0,0,5.76-6.94c.33-8.85,1-26.09,2.08-42.05a101.82,101.82,0,0,0-4-36.17,6.85,6.85,0,0,0-.34-.85l.49-4.49c.48.08,1,.15,1.51.19s1.14.07,1.74.07a33.71,33.71,0,0,0,10.37-1.84c7.2-2.41,12.42-6.34,13.93-10.12a13.26,13.26,0,0,0,1.67.11,12,12,0,0,0,5.06-1.11,7.43,7.43,0,0,0,5.2,5.21c9,2.45,28.69,7,49.3,7a119.16,119.16,0,0,0,15.33-.95c-1.81,4.79-5.22,14.72-6,23.23-.86,9.69-4.8,21.78-7.4,29.78l-1,3.1a6.77,6.77,0,0,0,.39,5.26A15.18,15.18,0,0,0,303,330c0,.2-.05.4-.07.6h-4a2.82,2.82,0,1,0,0,2h4c.29,4,3,7.12,7.72,8.72,9.18,3.1,32.93,8,35.54,8.57,1.48.69,10.17,4.58,17.65,4.58a14.67,14.67,0,0,0,5.59-1c2.49-1,3-2.56,2.94-3.65-.05-1.81-2.22-5.41-15-10.43l11.44-1.4A2.83,2.83,0,0,0,371.37,339.74Zm-52.1-169.35c.56-1.18,2.17-1.94,4.42-2.07l.73,0a19.6,19.6,0,0,1,8.13,2,18.8,18.8,0,0,1,7.17,5.59c1.33,1.82,1.77,3.54,1.2,4.73h0c-.56,1.19-2.17,1.94-4.42,2.07a18.62,18.62,0,0,1-8.86-2C321.26,177.69,318.1,172.85,319.27,170.39Zm-5.11-2.34a7.4,7.4,0,0,1,1.71-3,2.64,2.64,0,0,1,.56.11,3.3,3.3,0,0,1,1.77,1.31,6.21,6.21,0,0,0-2.1,2.43,6.33,6.33,0,0,0-.48,3.71,3.24,3.24,0,0,1-1.38-.1,1.76,1.76,0,0,1-.2-.09A3,3,0,0,0,314,172,6.51,6.51,0,0,1,314.16,168.05ZM310.83,167a10.59,10.59,0,0,0-.38,5.56h-.14c-9.58,0-13-4.06-13-4.09a1.88,1.88,0,0,0-.24-.25,5.46,5.46,0,0,1-1.77-5.51,5.38,5.38,0,0,1,2.58-3.33,5.75,5.75,0,0,1,2.83-.74,6.26,6.26,0,0,1,1.42.17c.84.33,6.78,2.65,10.87,4.23A11.38,11.38,0,0,0,310.83,167Zm-4.45-17a2.84,2.84,0,0,0,2.77,2.24h0l2.75,6.61c-4.08-1.58-8.67-3.38-8.67-3.38l-.19-.06a9.11,9.11,0,0,0-1.35-.24q-2.93-3.73-5.77-7.22Zm-8.76,5.61a8.42,8.42,0,0,0-1.5.68,8.75,8.75,0,0,0-4.46,8.75c-9.87-6.39-32.53-26-44.08-36.52a3.9,3.9,0,0,1-.61-5.06l5.25-7.91a3.93,3.93,0,0,1,5.38-1.13C267.13,120.4,281.3,135,297.62,155.65Zm-56-50.81L248,86.58a2.32,2.32,0,0,0,.46,0l18.92,30.88a67.2,67.2,0,0,0-7.88-5.93,7.44,7.44,0,0,0-8.21.18,8.74,8.74,0,0,0-8.41-6.41,8.28,8.28,0,0,0-1.23.1Zm-.1,2.56a6.33,6.33,0,0,1,1.31-.14,6.75,6.75,0,0,1,6.7,6.09,3.55,3.55,0,0,0-.23.31l-4.48,6.75a6.84,6.84,0,0,1-3.83,0Zm98.59,138.51a7.57,7.57,0,0,1,2.73-5.34,5.56,5.56,0,0,1,3.45-1.1,7.92,7.92,0,0,1,1.43.13c3.73.67,7.36,3.55,7,7.22-.36,3.4-4.61,5.73-8.25,5.73h-.1a6.42,6.42,0,0,1-4.78-2.1A5.82,5.82,0,0,1,340.11,245.91Zm-97.38-35.53,13.23,1a2.82,2.82,0,0,0,5.38.08l28.3-1.12a2.83,2.83,0,0,0,2.61,1.73,2.79,2.79,0,0,0,1.77-.63l22.51,13.23A168.19,168.19,0,0,0,259,218.9a7.59,7.59,0,0,0-1.36.25L240,213.87A6.58,6.58,0,0,0,242.73,210.38Zm-11.54,11.53c3.63-1,6.49-1.68,8.6-2.08-2.14,1-5.08,2.33-8.71,3.74a9.67,9.67,0,0,0,.11-1.53Zm-.64-3.46,0-.09a54.44,54.44,0,0,0,5.24-2.09c.7-.33,1.34-.66,1.94-1l2.85.85A92.25,92.25,0,0,0,230.55,218.45Zm1.62-49.74a72.7,72.7,0,0,1-10.89,3.61,13.83,13.83,0,0,0,.14-1.83c0-.34,0-.69,0-1A66.67,66.67,0,0,1,232.17,168.71Zm-16.11-64.14c8.38-.75,14-1,17.57-.95-4,1-10.38,2.17-18.55,3.31A11.22,11.22,0,0,0,216.06,104.57ZM198,17.28a2.64,2.64,0,0,0,.66-.36l4.53,3a3,3,0,0,0,0,.43,2.53,2.53,0,0,0,.11.73L198,24.92Zm-9,43.3c-1.72-7.63-1.18-13.7,1.61-18.06a14.94,14.94,0,0,1,9.75-6.38,20.81,20.81,0,0,1,4.29-.5,10.3,10.3,0,0,1,6.24,1.83c4.6,3.35,6,11.19,6.84,19.17h0c1.7,16.2-.48,22.41-2.6,24.77a4.94,4.94,0,0,1-3.87,1.67C199.52,83.08,192.45,75.93,189,60.58Zm7.47,21.22c4,3.2,8.91,4.78,14.79,4.78a10,10,0,0,0,1.76-.16,3.06,3.06,0,0,1-.66.76c-1.17.94-3.37,1.14-7.35.66C200,87.23,197.09,86,196.45,81.8Zm2.16,8a20.76,20.76,0,0,0,6,1.53,32.74,32.74,0,0,0,4,.29,10.55,10.55,0,0,0,4.76-.92,17.24,17.24,0,0,1,1.34,5.75c.38,5.36-.41,8.94-2.39,10.87q-2.81.38-5.86.72c-1.78.21-3.49.39-5.15.56C198,106.67,197,102,196.68,98.05A13.42,13.42,0,0,1,198.61,89.78Zm-1.75,16.9a10.15,10.15,0,0,0,1.57,2.17c-8.69.81-15.48,1.1-19.75,1A183.85,183.85,0,0,1,196.86,106.68Zm-17.22,6.73c.94,0,2,0,3.12,0,6.47-.16,15-.82,24.06-1.86s17.52-2.33,23.86-3.63a65.81,65.81,0,0,0,7.39-1.86l-.14,3.35L225.7,144.63a2.83,2.83,0,0,0-1.68.62l-48.7-29.09-.5-3A43,43,0,0,0,179.64,113.41Zm-5.29,17.91-9.46-3.66-.17-.06-.32-.07a6.69,6.69,0,0,1,6.44-8.64,6.64,6.64,0,0,1,1.42.16Zm-2.54-14.92.1.57a7.59,7.59,0,0,0-1.07-.08,8.75,8.75,0,0,0-8.73,8.74,8.24,8.24,0,0,0,.19,1.72,7.35,7.35,0,0,0-4.75,2.11l.95-20a2.78,2.78,0,0,0,.88-.48ZM125.72,241.23l-4.32,2.44,17.13-49.31a2.77,2.77,0,0,0,2.65-3.55l3-2.16c-.26,3.7-.38,6.62-.45,8.38a9.41,9.41,0,0,0-1.51,1.75l0,0C139.82,202.28,130.11,229,125.72,241.23Zm5,24.24c-2.43,7.94-6.7,12.2-8.59,11.6-.93-.28-1.66-1.88-1.91-4.17a26.82,26.82,0,0,1,1.27-10.25c3.15-10.3,6-11.77,7.63-11.77a3.35,3.35,0,0,1,1,.17,2,2,0,0,1,1,1C132.32,254.23,132.64,259.21,130.72,265.47Zm2.69-16.23a4.85,4.85,0,0,0-2.32-1.55,6.69,6.69,0,0,0-3.07-.21,2.91,2.91,0,0,1,1-2,5.42,5.42,0,0,1,1.92.13,5.54,5.54,0,0,1,2.84,1.74.31.31,0,0,1,0,.08A3,3,0,0,1,133.41,249.24ZM156,205l-19.71,39.83a9.06,9.06,0,0,0-4.47-2.6,8.72,8.72,0,0,0-2.15-.26h-.46l.18-.5,4-2.23a2.78,2.78,0,0,0,1.8.66,2.83,2.83,0,1,0-2.83-2.83,3,3,0,0,0,0,.43l-1.92,1.09c6.06-16.79,13-35.23,14.7-37.84l0,0A5.93,5.93,0,0,1,156,205Zm2.61-5.15a9.5,9.5,0,0,0-7.6-5.23,9.3,9.3,0,0,0-3.61.38c.49-10.92,2.67-41.66,11.84-61.88a3.88,3.88,0,0,1,4.52-2.15L175,135.34l.85,5C171.43,160.23,163.29,191.64,158.57,199.84ZM184.15,168l-8.38-49.22L223,147a2.73,2.73,0,0,0-.05.5,2.84,2.84,0,0,0,5.67,0,2.79,2.79,0,0,0-1-2.17l10.08-29-1.77,44Zm35.27,2.51a10.47,10.47,0,0,1-.28,2.38c-2.36.58-5,1.17-7.92,1.75-2,.4-3.8.73-5.53,1a10.18,10.18,0,0,1-1.36-5.15,11,11,0,0,1,.19-2l14.07-2.09A10.38,10.38,0,0,1,219.42,170.49ZM202.59,173a11.82,11.82,0,0,0,1,2.95,82.49,82.49,0,0,1-14,1.2A78.88,78.88,0,0,1,202.59,173Zm-6.52,45.17-7.71-37.6a21.76,21.76,0,0,0,2.28.11c1,0,2,0,3.25-.12a139.53,139.53,0,0,0,18-2.53,142.57,142.57,0,0,0,17.62-4.56,37.6,37.6,0,0,0,4.92-2l4.88,38c-.26,1.54-7.64,5.78-20.83,8.41S196.87,219.47,196.07,218.2Zm14.47,4.48c2.76-.28,5.67-.72,8.65-1.31a91.3,91.3,0,0,0,9.43-2.39,8.6,8.6,0,0,1,.24,5.44c-2.22.83-4.66,1.7-7.29,2.58s-5.24,1.69-7.58,2.38l.15-.2A8.9,8.9,0,0,1,210.54,222.68Zm.29,6A11.19,11.19,0,0,0,212,230c-3.77,1.06-6.92,1.81-9.27,2.26C204.63,231.27,207.32,230.09,210.83,228.71ZM210,259.89a28.88,28.88,0,0,1-13.61-4.25,1.33,1.33,0,0,0-.42-.19l-.2,0a9.53,9.53,0,0,1,4.32-11.92l1.39.39a24.6,24.6,0,0,1,6.34,2.5c3.67,2.12,5.47,7,6,8.58A9.52,9.52,0,0,1,210,259.89Zm5-2.62a7.2,7.2,0,0,0,3.06,1.91l-.28,2.62A7.57,7.57,0,0,0,213,260,11.42,11.42,0,0,0,215,257.27Zm-30.8-21.22a2.89,2.89,0,0,0,.35-.51L195,236.77c-.07,1.82.24,3.85,1.69,5a7.4,7.4,0,0,0,1.08.74,11.54,11.54,0,0,0-4.71,9.34h0Zm7.24,26.88a4.45,4.45,0,0,1,1.57-3.7,2.32,2.32,0,0,1,1.4-.52,1.69,1.69,0,0,1,.38,0c5.23,3.2,11,4.72,18,4.76a3.61,3.61,0,0,1,3.72,2.57c.18.59.37,1.25.57,2l-6.27,58a2.81,2.81,0,0,0-2.12,2.73,2.88,2.88,0,0,0,.41,1.46l-8.19,10.39c-1.09-7-2.94-17.8-5.11-26.83C193.17,302.86,191.86,274.58,191.42,262.93Zm9.83,92.3a8.06,8.06,0,0,0,.15,1.55h-.14a3.12,3.12,0,0,0-2.41,1.65,13.35,13.35,0,0,0-.94,2.25l-4.76-4.27a2.91,2.91,0,0,0,.21-1.07,2.76,2.76,0,0,0-.4-1.42l5.87-7.45a7.38,7.38,0,0,0,4.43,3.37A8.23,8.23,0,0,0,201.25,355.23Zm4.64-5.1,7.54.24a6.19,6.19,0,0,1,2.33,4.86,7.91,7.91,0,0,1-.06.84,3.72,3.72,0,0,0-.3.37,7.42,7.42,0,0,1-6,3.15c-2.31,0-4.33-.66-5.29-1.73a3.25,3.25,0,0,0-.44-.38,6.37,6.37,0,0,1-.42-2.25A6.26,6.26,0,0,1,205.89,350.13Zm-11-23.85c1.31,6.82,2.36,13.37,3,17.52a4.51,4.51,0,0,0,.1.53L191.92,352Zm5.06,98.8a2.84,2.84,0,0,0-2.07-2.5l-6.11-64.7h0l5.56,5c-1.81,8.36-.69,21.65,1,26.94,2.4,7.53,4.23,35.49,4.25,35.78a1.51,1.51,0,0,0,0,.28Zm-1.61,31.1a61.43,61.43,0,0,0,12.41,2.16L204,460.57a2.81,2.81,0,0,0-2.19-1.06,2.77,2.77,0,0,0-1,.18l-3.25-3.8C197.84,456,198.07,456.1,198.33,456.18Zm15.55,4.87a6.61,6.61,0,0,1-2.59,5.09c-2.44,2-6.17,2.7-10,2-2.63-.51-11.13-2.73-9.73-10a6.69,6.69,0,0,1,2.54-3.21l5.21,6.09a2.87,2.87,0,0,0-.36,1.36,2.83,2.83,0,0,0,5.66.12l9.25-3.06C213.89,459.93,213.9,460.47,213.88,461.05Zm1.56-10.23c-1.21,4.3-2.24,4.21-2.93,4.16l-.74-.06a61.08,61.08,0,0,1-12.43-2.09c-1-.29-1.12-.67-1.17-.79-.57-1.41,1.41-5,2.86-7.55.52-.92,1-1.84,1.47-2.71a19.21,19.21,0,0,0,1.95-9.68,5.43,5.43,0,0,1,1.29-3,10.61,10.61,0,0,0,4.12.74,16.4,16.4,0,0,0,2.06-.13,17.06,17.06,0,0,0,4.14-1,1.7,1.7,0,0,1,.73.54c.83,1,2.13,3.75,1.42,11.36-.08.91-1.13,4.51-1.9,7.14C216,448.86,215.7,449.9,215.44,450.82Zm4-1.33,1.64,3.8a2.76,2.76,0,0,0-.85,1.91l-3.19,1.05c0-.07,0-.13-.05-.2a14.53,14.53,0,0,0,1.8-4.29Zm-1.21-91c.9,1.66,1.13,4.21.64,7.22-1.2,7.47-1.37,28.78-1.5,44.34,0,6-.09,11.16-.18,13.68,0,.66-2.21,2.13-5.71,2.56-2.7.33-5-.18-5.45-1.18-.19-3-2-28.74-4.38-36.37-2-6.21-2.65-22.51.07-28.29a10.81,10.81,0,0,0,7.66,2.64A10.94,10.94,0,0,0,218.25,358.49ZM220.39,301c-1,16-1.75,33.28-2.09,42.15a3.93,3.93,0,0,1-3.91,3.77h-.13l-9.18-.29a3.91,3.91,0,0,1-3.75-3.3l9.35-11.87a2.65,2.65,0,0,0,.84.15,2.83,2.83,0,0,0,1.28-5.36l5.68-52.5A101.43,101.43,0,0,1,220.39,301Zm-2-45.42a2.17,2.17,0,0,1-1.1-1.05c-.24-.88-2.32-8-7.75-11.17a27.48,27.48,0,0,0-7.16-2.84,9.32,9.32,0,0,1-3.47-1.39,2.83,2.83,0,0,1-.42-1.93l20,2.34a2.83,2.83,0,0,0,1.46,1.83Zm27.11-30.16c-2.08,5.21-1.27,18.12-1.17,19.57a2.14,2.14,0,0,0,.08.44c.67,2-3.66,6.62-11.94,9.39a27.92,27.92,0,0,1-10.71,1.6,11.56,11.56,0,0,1-1.42-.2L222,241.57a2.83,2.83,0,1,0-3.22-4l-15.6-1.83c.65-.12,1.34-.26,2.09-.42a178.84,178.84,0,0,0,17.45-5,177,177,0,0,0,16.93-6.53A39.77,39.77,0,0,0,245,221,4.27,4.27,0,0,1,245.54,225.4Zm3.68,20.71c-.41,0-.82,0-1.23-.08a4.64,4.64,0,0,0-.14-1.49c-.25-3.89-.55-14.12.94-17.84.12-.29.21-.58.3-.86a10.46,10.46,0,0,1,3.14.45,5.48,5.48,0,0,0,0,.7L254,244.93A10.09,10.09,0,0,1,249.22,246.11ZM254,221.54a7.34,7.34,0,0,0-1.44,2.75,12.55,12.55,0,0,0-3.1-.45,8,8,0,0,0-2.32-5.75l8,2.38A7.92,7.92,0,0,0,254,221.54Zm6.44,27.3a4,4,0,0,1-2.87-3.42l-1.77-18.76a3.91,3.91,0,0,1,.89-2.88,3.86,3.86,0,0,1,2.66-1.39c2.49-.22,6.54-.47,11.76-.47,15.82,0,42.35,2.34,68.5,15.2a.9.9,0,0,1,.48.69.69.69,0,0,1-.22.66,10.29,10.29,0,0,0-3.35,7.59,11.68,11.68,0,0,0,.88,4.41,22.25,22.25,0,0,1-9.25,3.68C302.11,258.89,272.09,252,260.39,248.84Zm52.68,66.64c.29-.92.63-2,1-3.08,2.66-8.15,6.68-20.47,7.57-30.55.82-9.33,5.19-20.92,6.47-24.16l.63-.1a25.49,25.49,0,0,0,10.53-4.19l.05,0a10.7,10.7,0,0,0,7.71,3,10.24,10.24,0,0,0,6-1.88.75.75,0,0,1,.8,0,.86.86,0,0,1,.49.73,14.23,14.23,0,0,1-1.3,5.75c-.69,1.63-1.82,4.45-3.26,8-5.85,14.55-18,44.8-22.68,49.84-3,3.29-8.46,3.27-11.74,1.36C314.16,319.43,312.3,317.91,313.07,315.48Zm32.65,30.74c-5.39-1.13-25.93-5.5-34-8.24-4.08-1.38-5.85-3.88-5.26-7.43.66-4,4-7.56,6.1-8.11a10.08,10.08,0,0,0,1.05.7,13.88,13.88,0,0,0,6.88,1.77,12.71,12.71,0,0,0,7.8-2.54c3.12,3.22,11.74,11.87,18.64,16.29l-3.33.41a2.8,2.8,0,0,0-4.57-.61l-5.4-2.17s0-.05,0-.07a2.86,2.86,0,1,0-.76,1.92l5.39,2.18v.06a2.83,2.83,0,0,0,5.58.67l4.81-.59Zm23,3.62a3.82,3.82,0,0,1-.74.41c-5,2.09-14.24-.92-18.95-2.9l3.11-6.13C360.58,344.25,368,348.09,368.75,349.84Zm-15.5-12-1.31-.46a21.51,21.51,0,0,1-3.44-1.88l13.55,1.27Z"/></svg>