<svg id="Layer_1" data-name="Layer 1" xmlns="http://www.w3.org/2000/svg" viewBox="0 0 481.89 481.89"><defs><style>.cls-1{fill:#f9d7ed;}.cls-2{fill:#fff;}.cls-3{fill:#2a1d75;}</style></defs><title>Non-visible_spectrum</title><path class="cls-1" d="M377.56,193c-5.69-5.93-12.89-8.74-19.75-7.7a2,2,0,0,0-.4.11l-16.5,6.74c-.52-.16-1.06-.33-1.6-.48a8.52,8.52,0,0,0-5.05.1l-8.37,2.82a31.18,31.18,0,0,0-5.14-23.47c-4-5.54-11.87-12.31-26.76-13.07a7.86,7.86,0,0,0-3.16.51c-2.25.85-7.31,2.78-11.81,4.53s-6.87,2.66-8.13,3.28c-.73,0-1.47,0-2.2,0a7.92,7.92,0,0,0-3,.66l-13.2,5.56L239.28,168a7.28,7.28,0,0,0-4.38-.11l-27.19,7.77a3,3,0,0,1-.72.1H202.6a5.82,5.82,0,0,0-2.22.44l-53.56,22a3.48,3.48,0,0,0-2,2.43l-.7,3.26c-11.3-.89-16.31,8.56-17.56,11.41-10.08,3.78-23.36,8.68-24.94,8.91-4.28.19-10.11,1-12,5.52-1.7,2.08-2.15,5.16-1.33,9.15a88.78,88.78,0,0,0,9.11,25.56c.39.69.77,1.43,1.18,2.2,3.08,5.9,7.73,14.81,28.41,28.84l.17.1,72.08,37.84c.58.33,11.67,6.63,21.14,6.63a15.2,15.2,0,0,0,6.14-1.15,10.68,10.68,0,0,0,4-3l25.59-11.07,5.15-2.29,10-.87a1.78,1.78,0,0,0,.71-.22c2-1.14,49-27.84,56.86-32.7.69-.37,5.83-3.28,7-8.7a2.68,2.68,0,0,1,.81-1.49l12.17-10.62a6.15,6.15,0,0,0,1.83-2.82l.21-.69c2.14-.37,6.16-1.82,8.09-7.35a106.29,106.29,0,0,0,2.54-11.93l3.23-2a4.23,4.23,0,0,0,2.11-3.29c0-.41.07-.81.1-1.21l15.66-9a7.69,7.69,0,0,0,3.69-5.13C388.55,212.83,385.29,201,377.56,193Z"/><path class="cls-2" d="M225.12,320.36a1.12,1.12,0,0,1-.44-.09L140,279.54a1,1,0,0,1-.57-.9V236.07a1,1,0,0,1,1.35-.94l.12.05,4,1.49c4.46,1.68,10,3.77,16.94,6.2,16.38,5.76,33.84,19.26,39.58,23.7l1.56,1.19c2.8,2.05,18.88,19.35,23.38,24.32a1,1,0,0,1,.25.69l-.47,26.61a1,1,0,0,1-.48.84A1.07,1.07,0,0,1,225.12,320.36Z"/><path class="cls-3" d="M381.08,184.91c-5.7-5.93-12.89-8.74-19.75-7.7a1.82,1.82,0,0,0-.4.11l-16.5,6.75-1.6-.49a8.47,8.47,0,0,0-5.06.11l-8.36,2.82A31.2,31.2,0,0,0,324.26,163c-4-5.54-11.86-12.31-26.76-13.07a7.89,7.89,0,0,0-3.16.51c-2.24.86-7.3,2.78-11.8,4.53s-6.87,2.66-8.13,3.29c-.73,0-1.47,0-2.2,0a7.84,7.84,0,0,0-3,.66l-13.2,5.56L242.79,160a7.24,7.24,0,0,0-4.37-.11l-27.19,7.77a3,3,0,0,1-.72.1h-4.39a5.87,5.87,0,0,0-2.23.44l-53.56,22a3.47,3.47,0,0,0-2.05,2.42l-.69,3.26c-11.3-.88-16.31,8.56-17.56,11.41C120,211,106.67,216,105.09,216.19c-4.28.19-10.11,1-12,5.51-1.7,2.08-2.16,5.16-1.33,9.15a89.08,89.08,0,0,0,9.1,25.56c.4.69.78,1.43,1.19,2.2,3.08,5.9,7.73,14.81,28.41,28.84l.17.1,72.08,37.84c.57.33,11.66,6.63,21.14,6.63a15.2,15.2,0,0,0,6.14-1.15,10.76,10.76,0,0,0,4-3l25.59-11.07,5.14-2.29,10-.87a1.78,1.78,0,0,0,.72-.22c2-1.14,48.95-27.84,56.86-32.7.69-.37,5.83-3.28,7-8.7a2.68,2.68,0,0,1,.81-1.49l12.16-10.62a6.09,6.09,0,0,0,1.84-2.82l.21-.69c2.14-.37,6.16-1.82,8.09-7.35A105.7,105.7,0,0,0,365,237.08l3.23-2a4.22,4.22,0,0,0,2.12-3.29l.09-1.21,15.66-9a7.71,7.71,0,0,0,3.7-5.13C392.07,204.78,388.81,193,381.08,184.91Zm-85.49-31.17a4.06,4.06,0,0,1,1.73-.28c10.7.54,19,4.56,24.1,11.62a27.77,27.77,0,0,1,4.14,22.72l-.59.2-1.19-.45a30.76,30.76,0,0,0-6.67-21.36c-5.28-6.48-13.34-10.48-23.47-11.71Zm-6.27,2.4c11.7.51,20.53,4.31,26.24,11.31a28.68,28.68,0,0,1,6.26,19.41l-19.5-6.64c-1.74-7.74-11.81-16.74-24.35-19.67C280.32,159.61,284.29,158.06,289.32,156.14Zm-18.72,6a4.58,4.58,0,0,1,1.68-.38c.33,0,.67,0,1,0,12.73,1.4,24.15,10,26.75,17.67l-39-13.27Zm-65.38,9.27a2.33,2.33,0,0,1,.9-.18h4.39a5.92,5.92,0,0,0,1.67-.24l22.49-6.42,2.25.9a3.21,3.21,0,0,1,.09,5.92l-52.93,23.26-29.71-2.35ZM148.3,199.47c31.39,15,66.48,29.41,96.91,41.72a24.68,24.68,0,0,1,10.65,8.05c20.61,27.84,14.42,50.23,8.27,61.78a1.61,1.61,0,0,0-.52.14l-2.06.91a92.27,92.27,0,0,0,2.37-26.56c-1.39-21.64-11.62-37.54-29.65-46l-83.82-35.74a14.33,14.33,0,0,0-10.58-.19l-2.41.91-2.42.91A13.25,13.25,0,0,1,148.3,199.47Zm80.3,128.2c-8.33,3.66-24-5.22-24.18-5.34L132.36,284.5c-19.88-13.5-24.1-21.59-27.19-27.51-.43-.81-.83-1.58-1.24-2.31a85.31,85.31,0,0,1-8.73-24.54c-.6-2.95-.38-5.07.66-6.29,1.63-1.91,5.4-1.74,7.9-1.63h.17c2.2.09,6.84.74,11.81,1.55-5.35,19.53,2.33,47,23,58.27,4.1,2.25,67.32,34.5,79.1,40a20.13,20.13,0,0,0,8.59,2.08,15.15,15.15,0,0,0,6.43-1.4A7.74,7.74,0,0,1,228.6,327.67ZM143.35,230.8l2.5.94c4.47,1.68,10,3.77,17,6.22,16,5.61,33.16,18.9,38.81,23.27.73.57,1.28,1,1.62,1.24,2.44,1.79,18.13,18.6,23.23,24.25l-.42,23.56L143.35,270.5ZM141.92,272l84.7,40.73a1,1,0,0,0,.43.09,1.07,1.07,0,0,0,.52-.14,1,1,0,0,0,.48-.84l.41-22.81c2,3.08,7.17,13.87,5.6,27.57a3.25,3.25,0,0,1-.86.58c-2.75,1.21-7.21-.69-7.22-.69-.72-.36-72.72-35.38-83.22-40.14-8.51-3.86-8.8-9.84-8.92-12.39a6.24,6.24,0,0,0-.12-1.19c-.23-1.37-.13-21.17,0-35.39,2.23.68,4.71,1.57,7.62,2.65v41.07A1,1,0,0,0,141.92,272Zm-10.14-8.78c0,.12,0,.5.06.84.13,2.66.47,9.74,10.1,14.11,10.47,4.75,82.44,39.76,83.21,40.13A16.63,16.63,0,0,0,231,319.6a7.64,7.64,0,0,0,2.69-.45c-.05.33-.11.65-.17,1-2.67,1.67-7.7,3.46-14.83.12-11.75-5.5-74.88-37.71-79-39.95-19.91-10.9-27.24-37.41-22-56.19,4.36.73,8.75,1.55,11.77,2.19.72.15,1.47.33,2.23.54C131.65,235.32,131.42,261.81,131.78,263.25Zm104.89,58.91c4.16-18.49-3.78-33.29-6-36-1.58-1.93-22.12-24.17-25.37-26.56-.33-.23-.85-.64-1.55-1.18-5.76-4.45-23.3-18-39.78-23.8-6.93-2.44-12.47-4.52-16.93-6.2-7.42-2.79-12.32-4.63-16.86-5.59-5.7-1.2-16.24-3-22.54-3.8,4-1.27,13.21-4.62,31-11.31l2.41-.9a10.81,10.81,0,0,1,8,.13l83.75,35.71c17,8,26.24,22.41,27.58,42.93a89.87,89.87,0,0,1-3,28.25l-21,9.09C236.52,322.7,236.61,322.44,236.67,322.16Zm46.22-50.94a9.77,9.77,0,0,1,4.64-11.48l54.61-29.28c1,.45,4.57,2.79,5.84,13.45l-63,36.53A68.86,68.86,0,0,0,282.89,271.22Zm55-3.37a6.14,6.14,0,0,0-1.94,3.4c-.85,4-5.18,6.34-5.22,6.36l-.12.06C325.22,281,300,295.4,285,303.93a76.67,76.67,0,0,0,.33-21.36l62.83-36.46A28.09,28.09,0,0,1,343,263.38ZM350.81,256a2.56,2.56,0,0,1-.79,1.21l-2.41,2.11a28.9,28.9,0,0,0,2.44-15c-1.54-14.46-7.2-15.83-7.84-15.94a1,1,0,0,0-.64.11l-55,29.47A11.79,11.79,0,0,0,281,271.8a71.93,71.93,0,0,1,1.8,33.41l-8.67,4.93-7.62.67c13.67-27.08-1.63-52.77-9-62.76A26.6,26.6,0,0,0,246,239.34c-29.94-12.11-64.38-26.23-95.34-41a1.17,1.17,0,0,0,.06-.2l.84-4.06,32.65,2.57h.08a1.15,1.15,0,0,0,.41-.08l53.16-23.36a5.2,5.2,0,0,0,0-9.54l1.59-.46a3.85,3.85,0,0,1,2.28.06l80.42,27.36C364.06,205.41,353.38,247.7,350.81,256Zm5.8-30.73,0-.14,1.71-.82,1.57.9-3,1.48Zm2.55,22.57a7.5,7.5,0,0,1-3.76,4.53,74.59,74.59,0,0,0,1.67-23.58l4.22-2.05a53.07,53.07,0,0,1,.36,9.09C361.47,237,360.12,245.08,359.16,247.86Zm7.29-15.77-2.76,1.69A38.85,38.85,0,0,0,363,225a1,1,0,0,0-.48-.6h0l-3.68-2.09a1,1,0,0,0-.92,0l-1.73.82c-3.08-14.89-12.1-26.19-26.37-33.06l9.08-3.06a5,5,0,0,1,3-.05l1.35.41v0c17.17,5.75,25.14,20.14,23.71,42.78h0c0,.45-.06.9-.1,1.36A.75.75,0,0,1,366.45,232.09Zm19.9-16.29a4.16,4.16,0,0,1-2,2.77l-15.3,8.8c.6-20.54-6.75-34.18-21.89-40.64l14.9-6.09c5.65-.78,11.66,1.65,16.5,6.7C385.5,194.58,388.41,205.22,386.35,215.8Z"/><path class="cls-3" d="M285.5,199.8a2.43,2.43,0,0,0-1.58-2.17L242.8,182.11a24,24,0,0,0-18.28.52l-29.64,13.19a1,1,0,0,0-.43,1.45l11,17a1,1,0,0,0,.74.45l43.68,4.41h.1a1,1,0,0,0,.45-.1l33.72-16.95A2.43,2.43,0,0,0,285.5,199.8Zm-2.24.53L249.8,217.15l-42.91-4.33-10.13-15.65,28.58-12.71a22,22,0,0,1,16.75-.48l41.12,15.52a.45.45,0,0,1,.3.4A.44.44,0,0,1,283.26,200.33Z"/><path class="cls-3" d="M336.86,209.84l-16.61-13.68a2.72,2.72,0,0,0-1.75-.63H307.29a4.19,4.19,0,0,0-1.94.48l-49.87,26.17A4.27,4.27,0,0,0,253.2,226v6a4.77,4.77,0,0,0,1.47,3.42l12.11,11.51a11.3,11.3,0,0,0,12.89,1.86L335.76,220a6.13,6.13,0,0,0,1.1-10.18Zm.2,5.17a4.08,4.08,0,0,1-2.21,3.23L278.75,247a9.26,9.26,0,0,1-10.59-1.53L256.05,234a2.72,2.72,0,0,1-.85-2v-6a2.27,2.27,0,0,1,1.21-2l49.87-26.17a2.19,2.19,0,0,1,1-.25H318.5a.73.73,0,0,1,.47.17l16.62,13.68A4.06,4.06,0,0,1,337.06,215Z"/><rect class="cls-3" x="217.35" y="199.93" width="34.53" height="2" transform="translate(-62.59 116.75) rotate(-24.76)"/></svg>