<svg id="Layer_1" data-name="Layer 1" xmlns="http://www.w3.org/2000/svg" viewBox="0 0 481.89 481.89"><defs><style>.cls-1{fill:#f9d7ed;}.cls-2{fill:#fff;}.cls-3{fill:#2a1d75;}</style></defs><title>Object_recognition</title><path class="cls-1" d="M170.88,303.7a6.11,6.11,0,0,0,.73.05,5.06,5.06,0,0,0,3.36-1.26c3.33-2.93,4.59-8.36,3.77-16.19a76.07,76.07,0,0,0-.49-18.5c-1.73-9.84.1-20,1.89-27.69,1.52-6.56,7.08-9.65,11.79-10.35a64.66,64.66,0,0,1,13.51,0,3.37,3.37,0,0,0,.1.34,15.81,15.81,0,0,0-6.09,4.75c-18.61,23.31-11.4,59.93-8.62,67.74,3.42,9.61,11.09,26.6,24.06,32.41a27,27,0,0,0,10.93,2.68c5.93,0,8.59-2.95,8.74-3.13a1.66,1.66,0,0,0,.32-.56c.77-1.26.54-3.19-.73-5.9-.27-.57-.88-1.64-1.66-3-1.94-3.39-5.2-9-5.86-12l-.19-.84c-3.61-15.68-4.28-27.93-3.58-37.28a123.32,123.32,0,0,0,13,18.35c9.4,11,19.48,18.56,30,22.57,11.11,4.24,20.13,5.54,27.15,5.54a50.44,50.44,0,0,0,16.63-2.73,14.77,14.77,0,0,1,1.46-.44,5.41,5.41,0,0,1,2.61.36,4.94,4.94,0,0,0,3.19.23c.51-.17,2.06-.69,6.47-8.48a1.76,1.76,0,0,0,0-1.68,1.72,1.72,0,0,0-1.4-.92c-4.22-.34-8.43-1.71-8.67-2.81a42.9,42.9,0,0,1-.72-4.69c-.17-1.48-.34-3-.7-4.83-1.11-5.52-3.83-13-10.55-17.25-4-2.5-13.83-15.42-19.73-23.14-2.23-2.92-4-5.22-5-6.39-6.45-7.62-11-15.52-12.59-19.54a6.19,6.19,0,0,1,1.73-3.62c1.86-1.91,4.87-2.76,8.26-2.31,12.15,1.6,21.85,9.42,28.82,23.24a6.66,6.66,0,0,0,.82,1.44c1.21,1.33,7.63,12.75,8.25,16.35.72,4.07,8.17,17.34,9.77,19.64,1.17,1.67,3.42,2.54,5,3a4.63,4.63,0,0,0,2.53.83,4.2,4.2,0,0,0,2.08-.57c3.89-2.19,4.23-12,4.23-12.08l0-.85a115.77,115.77,0,0,0-.68-17.1,64.47,64.47,0,0,0-7.41-22.29c-1.89-3.26-13.17-19.51-20.08-22.49-6-2.56-10.32-3.24-13.69-2.11a11.23,11.23,0,0,0-3,1.81,23.47,23.47,0,0,1-13.77,5.23c-9.33-1-14,4.59-16.15,7.13h0a2.74,2.74,0,0,0-.44.76c-4.63-9.25-18.7-40-19.79-73.31,0-.94.19-23.13-7.36-30.3a8.07,8.07,0,0,0-6.25-2.37c-13.15.82-20.24,12.16-23.29,18.84-5.26,11.5-11.85,36.53-1.31,80-7.15-2.65-23.95-6.17-35.2,13.1-13.9,23.8-8.86,56.1.13,70.26A5.24,5.24,0,0,0,170.88,303.7Z"/><path class="cls-2" d="M236.35,227.64l-.32,0a66.29,66.29,0,0,1-10.64.34,38.46,38.46,0,0,1-8.34-2.15,8.6,8.6,0,0,0-3.79-.08c-11.88-40.68-6.19-63.23-1.72-73.07,2.21-4.87,7.29-13.11,16.47-13.69a3.74,3.74,0,0,1,2.93,1.15c4.34,4.14,5.14,17.71,5.08,22.65,1.06,32.62,16.86,62.08,17.55,63.34l-.1.19c-.06.09-.11.19-.17.3h0l-.64,1.17a14.52,14.52,0,0,0-1.8,6.18l-.45-.61C248.5,230.78,244,224.69,236.35,227.64Z"/><path class="cls-3" d="M241.88,218.49c-23.44-42.29-18.14-81.77-18.08-82.16l-2-.29c-.06.4-5.46,40.51,18.31,83.42Z"/><path class="cls-3" d="M166.89,297.23a6.11,6.11,0,0,0,.73,0A5.06,5.06,0,0,0,171,296c3.33-2.92,4.59-8.36,3.77-16.18a76,76,0,0,0-.49-18.5c-1.73-9.84.1-20,1.89-27.7,1.52-6.56,7.08-9.64,11.79-10.34a64,64,0,0,1,13.51,0c0,.11.06.22.1.34a15.81,15.81,0,0,0-6.09,4.75c-18.61,23.31-11.4,59.92-8.62,67.74,3.42,9.61,11.09,26.59,24.06,32.4a26.88,26.88,0,0,0,10.93,2.68c5.93,0,8.58-2.95,8.74-3.13a1.49,1.49,0,0,0,.32-.56c.77-1.25.54-3.18-.73-5.89-.27-.58-.89-1.65-1.66-3-1.95-3.38-5.2-9.05-5.86-12l-.19-.84c-3.61-15.67-4.28-27.92-3.58-37.27a123.88,123.88,0,0,0,13,18.34c9.4,11,19.48,18.57,30,22.57C272.92,313.65,281.94,315,289,315a50.08,50.08,0,0,0,16.62-2.74,14.77,14.77,0,0,1,1.46-.44,5.53,5.53,0,0,1,2.61.36,4.87,4.87,0,0,0,3.19.23c.51-.17,2.06-.68,6.47-8.47a1.75,1.75,0,0,0-1.38-2.61c-4.22-.34-8.43-1.7-8.67-2.81a42.18,42.18,0,0,1-.72-4.69c-.17-1.48-.34-3-.7-4.83-1.11-5.52-3.83-13-10.55-17.25-3.95-2.5-13.83-15.42-19.74-23.14-2.22-2.92-4-5.22-5-6.39-6.45-7.62-11-15.51-12.59-19.53a6.19,6.19,0,0,1,1.73-3.62c1.86-1.92,4.87-2.77,8.26-2.32,12.15,1.6,21.85,9.42,28.82,23.24a7.18,7.18,0,0,0,.82,1.45c1.21,1.33,7.63,12.75,8.25,16.34.72,4.07,8.17,17.34,9.77,19.64,1.17,1.68,3.42,2.55,5,3a4.64,4.64,0,0,0,2.53.84,4.21,4.21,0,0,0,2.08-.58c3.89-2.19,4.23-12,4.23-12.08l0-.84a113.91,113.91,0,0,0-.67-17.1,64.47,64.47,0,0,0-7.41-22.3c-1.89-3.26-13.17-19.51-20.08-22.48-6-2.57-10.32-3.24-13.69-2.12a11.23,11.23,0,0,0-3,1.81,23.4,23.4,0,0,1-13.77,5.24c-9.34-1-14,4.58-16.15,7.12a2.8,2.8,0,0,0-.44.77c-4.63-9.26-18.7-40-19.79-73.31,0-.94.19-23.13-7.36-30.31a8.06,8.06,0,0,0-6.25-2.37c-13.15.83-20.24,12.16-23.29,18.85-5.26,11.49-11.85,36.52-1.31,80-7.15-2.64-23.95-6.16-35.2,13.11-13.9,23.8-8.86,56.09.13,70.25A5.24,5.24,0,0,0,166.89,297.23Zm20.75-75.91c-5.35.79-11.7,4.33-13.44,11.87-1.83,7.91-3.7,18.3-1.91,28.49a56.7,56.7,0,0,1,.73,7.25c-2.37-13.74-3.35-19.47-.79-33.94a16.41,16.41,0,0,1,8.62-12.17c6.22-3.37,14.37-3.35,19.57-1.63A62.42,62.42,0,0,0,187.64,221.32Zm24.69,104c-12.22-5.48-19.59-23.07-22.19-30.38s-9.55-42.33,8.06-64.39a11.58,11.58,0,0,1,9.1-4.64,6.89,6.89,0,0,1,1,.07c.07,0,6.93,2.58,11.31,2.86a72.45,72.45,0,0,0,7.79,0c-9.13,8.8-15.62,27.95-16.44,40.3a120.88,120.88,0,0,0,2,30.21c2.57,12.59,7.05,21.8,13.33,27.44C224.24,327.81,219.86,328.7,212.33,325.33Zm8.17-19.11.19.82c.73,3.26,3.94,8.87,6.07,12.58.73,1.26,1.35,2.35,1.59,2.85a13.29,13.29,0,0,1,.8,2.12c-13.68-11.69-15.6-41-14.65-55.19.91-13.57,9.33-36.9,19.95-41.15a9.34,9.34,0,0,1,5.32-.65c-.66.14-1.22.32-1.67.46l-.24.08-.37.1c-2.58.69-10.46,2.78-17.53,23.85C216.73,261.71,214.21,278.92,220.5,306.22Zm54.28-55.53c8.52,11.14,16.51,21.36,20.65,24,5.67,3.59,8,10.13,9,15,.34,1.67.5,3.13.66,4.53a45.2,45.2,0,0,0,.78,5.06c.73,3.27,5.63,4.64,9.08,5.21a28.22,28.22,0,0,1-3.27,4.61,7,7,0,0,1-.94-.25,8.7,8.7,0,0,0-4.17-.49,13.48,13.48,0,0,0-2.05.57c-5.05,1.65-18.46,6-41.44-2.75-4.16-1.59-25.71-11-42.13-41.12l-.23-.43a2.85,2.85,0,0,0-1.26-1.4,59.26,59.26,0,0,1,2.42-10.46c6.72-20,13.82-21.94,16.15-22.56l.45-.13.26-.08a8.43,8.43,0,0,1,5.33-.24A24.22,24.22,0,0,1,248,234l.56.77c1,1.37,1.79,2.48,3.1,2.82a22.66,22.66,0,0,0,1.9,5.81c2.08,4.29,20.83,23.6,23.31,25,1.67.94,12.47,11.48,19.32,18.33,4.41,4.41,6.33,11.92,6.95,14.94.77,3.76,6,5.43,6.26,5.5l.59-1.91c-1.21-.38-4.45-1.83-4.89-4-.66-3.2-2.71-11.16-7.5-15.95-1.76-1.77-17.3-17.28-19.75-18.66-2.05-1.16-20.6-20.25-22.49-24.14-1.6-3.28-3.73-9.77,0-16.47l.8-1.45.26-.46.31-.56c2.73,8.19,13.13,20.66,13.26,20.82C270.85,245.55,272.59,247.82,274.78,250.69Zm14-42.4a10.53,10.53,0,0,1,2-1.29c2.47-.82,6.13-.16,11.19,2,5.35,2.3,15.92,16.68,18.45,21a61.63,61.63,0,0,1,7,20.93,112.26,112.26,0,0,1,.65,16.62l0,.85c-.09,3.81-1.35,8.49-2.45,9.11-.46.26-.88.14-2.28-1.26-.29-.29-.56-.56-.84-.79-.88-1.1-4.07-8.79-8.5-22.71-4.76-15-16.44-28.59-16.55-28.73a52.38,52.38,0,0,0-16.76-11.27A27.28,27.28,0,0,0,288.75,208.29Zm-13.65,6.38c9.15,2.25,17.91,9.75,19.57,11.68.11.13,11.32,13.21,15.86,27.5,1.46,4.57,4.34,13.35,6.73,19.06-2.75-4.81-6.95-12.86-7.41-15.51-.7-4-7.32-15.78-8.72-17.31-.08-.11-.32-.58-.55-1-7.28-14.45-17.49-22.63-30.34-24.32a14.48,14.48,0,0,0-3.66,0A15.31,15.31,0,0,1,275.1,214.67Zm-72.32-81.74c2.73-6,9-16.09,20.32-16.8a4.64,4.64,0,0,1,3.63,1.41c5.35,5.08,6.34,21.74,6.27,27.8,1.3,40,20.82,76.2,21.66,77.74l-.33.6h0l-.8,1.44a18,18,0,0,0-2.22,7.59l-.54-.76c-2.37-3.2-7.88-10.67-17.37-7l-.39,0a84,84,0,0,1-13.13.41c-3.19-.2-8.64-2-10.3-2.64a10.75,10.75,0,0,0-4.68-.09C190.24,172.68,197.26,145,202.78,132.93Zm-36.67,93.44c11.7-20,29.62-12.45,33.24-10.65.14.55.3,1.1.45,1.65-6-1.47-14.11-1.16-20.62,2.37a20.06,20.06,0,0,0-10.4,14.64c-2.67,15.11-1.65,21,.81,35.24.38,2.22.8,4.65,1.24,7.35,1.83,11-.57,15-2.16,16.42a1.52,1.52,0,0,1-1.28.37,1.72,1.72,0,0,1-1.21-.77C157.88,279.92,153.08,248.67,166.11,226.37Z"/><path class="cls-3" d="M341.41,99.12H140.48a1.75,1.75,0,0,0-1.75,1.75V381a1.75,1.75,0,0,0,1.75,1.75H310.15A1.75,1.75,0,0,0,311.9,381V349.45h29.51a1.75,1.75,0,0,0,1.75-1.75V100.87A1.75,1.75,0,0,0,341.41,99.12ZM339.66,346H142.23V102.62H339.66Z"/><path class="cls-2" d="M146.34,361.24a15.71,15.71,0,0,1,2.5-.19,4.17,4.17,0,0,1,2.84.84,2.72,2.72,0,0,1,.88,2.11,3,3,0,0,1-.78,2.16,4.16,4.16,0,0,1-3.09,1.11,4.24,4.24,0,0,1-1.05-.09v4.05h-1.3Zm1.3,4.88a4.72,4.72,0,0,0,1.08.1c1.58,0,2.54-.76,2.54-2.16s-.95-2-2.39-2a5.43,5.43,0,0,0-1.23.11Z"/><path class="cls-2" d="M157.9,371.23l-.1-.91h-.05a2.69,2.69,0,0,1-2.22,1.08,2.07,2.07,0,0,1-2.22-2.09c0-1.75,1.56-2.71,4.37-2.7v-.15a1.5,1.5,0,0,0-1.65-1.68,3.6,3.6,0,0,0-1.89.54l-.3-.87a4.5,4.5,0,0,1,2.38-.64c2.22,0,2.76,1.51,2.76,3v2.71a10.18,10.18,0,0,0,.12,1.74Zm-.19-3.7c-1.44,0-3.08.22-3.08,1.63a1.17,1.17,0,0,0,1.25,1.26,1.81,1.81,0,0,0,1.75-1.21,1.3,1.3,0,0,0,.08-.42Z"/><path class="cls-2" d="M161.11,366.24c0-.86,0-1.59-.06-2.27h1.16l0,1.43h.06a2.18,2.18,0,0,1,2-1.59,1.48,1.48,0,0,1,.38,0v1.25a2,2,0,0,0-.45-.05,1.86,1.86,0,0,0-1.77,1.7,3.71,3.71,0,0,0-.06.61v3.87h-1.31Z"/><path class="cls-2" d="M168,361.89V364h1.89v1H168v3.91c0,.9.25,1.41,1,1.41a2.69,2.69,0,0,0,.76-.09l.06,1a3.11,3.11,0,0,1-1.17.18,1.82,1.82,0,0,1-1.42-.55,2.67,2.67,0,0,1-.51-1.89v-4h-1.13v-1h1.13v-1.74Z"/><path class="cls-2" d="M172.81,361.93a.77.77,0,0,1-.84.81.78.78,0,0,1-.79-.81.8.8,0,0,1,.82-.82A.78.78,0,0,1,172.81,361.93Zm-1.47,9.3V364h1.32v7.26Z"/><path class="cls-2" d="M178.87,371.23l-.1-.91h-.05a2.69,2.69,0,0,1-2.22,1.08,2.07,2.07,0,0,1-2.22-2.09c0-1.75,1.56-2.71,4.37-2.7v-.15a1.5,1.5,0,0,0-1.65-1.68,3.6,3.6,0,0,0-1.89.54l-.3-.87a4.5,4.5,0,0,1,2.38-.64c2.22,0,2.76,1.51,2.76,3v2.71a10.18,10.18,0,0,0,.12,1.74Zm-.19-3.7c-1.44,0-3.08.22-3.08,1.63a1.17,1.17,0,0,0,1.25,1.26,1.81,1.81,0,0,0,1.75-1.21,1.3,1.3,0,0,0,.08-.42Z"/><path class="cls-2" d="M182.08,360.58h1.32v10.65h-1.32Z"/><path class="cls-2" d="M185.62,360.58h1.32v10.65h-1.32Z"/><path class="cls-2" d="M189.64,364l1.59,4.29c.17.48.35,1.05.47,1.49h0c.13-.44.28-1,.46-1.52l1.44-4.26H195l-2,5.18c-1,2.49-1.59,3.76-2.49,4.54a3.62,3.62,0,0,1-1.62.86l-.33-1.11a3.59,3.59,0,0,0,1.15-.65,3.92,3.92,0,0,0,1.11-1.47A1,1,0,0,0,191,371a1.17,1.17,0,0,0-.09-.35L188.2,364Z"/><path class="cls-2" d="M199.41,366.34c0-.93,0-1.68-.06-2.37h1.18l.06,1.25h0a2.85,2.85,0,0,1,2.58-1.41c1.76,0,3.08,1.48,3.08,3.69,0,2.61-1.59,3.9-3.3,3.9a2.56,2.56,0,0,1-2.24-1.14h0v3.94h-1.3Zm1.3,1.94a3.08,3.08,0,0,0,.06.54,2,2,0,0,0,2,1.54c1.4,0,2.21-1.14,2.21-2.8,0-1.46-.77-2.7-2.16-2.7a2.11,2.11,0,0,0-2,1.63,2.44,2.44,0,0,0-.09.54Z"/><path class="cls-2" d="M208.68,367.84a2.32,2.32,0,0,0,2.49,2.52,4.82,4.82,0,0,0,2-.37l.22.94a5.85,5.85,0,0,1-2.41.45,3.37,3.37,0,0,1-3.57-3.66c0-2.19,1.29-3.91,3.4-3.91,2.37,0,3,2.08,3,3.42,0,.27,0,.48,0,.61Zm3.87-.94a1.89,1.89,0,0,0-1.83-2.15,2.19,2.19,0,0,0-2,2.15Z"/><path class="cls-2" d="M216.19,367.84a2.32,2.32,0,0,0,2.49,2.52,4.75,4.75,0,0,0,2-.37l.23.94a5.91,5.91,0,0,1-2.42.45,3.37,3.37,0,0,1-3.57-3.66c0-2.19,1.29-3.91,3.41-3.91,2.37,0,3,2.08,3,3.42a3.87,3.87,0,0,1-.05.61Zm3.87-.94a1.88,1.88,0,0,0-1.83-2.15,2.18,2.18,0,0,0-2,2.15Z"/><path class="cls-2" d="M223,360.58h1.32v10.65H223Z"/><path class="cls-2" d="M227.25,367.84a2.32,2.32,0,0,0,2.49,2.52,4.82,4.82,0,0,0,2-.37l.22.94a5.85,5.85,0,0,1-2.41.45,3.37,3.37,0,0,1-3.57-3.66c0-2.19,1.29-3.91,3.4-3.91,2.37,0,3,2.08,3,3.42,0,.27,0,.48,0,.61Zm3.87-.94a1.89,1.89,0,0,0-1.83-2.15,2.19,2.19,0,0,0-2,2.15Z"/><path class="cls-2" d="M240.29,360.58v8.78c0,.64,0,1.38.07,1.87h-1.19l-.06-1.26h0a2.68,2.68,0,0,1-2.47,1.43c-1.76,0-3.11-1.49-3.11-3.69,0-2.42,1.49-3.9,3.26-3.9a2.41,2.41,0,0,1,2.18,1.11h0v-4.34ZM239,366.93a2.15,2.15,0,0,0-.07-.56,1.93,1.93,0,0,0-1.9-1.53c-1.36,0-2.17,1.2-2.17,2.81s.72,2.68,2.14,2.68a2,2,0,0,0,1.93-1.57,2.07,2.07,0,0,0,.07-.57Z"/><path class="cls-2" d="M245.61,371.23c0-.49,0-1.23,0-1.87v-8.78H247v4.56h0a2.69,2.69,0,0,1,2.48-1.33c1.8,0,3.07,1.5,3.05,3.7,0,2.6-1.63,3.89-3.25,3.89a2.59,2.59,0,0,1-2.43-1.37h0l-.07,1.2Zm1.36-2.91a2.42,2.42,0,0,0,.06.48,2,2,0,0,0,2,1.55c1.38,0,2.2-1.13,2.2-2.79,0-1.46-.75-2.7-2.16-2.7a2.11,2.11,0,0,0-2,1.62,3.57,3.57,0,0,0-.07.54Z"/><path class="cls-2" d="M258.22,371.23l-.11-.91h0a2.7,2.7,0,0,1-2.22,1.08,2.07,2.07,0,0,1-2.22-2.09c0-1.75,1.56-2.71,4.36-2.7v-.15a1.49,1.49,0,0,0-1.64-1.68,3.67,3.67,0,0,0-1.9.54l-.3-.87a4.54,4.54,0,0,1,2.39-.64c2.22,0,2.76,1.51,2.76,3v2.71a10.18,10.18,0,0,0,.12,1.74Zm-.19-3.7c-1.45,0-3.08.22-3.08,1.63a1.16,1.16,0,0,0,1.24,1.26,1.81,1.81,0,0,0,1.76-1.21,1.63,1.63,0,0,0,.08-.42Z"/><path class="cls-2" d="M261.43,365.94c0-.75,0-1.37-.06-2h1.17l.07,1.2h0a2.67,2.67,0,0,1,2.4-1.36c1,0,2.57.6,2.57,3.09v4.33h-1.32v-4.18c0-1.17-.44-2.15-1.68-2.15a1.88,1.88,0,0,0-1.77,1.35,1.93,1.93,0,0,0-.09.62v4.36h-1.32Z"/><path class="cls-2" d="M273.78,371.23l-.11-.91h-.05a2.69,2.69,0,0,1-2.22,1.08,2.07,2.07,0,0,1-2.21-2.09c0-1.75,1.55-2.71,4.36-2.7v-.15a1.5,1.5,0,0,0-1.65-1.68,3.6,3.6,0,0,0-1.89.54l-.3-.87a4.5,4.5,0,0,1,2.38-.64c2.22,0,2.76,1.51,2.76,3v2.71a10.18,10.18,0,0,0,.12,1.74Zm-.2-3.7c-1.44,0-3.08.22-3.08,1.63a1.17,1.17,0,0,0,1.25,1.26,1.81,1.81,0,0,0,1.75-1.21,1.3,1.3,0,0,0,.08-.42Z"/><path class="cls-2" d="M277,365.94c0-.75,0-1.37-.06-2h1.17l.08,1.2h0a2.67,2.67,0,0,1,2.4-1.36c1,0,2.56.6,2.56,3.09v4.33h-1.32v-4.18c0-1.17-.43-2.15-1.68-2.15a1.89,1.89,0,0,0-1.77,1.35,1.93,1.93,0,0,0-.09.62v4.36H277Z"/><path class="cls-2" d="M289.33,371.23l-.11-.91h0A2.72,2.72,0,0,1,287,371.4a2.07,2.07,0,0,1-2.22-2.09c0-1.75,1.56-2.71,4.36-2.7v-.15a1.49,1.49,0,0,0-1.65-1.68,3.63,3.63,0,0,0-1.89.54l-.3-.87a4.51,4.51,0,0,1,2.39-.64c2.22,0,2.76,1.51,2.76,3v2.71a10.18,10.18,0,0,0,.12,1.74Zm-.2-3.7c-1.44,0-3.07.22-3.07,1.63a1.16,1.16,0,0,0,1.24,1.26,1.81,1.81,0,0,0,1.76-1.21,1.6,1.6,0,0,0,.07-.42Z"/></svg>