<svg id="Layer_1" data-name="Layer 1" xmlns="http://www.w3.org/2000/svg" viewBox="0 0 481.89 481.89"><defs><style>.cls-1{fill:#f9d7ed;}.cls-2{fill:#fff;}.cls-3{fill:#2a1d75;}</style></defs><title>Optical_or_ocular_implant</title><path class="cls-1" d="M338.74,263.19c-.47-2.19-11.65-53.72-17.53-66.61-6-13.22-30.33-27.81-31.36-28.43a1.74,1.74,0,0,0-1.7-.05l-10,5.12C262.61,162,243.38,156,222.51,156c-36.88,0-68,20.1-82.84,49.91a68.36,68.36,0,0,0-4.25,9.39,67.52,67.52,0,0,0-3.37,13.33,91,91,0,0,0-1.58,17,92,92,0,0,0,183.29,12,58,58,0,0,1,9.13,10.56,1.74,1.74,0,0,0,1.46.78,2,2,0,0,0,.48-.06l12.68-3.6A1.74,1.74,0,0,0,338.74,263.19Z"/><path class="cls-2" d="M173.88,267.89a24.64,24.64,0,0,1-8.47-1.48c-8.63-3.14-14.94-10.9-17.78-21.84-2.77-10.71-1.89-23.24,2.5-35.3,9.13-25.11,30.85-40.36,48.41-34s24.41,32,15.28,57.14c-4.38,12.05-11.76,22.23-20.76,28.65C186.76,265.58,180.17,267.89,173.88,267.89Z"/><path class="cls-3" d="M345.17,257.47c-.47-2.19-11.65-53.72-17.53-66.61-6-13.22-30.33-27.81-31.36-28.43a1.74,1.74,0,0,0-1.7-.05l-10,5.12c-15.57-11.27-34.8-17.23-55.67-17.23-36.89,0-68.06,20.1-82.84,49.92a68.23,68.23,0,0,0-4.25,9.38,66.43,66.43,0,0,0-3.25,12.7,92,92,0,1,0,181.59,29.57,57.63,57.63,0,0,1,9.13,10.56,1.74,1.74,0,0,0,1.46.78,2,2,0,0,0,.48-.06l12.68-3.6A1.74,1.74,0,0,0,345.17,257.47Zm-20.72-65.16c4.28,9.37,11.75,41.18,15.3,56.92a47.76,47.76,0,0,0-26-18.94l-16.51-63.11C303.81,171.41,320,182.58,324.45,192.31Zm-29.53-26.17,16.87,64.44-9.44,5-2-7.87,6.72-3.78a1,1,0,0,0,.48-1.12l-13.49-51.15a1,1,0,0,0-.54-.65,1,1,0,0,0-.85,0l-5.92,2.76-.77-3.05ZM296,224.83h-6.36l-30.83-12.41a1.06,1.06,0,0,0-.5-.06l-34.26,4.41a68.46,68.46,0,0,0-1.4-23.12c-.37-1.53-.81-3-1.29-4.42L249,185.45a1,1,0,0,0,.48-.2L264,174.17l18.48-3.11,1.77,7-14.87,1.56a1,1,0,0,0-.44.15l-15,9.66-20.56,1.75a1.44,1.44,0,0,0-1.41-.77l-5.41.77a1.85,1.85,0,0,0,.51,3.58l5.41-.76a1.38,1.38,0,0,0,1-.82l20.86-1.77a1,1,0,0,0,.45-.16l15-9.67L284.73,180l.64,2.55-14.21,1.31a1.12,1.12,0,0,0-.46.17l-16,10.63L234,197.2a1.44,1.44,0,0,0-1.34-.66l-5.4.77a1.67,1.67,0,0,0-1.2,2,1.65,1.65,0,0,0,1.7,1.58l5.41-.76a1.39,1.39,0,0,0,1.08-.95L255,196.67l18.88,6h0l13.32,4.22a1,1,0,0,0,.3,0h4l1.21,4.82-36.49-11.36a.9.9,0,0,0-.43,0l-21.23,3a1.43,1.43,0,0,0-1.33-.64l-5.4.76a1.85,1.85,0,0,0,.5,3.59l5.41-.77a1.41,1.41,0,0,0,1.09-1l21-2.95L293.29,214l.62,2.46-37.09-10.87a.94.94,0,0,0-.44,0L234.78,209a1.3,1.3,0,0,0-.91-.24l-5.41.77a1.85,1.85,0,0,0,.5,3.58l5.41-.76a1.53,1.53,0,0,0,1.2-1.45l20.9-3.37,38,11.14Zm-151.11,43a30.62,30.62,0,0,0,15.33,12.72,28.63,28.63,0,0,0,9.84,1.72c7.66,0,15.73-2.92,23.49-8.59,11.06-8.1,20.17-20.88,25.66-36a87.6,87.6,0,0,0,4.61-18.89l13.59-1.75a97.78,97.78,0,0,1-5.71,26.46c-13.2,36.28-44.17,58.42-69.06,49.38a33.82,33.82,0,0,1-7.21-3.68A88.73,88.73,0,0,1,144.92,267.84Zm52-108.47a34.14,34.14,0,0,1,13.59,2c10.1,3.67,18.14,12.27,22.76,24.25l-12.59,1.72c-3.89-10.08-10.53-17.21-19.14-20.34a30.72,30.72,0,0,0-20.51.09A88.68,88.68,0,0,1,196.93,159.37Zm-47.55,42.11a51.5,51.5,0,0,1,14.76-17c5.54-4,11.27-6,16.7-6a20.51,20.51,0,0,1,7,1.23c7.31,2.65,12.69,9.36,15.16,18.9,2.53,9.76,1.7,21.26-2.34,32.36C192.46,253.66,173.29,267.6,158,262c-12.45-4.53-18.58-20.56-16-38.58A84.24,84.24,0,0,1,149.38,201.48Zm7.38,63.83a23.75,23.75,0,0,0,8.15,1.42c15.23,0,31.55-13.83,39.09-34.56,4.28-11.77,5.14-24,2.44-34.44-2.77-10.68-8.93-18.25-17.35-21.31-7.49-2.73-15.9-1.56-24,3.25q2.6-2.61,5.41-5c7.06-4.9,14.33-7.41,21.21-7.41a26.54,26.54,0,0,1,9.15,1.59c9.67,3.52,16.72,12.49,19.87,25.28s2,28.16-3.38,42.9-14.22,27.18-25,35-21.79,10.13-31.46,6.61c-8.79-3.2-15.42-10.92-18.91-21.91a86.63,86.63,0,0,1-1.23-8.59C143.87,256.37,149.33,262.61,156.76,265.31Zm108.46-93.38a92.15,92.15,0,0,0-23.39-17.34,88.29,88.29,0,0,1,39.22,14.68Zm9,28.71-7.59-2.4,22.63-.4.65,2.57Zm16.19,1.77.63,2.49h-3.33l-7.44-2.35Zm-29.77-6.06-3.22-1,1.65-1.1,29.05-.89.64,2.51Zm1.59-4.22,9.06-6,4.65,3.14a1,1,0,0,0,.56.17h.05l10.45-.54.62,2.48Zm14.56-4.74-2.62-1.76,11.74-1.09.59,2.36Zm22.72,32.77a1.89,1.89,0,0,0,1.81,1.42,1.92,1.92,0,1,0-1.25-3.34l-2.22-.65-.6-2.38,1.08.34a1.92,1.92,0,1,0,1.89-2.39,1.88,1.88,0,0,0-1.3.48l-2.24-.7-1.52-6h1.05a1.92,1.92,0,1,0,0-2h-1.56l-.64-2.54,1,0a1.92,1.92,0,1,0,1.66-2.94,1.89,1.89,0,0,0-1.68.94l-1.52,0-.66-2.58,1,0a1.94,1.94,0,0,0,1.59.89,1.92,1.92,0,1,0-1.61-2.89l-1.51,0-.64-2.56,1,0a1.89,1.89,0,0,0,1.57.87,1.92,1.92,0,1,0-1.62-2.87l-1.47.05-.65-2.55,1-.05a1.93,1.93,0,1,0-.09-2l-1.42.07-.64-2.5,1-.09a1.89,1.89,0,0,0,1.49.77,1.92,1.92,0,1,0-1.68-2.76l-1.34.12-.65-2.59,1-.11a1.88,1.88,0,0,0,1.48.75,1.92,1.92,0,1,0-1.69-2.74l-1.31.14-.49-2,5.18-2.41,13,49.24-5.58,3.13-1.47-5.85ZM236,154a90.34,90.34,0,0,1,26.88,18.45l-14.41,11-13.19,1.81c-4.79-12.76-13.33-21.93-24.11-25.85a35.48,35.48,0,0,0-8.59-2,93.44,93.44,0,0,1,26.33-3.73C231.33,153.77,233.69,153.86,236,154ZM158.27,293.15a34.08,34.08,0,0,0,3.72,1.63,35.53,35.53,0,0,0,12.26,2.14c23.06,0,47.87-21.11,59.35-52.7a99,99,0,0,0,5.86-27.41l18.88-2.43,30.2,12.15c.29,3,.45,6,.45,9a92.42,92.42,0,0,1-77.25,91.17A88.64,88.64,0,0,1,158.27,293.15Zm130.48,12a88.57,88.57,0,0,1-71.32,22.5A94.48,94.48,0,0,0,291,235.56c0-2.93-.15-5.85-.41-8.73h5.95l2.78,11a1.73,1.73,0,0,0,1.08,1.2,69.14,69.14,0,0,1,16.6,10A88.28,88.28,0,0,1,288.75,305.17Zm42.76-45.77c-9.11-13-21.94-20-27.35-22.51l8.9-4.73c16.5,4.66,24.93,17.24,28,23,.11.53.22,1,.31,1.41Z"/><path class="cls-3" d="M164,238.26c7.17,2.61,15.95-3.45,19.61-13.52s.82-20.35-6.34-23-16,3.45-19.61,13.52S156.81,235.65,164,238.26Z"/><path class="cls-3" d="M299,208.57a1.92,1.92,0,1,0,1.88,2A1.93,1.93,0,0,0,299,208.57Z"/></svg>