<svg id="Layer_1" data-name="Layer 1" xmlns="http://www.w3.org/2000/svg" viewBox="0 0 481.89 481.89"><defs><style>.cls-1{fill:#f9d7ed;}.cls-2{fill:#fff;}.cls-3{fill:#2a1d75;}</style></defs><title>Satellite_images</title><path class="cls-1" d="M257.87,271.48a2,2,0,0,0-.26-1.1l-9.75-16.85,2.47-39.22a2,2,0,0,0-.41-1.34l-6.67-8.53a19.92,19.92,0,0,0-.58-28.89,20.54,20.54,0,0,0-14-5.42,20.33,20.33,0,0,0-20.45,20.15,19.78,19.78,0,0,0,4.22,12.21l-7.73,10.11a2,2,0,0,0-.4,1.12l-1.5,39.67-10.4,16a1.94,1.94,0,0,0-.31.93l-3.28,46.46h0a17.34,17.34,0,0,0,4.75,13.07c5.88,6.53,16.3,10.49,28.6,10.85h1.09c19.2,0,31.19-12.11,31.75-24.09h0Z"/><path class="cls-2" d="M239.45,252.25a24.93,24.93,0,0,1-19.82,10.42c-9.52.2-17.7-4.1-21.22-10.33l-3.4,5.39c4.6,6.83,13.9,11.08,24.79,10.75,9.84-.29,18.14-4.87,22.77-11Z"/><path class="cls-1" d="M411.16,330.34l-10.49,39.49a1.59,1.59,0,0,1-2.36.95l-153.76-94a1.59,1.59,0,0,1-.75-1.54l2.69-38.07a1.6,1.6,0,0,1,2.38-1.2l161.55,92.63A1.58,1.58,0,0,1,411.16,330.34Z"/><path class="cls-1" d="M76.45,132.13v36.36a1.58,1.58,0,0,0,.77,1.36l116.49,69.52a1.58,1.58,0,0,0,2.4-1.26l2.12-34.93a1.57,1.57,0,0,0-.77-1.46L78.85,130.77A1.58,1.58,0,0,0,76.45,132.13Z"/><path class="cls-2" d="M228.73,185.48a7.76,7.76,0,0,1,2.52,5.72,8,8,0,1,1-7.95-7.83,8,8,0,0,1,5.43,2.11"/><path class="cls-3" d="M411.1,316l-162.37-93.1a3.34,3.34,0,0,0-5,2.6l-.91,12.9-1.75-1.13L242.84,209a1.71,1.71,0,0,0-.37-1.19l-6.82-8.73a19.81,19.81,0,0,0-.44-28.86,20.42,20.42,0,0,0-13.88-5.39,20.21,20.21,0,0,0-20.33,20,19.73,19.73,0,0,0,4.29,12.27l-7.86,10.29a1.82,1.82,0,0,0-.36,1l-.16,4.33L194,211l1-16.11a3.34,3.34,0,0,0-1.63-3.07L74.18,120.46a3.34,3.34,0,0,0-5.06,2.87v36.54a3.35,3.35,0,0,0,1.63,2.87l117.07,69.88a3.35,3.35,0,0,0,3.28.08,3.31,3.31,0,0,0,1.77-2.75l.58-9.42,3.09,2-1,25.84L185.07,264.5a1.71,1.71,0,0,0-.28.83L181.5,312h0a17.22,17.22,0,0,0,4.71,13c5.88,6.52,16.3,10.47,28.59,10.83h1.09c19.17,0,31.13-12.06,31.7-24h0l2.64-40.28,146.91,89.86a3.34,3.34,0,0,0,1.74.5,3.24,3.24,0,0,0,1.25-.25,3.31,3.31,0,0,0,2-2.24l10.54-39.69A3.34,3.34,0,0,0,411.1,316Zm-166.43-4.33v0l-.57,0c0,.31,0,.61-.07.92a32,32,0,0,1-7.13,6.9l2.67-43.57a26.36,26.36,0,0,0,7.27-5.91L244.1,311.6Zm-29.45-29.76-2.74,44.67a39.09,39.09,0,0,1-19.62-5.93l2.74-44.69A41,41,0,0,0,215.22,281.88Zm2,.06h.45l1.38,0A45.24,45.24,0,0,0,237.49,277l-2.69,43.85a39,39,0,0,1-19.13,5.73h-1.19Zm-16.78-70.08c4.39,4,11.45,6.49,19.19,6.49.36,0,.73,0,1.09,0,7.26-.21,14-2.54,18.42-6.25l-1.35,21.51a5.56,5.56,0,0,0-3.27-1.09A5.83,5.83,0,1,0,236,244l1.06.69-.23,4.13a1.5,1.5,0,0,0,0,.42A24.31,24.31,0,0,1,218.64,258c-8.33.19-15.87-3.19-19.68-8.67a2,2,0,0,0,.08-.42Zm33.68,23.24-.37,6.59a1.37,1.37,0,0,0,.05.4,3.8,3.8,0,0,1-3-3.76,3.77,3.77,0,0,1,3.48-3.81A1.27,1.27,0,0,0,234.12,235.1Zm7.82,15.63-1.58-2.34.09-1.52,1.69,1.1ZM218,260h.67a26.49,26.49,0,0,0,19.26-9l2.15,3.2c-4.93,5.8-12.78,9.37-21.29,9.63-9.7.3-18.43-3.21-23.19-9.2l2.25-3.47C202.07,256.67,209.65,260,218,260Zm27.68-12.76,11.84,7.06-1.8,16.47L244.51,264Zm13.72,8.19,32.07,19.14-2.41,16.6L257.61,272Zm32.38,17-32.14-19.19,2.07-18.93L294.6,253.2Zm4.67-18.2,33.46,19.19-3.58,19.63-32.69-19.51Zm-3.12,21.45L326,295.19l-3,16.72-32-19.57Zm34.45,20.57L364.07,318,360.5,334.9,324.74,313Zm.38-2.1,3.59-19.68,37,21.22-4.25,20.15ZM247.2,226l12.63,7.25-2.07,18.89L245.85,245Zm-4.9,19.67-6.53-4.28.28-5,2.12,1.37a0,0,0,0,1,0,0h0l4.44,2.87Zm-3.09-36.41c-4,4.16-10.92,6.83-18.55,7.06-8.49.25-16.16-2.57-20.11-7.26l7.18-9.39a20.44,20.44,0,0,0,25.21,1.58Zm-6.54-36c-.17.86-1.14,1.59-2.65,2a13.75,13.75,0,0,1-6.3,0c-4.82-1-7.77-3.66-7.4-5.42a1.94,1.94,0,0,1,.71-1,16.91,16.91,0,0,1,15.63,3.74A1.7,1.7,0,0,1,232.67,173.32Zm-18.35-3.5c-.35,3.09,3.5,6.33,9,7.48a18.5,18.5,0,0,0,3.71.39,13.46,13.46,0,0,0,3.52-.44,5.53,5.53,0,0,0,3.85-2.82,16.21,16.21,0,0,1,3.77,10.41,16.84,16.84,0,1,1-23.85-15ZM190.4,213l-10-6.11.93-18.23,10.19,6.09Zm-67.92-41.5L96.8,155.77v-17.7l25.68,15.36Zm2-16.84,26,15.56-.67,18-25.34-15.48Zm-2,19.18v15.74L96.8,174.22v-16.1Zm2,1.22,25.26,15.43-.57,15-24.69-14.74Zm27.21,16.63,26.64,16.28-.73,14.5-26.47-15.8Zm.09-2.29.67-18,26.92,16.1-.92,18.21Zm-57-52.5v17.68L72.62,141V123.6Zm-22.18,6.47L94.8,156.89V173L72.62,159.78ZM189.4,229.48l-9.86-5.88.74-14.47,10,6.1Zm4.18-11.22.31-5,2.93,1.8-.2,5.16Zm.89,38.17c5,5.92,13.64,9.46,23.23,9.46h1.16c8.87-.27,17.08-3.94,22.39-9.92l.29.43-.52,7.27a3.39,3.39,0,0,0,1.58,3.23l2.77,1.69c-4.59,5.86-16.49,11.06-26.38,11.35-13.07.38-24.94-5-30.75-13.7V266ZM185,312.27l3-42.95a29.58,29.58,0,0,0,5.66,5.32h0l-2.74,44.61a26.43,26.43,0,0,1-6-6.28c0-.23,0-.46,0-.7l-.48,0h0Zm29.9,20.05c-11.17-.33-20.91-3.95-26.07-9.68a14.93,14.93,0,0,1-3.3-5.73c6.44,7.27,17.11,11.69,28.82,11.69l1.39,0A40.19,40.19,0,0,0,243,316.83C239.75,325.36,229.62,332.67,214.89,332.32Zm183.9,26L362.31,336l3.58-17,37.4,22.33Zm5-19L366.33,317l4.25-20.19,38.67,22.17Z"/><path class="cls-3" d="M220.25,198a8.94,8.94,0,0,0,9-8.87,8.85,8.85,0,0,0-2.85-6.48,9.07,9.07,0,0,0-6.14-2.38,8.87,8.87,0,1,0,0,17.73Zm0-15.73a7,7,0,0,1,4.78,1.85h0a6.74,6.74,0,0,1,2.21,5,7,7,0,1,1-7-6.86Z"/><path class="cls-3" d="M220.77,228.84l-.06-2a26.88,26.88,0,0,1-14.09-3.3l-1,1.73a28.55,28.55,0,0,0,14.17,3.59Z"/><path class="cls-3" d="M220.77,234.06l-.06-2a27,27,0,0,1-14.09-3.31l-1,1.73a28.53,28.53,0,0,0,14.17,3.59Z"/><path class="cls-3" d="M220.77,239.29l-.06-2A27,27,0,0,1,206.62,234l-1,1.74a28.62,28.62,0,0,0,14.17,3.58Z"/><path class="cls-3" d="M220.77,244.51l-.06-2a26.93,26.93,0,0,1-14.09-3.31l-1,1.74a28.65,28.65,0,0,0,14.17,3.58Z"/><path class="cls-3" d="M220.77,249.73l-.06-2a26.84,26.84,0,0,1-14.09-3.31l-1,1.74a28.65,28.65,0,0,0,14.17,3.58Z"/></svg>