<svg id="Layer_1" data-name="Layer 1" xmlns="http://www.w3.org/2000/svg" viewBox="0 0 481.89 481.89"><defs><style>.cls-1{fill:#f9d7ed;}.cls-2{fill:#fff;}.cls-3{fill:#2a1d75;}</style></defs><title>Streetview</title><path class="cls-1" d="M275.74,297.4l-11-40.18a7.33,7.33,0,0,0-7.05-5.38H220.93a7.33,7.33,0,0,0-7.05,5.38l-11,40.18a3.79,3.79,0,0,0,2.36,4.53l3.53,1.26a3.76,3.76,0,0,0,4.72-2.08l6.6-15.67.9,50.9a1.75,1.75,0,0,0,1.75,1.72h12.45a1.75,1.75,0,0,0,1.74-1.62l2.38-31.06,2.38,31.06a1.75,1.75,0,0,0,1.74,1.62h12.45a1.75,1.75,0,0,0,1.75-1.72l.9-50.9,6.6,15.67a3.76,3.76,0,0,0,4.72,2.08l3.53-1.26A3.79,3.79,0,0,0,275.74,297.4Z"/><polygon class="cls-2" points="251.1 249.49 239.31 269.53 227.52 249.49 251.1 249.49"/><path class="cls-1" d="M324.82,169.91c-24.22-9.52-56.38-14.76-90.55-14.76s-66.34,5.24-90.55,14.76c-24.73,9.71-38.35,22.84-38.35,37,0,.71,0,1.42.1,2.13h-.1v74.13c0,20.22,28.06,38.12,73.22,46.72a1.84,1.84,0,0,0,.33,0,1.72,1.72,0,0,0,1.12-.41,1.74,1.74,0,0,0,.63-1.35l-.15-76.29a1.76,1.76,0,0,0-1.43-1.71,215,215,0,0,1-22.44-5.5,238.2,238.2,0,0,1,41.27-8.36v.05c4.17-.51,8.43-.93,12.73-1.27l1.38-.1c7.27-.53,14.71-.8,22.23-.8s15.18.28,22.53.82l1.7.13c7.5.59,14.81,1.47,21.88,2.62l0-.12a226.79,226.79,0,0,1,31.48,7A211.73,211.73,0,0,1,290.22,250a1.76,1.76,0,0,0-1.42,1.72l.11,76.24a1.74,1.74,0,0,0,2.08,1.71c44.52-8.67,72.18-26.49,72.18-46.51V206.86C363.17,192.75,349.55,179.62,324.82,169.91Z"/><path class="cls-2" d="M240.84,241.87a24,24,0,1,0-24-24A24.06,24.06,0,0,0,240.84,241.87Z"/><path class="cls-3" d="M266.37,251.36a7.33,7.33,0,0,0-7.05-5.38H222.57a7.33,7.33,0,0,0-7,5.38l-11,40.19a3.77,3.77,0,0,0,2.36,4.53l3.52,1.26a3.77,3.77,0,0,0,4.73-2.08l6.6-15.67.9,50.9a1.75,1.75,0,0,0,1.75,1.72h12.44a1.76,1.76,0,0,0,1.75-1.62l2.37-31.07,2.38,31.07a1.76,1.76,0,0,0,1.75,1.62h12.44a1.76,1.76,0,0,0,1.75-1.72l.9-50.9,6.6,15.67a3.77,3.77,0,0,0,4.73,2.08l3.52-1.26a3.77,3.77,0,0,0,2.36-4.53Zm-13.64-1.88-11.79,20-11.78-20Zm21.1,43.3L270.31,294a.26.26,0,0,1-.32-.14l-9.82-23.31a1.75,1.75,0,0,0-3.36.65l-1,57.47h-9.1l-2.38-31.08a3.37,3.37,0,0,0-6.73,0l-2.38,31.08h-9.1l-1-57.47a1.75,1.75,0,0,0-3.36-.65L211.9,293.9a.27.27,0,0,1-.32.14l-3.52-1.26a.26.26,0,0,1-.17-.31l11-40.18a3.84,3.84,0,0,1,3.68-2.81h4.27L240.08,272a1,1,0,0,0,1.73,0l13.24-22.52h4.27a3.84,3.84,0,0,1,3.68,2.81l11,40.18A.25.25,0,0,1,273.83,292.78Z"/><path class="cls-3" d="M331.5,164.44c-24.22-9.52-56.38-14.76-90.56-14.76s-66.33,5.24-90.55,14.76c-24.73,9.72-38.35,22.84-38.35,37,0,.71,0,1.41.11,2.12H112v74.13c0,20.22,28.06,38.12,73.23,46.72l.33,0a1.74,1.74,0,0,0,1.75-1.76l-.16-76.28a1.75,1.75,0,0,0-1.42-1.72,214.58,214.58,0,0,1-22.45-5.5c16.11-4.91,35.08-8.26,55.29-9.67a25.17,25.17,0,0,0,44.67,0c20.21,1.41,39.17,4.76,55.27,9.67a210.94,210.94,0,0,1-21.65,5.35,1.75,1.75,0,0,0-1.42,1.72l.11,76.24a1.75,1.75,0,0,0,.63,1.35,1.73,1.73,0,0,0,1.45.36c44.52-8.67,72.18-26.49,72.18-46.51V201.4C369.85,187.28,356.23,174.16,331.5,164.44Zm-216,49.13c6,10.25,19.58,19.4,38.94,26.35-19.54,7.08-33.36,16.52-38.94,27.13ZM183.7,247.8l.15,72.72c-41.58-8.28-68.31-25-68.31-42.87v-5.27c2.73-9.61,12.85-18.79,29.18-26.29,4-1.83,8.3-3.52,12.87-5.09A208.45,208.45,0,0,0,183.7,247.8Zm57.24-8.27a21.7,21.7,0,1,1,21.7-21.69A21.71,21.71,0,0,1,240.94,239.53Zm23.26-12a25,25,0,0,0,1.94-9.68,25.2,25.2,0,1,0-50.39,0,25,25,0,0,0,1.94,9.68c-21.85,1.58-41.52,5.29-57.77,10.54-27.61-9.1-44.38-22.53-44.38-36.66,0-12.58,12.83-24.55,36.13-33.71,23.82-9.35,55.52-14.51,89.27-14.51s65.46,5.16,89.28,14.51c23.3,9.16,36.13,21.13,36.13,33.71,0,14.1-16.79,27.56-44.4,36.66C305.71,232.81,286.05,229.1,264.2,227.52Zm102.15,39.53c-5.59-10.62-19.41-20.06-39-27.14,19.37-6.95,32.94-16.11,39-26.36Zm-67.27,53.26-.1-72.66A208.25,208.25,0,0,0,324.29,241c4.57,1.57,8.89,3.27,12.88,5.1,16.33,7.5,26.45,16.68,29.18,26.29v5.27C366.35,295.32,340,312,299.08,320.31Z"/></svg>