<svg id="Layer_1" data-name="Layer 1" xmlns="http://www.w3.org/2000/svg" viewBox="0 0 481.89 481.89"><defs><style>.cls-1{fill:#f9d7ed;}.cls-2{fill:#fff;}.cls-3{fill:#2a1d75;}</style></defs><title>Surveillance_camera</title><path class="cls-1" d="M288.33,219c-25.62-24.78-59.58-31.46-115.86,24.81-13,13-4.36,42.77,19.32,66.45s53.43,32.33,66.45,19.32C313.21,274.39,303.29,233.42,288.33,219Z"/><ellipse class="cls-2" cx="218.27" cy="271.28" rx="4.81" ry="8.93" transform="translate(-127.89 233.79) rotate(-45)"/><path class="cls-3" d="M219.45,266.6l-.12-.14-.16-.14c-3.75-3.65-8.33-4.81-10.52-2.63s-1,6.91,2.78,10.68c2.51,2.5,5.41,3.88,7.73,3.88a4,4,0,0,0,3-1.1c1.14-1.14,1.42-2.93.78-5A13.76,13.76,0,0,0,219.45,266.6Zm.18,3.91c.2.62.19,1.13,0,1.34a1.5,1.5,0,0,1-1.33,0,6.8,6.8,0,0,1-2.64-1.72,7,7,0,0,1-1.72-2.63c-.19-.62-.18-1.13,0-1.34a.79.79,0,0,1,.54-.15,2.7,2.7,0,0,1,.79.13,6.71,6.71,0,0,1,2.34,1.45l.3.28.12.12A6.85,6.85,0,0,1,219.63,270.51Zm1.07,5.23c-1.2,1.19-4.72.35-7.85-2.78s-4-6.66-2.78-7.85a2.11,2.11,0,0,1,1.55-.53,4.57,4.57,0,0,1,1,.13l-.08.06c-1.45,1.46-.72,4.38,1.7,6.8a8.77,8.77,0,0,0,3.45,2.21,4.8,4.8,0,0,0,1.39.23,2.64,2.64,0,0,0,2-.75.27.27,0,0,0,.07-.08A2.78,2.78,0,0,1,220.7,275.74Z"/><path class="cls-3" d="M209.61,252c-5.39-1.31-10-.41-12.94,2.55s-3.86,7.55-2.55,12.94a35.93,35.93,0,0,0,24.19,24.18,19.1,19.1,0,0,0,4.6.59,11.45,11.45,0,0,0,8.34-3.14c2.95-2.95,3.86-7.55,2.55-12.94A36,36,0,0,0,209.61,252Zm20.22,35.71c-2.44,2.44-6.37,3.16-11.05,2A34,34,0,0,1,196.06,267c-1.13-4.69-.42-8.62,2-11.06a9.51,9.51,0,0,1,6.93-2.55,17.71,17.71,0,0,1,4.12.53,33.94,33.94,0,0,1,22.71,22.72C233,281.35,232.27,285.28,229.83,287.72Z"/><path class="cls-3" d="M178,239.18c-10.29,10.29-3.26,34.06,15.66,53,13,13,28.31,20.4,40,20.4,5.29,0,9.82-1.52,13-4.74,5.07-5.07,6.18-13.43,3.11-23.54-3-9.89-9.67-20.35-18.76-29.44C212,235.91,188.28,228.89,178,239.18Zm67.23,67.23c-9.51,9.51-32,2.48-50.16-15.66s-25.16-40.64-15.65-50.16c2.88-2.87,6.94-4.24,11.72-4.24,11,0,25.78,7.25,38.43,19.9,8.87,8.87,15.35,19,18.26,28.61C250.66,294.23,249.73,301.88,245.21,306.41Z"/><path class="cls-3" d="M310.55,155.91H243.42a11.54,11.54,0,0,0-11.52,11.52v4.12a2.18,2.18,0,0,0,2.18,2.17H266.9V184.9a21.82,21.82,0,0,0-7.68,5.14,50.82,50.82,0,0,0-22.38-2.17c-20.78,2.52-43.82,16.68-70.45,43.3-13.67,13.68-5,44.6,19.32,68.92,16.51,16.51,36,25.8,51.18,25.8,7.17,0,13.35-2.08,17.74-6.48l-.53-.53h0l.53.53C289.92,284,297.14,256,297,238.68a52.92,52.92,0,0,0-3.2-18,17.8,17.8,0,0,0,4.34-12.5c-.36-5.67-3.62-11.12-9.69-16.2-.46-.38-.91-.75-1.37-1.11V173.72h32.83a2.17,2.17,0,0,0,2.17-2.17v-4.12A11.53,11.53,0,0,0,310.55,155.91ZM255.87,313.12c-1.21,1.27-2.44,2.53-3.71,3.82h0c-12.32,12.3-41,3.64-64-19.32s-31.63-51.66-19.32-64q1.86-1.86,3.69-3.63a24.4,24.4,0,0,1,11.7-2.69c14.28,0,33.1,9.1,49.11,25.11C254.26,273.33,263.37,299,255.87,313.12Zm3.58-3.84c4.06-15.41-5.32-38.91-24.67-58.26s-43-28.79-58.41-24.63c22.88-21.37,42.86-32.86,60.9-35,16.09-1.94,30.81,3.78,45,17.51,3.32,3.21,11.06,12.55,11.21,29.86C293.62,254.08,287.59,278.4,259.45,309.28Zm35.17-100.9a13.79,13.79,0,0,1-2.42,8.56,37,37,0,0,0-7.49-10.6c-7.1-6.87-14.34-11.81-21.83-14.92,7.89-6.9,14.64-4,23.3,3.23C291.49,199.09,294.33,203.71,294.62,208.38Zm-9.56-19.07c-5.08-3.73-10.44-6.22-16.16-5v-10.6h16.16Zm33.5-19.09H235.4v-2.79a8,8,0,0,1,8-8h67.13a8,8,0,0,1,8,8Z"/></svg>