<svg id="Layer_1" data-name="Layer 1" xmlns="http://www.w3.org/2000/svg" viewBox="0 0 481.89 481.89"><defs><style>.cls-1{fill:#f9d7ed;}.cls-2{fill:#fff;}.cls-3{fill:#2a1d75;}</style></defs><title>UGV</title><path class="cls-1" d="M370.77,223.23c-3.5-4.64-12.39-8.18-22.11-8.79-17.9-1.14-28.52,5.05-34.34,20.42l-5.43.13a5.89,5.89,0,0,0-5.56,4.38h-.1a53.9,53.9,0,0,0-9.87.08c-.17-3.55-.79-11.58-.82-12h0c-.11-1.51-2.1-2.48-4.75-2.32s-4.51,1.4-4.41,2.92l.31,4.85-6,.16,0-.57a1.26,1.26,0,0,0-.05-.33l-2.34-9.1-3.91-61a33.18,33.18,0,1,0-66.23,4.24l2.82,44.1h-.29c-7.87.22-24.07.68-35.19,26.1A45.59,45.59,0,0,0,157,233.06c-12-.43-21.91,2.88-29.35,9.86-8.81,8.24-13.72,21.33-14.21,37.84-1,33.63,12.06,49.84,42.35,52.59a35.18,35.18,0,0,0,5.29.09c9.56-.62,14.53-5.61,19-10.09,2.57-2.59,5-6.7,7-11.92l65.29,4.71h.24a1.71,1.71,0,0,0,.79-.28v0l7.42-4.38c1.2,8.83,3.45,15.72,6.84,21.06,5.86,9.24,15.36,13.93,29,14.34,2.42.07,4.63,0,6.67-.09,11.09-.71,16.88-4.46,23.89-11.61,4.32-4.22,7.92-12.47,10.22-22.88q1,.09,2.1.12c2.91.09,5.48.07,7.81-.08,9.35-.6,14.62-3.32,21.09-10l-.54-.52h0l-.72-.68,1.27,1.19c5.89-6.34,10.31-21.23,11.25-37.94C380.82,245.15,374.43,228.09,370.77,223.23Z"/><path class="cls-2" d="M237.11,294H237l-63.64-7.54a1,1,0,0,1-.88-1v-7a1,1,0,0,1,.33-.74,1,1,0,0,1,.78-.25l63.65,7.54a1,1,0,0,1,.88,1v7a1,1,0,0,1-.34.74A1,1,0,0,1,237.11,294Z"/><path class="cls-2" d="M355,298.6h-.27c-4.36-.41-5.73-10.28-4.83-19.82s4.09-19,8.45-18.57,5.73,10.29,4.83,19.82a46.56,46.56,0,0,1-2.94,13C358.68,296.68,356.88,298.6,355,298.6Z"/><path class="cls-2" d="M313.61,327.91h-.28c-2.14-.21-3.76-2.62-4.67-7a56.45,56.45,0,0,1,2.69-28.49c1.71-4.11,3.75-6.18,5.89-6s3.75,2.62,4.67,7a56.45,56.45,0,0,1-2.69,28.49C317.58,325.85,315.65,327.91,313.61,327.91Z"/><path class="cls-2" d="M239.58,165.42a7,7,0,1,1,7-7A7,7,0,0,1,239.58,165.42Z"/><path class="cls-3" d="M239.58,170.79a13.24,13.24,0,1,0-13.23-13.24A13.25,13.25,0,0,0,239.58,170.79Zm0-24.47a11.24,11.24,0,1,1-11.23,11.23A11.24,11.24,0,0,1,239.58,146.32Z"/><path class="cls-3" d="M241,162.62a7,7,0,1,0-7-7A7,7,0,0,0,241,162.62Zm3.15-4.53a1.57,1.57,0,1,1,1.57-1.56A1.57,1.57,0,0,1,244.16,158.09ZM241,150.55a5,5,0,0,1,4.4,2.64,3.7,3.7,0,0,0-1.25-.23,3.56,3.56,0,0,0-.78,7,4.89,4.89,0,0,1-2.37.62,5,5,0,1,1,0-10.07Z"/><path class="cls-3" d="M316.62,271.9c-2.52-.26-5,2.39-7.06,7.6a67.38,67.38,0,0,0-4,18.11c-1.22,12.85.49,26.79,6,27.31l.31,0c2.42,0,4.75-2.62,6.75-7.61a76.08,76.08,0,0,0,3.46-36.65C321.06,275.18,319.15,272.14,316.62,271.9Zm-9.05,25.89a48.23,48.23,0,0,1,3-13.48c1.51-3.64,3-4.81,3.85-4.76s2.09,1.54,2.9,5.39a48.37,48.37,0,0,1,.46,13.82C316.74,310.2,313.17,317,311,317h-.09C308.79,316.81,306.47,309.4,307.57,297.79Zm13.1,1.24a65.61,65.61,0,0,1-3.85,17.55c-1.94,4.85-3.83,6.44-5,6.35s-2.34-1.91-3.22-5.08a3.38,3.38,0,0,0,2.16,1.15H311c4.48,0,7.86-10.22,8.79-20.06a50.35,50.35,0,0,0-.49-14.42c-.92-4.36-2.53-6.77-4.67-7a3.32,3.32,0,0,0-2.36.72c1.63-3.32,3.17-4.47,4.14-4.39,1.16.11,2.74,2.05,3.75,7.18A65.94,65.94,0,0,1,320.67,299Z"/><path class="cls-3" d="M359.3,247.37c-5.18-.51-9.15,11.89-10.27,23.78s.47,24.8,5.64,25.28l.3,0c5,0,8.87-12.13,10-23.8C366.07,260.76,364.47,247.86,359.3,247.37Zm-8.42,25.77c0-.6.08-1.19.14-1.8,1-10.36,4.29-16.77,6.2-16.77h.08c1.89.17,4,7.14,3,17.64a44.63,44.63,0,0,1-2.8,12.42c-1.34,3.22-2.66,4.34-3.41,4.34h-.07c-.74-.07-1.87-1.4-2.61-4.92A42.15,42.15,0,0,1,350.88,273.14Zm12.07-.67c-1.3,13.77-5.48,22-8,22h-.1c-1-.09-2.05-1.64-2.84-4.36a3.13,3.13,0,0,0,1.84.89l.27,0c1.91,0,3.72-1.92,5.25-5.58a46.92,46.92,0,0,0,2.94-13c.9-9.54-.47-19.41-4.83-19.83a3.09,3.09,0,0,0-2,.5c1.23-2.42,2.49-3.72,3.48-3.72h.11C361.61,249.6,364.27,258.5,363,272.47Z"/><path class="cls-3" d="M368.05,231.59c-3.19-4.86-11.84-9-21.5-10.19-17.79-2.28-28.79,3.21-35.57,18.18l-5.43-.21a5.91,5.91,0,0,0-5.83,4l-.1,0a53.34,53.34,0,0,0-9.85-.55c.06-3.56,0-11.61-.06-12h0c0-1.52-1.93-2.62-4.58-2.62s-4.59,1.11-4.59,2.63v4.86l-6-.22v-.57a1.84,1.84,0,0,0,0-.33l-1.75-9.24V164.23a33.19,33.19,0,0,0-66.37,0v44.19h-.3c-7.87-.28-24.06-.85-36.78,23.8a45.48,45.48,0,0,0-15.22-4.47c-12-1.21-22,1.47-29.93,8-9.31,7.66-15,20.41-16.6,36.86-3.14,33.49,8.85,50.51,38.9,55.18a33.75,33.75,0,0,0,5.28.43c9.58,0,14.86-4.66,19.6-8.85,2.74-2.42,5.39-6.37,7.72-11.45l64.85,8.87h.24a1.75,1.75,0,0,0,.81-.22v0l7.69-3.9c.63,8.89,2.43,15.91,5.47,21.45,5.26,9.6,14.44,14.89,28.06,16.16,2.42.23,4.63.34,6.66.34,11.13,0,17.14-3.37,24.6-10.07,4.58-3.94,8.69-11.93,11.65-22.16.69.1,1.38.18,2.09.25,2.9.27,5.47.42,7.8.42,9.36,0,14.8-2.39,21.68-8.65l-.5-.56h0l.52.55c6.28-6,11.64-20.53,13.65-37.14C376.68,254.1,371.4,236.67,368.05,231.59Zm-65.44,10.86a3.91,3.91,0,0,1,2.86-1.09l4.66.19c-.51,1.26-1,2.58-1.46,4a55,55,0,0,0-6.94-1.79A3.92,3.92,0,0,1,302.61,242.45Zm-17.48-12.26a4.2,4.2,0,0,1,2.52.63,5.45,5.45,0,0,1-5,0A4.22,4.22,0,0,1,285.13,230.19Zm-3.63,7.53h0a1,1,0,0,0,1-1V233a7.44,7.44,0,0,0,2.59.42,7.6,7.6,0,0,0,2.61-.42c0,3.18.07,7.73,0,9.93a38.1,38.1,0,0,0-5.25.82,1,1,0,0,0-.94-.87l-7-.26v-5.18Zm-27,42.35-91.07-10.24,41.16-19.39v4.38c0,6,12,12.15,35,12.15a92.29,92.29,0,0,0,19.31-1.91A72.33,72.33,0,0,0,254.52,280.07Zm-94.37,17c-2.18-1.48-3.65-4.84-4.22-9.4l4.44.54C160.3,291,160.22,294.25,160.15,297Zm-2.3-28.43c2.39-7.41,6.24-10.39,9.53-9.88a5.84,5.84,0,0,1,4.19,3.41Zm50.26-33.55,1.42-7.48c7.29,3.59,28.95,3.64,30.05,3.64s22.76-.05,30-3.64l1.42,7.48v1.19c-2.92,2.77-14.36,5.84-31.47,5.84S211,239,208.11,236.24Zm61.17-9.45c-2.73,1.55-12.87,3.61-29.7,3.61s-27-2.06-29.69-3.61c0,0,0-.07,0-.11V214.71c4.54,3.58,14.64,6.46,29.68,6.46s25.14-2.88,29.69-6.46v10.78S269.28,225.56,269.28,225.6ZM260.81,261a84.28,84.28,0,0,1-21.23,2.47c-19.5,0-31.47-5-31.47-8.65V238.67c5.59,3.54,18.83,5.41,31.47,5.41s25.89-1.87,31.47-5.41v10.21c-.38.28-.76.56-1.13.85A35.8,35.8,0,0,0,260.81,261Zm13.74-16.36,4.37.16a31,31,0,0,0-4.37,1.9ZM259.38,142.13V191c0,10.61-8.88,19.25-19.8,19.25s-19.79-8.64-19.79-19.25v-48.9a29.64,29.64,0,0,1,39.59,0Zm-41.59,2V191c0,11.72,9.77,21.25,21.79,21.25s21.8-9.53,21.8-21.25V144.1a29.6,29.6,0,0,1,7.89,20.13V212c-2.93,3.66-14.31,7.13-29.69,7.13S212.83,215.7,209.9,212V164.23A29.56,29.56,0,0,1,217.79,144.1ZM206,211.91l.43,0v13.39l-1.76,9.24a1.84,1.84,0,0,0,0,.33v11.68l-18.18,8.56c-1.15-7.67-3.48-13.42-6.63-16.31l-.08-.06a52.61,52.61,0,0,0-7.3-4.93C184.12,211.13,198.28,211.63,206,211.91ZM147,324.28c-28.17-4.38-38.92-19.75-35.95-51.39,1.45-15.51,6.76-27.43,15.34-34.49,7.13-5.87,16.33-8.28,27.35-7.18A45.54,45.54,0,0,1,172,237.64c-9.06,2.48-20.49,18.86-23.24,39.07-3,22.12,5.35,42.61,14.47,44.61C159.29,323.89,154.5,325.45,147,324.28Zm22-7.58c-1,.89-2,1.78-3,2.61a4.9,4.9,0,0,1-1.93.14c-7.37-1-16.41-19.7-13.31-42.47a63.49,63.49,0,0,1,10.55-27.73c4.56-6.42,9.63-10.18,13.33-9.92,1,.7,2,1.41,2.84,2.1,2.65,2.46,4.68,8,5.65,15.26l-9.76,4.6a7.8,7.8,0,0,0-5.68-4.55c-6.28-1-11.51,6.2-13.36,18.25-1.9,12.32.47,21.86,5.77,24.26-.06,2.33-.11,4-.14,4.32a1.75,1.75,0,0,0,1.51,1.89l14,1.91A29.87,29.87,0,0,1,169,316.7Zm73.37-16.86V313l-78.9-10.79c.13-4.11.36-14.18.4-15.54a1.76,1.76,0,0,0-1.54-1.78l-6.69-.81a50.21,50.21,0,0,1,.62-8.79c.14-1,.31-1.85.5-2.71l.12,0,97,10.92c-.4,2.63-.73,5.37-1,8.24q-.31,3.87-.45,7.42l-8.14-1.09a1.76,1.76,0,0,0-2,1.74Zm3.5,12.31V301.83l6.51.87q0,3.19,0,6.12Zm40.62,34.63c-24.64-2.31-33.07-17.65-30.06-54.72,1.56-19.25,6.82-32.56,15.64-39.59,5.17-4.12,11.74-6.2,19.59-6.2a52.41,52.41,0,0,1,7.42.56,54.37,54.37,0,0,1,18.94,6.64c-3.55,1.24-7.1,5.23-10.27,11.66-3.94,8-6.89,18.88-8.32,30.66s-1.16,23,.76,31.76,5.22,13.77,9.43,14.75C303.71,346.36,297.61,347.81,286.53,346.78Zm29.14-9.34h0c-.18.15-.35.31-.52.47l-.47.38,0,0c-.82.73-1.62,1.4-2.41,2a4.68,4.68,0,0,1-1.7.11c-3.58-.44-6.64-5.29-8.41-13.33-1.87-8.49-2.12-19.53-.72-31.09s4.29-22.22,8.13-30c3.53-7.17,7.55-11.12,11.05-10.94,1,.7,2,1.39,2.78,2l0,0c4.94,4.51,8.54,20.42,5.89,42.28C327.27,316.41,321.74,331.67,315.67,337.44Zm15.86-22.31c-.51,0-1-.11-1.5-.18a123.71,123.71,0,0,0,2.78-15.12c2.51-20.77-.41-39.43-7.12-45.38l-.14-.12A52.82,52.82,0,0,0,312,246.69c5.94-17.81,15.92-24.15,34.15-21.82a37.58,37.58,0,0,1,15.39,5.24c-8.59,1.7-15.82,20.52-18.1,39.36-2.36,19.46.41,40.18,9,42.86C347,315.49,341.42,316.06,331.53,315.13Zm39.36-42.33c-1.89,15.6-6.95,29.67-12.58,35-1.14,1-2.23,1.94-3.3,2.74a4.12,4.12,0,0,1-1.26,0c-6.34-.77-11.21-17.38-8.36-40.89C348.16,246.78,356.51,232,362.8,232a3.59,3.59,0,0,1,.47,0,4.08,4.08,0,0,1,.77.17,10,10,0,0,1,1.09,1.33C367.41,237,373.24,253.36,370.89,272.8Z"/><path class="cls-3" d="M238.85,283.55,175.21,276a1,1,0,0,0-.79.25,1,1,0,0,0-.33.74v7a1,1,0,0,0,.88,1l63.64,7.54h.12a1,1,0,0,0,1-1v-7A1,1,0,0,0,238.85,283.55Zm-1.12,6.84-61.64-7.3v-5l61.64,7.3Z"/><path class="cls-3" d="M209.32,291.5a5.29,5.29,0,1,0,5,5.28A5.17,5.17,0,0,0,209.32,291.5Zm0,8.57a3.29,3.29,0,1,1,3-3.29A3.17,3.17,0,0,1,209.32,300.07Z"/><path class="cls-3" d="M183.28,299.53a4,4,0,1,0-3.85-4A3.94,3.94,0,0,0,183.28,299.53Zm0-6a2,2,0,1,1-1.85,2A1.93,1.93,0,0,1,183.28,293.5Z"/><path class="cls-3" d="M246.84,293.77a4.17,4.17,0,1,0-4-4.17A4.08,4.08,0,0,0,246.84,293.77Zm0-6.33a2.17,2.17,0,1,1-2,2.16A2.08,2.08,0,0,1,246.84,287.44Z"/><path class="cls-3" d="M165.65,274.65a4.17,4.17,0,1,0,4,4.17A4.08,4.08,0,0,0,165.65,274.65Zm0,6.33a2.17,2.17,0,1,1,2-2.16A2.08,2.08,0,0,1,165.65,281Z"/><path class="cls-3" d="M189.18,289l-11.58-1.36a1,1,0,0,0-.78.24,1,1,0,0,0-.33.75v12.29a1,1,0,0,0,.86,1l11.58,1.58h.14a1,1,0,0,0,.65-.25,1,1,0,0,0,.35-.75V289.94A1,1,0,0,0,189.18,289Zm-1.11,12.35L178.49,300V289.71l9.58,1.12Z"/></svg>