<svg id="Layer_1" data-name="Layer 1" xmlns="http://www.w3.org/2000/svg" viewBox="0 0 481.89 481.89"><defs><style>.cls-1{fill:#f9d7ed;}.cls-2{fill:#fff;}.cls-3{fill:#2a1d75;}</style></defs><title>Virtual_reality</title><path class="cls-1" d="M319,266.52a2.12,2.12,0,0,1,1.24-1l.4-.11c1-.2,9-2,10.53-10l3.34-11.89a16.83,16.83,0,0,0-.76-11.31,2.22,2.22,0,0,1-.14-1.32,82.72,82.72,0,0,0,1.1-26.93c-2.63-20.36-13.43-35.62-31.23-44.13-23-11-39.43-8.76-45.4-7.32a2.17,2.17,0,0,1-1.9-.44c-4-3.38-7.06-6-8-6.78h0c-.17-.16-.32-.34-.49-.49a10.49,10.49,0,0,0-9.53-2.39l-82.53,20.28a19.24,19.24,0,0,0-14.08,14l-10.18,39.67a10.51,10.51,0,0,0,2.49,9.73,10.69,10.69,0,0,0,3.89,2.63h0l54.19,26.13a2.21,2.21,0,0,1,.81.74c1.41,2,4.46,3.06,6.21,3.5a1.55,1.55,0,0,0,.07.23,56.87,56.87,0,0,1,2.6,9.6c0,.33.11.71.22,1.29a34.18,34.18,0,0,1,.49,12c-1.07,8.29,5.33,15.73,10.4,17.41a27.32,27.32,0,0,0,6.77,1.43c2.2.21,3.78.37,8.57,3,7.49,4.18,9.83,16.64,10,23.34.15,5,2.18,13,3.14,16.55a2.14,2.14,0,0,0,2.32,1.58c31.68-10.57,60.39-13,85.54-11.3,2.89.35,2.91-1.76,1.45-2.37-4.15-1.72-14.51-6.78-17.24-19.88-1.2-5.77-1.33-17.67-.63-24.46A64.79,64.79,0,0,1,319,266.52Z"/><path class="cls-2" d="M150.32,223.52a10.51,10.51,0,0,1-10.23-12.83l9.21-39.91A19.21,19.21,0,0,1,163,156.46l82-22.29a10.52,10.52,0,0,1,13.2,11.29l-4.67,41.82A22,22,0,0,1,236,206.53l-83.56,16.78A10.66,10.66,0,0,1,150.32,223.52Z"/><path class="cls-3" d="M235.7,250c-3.59-2.49-6.69-4.65-14.36-4.65-5.77,0-10.22,7.22-11,9.26a1.92,1.92,0,0,0,.06,1.45,9.39,9.39,0,0,0,8.37,5.33h.42c6.39,0,23.47-4.94,24.21-5.16a1,1,0,0,0,.72-.91,1,1,0,0,0-.64-1A33.5,33.5,0,0,1,235.7,250Zm-14.36-2.65c7,0,9.77,1.9,13.21,4.3l1.63,1.11c-11.26-2.58-19.27-.65-22.94.68C214.79,251,217.87,247.37,221.34,247.37Zm-2.45,12.05a7.41,7.41,0,0,1-6.28-3.55c2.48-1.08,11.95-4.45,26.1-.37C233,257,222.9,259.55,218.89,259.42Z"/><path class="cls-3" d="M325.47,260.32a9.08,9.08,0,0,1,1.24-.46c1-.22,8.94-2.18,10.28-10.2l3.05-12a16.94,16.94,0,0,0-1.34-11.92,82.13,82.13,0,0,0,.58-27.63c-3.12-20.29-14.29-35.28-32.3-43.35-24.77-11.11-41.78-7.4-46.61-5.92-4.47-3.62-8-6.44-9-7.28h0a5.78,5.78,0,0,0-.5-.49,10.49,10.49,0,0,0-9.58-2.15l-82,22.28a19.22,19.22,0,0,0-13.74,14.33l-9.21,39.9a10.5,10.5,0,0,0,6.68,12.2h0l55.33,25.05c1.29,2.33,4.7,3.4,6.6,3.83,0,.07,0,.15.07.23a56.13,56.13,0,0,1,2.84,9.53,10.65,10.65,0,0,0,.25,1.28,34.56,34.56,0,0,1,.78,11.94c-.87,8.32,5.71,15.6,10.82,17.16a27.08,27.08,0,0,0,6.81,1.26c2.19.16,3.78.28,8.63,2.83,7.59,4,10.24,16.4,10.6,23.09.35,6.43,3.92,17.76,4.08,18.24l3.33-1.05c0-.12-3.59-11.4-3.91-17.38-.12-2.05-1.42-20.18-12.47-26l-.6-.32c3.1.26,6,.4,8.63.4,19.12,0,28.54-6.8,49.05-21.61l-1.17-1.62c-27.06,19.54-34.45,24.86-71.72,18.87l-.24-.07c-3.21-1-9.07-6.61-8.36-13.44a37.63,37.63,0,0,0-.85-13.09c-.09-.39-.16-.67-.18-.85a57.68,57.68,0,0,0-3.1-10.56c-.74-1.72.69-6.57,1.92-9.41,2.28-4.86,1.77-7.31,1-9.41a4.76,4.76,0,0,1-.22-.79,4.56,4.56,0,0,1,.5-3.44c.7-.9,2.05-1.47,4-1.69,5.9-.67,13.24.42,16.77.94l.62.09c10.67,2.55,36.45,7.48,46.48,7.48h.32c11-.13,19-3.2,25.25-9.67a15.43,15.43,0,0,0,2.6-3.84,106.34,106.34,0,0,1,9.88,8,16.91,16.91,0,0,0-5.27,3.56l2.47,2.47a13.46,13.46,0,0,1,5.63-3.35c.91.88,1.83,1.8,2.74,2.75a6.55,6.55,0,0,0-1.53.2,8.31,8.31,0,0,0-4.89,4.23,1.06,1.06,0,0,0,0,.8,1,1,0,0,0,.57.56,3.44,3.44,0,0,1,1.8,1.89c.39,1.18,0,2.69-1.08,4.47s-2.11,2.54-3.2,2.62a3.56,3.56,0,0,1-2.65-1.25l-1.53,1.29a5.77,5.77,0,0,0,4,2h.31c1.77-.13,3.38-1.33,4.77-3.56s1.87-4.41,1.27-6.19a5.21,5.21,0,0,0-1.95-2.53,5.78,5.78,0,0,1,3.11-2.36,5.18,5.18,0,0,1,3.36.39,114.62,114.62,0,0,1,7.67,9.51c-1.87,4.28-6.77,5.32-7,5.36l-.15,0c-4.78,1.38-7.63,4.9-9.16,6.79l-.37.46c-1.44,1.75-3.82,3.37-6.92,1.2s-1.16-5.49-.94-5.88l-1.52-.86-1.52-.87c-1.29,2.25-2.54,7.34,2,10.49a8.44,8.44,0,0,0,4.88,1.66A8.92,8.92,0,0,0,319,266l.4-.49.15-.18a71.28,71.28,0,0,0-3.72,16.62c-.55,7.07-.15,19.28,1.3,25.51,4.33,18.52,21.46,22.46,22.19,22.62l.75-3.42c-.64-.14-15.71-3.67-19.53-20-1.34-5.74-1.75-17.64-1.22-24.44C319.75,276.06,322.18,266.35,325.47,260.32Zm-53-109.72c7.17-.17,18.7.93,33,7.36,17.08,7.66,27.25,21.31,30.25,40.58a80.27,80.27,0,0,1,.05,23.07,121.48,121.48,0,0,0-25.31-24,47.62,47.62,0,0,0-1.88-8.27c-3.77-11.29-15.09-14.73-19.61-15.46-.31-.48-.62-.94-.94-1.37-1.68-2.26-14.29-12.71-24.35-20.9A48.32,48.32,0,0,1,272.52,150.6Zm20.06,37.23a29.26,29.26,0,0,0-2.3-11.68c4.46,1.08,13.34,4.38,16.48,13.81a43.52,43.52,0,0,1,1.51,6.1A79.93,79.93,0,0,0,292.58,187.83Zm-38.11-39.25,3.27,2.64-4.65,45.31c-1.29,12.6-13.11,16.4-21.89,18.17l-74.71,15.24-5.28-2.39,80.95-16.25a22,22,0,0,0,17.61-19.25l4.67-41.83A10,10,0,0,0,254.47,148.58ZM139.69,216.23l9.22-39.9a15.73,15.73,0,0,1,11.24-11.73l82-22.28a7.09,7.09,0,0,1,1.87-.26,7,7,0,0,1,6.93,7.78l-4.67,41.83a18.53,18.53,0,0,1-14.82,16.2l-83.56,16.78a7,7,0,0,1-8.22-8.42Zm67.22,28.31c-.49,1.13-2.51,6-2.41,9.82-1.82-.52-4.1-1.49-4.61-3-.37-1,.2-2.38,1.68-4a34.28,34.28,0,0,0,6.33-9.56C208.31,239.11,208.71,240.7,206.91,244.54Zm8.14-17.37c-3,.33-5.1,1.35-6.4,3a6.5,6.5,0,0,0-1.31,3.5,32.73,32.73,0,0,1-7.23,12.38,9.76,9.76,0,0,0-1.89,2.75L159.6,231.35l72-14.69c9.4-1.89,22.05-6,23.48-19.93l4.51-44c11.85,9.61,24.31,20,25.71,21.86,1.91,2.57,6.37,8.59,1.74,32.53-1.82,9.44-7.1,20.7-21.9,20.72h-.68c-2.35.13-28,.79-30.38.47l-1.35-.2C229.06,227.58,221.4,226.45,215.05,227.17Zm88.4.93c-5.85,6.06-13.42,8.94-23.83,9.06h-.3c-7.37,0-24.06-2.85-36.23-5.31,8.85-.12,20.68-.46,21.57-.51h.48c11.09,0,19.16-5.76,23.27-16.33a88.49,88.49,0,0,1,17.42,9.47A13.52,13.52,0,0,1,303.45,228.1Zm-13.92-16.42c.36-1.25.69-2.54,1-3.9a108.91,108.91,0,0,0,2.06-16.19c6.22,2.56,24.45,11.47,41.62,33.51a13.51,13.51,0,0,1,2.49,11.71l-2.54,9.94C316.09,223,295.42,213.91,289.53,211.68Z"/></svg>