<svg id="Layer_1" data-name="Layer 1" xmlns="http://www.w3.org/2000/svg" viewBox="0 0 481.89 481.89"><defs><style>.cls-1{fill:#f9d7ed;}.cls-2{fill:#fff;}.cls-3{fill:#2a1d75;}</style></defs><title>Webcams</title><path class="cls-1" d="M266.5,262.92a63.5,63.5,0,0,0,32.18-55.06,62.65,62.65,0,0,0-6-26.86c.53-3.14,3-19.69-.59-35.4-2.83-12.32-6.87-19-9-21.87-4.09-5.44-9.31-3.09-14.75,0-10.83,6.22-23.34,18.16-26.21,21a65.41,65.41,0,0,0-7.71-.47c-2,0-3.92.1-5.84.27a96.66,96.66,0,0,0-20.37-17.26c-9.73-5.9-16.73-5.55-20.8,1-2.18,3.51-5.15,10.07-6.93,21.33-1.52,9.62-.8,21.92-.62,24.63a62.74,62.74,0,0,0-9.75,33.63,63.53,63.53,0,0,0,32.17,55.06L178,339a1.68,1.68,0,0,0-.08.54c0,21,30.64,25.41,56.34,25.41,21,0,56.34-3.3,56.34-25.41a1.89,1.89,0,0,0-.08-.53Z"/><path class="cls-2" d="M220.06,342.69a9.28,9.28,0,0,1-1.06-.06,9.09,9.09,0,0,1-6.42-4,11.44,11.44,0,0,1-1.82-7.9c.73-5.93,5.61-10.21,10.89-9.57s9,6,8.24,11.93h0C229.21,338.59,224.91,342.69,220.06,342.69Z"/><path class="cls-2" d="M216.07,205.2a6.75,6.75,0,0,1-1.78-.24,6.67,6.67,0,0,1-4.11-3.36,7.48,7.48,0,0,1,2.74-9.77,6.63,6.63,0,0,1,5.26-.74,7,7,0,0,1,4.65,8.78,7.33,7.33,0,0,1-3.28,4.35A6.74,6.74,0,0,1,216.07,205.2Z"/><path class="cls-3" d="M217.83,178.92c.21,0,.43,0,.64,0a6.06,6.06,0,0,0,3.65-1.92c2.1-2.25,2.21-5.57.25-7.39a4.52,4.52,0,0,0-3.71-1.14,6.23,6.23,0,0,0-5.3,5.69,4.54,4.54,0,0,0,1.4,3.62A4.43,4.43,0,0,0,217.83,178.92Zm1.12-2.2a2.73,2.73,0,0,1,.7-1.61,2.69,2.69,0,0,1,1.86-.87,4.36,4.36,0,0,1-.85,1.36A4.11,4.11,0,0,1,219,176.72Zm-2.47-5a4,4,0,0,1,2.42-1.29l.39,0A2.47,2.47,0,0,1,221,171a2.4,2.4,0,0,1,.68,1.21,4.73,4.73,0,0,0-4.76,4.52,2.45,2.45,0,0,1-.81-.48,2.59,2.59,0,0,1-.76-2.06A4,4,0,0,1,216.48,171.71Z"/><path class="cls-3" d="M211.9,202.12a6.38,6.38,0,0,0,1.78.25,6.75,6.75,0,0,0,3.48-1,7.46,7.46,0,0,0,2.74-9.76,6.62,6.62,0,0,0-9.37-2.63,7.45,7.45,0,0,0-2.74,9.77A6.64,6.64,0,0,0,211.9,202.12Zm-2.42-8.84a3.11,3.11,0,0,1,1.38-1.84,2.79,2.79,0,0,1,1.41-.4,2.42,2.42,0,0,1,.7.1,2.89,2.89,0,0,1,1.86,3.64,3.14,3.14,0,0,1-1.38,1.84,2.63,2.63,0,0,1-3.74-1.05A3.07,3.07,0,0,1,209.48,193.28Zm8.64-.73a5.47,5.47,0,0,1-2,7.12,4.59,4.59,0,0,1-6.11-1.13,5.4,5.4,0,0,0,.79.31,4.81,4.81,0,0,0,1.24.17,4.64,4.64,0,0,0,2.43-.69,5.13,5.13,0,0,0,2.28-3,5,5,0,0,0-1.46-5.12A4.68,4.68,0,0,1,218.12,192.55Z"/><path class="cls-3" d="M211.14,209.25a10.41,10.41,0,0,0,2.87.4,11.49,11.49,0,0,0,6.26-1.92,14.11,14.11,0,0,0,5.8-8.07c2-7-1.52-14.2-7.78-15.95s-13,2.55-14.93,9.59a14,14,0,0,0,.77,9.91A11.06,11.06,0,0,0,211.14,209.25Zm-5.85-15.41c1.42-5.1,5.7-8.52,10.15-8.52a8.36,8.36,0,0,1,2.31.32c5.2,1.45,8.07,7.5,6.39,13.48a12.1,12.1,0,0,1-5,6.93,8.9,8.9,0,0,1-13.25-3.71A12.08,12.08,0,0,1,205.29,193.84Z"/><path class="cls-3" d="M273.09,261.18a63.54,63.54,0,0,0,32.17-55.07,62.71,62.71,0,0,0-6-26.86c.52-3.14,3-19.69-.6-35.39-2.82-12.33-6.86-19-9-21.87-4.09-5.45-9.31-3.1-14.74,0-10.83,6.22-23.34,18.16-26.21,21a65.45,65.45,0,0,0-7.72-.47c-2,0-3.91.1-5.84.27a96.08,96.08,0,0,0-20.37-17.26c-9.73-5.9-16.73-5.56-20.79,1-2.18,3.52-5.15,10.08-6.94,21.34-1.52,9.62-.8,21.92-.61,24.63a62.62,62.62,0,0,0-9.76,33.62,63.51,63.51,0,0,0,32.17,55.06l-24.21,76.05a1.89,1.89,0,0,0-.08.53c0,21,30.64,25.42,56.34,25.42,21,0,56.34-3.3,56.34-25.42a1.59,1.59,0,0,0-.08-.53Zm3.52-136.13c6.48-3.72,8.31-3.49,10.2-1s5.73,8.85,8.41,20.55c2.52,11,1.87,22.75,1.18,29.3-1.11-1.85-2.29-3.64-3.57-5.36.37-9.33-1.71-23.14-5.05-33.08-1.4-4.15-3-6.43-5.14-7.19-2.71-1-5.49.74-8.69,2.74l-1.1.68c-4.8,2.93-13.44,10.08-16.48,12.63-1.1-.27-2.22-.51-3.34-.72C257.65,139.28,267.87,130.07,276.61,125.05ZM258.74,145c3.63-3,11-9,15.15-11.56l1.11-.68c2.77-1.72,5.16-3.2,7-2.56,1.46.53,2.74,2.47,3.91,5.95a104.33,104.33,0,0,1,5,29.91A64.62,64.62,0,0,0,258.74,145Zm43,61.12c0,33.15-27.28,60.12-60.82,60.12a60.94,60.94,0,0,1-43-17.63,35.33,35.33,0,0,0,12.42,4.45,36.65,36.65,0,0,0,5.72.45c9.6,0,19.07-3.82,27.16-11.05,9.65-8.62,16.19-21.07,18.42-35.06,4.5-28.16-11.53-54.21-35.74-58.08a26.61,26.61,0,0,0-3.88-.33,61,61,0,0,1,18.87-3C274.48,146,301.76,173,301.76,206.11ZM212.91,128.5a92.22,92.22,0,0,1,17.91,14.79c-1.25.2-2.47.44-3.69.7-2.19-2.8-7.91-9.89-11.58-12.52l-1-.75c-3.48-2.53-8.12-5.91-13-5.83C203.9,124.49,207.47,125.2,212.91,128.5Zm-22.45,19.9c1.67-10.52,4.36-16.6,6.36-19.88,5.73-4,11.66.28,16.52,3.82l1,.76c3.15,2.25,8.14,8.3,10.59,11.38a64.56,64.56,0,0,0-35.31,23.3A109.83,109.83,0,0,1,190.46,148.4ZM215,151.76a27.17,27.17,0,0,1,10.63-.48C248.75,155,264,180,259.72,207.07c-2.16,13.54-8.48,25.57-17.78,33.89s-20.34,11.86-31.24,10.11a33.77,33.77,0,0,1-19.45-10.37,59.33,59.33,0,0,1-11.12-34.59A60.14,60.14,0,0,1,215,151.76Zm-3.06,111.1a64.66,64.66,0,0,0,58,0L293.69,338v.07c-4.08,5.06-24.64,10-52.84,10s-48.76-5-52.83-10a.13.13,0,0,1,0-.06Zm28.91,96.81c-31.8,0-49.79-6.42-52.48-18.6,3.33,2.4,8.78,4.11,13.65,5.26,10.38,2.44,24.17,3.79,38.83,3.79s28.45-1.35,38.83-3.79c4.86-1.14,10.3-2.86,13.63-5.25C290.51,353.1,272.14,359.67,240.85,359.67Z"/><path class="cls-3" d="M216,340a7.55,7.55,0,0,0,1.06.07c4.85,0,9.15-4.11,9.83-9.64a11.44,11.44,0,0,0-1.82-7.9,9.09,9.09,0,0,0-6.42-4c-5.27-.65-10.16,3.64-10.89,9.58a11.46,11.46,0,0,0,1.82,7.9A9.08,9.08,0,0,0,216,340Zm-6.26-11.69c.56-4.52,4-7.89,7.85-7.89a7.52,7.52,0,0,1,.82.05,7.14,7.14,0,0,1,5,3.18,9.56,9.56,0,0,1,1.49,6.53h0c-.6,4.84-4.48,8.35-8.67,7.84a7.14,7.14,0,0,1-5-3.18A9.53,9.53,0,0,1,209.71,328.31Z"/><path class="cls-3" d="M210.91,229.83a22.35,22.35,0,0,0,3.55.28c6.19,0,12.29-2.51,17.5-7.26a40.53,40.53,0,0,0,7.5-47.92c-4.18-7.28-10.54-11.93-17.91-13.08s-14.84,1.33-21,7a40.47,40.47,0,0,0-7.5,47.91C197.18,224,203.54,228.68,210.91,229.83Zm-20.14-38a36.7,36.7,0,0,1,11.09-21.55c4.83-4.41,10.46-6.74,16.16-6.74a21.83,21.83,0,0,1,3.22.25c6.76,1.06,12.61,5.36,16.48,12.11a38.52,38.52,0,0,1-7.11,45.44c-5.75,5.24-12.63,7.55-19.39,6.49s-12.61-5.36-16.48-12.11A36.73,36.73,0,0,1,190.77,191.86Z"/></svg>