<svg id="Layer_1" data-name="Layer 1" xmlns="http://www.w3.org/2000/svg" viewBox="0 0 481.89 481.89"><defs><style>.cls-1{fill:#fff;}.cls-2{fill:#f9d7ed;}.cls-3{fill:#2a1d75;}</style></defs><path class="cls-1" d="M299.33,370.44l0-.12c-1.53-4.25-5.86-12.08-17.68-16.75v0c-9.12-5.16-24.87-8-40.29-8s-31.38,2.92-40.47,8.15l0-.12c-11.81,4.67-16.14,12.5-17.67,16.75a1,1,0,0,1,0,.1c-3.59,4.39-7.7,11.25-7.7,16.51,0,15.76,28.25,27.65,65.7,27.65h.24c37.45,0,65.7-11.89,65.7-27.65C307,381.67,302.93,374.82,299.33,370.44Z"/><ellipse class="cls-2" cx="244.08" cy="365.17" rx="30.8" ry="11.18"/><path class="cls-3" d="M300.82,370.19s0-.08,0-.12c-1.57-4.36-6-12.36-18.13-17.15h0c-9.36-5.3-25.52-8.27-41.33-8.27s-32.17,3-41.5,8.36h0c-12.12,4.79-16.61,12.7-18.18,17.07l0,.1c-3.69,4.5-7.9,11.53-7.9,16.93,0,16.16,29,28.35,67.38,28.35h.24c38.41,0,67.38-12.19,67.38-28.35C308.71,381.71,304.51,374.69,300.82,370.19Zm1,8.76c0,13.63-27.12,24.72-60.46,24.72S180.86,392.58,180.86,379a9.18,9.18,0,0,1,.19-1.89,12.54,12.54,0,0,0,1.57,4.28c6.84,11.48,30.9,19.5,58.49,19.5h.21c27.59,0,51.64-8,58.49-19.5A12.57,12.57,0,0,0,301.4,377c.08.13.17.26.25.4A9.7,9.7,0,0,1,301.78,379Zm-60.46-30.8c12.53,0,24.29,1.73,33.1,4.86,8.13,2.89,12.8,6.66,12.8,10.33s-4.6,7.37-12.6,10.25a5.67,5.67,0,0,0,.8-2.85c0-2.57-1.87-5-5.4-7-4.25-4.49-15.35-7.62-28.7-7.62s-24.45,3.13-28.7,7.62c-3.54,2-5.4,4.47-5.4,7a5.67,5.67,0,0,0,.8,2.85c-8-2.88-12.6-6.61-12.6-10.25s4.66-7.44,12.79-10.33C217,349.88,228.79,348.15,241.32,348.15Zm-29.54,26.66c-1.39-1.09-2.56-2.47-2.56-4.07a4.63,4.63,0,0,1,1.55-3.18,2.29,2.29,0,0,0,0,.25c0,3.85,4.6,7.21,11.84,9.33A85.36,85.36,0,0,1,211.78,374.81Zm58.11-7c0,4.7-11.48,9.74-28.57,9.74s-28.57-5-28.57-9.74,11.48-9.73,28.57-9.73S269.89,363.11,269.89,367.81Zm2,0a2.29,2.29,0,0,0,0-.25,4.67,4.67,0,0,1,1.55,3.18c0,1.6-1.18,3-2.57,4.07a84.81,84.81,0,0,1-10.8,2.33C267.29,375,271.89,371.66,271.89,367.81Zm-86.95,3.45a23.36,23.36,0,0,1,7.25-10,8.38,8.38,0,0,0-.27,2.06C191.92,375,217,382,241.32,382s49.4-7,49.4-18.68a8.22,8.22,0,0,0-.23-1.85,23.23,23.23,0,0,1,7,9.77,9.71,9.71,0,0,1-.68,8.29c-6.15,10.31-29.49,17.79-55.49,17.79h-.21c-26,0-49.34-7.48-55.49-17.79a9.74,9.74,0,0,1-.88-7.68l-1-.29h0l1,.28C184.8,371.66,184.87,371.45,184.94,371.26ZM241.33,412h-.24c-40,0-63.88-12.63-63.88-24.85a16.1,16.1,0,0,1,1.78-6.42c2,14.14,28.67,25,62.33,25,33.38,0,59.85-10.66,62.26-24.63a15.39,15.39,0,0,1,1.63,6.07C305.21,399.33,281.31,412,241.33,412Z"/><path class="cls-2" d="M363.15,226.45c-.55-7-6.84-11.68-6.91-11.72s-4.33-3-6.2-3.16c-.35-.72-1.16-2.09-2.51-2.14a2.15,2.15,0,0,0-1,.23,19.62,19.62,0,0,0-.87-1.79c-.18-.34-.35-.67-.5-1-.5-1-1-2-2-2h0c-.85,0-1.24.74-1.55,1.33-.07.13-.14.28-.22.42l-.22.35c-.93-3.38-2.71-8.67-4.4-9a1.19,1.19,0,0,0-1.23.53c-.25.37-1.46,3-2.55,5.77l-.67-.27c-.2-3.24-.58-7.06-.85-9.58a1.9,1.9,0,0,0-3.29-1.07c-2.43,2.71-4.24,4.86-5.58,6.59l-2.69-1.13c-1.43-3.37-2.37-5.32-2.41-5.4a1,1,0,0,0-.91-.57h0a1,1,0,0,0-.91.57l-1.42,3-2.35-1c-.58-1.69-1.58-3.85-1.83-4.39a1,1,0,0,0-.75-.57,1,1,0,0,0-.9.3c-.21.21-1.07,1.12-2.05,2.3h0l-.36-.19a9,9,0,0,0-1.94-.86,15,15,0,0,0-3.42-4.16,1,1,0,0,0-1.45.18l-.6.83a15.71,15.71,0,0,0-5-1.5c-.84-1.14-1.76-1.95-2.65-1.95h0a1.54,1.54,0,0,0-1.1.39,25.15,25.15,0,0,1-2.92-1.72c-.67-1.25-2.49-3.86-5.28-7.82-1.56-2.22-3.69-5.24-4.93-7.16l.75,0a3.87,3.87,0,0,0,.84-.07l.79-.74c.32-1.13-4.11-7.8-8.2-13.36a15.81,15.81,0,0,0,2.27-2.24,51.26,51.26,0,0,0,10,2.14h.2a1.3,1.3,0,0,0,1.06-.72c.31-.65-.12-2.2-1.28-4.63a17,17,0,0,0,.76-4.05l5.75-.22a1.57,1.57,0,0,0,.27,0c.55-.13,1.54-.38,1.23-5.12a18.94,18.94,0,0,0,2.73.62h.16a1.52,1.52,0,0,0,1.19-.57c.55-.69.5-2,.26-3.22,10.78,4.79,12.23,5.1,12.6,5.1h.07l.88-.58c.26-.49.69-1.3-6.3-13.94,5.52,2.29,11.71,4.8,12.71,5a4.62,4.62,0,0,0,.79.07,2.41,2.41,0,0,0,1.95-.8,2.27,2.27,0,0,0,.3-2.31c-.33-.92-4.45-8.25-6.73-12.29.43.11.76.19.86.23l1.26-.17c.56-.56.77-.8-2.73-7.38a30.89,30.89,0,0,0,5.11.71,3.53,3.53,0,0,0,.89-.09,1.21,1.21,0,0,0,.79-.75c.31-.86,0-2.29-5.67-11.12,1.53-2.47,1-8.07,1-8.07-.46-6.32-9.46-10.3-15.41-12.93l-2.07-.92c-.87-.42-2.35-1.19-4.07-2.09-7.44-3.9-14.42-7.43-18-7.87-5-.61-6.33-.29-11.67,1.35-2.28.69-5.95,1.51-9.5,2.29A89.61,89.61,0,0,0,242.25,73c-3.22,1.31-5.39,3.35-9.33,7.06l-.94.89c-2.85,2.66-4.31,3.13-5.27,3.43a4.34,4.34,0,0,0-3.39,3.87,4,4,0,0,1-.45,1.26,10.42,10.42,0,0,1-1.81,1.38,29.31,29.31,0,0,0-3.38,2.55,8.64,8.64,0,0,0-2.64,4.4,6.17,6.17,0,0,1-.59,1.5,8.3,8.3,0,0,1-1.91,1.8,11.62,11.62,0,0,0-2.18,2,8.76,8.76,0,0,0-1.38,3.23,5.71,5.71,0,0,1-1,2.33,2.31,2.31,0,0,1-1.27.53,6.92,6.92,0,0,0-3.39,1.58,7.62,7.62,0,0,0-2.28,4.72,8.13,8.13,0,0,1-.73,2.38c-.42.71-.48.74-.9.94a10.46,10.46,0,0,0-2.66,1.85,19.42,19.42,0,0,0-3.31,4.27,36.51,36.51,0,0,1-3.84,5.19c-2.29,2.52-5,3.71-7.56,4.86a31.4,31.4,0,0,0-3.58,1.77c-1.84,1.13-5.19,1.51-8.13,1.84-1.49.16-2.89.32-4.13.57-3.94.77-5.69,1.21-9.62,4.21-1.87,1.42-3.41,4.15-4.81,6.89a6,6,0,0,0-.61,3.63.12.12,0,0,1-.05.12,13.1,13.1,0,0,0-2.7,3.82c-.95,1.93,1.18,7.12,1.66,8,.14.39.38,1.8.5,6.87V173c0,.75-1.51,3.09-2.23,4.21-.44.68-.86,1.33-1.16,1.87a5.7,5.7,0,0,0-.63,3.56c0,.16,0,.36,0,.47l0,.05a8.31,8.31,0,0,0-1.78,5.26,14,14,0,0,0,1.25,4.4c.29.72.57,1.39.77,2.07l.06.18c.65,2.14,1.45,4.79,5.2,6.12,1.5.53,3,4.47,4.4,11.72.18,1,.32,1.66.45,2.13a48.59,48.59,0,0,0,2.76,6c1.75,3.49,3.93,7.83,4.64,10.31,1.38,4.81,8.27,18.64,11.91,24.39,2.52,4,7.57,11.57,10.37,15.73a10.25,10.25,0,0,1,1.69,6.48c-.45,5.81-1,13.29-1,15.91-.05,6.77,4.46,15,8.16,17.67,1.69,1.2,19.93,5,36.95.66,19-4.86,32.11-17.07,42.33-20.9,9-3.38,10.76-5,11.31-6.35,2.26-5.3.66-15.76-.25-20.51,8.25.54,14.91,1,16.85,1.22a113.14,113.14,0,0,0,12.56.66,72.63,72.63,0,0,0,14.46-1.2c11.38-2.52,21.15-7.4,24.87-12.45S363.71,233.55,363.15,226.45Zm-51.73,11.61Z"/><path class="cls-1" d="M164.17,170.79a1.47,1.47,0,0,0,.83.25,1.43,1.43,0,0,0,.64-.15l.1,0a116.24,116.24,0,0,1,19.53-9.32,1.48,1.48,0,0,0,.86-1.22,1.5,1.5,0,0,0-.62-1.35c-1.16-.85-7.34-4.9-14.51-1.48-4.62,2.2-7.2,6.35-7.49,12A1.47,1.47,0,0,0,164.17,170.79Z"/><path class="cls-1" d="M292.87,227.2c5.17,1,13.95,3.21,18.53.2a12.75,12.75,0,0,0,4.38-4.9c.94-1.75,1.46-3.22,2.75-3.82,2.45-1.13,4.7,2.09,5.26,4.52a42.67,42.67,0,0,1,.42,6.53,38,38,0,0,0-1.47,5.41l-.24,0a24.18,24.18,0,0,1-3.41,2.44l-.4.18c-1.53-1.93-3.49-4.15-3.93-3.82s-1.12,3.66-1.58,6.1l-.37-.07a12.73,12.73,0,0,1-1.86.16c-.26,0-1.11.14-1.42.13l-.37.09c-.51-1-1.2-2.36-1.74-3.32-1-1.76-2.31-6-3.6-6.42-1-.31-2,5.43-2.56,9.09l-.15,0-2-.15-.21.1C297.25,236.09,294.5,230,292.87,227.2Z"/><path class="cls-1" d="M284.16,193.7a23.71,23.71,0,0,1,2.49,5.6,1,1,0,0,1,0,.24s0,0,0,0-.05.14-.07.2h0c-.58,1-3.78,1.23-6.67-.91a.87.87,0,0,1-.34-.75,25,25,0,0,1,.92-5.74c.28-.8.65-1.34,1.12-1.34C282.32,191,283.28,192.21,284.16,193.7Z"/><path class="cls-1" d="M294.36,199.32c.18,5.28-7.24,3.26-8,1.9a2,2,0,0,1,.18-1.45h0a.53.53,0,0,0,.07-.2s0,0,0,0a30.24,30.24,0,0,1,2.43-4.23c.81-1.2,1.47-2.1,1.47-2.1s2.9,2.38,3.64,5.06A4.26,4.26,0,0,1,294.36,199.32Z"/><path class="cls-1" d="M301.74,201.61c.13,1.31,1,5-2.57,4.63-4.42-.52-4.88-2.59-4.88-2.59.18-1.17,1.36-2.92,2.56-4.45,1.36-1.73,2.75-3.18,2.75-3.18S301.61,200.3,301.74,201.61Z"/><path class="cls-1" d="M310.43,204.75a7.1,7.1,0,0,1-1.31,5,.79.79,0,0,1-.45.33,5.26,5.26,0,0,1-5.33-2,.68.68,0,0,1,0-.66l2.23-4.71,2.15-4.55s1,2,2.39,5.36A4.89,4.89,0,0,1,310.43,204.75Z"/><path class="cls-1" d="M322,209c.05,1.14.07,2.15,0,2.91-.2,4.11-11,.74-11.49-1.65-.18-.83,1-2.75,2.6-4.92,2.05-2.76,4.82-5.93,6.43-7.72a.88.88,0,0,1,1.52.49C321.36,200.77,321.84,205.53,322,209Z"/><path class="cls-1" d="M330.89,213.8l.06,0a6.73,6.73,0,0,0-.71,1.5,3.36,3.36,0,0,0-.08.35h0c-3.24.45-7.53,0-7.77-1a14.88,14.88,0,0,1,1.15-4,69.28,69.28,0,0,1,3-7.1C327.15,202.65,329.6,207.94,330.89,213.8Z"/><path class="cls-1" d="M334.32,211.69c.67,1.39,1.76,3,1.68,4.29h0a37.46,37.46,0,0,0-2.44,5.08,12,12,0,0,1-3.6-2.87,6.31,6.31,0,0,1,.17-2.52,3.36,3.36,0,0,1,.08-.35,6.73,6.73,0,0,1,.71-1.5c.42-.71.95-1.47,1.43-2.31C333,210.41,333.2,209.34,334.32,211.69Z"/><path class="cls-1" d="M337.78,222.28a18,18,0,0,0-1.11,2.6c0,.08-.05.15-.08.22a5.64,5.64,0,0,1-.33.73c-.94-.59-3-1.61-3.1-2.86a5.25,5.25,0,0,1,.43-1.9A37.46,37.46,0,0,1,336,216c.74-1.28,2-2.12,3.26.58.17.35.32.71.46,1.06a7.43,7.43,0,0,1,.56,4.06C339.3,220.5,338.37,221.25,337.78,222.28Z"/><path class="cls-1" d="M341.29,228.88A25.25,25.25,0,0,1,337,231l-.24,0a23.59,23.59,0,0,0-1.23-2.08h0a33.52,33.52,0,0,1,1.25-4.95c0-.07.05-.14.08-.22a14.23,14.23,0,0,1,1.39-2.48c.59-1,1.52-1.78,2.53-.59a5.17,5.17,0,0,1,.73,1.17C342.77,224.62,343.23,227.6,341.29,228.88Z"/><path class="cls-1" d="M330.9,236c-.28-.86-.68-1.95-1.14-3.09,0,0,1.2-6.07,2.92-6.67.73-.26,1.77.86,2.71,2.28a23.59,23.59,0,0,1,1.23,2.08,19,19,0,0,1,.92,2,.78.78,0,0,1-.24.87c-1,.82-3.62,2.75-6.38,2.52Z"/><path class="cls-1" d="M325.44,227.88c.91-.28,2.69,3.25,4,6.44.46,1.14.86,2.23,1.14,3.09a5.15,5.15,0,0,1,.38,1.78c-.13.35-4.44,3.44-8.72,1a.65.65,0,0,1-.31-.68c.13-.79.42-2.5.83-4.38a38,38,0,0,1,1.47-5.41C324.61,228.71,325,228,325.44,227.88Z"/><path class="cls-1" d="M320.88,238.48c.66,1.08-1.41,2.6-3.27,3.12a5.78,5.78,0,0,1-3.33-.21,1.46,1.46,0,0,1-1-1.65c.07-.4.16-.89.25-1.42.46-2.44,1.15-5.79,1.58-6.1s2.4,1.89,3.93,3.82C319.93,237.11,320.64,238.09,320.88,238.48Z"/><path class="cls-1" d="M309.6,241.19a.81.81,0,0,1-.26,1c-1.42,1-5.32,3.38-8.2.66a.77.77,0,0,1-.22-.64c.06-.49.18-1.43.34-2.57.55-3.66,1.55-9.4,2.56-9.09,1.29.4,2.62,4.66,3.6,6.42.54,1,1.23,2.3,1.74,3.32Z"/><path class="cls-1" d="M290.32,238.13c.61-4,1.44-9.35,1.87-11.69l.16,0,1.33.24c1.63,2.76,4.38,8.89,6,12.38.44.93.8,1.67,1,2.11,1.1,2-3.61,2.88-7.43,2.57a9.28,9.28,0,0,1-3.7-.93S289.92,240.81,290.32,238.13Z"/><path class="cls-1" d="M288.71,241.88c.37,1-8.72.41-8.9-.93a12.43,12.43,0,0,1,.83-3.67c.79-2.38,2-4.91,2.71-4.57s2.42,3.15,3.66,5.56C287.87,239.94,288.56,241.45,288.71,241.88Z"/><path class="cls-1" d="M279.34,240c.87,1.28-3.66,1.56-5.56,1.38a5.38,5.38,0,0,1-3.24-1.61.68.68,0,0,1-.14-.67c.25-.68.83-2.27,1.44-3.71a8.15,8.15,0,0,1,1.55-2.77c.53-.23,2.33,2.14,3.85,4.29C278.18,238.2,279,239.46,279.34,240Z"/><path class="cls-1" d="M268.43,237c.06.79-3.8,1.82-6.44-.59a1.59,1.59,0,0,1-.47-1.58c.27-1,.75-2.7,1.22-4,.38-1.08.74-1.93,1-2,.71-.17,2.92,2.26,3.52,3.23.05.08.1.18.16.3A21.56,21.56,0,0,1,268.43,237Z"/><path class="cls-1" d="M261.05,234.62c.65.78-2.61,2-4.17,1.93s-3.51-1.75-3.51-1.75a20.63,20.63,0,0,1,1.22-4.66,1.49,1.49,0,0,1,.14-.24,5.66,5.66,0,0,1,2.16-2.08s.87,1.51,1.83,3.11S260.72,234.23,261.05,234.62Z"/><path class="cls-1" d="M273,145.75a18.38,18.38,0,0,1,.57,4.66,16.86,16.86,0,0,1-.82,4.12c-.85-1.65-2-3.62-3.12-5.54.57-.69,1.82-2.19,2.89-3.5Z"/><path class="cls-1" d="M278.4,141.3s1.33.45,2.85.92c0,0,.54,5.26-.33,5.47-.71.16-5.46-2.45-7.3-3.49l-.48-.26c.76-.94,1.43-1.79,1.68-2.16a8.45,8.45,0,0,0,3.06.2.62.62,0,0,0,.44-.69Z"/><path class="cls-1" d="M278.86,140.83a6.35,6.35,0,0,0-.75-2.5l1.94-2.67.1.07,5.55,2.5s1.54,4.67,0,4.52a28.06,28.06,0,0,1-3.91-1c-1.52-.47-2.85-.92-2.85-.92Z"/><path class="cls-1" d="M307.92,133.76c.4,1.11-.27,2-1.9,1.68-1-.19-9.28-3.57-15-6-2.44-1-4.44-1.86-5.27-2.21l3.09-4a5.35,5.35,0,0,0,2.65.05c.43-.19.15-1.3-.51-2.83.44-.56,1.54-1.88,2.16-2.63a48.09,48.09,0,0,0,7.1,1.93C301.24,121.61,307.54,132.74,307.92,133.76Z"/><path class="cls-1" d="M299.49,116.11c.93-.2.49-1.82-.48-3.89,0,0,.67.17,1.66.39.33.6,4.52,8.42,3.85,8-.25-.13-1.63-.45-3.33-.84a48.09,48.09,0,0,1-7.1-1.93c-.26-.12-.42-.24-.46-.35-.34-.92.81-2.51.81-2.51C296.5,115.79,298.47,116.33,299.49,116.11Z"/><path class="cls-1" d="M301.76,101.33c2.84,4.33,7.21,11.19,6.2,11.49s-5.21-.56-7.57-1.1c-1-.22-1.66-.39-1.66-.39a81.56,81.56,0,0,0-5.37-9s0,0,0,0a6.58,6.58,0,0,1,5.58-4.39.94.94,0,0,1,.87.41Z"/><path class="cls-1" d="M292.8,102.85s0,0,0,0a81.56,81.56,0,0,1,5.37,9c1,2.07,1.41,3.69.48,3.89s-3-.32-5.05-1.08c-3.23-1.2-6.7-2.94-7.09-3.14l-1-1.63c.74-2.82,4-6.2,6.16-7.31A.86.86,0,0,1,292.8,102.85Z"/><path class="cls-1" d="M286.14,110.2l1,1.63a88.29,88.29,0,0,1,4.58,8.63c.66,1.53.94,2.64.51,2.83a5.35,5.35,0,0,1-2.65-.05,81.44,81.44,0,0,1-11.3-3.56l-.29.17-.69-1.09c2.54-3.23,5.33-6.69,8.05-9.9C285.44,109,285.73,109.51,286.14,110.2Z"/><path class="cls-1" d="M271.75,125.77c1.56-2.06,3.45-4.51,5.49-7.11l.69,1.09c1.4,2.25,4.39,7.08,6.18,10.33,1.09,2,1.74,3.37,1.35,3.27s-1.44-.44-3-.94c-3.3-1.09-8.48-2.86-11.28-3.81h0l-1.15-.39C270.59,127.37,271.15,126.56,271.75,125.77Z"/><path class="cls-1" d="M282,133.55c1.78-2.5,3.94-5.48,6.27-8.64.15.24.42.71.79,1.33,1.6,2.73,5,8.6,7.06,12.55,1.25,2.39,2,4.09,1.54,4s-1.64-.53-3.38-1.14c-3.77-1.33-9.69-3.48-12.89-4.63h0l-1.31-.48C280.7,135.49,281.34,134.51,282,133.55Z"/><path class="cls-1" d="M265.19,139.75l-1.16-.38c2.29-4,4-7.58,6.06-10.77l1.15.39h0a83.43,83.43,0,0,1,6.49,10.46,6.35,6.35,0,0,1,.75,2.5.62.62,0,0,1-.44.69,8.45,8.45,0,0,1-3.06-.2A88.53,88.53,0,0,1,265.19,139.75Z"/><path class="cls-1" d="M263.66,139.21l1.16.38c.38.58,2.86,4.38,5.23,8.36,1.15,1.92,2.27,3.89,3.12,5.54,1.24,2.42,1.89,4.18,1.2,4.24-1.13.1-6.06-.9-10.55-2.3s-8.34-3.12-7.95-4.58A90.92,90.92,0,0,0,263.66,139.21Z"/><path class="cls-1" d="M261.09,158.32c4.31,5.85,9,13.09,8.48,13.21a13.09,13.09,0,0,1-4-.29c-6.85-1.19-19.24-5.11-20.94-7.88a1.66,1.66,0,0,1-.13-.27h0a110.52,110.52,0,0,0,11.73-12.53C255.81,152,261.09,158.32,261.09,158.32Z"/><path class="cls-1" d="M240.75,167.14c1.05-.92,2.05-1.82,3-2.72h0a1.66,1.66,0,0,0,.13.27l0,0c.43.73,4.37,7.36,3.18,8.07s-8-4-8-4l-.08-.1C239.51,168.22,240.13,167.69,240.75,167.14Z"/><path class="cls-1" d="M239,168.82s4.07,10.69,2,10.14a34.69,34.69,0,0,1-6.12-3,18.72,18.72,0,0,0-.63-3.51c1.48-1.1,3-2.33,4.66-3.7Z"/><path class="cls-1" d="M234.88,175.93c.68,6.19.37,16.47-1.72,15.76-1.7-.57-11.11-12-11.11-12h0a63.43,63.43,0,0,0,12.2-7.28A18.72,18.72,0,0,1,234.88,175.93Z"/><path class="cls-1" d="M222,179.71c.05,2.11.17,9.76-.68,9.26s-5.25-5.29-6.47-6.63A61.63,61.63,0,0,0,222,179.71Z"/><path class="cls-1" d="M258,230.09c-1-1.6-1.83-3.11-1.83-3.11a5.66,5.66,0,0,0-2.16,2.08h0c-5.11-.83-12.21-.68-15,1a83.78,83.78,0,0,1-10.22-8.16l.12-.13a9.7,9.7,0,0,1,6.58-10.38c.31-.12.63-.23,1-.33,8.81-2.6,19.93-1.42,27.75,2.87s22.19,10.17,27.18,11.06c-.43,2.34-1.26,7.73-1.87,11.69l-2.67-.29-.33.18c-1.24-2.41-2.83-5.18-3.66-5.56s-1.92,2.19-2.71,4.57c-.78-.11-3.05-.47-3.72-.58l-.13.1c-1.52-2.15-3.32-4.52-3.85-4.29a8.15,8.15,0,0,0-1.55,2.77l-.21-.09-3.2-1-.16.07c-.06-.12-.11-.22-.16-.3-.6-1-2.81-3.4-3.52-3.23-.25.06-.61.91-1,2-.75-.21-3.64-.79-4.42-1Z"/><path class="cls-1" d="M315.78,222.5a12.75,12.75,0,0,1-4.38,4.9c-4.58,3-13.36.8-18.53-.2-.69-1.17-1.18-1.73-1.3-1.24-.05.2-.11.53-.19,1-5-.89-19.44-6.83-27.18-11.06s-18.94-5.47-27.75-2.87c-.34.1-.66.21-1,.33a27.62,27.62,0,0,1,9.86-10.12c6.62-3.8,15.36-5.43,22.22-1.82,3.34,1.75,6.47,3.73,9.84,5.83A128.89,128.89,0,0,0,300,218.88c6.07,2.36,12.61,5,15.75,3.62Z"/><path class="cls-1" d="M265.58,263.7c-.56.3-9.78,8.13-19.68,10.32-10.23,2.26-21.43,3.92-25.67,3.12a74.34,74.34,0,0,1-10.9-3.8c-5.61-2.33-11.49-5.2-13.33-7.14-7.12-7.5-10-13.09-10.44-13.95C211.86,277.29,235,269.24,265.58,263.7Z"/><rect class="cls-3" x="144.59" y="126.93" width="5.1" height="5.1"/><rect class="cls-3" x="165.25" y="124.74" width="5.1" height="5.1"/><rect class="cls-3" x="130.05" y="212.95" width="5.1" height="5.1"/><rect class="cls-3" x="154.97" y="271.53" width="5.1" height="5.1"/><rect class="cls-3" x="230.66" y="323.92" width="5.1" height="5.1"/><rect class="cls-3" x="236.68" y="362" width="5.1" height="5.1"/><rect class="cls-3" x="244.72" y="317.58" width="5.1" height="5.1"/><rect class="cls-3" x="307.85" y="282.49" width="5.1" height="5.1"/><rect class="cls-3" x="310.02" y="161.48" width="5.1" height="5.1"/><rect class="cls-3" x="328.33" y="101.69" width="5.1" height="5.1"/><rect class="cls-3" x="122.7" y="207.64" width="2.83" height="2.83"/><rect class="cls-3" x="160.82" y="292.76" width="2.83" height="2.83"/><rect class="cls-3" x="238.58" y="332.36" width="2.83" height="2.83"/><rect class="cls-3" x="241.87" y="349.5" width="2.83" height="2.83"/><rect class="cls-3" x="246.6" y="368.08" width="2.83" height="2.83"/><rect class="cls-3" x="252.59" y="312.52" width="2.83" height="2.83"/><rect class="cls-3" x="318.47" y="275.59" width="2.83" height="2.83"/><rect class="cls-3" x="330.96" y="277.34" width="2.83" height="2.83"/><rect class="cls-3" x="325.35" y="156.85" width="2.83" height="2.83"/><rect class="cls-3" x="290.37" y="164.57" width="2.83" height="2.83"/><rect class="cls-3" x="306.11" y="175.22" width="2.83" height="2.83"/><rect class="cls-3" x="325.01" y="93.24" width="2.83" height="2.83"/><rect class="cls-3" x="165.19" y="285" width="2.83" height="2.83"/><rect class="cls-3" x="186.68" y="92.1" width="5.1" height="5.1"/><rect class="cls-3" x="181.57" y="104.29" width="5.1" height="5.1"/><rect class="cls-3" x="149.66" y="117.23" width="2.87" height="2.87"/><path class="cls-3" d="M262.07,231.67l-1.38-.3h0c.43.71.79,1.28,1,1.57C261.82,232.48,262,232.05,262.07,231.67Z"/><path class="cls-3" d="M279.43,236.81c0-.16.09-.32.13-.48l-.51-.08Z"/><path class="cls-3" d="M288.8,237.46l.22.45c0-.13,0-.28.07-.42Z"/><path class="cls-3" d="M269.79,235.35c.17-.45.33-.86.48-1.24l-.78-.24C269.61,234.37,269.71,234.88,269.79,235.35Z"/><path class="cls-3" d="M221.64,185.26c0-.36.06-.79.09-1.26H220.4Z"/><path class="cls-3" d="M350.29,229.59q-.06.34-.15.69h.13C350.28,230.05,350.3,229.81,350.29,229.59Z"/><path class="cls-3" d="M295.7,241.28H294C294.54,241.3,295.12,241.31,295.7,241.28Z"/><path class="cls-3" d="M286,199.42h0Z"/><path class="cls-3" d="M208.87,297.85h-2a30,30,0,0,1,0,4.43h2A30,30,0,0,0,208.87,297.85Z"/><path class="cls-3" d="M206.42,305.78l2,.46a25.19,25.19,0,0,0,.47-3.24h-2A22,22,0,0,1,206.42,305.78Z"/><path class="cls-3" d="M206.78,297.14h2a26.65,26.65,0,0,0-.84-4.43h-2.09A23.82,23.82,0,0,1,206.78,297.14Z"/><path class="cls-3" d="M204.12,288.61a18.54,18.54,0,0,1,1.53,3.39h2.12a21.62,21.62,0,0,0-1.92-4.39l0,0h-2.36C203.69,287.91,203.91,288.25,204.12,288.61Z"/><path class="cls-3" d="M203,286.86h2.36a36.92,36.92,0,0,0-3.22-4.44h-2.68A36.68,36.68,0,0,1,203,286.86Z"/><path class="cls-3" d="M180.73,255.65l-1.76,1c.11.19,1.27,2.3,2.77,4.9h2.32C182.24,258.41,180.76,255.7,180.73,255.65Z"/><path class="cls-3" d="M184.26,261.85h-2.32c.88,1.52,1.86,3.16,2.82,4.68h2.37C186.2,265.09,185.19,263.43,184.26,261.85Z"/><path class="cls-3" d="M189.18,269.45a30.94,30.94,0,0,1-1.86-2.63h-2.38a44.33,44.33,0,0,0,2.68,3.88c.2.25.42.48.63.73h2.69C190.32,270.78,189.72,270.13,189.18,269.45Z"/><path class="cls-3" d="M195.33,275.63c-1.29-1.18-2.54-2.33-3.7-3.49h-2.77c1.39,1.52,2.93,3,4.54,4.43h3Z"/><path class="cls-3" d="M197.13,277.28h-2.95c1.55,1.42,3.12,2.86,4.63,4.43h2.72C200.11,280.12,198.63,278.67,197.13,277.28Z"/><path class="cls-3" d="M259.14,86a55.83,55.83,0,0,0-15.31-1,14.55,14.55,0,0,0-4.5,1.23h20.18A.54.54,0,0,0,259.14,86Z"/><path class="cls-3" d="M259.2,87.1a.43.43,0,0,0,.2-.11H237.89c-2.5,1.38-4.34,3.19-4.48,4.43h13.27C250.67,90.28,256,88.16,259.2,87.1Z"/><path class="cls-3" d="M233.65,92.27c1.44,1.56,5.59,1,10.24-.14H233.57A.64.64,0,0,0,233.65,92.27Z"/><path class="cls-3" d="M209.78,236.2l.35-.32h-.64C209.59,236,209.68,236.09,209.78,236.2Z"/><path class="cls-3" d="M211.25,234.84a30,30,0,0,1-3.25-4.29h-2.35a34,34,0,0,0,3.74,5.2h.87Z"/><path class="cls-3" d="M201.9,215.57h-2.05a51,51,0,0,0,1.42,5.14h2.13C202.61,218.41,202.13,216.54,201.9,215.57Z"/><path class="cls-3" d="M201.73,214.82l-2,.38v.07h2.05C201.77,215,201.74,214.83,201.73,214.82Z"/><path class="cls-3" d="M205.26,225.4c-.69-1.52-1.26-3-1.73-4.32H201.4c.44,1.32,1,2.79,1.65,4.32Z"/><path class="cls-3" d="M203.25,225.85a45.09,45.09,0,0,0,2.25,4.43h2.34a42.49,42.49,0,0,1-2.38-4.43Z"/><path class="cls-3" d="M197.91,221.08h-2.1a44.2,44.2,0,0,0,1.51,4.32h2.18A42.21,42.21,0,0,1,197.91,221.08Z"/><path class="cls-3" d="M199.7,225.85h-2.19a33.13,33.13,0,0,0,2.26,4.43h2.38A30.88,30.88,0,0,1,199.7,225.85Z"/><path class="cls-3" d="M202.63,234.14l1.47-1.36a21.21,21.21,0,0,1-1.78-2.23h-2.39A23.74,23.74,0,0,0,202.63,234.14Z"/><path class="cls-3" d="M197.12,218.09l-2,.39c0,.11.19,1,.55,2.23h2.09C197.34,219.16,197.13,218.12,197.12,218.09Z"/><path class="cls-3" d="M209.41,210.42h-2.26c.73,1.5,1.59,3.14,2.58,4.85h2.35C211.06,213.58,210.17,211.94,209.41,210.42Z"/><path class="cls-3" d="M216.05,221.08h-2.52c1.08,1.46,2.25,2.92,3.52,4.32h2.75A48.92,48.92,0,0,1,216.05,221.08Z"/><path class="cls-3" d="M219.56,228l1.38-1.45-.69-.67h-2.78C218.14,226.57,218.84,227.28,219.56,228Z"/><path class="cls-3" d="M205.85,202.06l-1.91.6c0,.13.26.82.68,1.91h2.15C206.16,203,205.86,202.09,205.85,202.06Z"/><path class="cls-3" d="M206.9,204.89h-2.16c.47,1.23,1.16,2.89,2.07,4.82h2.25C208.14,207.84,207.42,206.18,206.9,204.89Z"/><path class="cls-3" d="M215.76,220.71c-1.3-1.71-2.46-3.45-3.5-5.14H209.9c1,1.67,2.11,3.41,3.36,5.14Z"/><path class="cls-3" d="M173.46,158.28h8.7A12.82,12.82,0,0,0,173.46,158.28Z"/><path class="cls-3" d="M166.66,171.46a1.29,1.29,0,0,0,.6-.14l.09,0,.48-.28h-2.2a1.37,1.37,0,0,0,.25.23A1.48,1.48,0,0,0,166.66,171.46Z"/><path class="cls-3" d="M182.71,163.72H171.6a5.23,5.23,0,0,0-.54,3.17c-1.26.67-2.49,1.35-3.7,2.05a11.22,11.22,0,0,1,2-5.22H167a14.52,14.52,0,0,0-1.7,6.28,1.43,1.43,0,0,0,.14.68h3A108.93,108.93,0,0,1,182.71,163.72Z"/><path class="cls-3" d="M173.13,160.58a10.61,10.61,0,0,1,4.63-1.06,12.18,12.18,0,0,1,5.94,1.64q-2.19.84-4.33,1.75a4.73,4.73,0,0,0-7.61.51h11.7c.72-.28,1.43-.58,2.16-.85a1.4,1.4,0,0,0,.22-2.41,14.29,14.29,0,0,0-2-1.17h-12a11.56,11.56,0,0,0-4.77,4.43h2.44A10,10,0,0,1,173.13,160.58Z"/><path class="cls-3" d="M185.86,176.55a12.73,12.73,0,0,1-1.91,2.3h2.71a11.19,11.19,0,0,0,.93-1.29Z"/><path class="cls-3" d="M175.27,184.89a17.71,17.71,0,0,0,4.06-.89h-9.76A10.67,10.67,0,0,0,174,185C174.43,185,174.84,184.93,175.27,184.89Z"/><path class="cls-3" d="M163.57,177.55a11.17,11.17,0,0,0,.63,1.3h2.31a10.52,10.52,0,0,1-1.06-2Z"/><path class="cls-3" d="M186,179.56h-2.88a14.66,14.66,0,0,1-8.08,3.34,8.79,8.79,0,0,1-8-3.34h-2.42A12,12,0,0,0,169,183.7h11.13A16.59,16.59,0,0,0,186,179.56Z"/><path class="cls-3" d="M188.36,171h-2.17a16.92,16.92,0,0,1-1.52,2.71H187A20.11,20.11,0,0,0,188.36,171Z"/><path class="cls-3" d="M188,165a24.27,24.27,0,0,1-.65,3,21.11,21.11,0,0,1-1,2.64h2.14a25.88,25.88,0,0,0,1.6-7h-3.74c-1.33,2.66-3.16,5.58-5.14,7h3A27.15,27.15,0,0,0,188,165Z"/><path class="cls-3" d="M186.56,174.42H184.1a15.43,15.43,0,0,1-5.64,4.43h3.92A17.25,17.25,0,0,0,186.56,174.42Z"/><path class="cls-3" d="M174.73,156.61a13.65,13.65,0,0,1,9.56,1.55l.16.12H188a26.36,26.36,0,0,1-2.56-1.75,42.05,42.05,0,0,0-4-2.68h-5.82a11.91,11.91,0,0,1,2.08.5,16.45,16.45,0,0,0-3.33.28,20.64,20.64,0,0,0-8.19,3.65H170A17.2,17.2,0,0,1,174.73,156.61Z"/><path class="cls-3" d="M190.21,160.82h.06a15.58,15.58,0,0,0,3.27-.39l-.32-1.44h-7.78a12.85,12.85,0,0,0,2.39,1.43c-.33.84-.79,1.89-1.33,3h3.62C190.2,162.37,190.22,161.47,190.21,160.82Z"/><path class="cls-3" d="M156.69,168.6l1.66,1.12a47,47,0,0,1,4.73-6h-2.69A51,51,0,0,0,156.69,168.6Z"/><path class="cls-3" d="M163.48,155.93l1.24,1.58a16.51,16.51,0,0,1,7.78-3.66h-5.91A25.14,25.14,0,0,0,163.48,155.93Z"/><path class="cls-3" d="M180.28,171.21l.79,1.84a9,9,0,0,0,2.8-2.05h-3.19C180.55,171.07,180.42,171.15,180.28,171.21Z"/><path class="cls-3" d="M168.77,159h-3.5a35.9,35.9,0,0,0-4.62,4.43h2.71A27.88,27.88,0,0,1,168.77,159Z"/><path class="cls-3" d="M168,153.14h12.16A13.48,13.48,0,0,0,168,153.14Z"/><path class="cls-3" d="M177.61,181.39a19.61,19.61,0,0,0,3.73-1.83h-4.4Z"/><path class="cls-3" d="M163.69,183.45,165,182a10.36,10.36,0,0,1-1.81-2.39H161A12.09,12.09,0,0,0,163.69,183.45Z"/><path class="cls-3" d="M162,174.76l0-.34h-2c0,.07,0,.14,0,.21a10.37,10.37,0,0,0,.62,4.22h2.16A8.53,8.53,0,0,1,162,174.76Z"/><path class="cls-3" d="M162.63,171h-2.07a21,21,0,0,0-.44,2.71h2A18.17,18.17,0,0,1,162.63,171Z"/><path class="cls-3" d="M164,168l-1.37-1.46a8.72,8.72,0,0,0-2,4.16h2.08A7.1,7.1,0,0,1,164,168Z"/><path class="cls-3" d="M167.06,148.47h-5.54a22.26,22.26,0,0,0-6.11,4.67h2.84A21.13,21.13,0,0,1,167.06,148.47Z"/><path class="cls-3" d="M203.74,126.88c.89-1.36,1.81-2.79,2.76-4.23h-2.39c-.69,1.06-1.38,2.11-2.05,3.15q-.52.83-1.05,1.62h2.38Z"/><path class="cls-3" d="M171.57,147.92a32,32,0,0,0,18.19-4.82h-4.19a31,31,0,0,1-13.95,2.82,20.91,20.91,0,0,0-9.14,2.07h7.32A17.57,17.57,0,0,1,171.57,147.92Z"/><path class="cls-3" d="M202.93,128.13h-2.39c-.85,1.31-1.67,2.56-2.46,3.72h2.4Q201.67,130.08,202.93,128.13Z"/><path class="cls-3" d="M198.45,134.82c.5-.71,1-1.47,1.56-2.25h-2.43l-.76,1.09a29.73,29.73,0,0,1-4.23,4.76h2.87A32.82,32.82,0,0,0,198.45,134.82Z"/><path class="cls-3" d="M195,138.86h-2.93a28.22,28.22,0,0,1-6,4h4.06A31.22,31.22,0,0,0,195,138.86Z"/><path class="cls-3" d="M154,159h-2.11a12.17,12.17,0,0,0-.63,4.43h2A10.37,10.37,0,0,1,154,159Z"/><path class="cls-3" d="M156.87,154.51q.3-.34.63-.66h-2.69a16.61,16.61,0,0,0-2.67,4.43h2.18A15.2,15.2,0,0,1,156.87,154.51Z"/><path class="cls-3" d="M218.54,107.56h-3a49.09,49.09,0,0,0-3.93,4.43h2.59A35.26,35.26,0,0,1,218.54,107.56Z"/><path class="cls-3" d="M210.39,117h-2.46c-1.21,1.73-2.41,3.52-3.58,5.31h2.4C207.93,120.49,209.15,118.7,210.39,117Z"/><path class="cls-3" d="M213.62,112.7h-2.56c-1,1.26-1.95,2.59-2.91,4h2.46C211.61,115.28,212.62,113.94,213.62,112.7Z"/><path class="cls-3" d="M221.27,105.78c3.25-1.48,6.24-.44,8.49,1.07h3.16c-2.71-2.44-7.3-5.24-12.48-2.89a16.57,16.57,0,0,0-4.13,2.89h3.16A10.76,10.76,0,0,1,221.27,105.78Z"/><path class="cls-3" d="M233.86,110.8l1.63-1.16a18.63,18.63,0,0,0-1.82-2.08h-2.94A17.27,17.27,0,0,1,233.86,110.8Z"/><path class="cls-3" d="M239,151.94l1.75,1c.78-1.4,1.53-2.91,2.24-4.43h-2.21C240.16,149.67,239.57,150.84,239,151.94Z"/><path class="cls-3" d="M248.56,134.15l-1.91-.62c0,.05-.66,2-1.72,4.89h2.14C248,136,248.5,134.32,248.56,134.15Z"/><path class="cls-3" d="M243.21,142.85h2.16c.58-1.44,1.1-2.8,1.54-4h-2.14C244.31,140.07,243.79,141.43,243.21,142.85Z"/><path class="cls-3" d="M241,148h2.21c.76-1.65,1.46-3.31,2.1-4.89H243.1C242.45,144.7,241.72,146.37,241,148Z"/><path class="cls-3" d="M237.81,148.47h-2.13c-.55,1.53-1.16,3.11-1.79,4.67H236C236.67,151.57,237.26,150,237.81,148.47Z"/><path class="cls-3" d="M240.91,138.86h-2.08c-.29,1-.71,2.35-1.23,4h2.1C240.25,141.12,240.66,139.72,240.91,138.86Z"/><path class="cls-3" d="M239.62,143.1h-2.1c-.48,1.48-1,3.15-1.67,4.89H238C238.6,146.23,239.15,144.56,239.62,143.1Z"/><path class="cls-3" d="M233.59,153.85c-.56,1.32-1.14,2.61-1.73,3.82l1.23.61h.7c.68-1.4,1.34-2.9,2-4.43Z"/><path class="cls-3" d="M241.18,137.91l-1.92-.53s-.11.4-.3,1H241C241.13,138.11,241.18,137.92,241.18,137.91Z"/><path class="cls-3" d="M274.38,100.23l.73-1.86c-7.31-2.87-19.73,2.19-20.25,2.41l.52,1.26h1.81C260.69,100.8,269.23,98.21,274.38,100.23Z"/><path class="cls-3" d="M255.62,102.63l1-.4h-1.2Z"/><path class="cls-3" d="M150.2,200.65l.61-.89H149C149.4,200.06,149.78,200.36,150.2,200.65Z"/><path class="cls-3" d="M148.21,182.89l-1.72-1a14.55,14.55,0,0,0-.87,1.84h2.16A8.56,8.56,0,0,1,148.21,182.89Z"/><path class="cls-3" d="M151.34,199a12.06,12.06,0,0,1-3.77-4h-2.23a12.62,12.62,0,0,0,3.3,4.43h2.41Z"/><path class="cls-3" d="M146.29,189.45h-2a12.59,12.59,0,0,0,.72,4.83h2.16A10.53,10.53,0,0,1,146.29,189.45Z"/><path class="cls-3" d="M147.64,184H145.5a17.4,17.4,0,0,0-1.15,5.14h2A15.05,15.05,0,0,1,147.64,184Z"/><path class="cls-3" d="M280.19,234.4l-2.72-.43a26.82,26.82,0,0,0-2.73-3.42H272a12.5,12.5,0,0,0-.93,1.71l-2.45-.76c-.14-.19-.4-.54-.74-.95h-2.74a12.17,12.17,0,0,1,1.89,2.16,12.81,12.81,0,0,1,.82,3h3.94a33.59,33.59,0,0,1,1.63-3.72,32.71,32.71,0,0,1,2.87,3.72h5.54a16.84,16.84,0,0,1,1.62-3.63,25,25,0,0,1,2.26,3.63h5.67c.27-1.74.55-3.55.81-5.2h-2c-.26,1.65-.52,3.38-.76,5l-1.65-.18a22,22,0,0,0-3.09-4.78h-2.47A12.88,12.88,0,0,0,280.19,234.4Zm-10.4.95c-.08-.47-.18-1-.3-1.48l.78.24C270.12,234.49,270,234.9,269.79,235.35Z"/><path class="cls-3" d="M217.54,95.27a6.45,6.45,0,0,0,1.16-2.63,5.06,5.06,0,0,1,.14-.51h-3.63a2.57,2.57,0,0,1-.35.88,10.06,10.06,0,0,1-1.79,1.37,33.14,33.14,0,0,0-2.95,2.18h5.94A8.21,8.21,0,0,0,217.54,95.27Z"/><path class="cls-3" d="M265.88,199.42h4.57c-.56-.31-1.13-.63-1.71-.93-7-3.68-15.37-2.06-21.46.93h5.45A21.11,21.11,0,0,1,265.88,199.42Z"/><path class="cls-3" d="M212.05,99.51a26.83,26.83,0,0,1,3-2.22l.78-.53h-5.9l-.18.14a8.58,8.58,0,0,0-2.61,4.36c-.09.29-.16.54-.25.78h3.68A4.89,4.89,0,0,1,212.05,99.51Z"/><path class="cls-3" d="M329.59,240.57h5.56l.46-.22a25.26,25.26,0,0,0,6.37-4.47h-3a24.61,24.61,0,0,1-4.23,2.68A36.65,36.65,0,0,1,329.59,240.57Z"/><path class="cls-3" d="M172.74,142.81a27.92,27.92,0,0,1,3.14-1.54,35.92,35.92,0,0,0,4.73-2.41h-7.87a18.72,18.72,0,0,0-1.83,1c-1.82,1.11-5.13,1.48-8,1.81-1.47.17-2.85.32-4.08.57s-2.05.41-2.92.64h16.81Z"/><path class="cls-3" d="M219.72,91.28c1.26-.4,3.16-1,6.55-4.19l.11-.1h-5.61a8.62,8.62,0,0,1-2.11,1,5.14,5.14,0,0,0-1.72.81,4.7,4.7,0,0,0-1.54,2.67h3.88Z"/><path class="cls-3" d="M235.37,79.91A93.23,93.23,0,0,1,245,77.48c1.17-.25,2.34-.52,3.48-.78H234a21.78,21.78,0,0,0-6.44,4.43h5.57A13.1,13.1,0,0,1,235.37,79.91Z"/><path class="cls-3" d="M254.68,75.14c4.83-1.48,5.7-1.74,10.11-1.21A25.43,25.43,0,0,1,270.68,76h8a100.64,100.64,0,0,0-9.57-4.43H254.42l-.76.23c-2.26.69-5.89,1.5-9.41,2.28-3.07.68-6,1.33-8.12,1.92h15.39C252.7,75.7,253.78,75.41,254.68,75.14Z"/><path class="cls-3" d="M303.29,235.75a44.26,44.26,0,0,1,1.11-5.2h-2.07a47.19,47.19,0,0,0-1.08,5.2Z"/><path class="cls-3" d="M227.21,86.21c2-1.93,3.54-3.32,4.89-4.36h-5.35l-1.94,1.81-.93.88a24,24,0,0,1-2.06,1.74h5.31Z"/><path class="cls-3" d="M297.66,235.75h2.21l-.57-1.22c-.71-1.52-1.32-2.83-1.87-4h-2.22c.83,1.72,1.65,3.49,2.28,4.82C297.55,235.5,297.6,235.63,297.66,235.75Z"/><path class="cls-3" d="M213.92,242.88c2-.61,3.87-1.14,5.56-1.6h-7.31a29.62,29.62,0,0,1-16.12,0H190.6A31.48,31.48,0,0,0,213.92,242.88Z"/><path class="cls-3" d="M209.46,104.65a8.82,8.82,0,0,0,1-2.37l0,0h-3.71a3.11,3.11,0,0,1-.25.52,8.12,8.12,0,0,1-1.89,1.78,11.78,11.78,0,0,0-2.16,2,4,4,0,0,0-.23.34h5.11A9.45,9.45,0,0,0,209.46,104.65Z"/><path class="cls-3" d="M199.64,116a5.57,5.57,0,0,0,2.89-1.37,5.49,5.49,0,0,0,1.27-1.88h-5.64a6.72,6.72,0,0,0-2.63,1.4,5.82,5.82,0,0,0-1.71,2.56h4.12A3.65,3.65,0,0,1,199.64,116Z"/><path class="cls-3" d="M188.7,130c.44-.69.83-1.31,1.24-1.87h-4.2a41.26,41.26,0,0,1-2.6,3.72h4.34C187.94,131.19,188.34,130.57,188.7,130Z"/><path class="cls-3" d="M294.38,215.27h5.06a113.54,113.54,0,0,1-10.4-4.85h-4.16C287.7,212,290.81,213.65,294.38,215.27Z"/><path class="cls-3" d="M191.37,126.48a6.84,6.84,0,0,1,1.83-1.27,4.81,4.81,0,0,0,2.37-2.31c.05-.08.08-.17.12-.25H190.6a13.45,13.45,0,0,0-1.58,1.24,16.9,16.9,0,0,0-2.82,3.53h4.29A9.79,9.79,0,0,1,191.37,126.48Z"/><path class="cls-3" d="M184.54,135.61a35.94,35.94,0,0,0,2.45-3h-4.44l-.6.69c-2.27,2.5-4.92,3.67-7.49,4.81l-.76.35h7.59A18.21,18.21,0,0,0,184.54,135.61Z"/><path class="cls-3" d="M275.72,204.89l1,.65c2.15,1.34,4.4,2.74,6.87,4.17h4.07c-3-1.64-5.69-3.26-8.2-4.82Z"/><path class="cls-3" d="M300.37,217.79l.65.26c2.47,1,5,1.93,7.29,2.66h9.19l.37-.71c.61-1.21,1.06-2.08,1.79-2.42a1.43,1.43,0,0,1,1.32,0,5.75,5.75,0,0,1,2.34,3.09h2.09a7.89,7.89,0,0,0-3.55-4.89,3.83,3.83,0,0,0-.69-.25h-1.76a3.42,3.42,0,0,0-.59.2c-1.36.63-2,1.94-2.73,3.32l-.3.58c-2.79.9-8.75-1.42-14-3.48l-.65-.26-.92-.36H295C296.71,216.31,298.48,217.06,300.37,217.79Z"/><path class="cls-3" d="M277.1,203.39c-2-1.26-4-2.48-6-3.63h-4.31c.35.16.71.32,1.06.5,2.51,1.32,4.91,2.77,7.39,4.31h4c-.09-1.79-.18-3.39-.27-4.81h-2C277,200.87,277,202.06,277.1,203.39Z"/><path class="cls-3" d="M261.1,235.47a1.26,1.26,0,0,0,0,.28h2.1a.57.57,0,0,1-.13-.5,45.81,45.81,0,0,1,1.47-4.7h-6.74c.75,1.25,1.55,2.56,2.06,3.32a7.49,7.49,0,0,1-3,.81,5.31,5.31,0,0,1-2.46-1.16,22.52,22.52,0,0,1,.71-3h-2.09a26.45,26.45,0,0,0-.69,3.24,1,1,0,0,0,.33.9,11.6,11.6,0,0,0,1.49,1.06h6.41C260.77,235.66,260.94,235.57,261.1,235.47Zm-.41-4.1,1.38.3c-.12.38-.25.81-.39,1.27-.21-.29-.57-.86-1-1.57Z"/><path class="cls-3" d="M204.48,110.63a6.63,6.63,0,0,1,.73-1.94,6.84,6.84,0,0,1,1.23-1.13h-4.6a13.5,13.5,0,0,0-.73,2.14,5.93,5.93,0,0,1-.94,2.29h3.9C204.23,111.54,204.36,111.08,204.48,110.63Z"/><path class="cls-3" d="M196.7,119.47a5.39,5.39,0,0,1,.91-2.5h-3.9a18,18,0,0,0-.44,1.8,8,8,0,0,1-.72,2.36c-.41.7-.48.73-.88.93-.13.06-.28.13-.44.22h4.65A13,13,0,0,0,196.7,119.47Z"/><path class="cls-3" d="M281,81.13h7.88l-1.81-.81c-.87-.41-2.34-1.18-4-2.07l-3-1.55h-7.86C275.26,78.12,278.51,79.82,281,81.13Z"/><path class="cls-3" d="M216.34,282.42c.95,1.47,1.86,2.93,2.77,4.44h2.34c-.91-1.53-1.81-3-2.74-4.44Z"/><path class="cls-3" d="M299.77,205.22a3.83,3.83,0,0,0,1.59-.33h-3.83a11.86,11.86,0,0,0,1.6.29A4.68,4.68,0,0,0,299.77,205.22Z"/><path class="cls-3" d="M241.86,230.21a34,34,0,0,1,11.42-.38c-.05.15-.1.3-.14.45h2.1a5.15,5.15,0,0,1,.24-.57,4.1,4.1,0,0,1,1.08-1.33c.31.53.7,1.2,1.12,1.9h7a.36.36,0,0,0,0-.09l.1.09h2.83c-1-1.15-2.44-2.56-3.53-2.29-.38.09-.75.18-1.39,1.78l-1.62-.36c-.77-.16-1.49-.31-1.86-.4l-1.5-2.56a1,1,0,0,0-1.31-.4,7,7,0,0,0-2.2,1.89c-4.93-.71-11.28-.56-14.45.88q-2.06-1.42-4-3h-3.2c1.88,1.56,3.81,3,5.81,4.43H242Z"/><path class="cls-3" d="M238.77,230.55a90.49,90.49,0,0,0,8.6,5.2h4.45a87.11,87.11,0,0,1-9.41-5.2Z"/><path class="cls-3" d="M273.57,266.82c.18,1.44.35,3,.51,4.61h3.52c-.17-1.75-.35-3.34-.51-4.61Z"/><path class="cls-3" d="M274.6,281.71h3.49c0-1.38,0-2.88-.06-4.43h-3.51C274.6,278.9,274.63,280.41,274.6,281.71Z"/><path class="cls-3" d="M274.48,276.57H278c-.08-1.5-.19-3-.32-4.43h-3.53C274.28,273.63,274.4,275.13,274.48,276.57Z"/><path class="cls-3" d="M304.59,244.1A223.47,223.47,0,0,1,271,241.28h-9.84c9.41,2.41,22.11,3.81,31.87,4.43h19.24c6.25-.52,14.64-1.7,21.3-4.43h-6.42A105.06,105.06,0,0,1,304.59,244.1Z"/><path class="cls-3" d="M186.88,312l3.2-1.42c-.39-.89-.77-1.68-1.13-2.42H185C185.6,309.22,186.22,310.48,186.88,312Z"/><path class="cls-3" d="M344,230.28h2.3a17.77,17.77,0,0,0,1.36-3.28c.11-.39.2-.77.28-1.15h-2.07c0,.2-.07.39-.13.59A16.26,16.26,0,0,1,344,230.28Z"/><path class="cls-3" d="M274.16,285.26l3.3,1.16a15.23,15.23,0,0,0,.6-4h-3.49A11.11,11.11,0,0,1,274.16,285.26Z"/><path class="cls-3" d="M293.86,267.42a111.22,111.22,0,0,0,12.44.65,72,72,0,0,0,14.31-1.18l.28-.07H286.23C290,267.08,292.73,267.29,293.86,267.42Z"/><path class="cls-3" d="M341,227a22.22,22.22,0,0,1-3.53,1.82c-.19-.35-.4-.71-.62-1.06.15-.51.35-1.17.57-1.89h-6.05a12.75,12.75,0,0,0-1.52,3.42,21.6,21.6,0,0,0-2-3.42h-4c0,.6,0,1.19,0,1.71a26.07,26.07,0,0,0-.85,2.72h2.08a14.25,14.25,0,0,1,1.17-3.23,16.47,16.47,0,0,1,1.84,3.23h3.49c.53-1.84,1.19-3.34,1.65-3.66.61.26,1.8,2,2.71,3.66h3.07a20.77,20.77,0,0,0,3-1.63,3.86,3.86,0,0,0,1.67-2.8h-2A1.82,1.82,0,0,1,341,227Z"/><path class="cls-3" d="M307.69,133.27a.56.56,0,0,1,.05.32s-.27.14-.83,0c-.31-.06-1.39-.46-2.94-1.06h-5.38c3.87,1.57,7.25,2.9,8,3a4.59,4.59,0,0,0,.78.07,2.38,2.38,0,0,0,1.94-.8,2.28,2.28,0,0,0,.3-2.29h-2.22A7.41,7.41,0,0,1,307.69,133.27Z"/><path class="cls-3" d="M304.54,127.42h2.28c-.86-1.55-1.8-3.24-2.66-4.77h-2.3C302.76,124.24,303.69,125.9,304.54,127.42Z"/><path class="cls-3" d="M307,131.85h2.25c-.41-.81-1.14-2.16-2-3.72h-2.29C305.75,129.62,306.47,130.92,307,131.85Z"/><path class="cls-3" d="M302.66,118.31l-1.37-.32c-1.09-.25-2.79-.63-4.27-1H292.4a0,0,0,0,0,0,0l0,.07-.56.68c-.12-.25-.25-.51-.37-.78h-2.25a25.82,25.82,0,0,1,2.05,4.65c-1.85.06-7.78-1.74-12.81-3.69l.75-1H276.7c-1.57,2-3,3.82-4.12,5.31h2.52c.68-.87,1.35-1.75,2-2.62.55.87,1.09,1.75,1.62,2.62h2.36c-.31-.51-.63-1-1-1.6,1.4.51,3.09,1.09,4.79,1.6h8.38a6,6,0,0,0-.54-2.46c.38-.47.89-1.09,1.34-1.62,1.12.4,3,.88,6.15,1.61l1.39,2.47H304l-1.05-1.86c.43.1.75.18.85.22l1.25-.16c.42-.42.64-.65-.74-3.51H302Z"/><path class="cls-3" d="M300.49,92.9a9.69,9.69,0,0,0-2.6,1.35l-1.18.73a18.5,18.5,0,0,0-2.08,1.58H298l1-.62a8.64,8.64,0,0,1,2-1.09c0,.51,0,1.1,0,1.71h3.5c0-1.43-.08-2.53-.08-2.53a7.19,7.19,0,0,0-.43-1.9h-4A6.36,6.36,0,0,1,300.49,92.9Z"/><path class="cls-3" d="M323.3,245.71h8.18a52.64,52.64,0,0,0,8.15-3.32c.69-.36,1.33-.73,1.94-1.11h-4.24A60.36,60.36,0,0,1,323.3,245.71Z"/><path class="cls-3" d="M301.13,236.56l-.91-.07c-.1-.19-.19-.41-.29-.61h-2.21c.89,1.9,1.65,3.52,2.1,4.33a1.37,1.37,0,0,1-.52.36h3.83a4.1,4.1,0,0,1-.49-.36c.2-1.62.42-3.05.63-4.33h-2C301.2,236.1,301.16,236.32,301.13,236.56Z"/><path class="cls-3" d="M285.61,83.48c.6.29,1.32.61,2.12,1,1.15.51,2.55,1.13,4,1.84h7.1a51,51,0,0,0-8.31-4.43h-8.13C283.74,82.56,284.85,83.13,285.61,83.48Z"/><path class="cls-3" d="M300.88,98.19l-.26-.4a1.9,1.9,0,0,0-1.82-.85,8.08,8.08,0,0,0-2.16.55,11.26,11.26,0,0,1,1-.73h-3.24a69,69,0,0,0-5.24,5.28h5.4A5.66,5.66,0,0,1,299,98.89l.61.93c.53.79,1,1.52,1.46,2.22h2.38a11.43,11.43,0,0,0,1.08-5.27H301C301,97.24,300.93,97.74,300.88,98.19Z"/><path class="cls-3" d="M297.07,89.34a19.36,19.36,0,0,0-4.57,2.08h4.67a12.56,12.56,0,0,1,1.82-.48c.16.16.32.32.46.48h4.22A12.87,12.87,0,0,0,299.8,87h-6.66A35.18,35.18,0,0,1,297.07,89.34Z"/><path class="cls-3" d="M339.11,235.75h3a22.31,22.31,0,0,0,4-5.2H343.8A21.87,21.87,0,0,1,339.11,235.75Z"/><path class="cls-3" d="M338.79,240.57h3.87a19.87,19.87,0,0,0,4.89-4.69H345A20.82,20.82,0,0,1,338.79,240.57Z"/><path class="cls-3" d="M347.64,235.75a15.81,15.81,0,0,0,2.43-5.2H348a14.42,14.42,0,0,1-2.9,5.2Z"/><path class="cls-3" d="M283.12,246.42H269a205.5,205.5,0,0,0,33.67,3.12,100.35,100.35,0,0,0,26.43-3.12h-9.95C308.88,247.92,296.76,247.92,283.12,246.42Z"/><path class="cls-3" d="M298.72,114.27a17.85,17.85,0,0,1-5.48-1.57H286.9c.79,1.38,1.54,2.73,2.19,4h2.26c-.54-1.08-1.15-2.21-1.78-3.35.95.44,2,.91,3.13,1.35a3.44,3.44,0,0,0-.36,2h3.51a12.88,12.88,0,0,1-1.56-.53,3.45,3.45,0,0,1,.3-.78,14.05,14.05,0,0,0,4.13.91,3.69,3.69,0,0,0,.69-.06,1.59,1.59,0,0,0,1.16-1,2,2,0,0,0,.15-.76c.4.76.78,1.51,1.12,2.19h2.26c-.45-.91-1-2-1.81-3.5a29.33,29.33,0,0,0,5.07.71,3.5,3.5,0,0,0,.88-.09A1.2,1.2,0,0,0,309,113a1.57,1.57,0,0,0,.07-.34H298.25A5.77,5.77,0,0,1,298.72,114.27Z"/><path class="cls-3" d="M306.9,111.88a59.42,59.42,0,0,1-7.48-1.41c-.39-.82-.91-1.78-1.57-2.91h-2.33a47.13,47.13,0,0,1,2.41,4.43H309a19.58,19.58,0,0,0-2.17-4.43h-2.32A36.05,36.05,0,0,1,306.9,111.88Z"/><path class="cls-3" d="M304.09,106.85h2.34c-.75-1.25-1.7-2.76-2.9-4.62h-2.38C302.35,104.07,303.31,105.59,304.09,106.85Z"/><path class="cls-3" d="M166.49,246.42h-3.92c.57,1.15,1.15,2.28,1.73,3.39h3.95C167.67,248.72,167.07,247.58,166.49,246.42Z"/><path class="cls-3" d="M265.21,70.46a19,19,0,0,0-9.63.75h12.59A15.25,15.25,0,0,0,265.21,70.46Z"/><path class="cls-3" d="M155.43,221.68l-.3-.6h-3.91l1.08,2.17,1.08,2.15h3.89C156.67,224.15,156,222.89,155.43,221.68Z"/><path class="cls-3" d="M240.08,204.57h3a23.3,23.3,0,0,1,3.5-2.5,30.06,30.06,0,0,1,5.12-2.31H246.6l-1,.57A26.63,26.63,0,0,0,240.08,204.57Z"/><path class="cls-3" d="M235.49,210.52a10.68,10.68,0,0,0-5.57,4.75h2.35a9.8,9.8,0,0,1,5.18-3.32,37.56,37.56,0,0,1,27,2.78l1,.54h4.43c-1.62-.79-3.14-1.56-4.48-2.29a32.83,32.83,0,0,0-6.12-2.56H235.54S235.5,210.49,235.49,210.52Z"/><path class="cls-3" d="M152.94,216.38c-.05-.18-.11-.47-.18-.81h-3.57c.15.76.27,1.34.38,1.74a23,23,0,0,0,1.47,3.4H155A40.45,40.45,0,0,1,152.94,216.38Z"/><path class="cls-3" d="M157.5,225.85h-3.9c.74,1.51,1.48,3,2.08,4.43h3.8C158.94,228.93,158.25,227.41,157.5,225.85Z"/><path class="cls-3" d="M183.56,287.57h-3.51c-.11,1.6-.21,3.12-.28,4.43h3.51C183.35,290.67,183.45,289.14,183.56,287.57Z"/><path class="cls-3" d="M341.85,225.4h2a9.81,9.81,0,0,0-.92-4.32h-2.18a1.86,1.86,0,0,0,.1.2A8.68,8.68,0,0,1,341.85,225.4Z"/><path class="cls-3" d="M145.93,200.3a5,5,0,0,1-1.09-.54h-4.43a7,7,0,0,0,4.36,3.84,2.4,2.4,0,0,1,1.06,1h3.94C148.81,202.46,147.57,200.88,145.93,200.3Z"/><path class="cls-3" d="M149.92,204.89H146a20.67,20.67,0,0,1,1.82,4.82h3.64A33.23,33.23,0,0,0,149.92,204.89Z"/><path class="cls-3" d="M317.3,221.08h-7.7a18.39,18.39,0,0,0,4.74.78h.11a11.33,11.33,0,0,1-2.89,2.69,7.07,7.07,0,0,1-1.89.85h4.11A13.82,13.82,0,0,0,317.3,221.08Z"/><path class="cls-3" d="M152.55,214.53c-.26-1.36-.55-2.75-.88-4.11h-3.62c.36,1.39.72,3,1.07,4.79v.06h3.57C152.65,215,152.6,214.8,152.55,214.53Z"/><path class="cls-3" d="M289.81,225.4H300c-1.65-.26-3.24-.58-4.63-.87l-1.18-.24c-.87-1.36-1.33-1.57-1.88-1.52a1.18,1.18,0,0,0-1,.94v0a73.65,73.65,0,0,1-8-2.65H278A118.11,118.11,0,0,0,289.81,225.4Z"/><path class="cls-3" d="M277.09,220.71h5.28c-3.85-1.5-8.11-3.34-11.88-5.14H266C269.22,217.24,273.18,219.06,277.09,220.71Z"/><path class="cls-3" d="M175.62,261.85h-4.19c1,1.5,2,3.1,3.08,4.68h4.2C177.7,265,176.64,263.41,175.62,261.85Z"/><path class="cls-3" d="M171.65,255.74a1.4,1.4,0,0,1-.1-.16h-4.09c.44.74.85,1.44,1.23,2,.68,1.08,1.55,2.43,2.51,3.9h4.19C174,259.32,172.61,257.26,171.65,255.74Z"/><path class="cls-3" d="M184.12,279.87a14,14,0,0,0-.05-2.59h-3.53a10,10,0,0,1,.09,2.32c0,.68-.1,1.39-.16,2.11H184C184,281.06,184.08,280.44,184.12,279.87Z"/><path class="cls-3" d="M213.82,199.76h-2.2a46.1,46.1,0,0,0,2.42,4.81h2.33A44.52,44.52,0,0,1,213.82,199.76Z"/><path class="cls-3" d="M181.86,271.24c-.83-1.23-1.85-2.77-3-4.42H174.7l3.07,4.61H182Z"/><path class="cls-3" d="M323.53,221.42a31.11,31.11,0,0,1,.35,4h3.58a1.61,1.61,0,0,0-1.6-.49,32.23,32.23,0,0,0-.35-3.83h-2.07C323.47,221.19,323.51,221.31,323.53,221.42Z"/><path class="cls-3" d="M182.41,272.14h-4.16l.7,1.05a10,10,0,0,1,1.45,3.38H184A13.78,13.78,0,0,0,182.41,272.14Z"/><path class="cls-3" d="M161.52,235.88h-3.78c.53,1.35,1.23,3,2,4.69h3.86C162.82,238.86,162.1,237.26,161.52,235.88Z"/><path class="cls-3" d="M164,241.28h-3.86c.66,1.43,1.38,2.93,2.12,4.43h3.91C165.37,244.22,164.64,242.73,164,241.28Z"/><path class="cls-3" d="M160.26,232.49c-.17-.58-.41-1.24-.68-1.94H155.8a26.67,26.67,0,0,1,1.09,2.9c.18.63.46,1.41.81,2.3h3.77A31.08,31.08,0,0,1,160.26,232.49Z"/><path class="cls-3" d="M236,209.71h20.62a40.42,40.42,0,0,0-18.14-.09,28.19,28.19,0,0,1,4.21-4.73h-2.9A30.14,30.14,0,0,0,236,209.71Z"/><path class="cls-3" d="M183.93,282.42h-3.51c-.11,1.48-.22,3-.32,4.44h3.51C183.71,285.34,183.82,283.82,183.93,282.42Z"/><path class="cls-3" d="M169.21,251.57h-4c.68,1.26,1.34,2.45,2,3.52h4.07C170.62,254.07,169.93,252.88,169.21,251.57Z"/><path class="cls-3" d="M217.44,209.71H220c-.42-.55-.85-1.09-1.26-1.65-.78-1.08-1.49-2.13-2.13-3.17h-2.35c.84,1.41,1.78,2.86,2.86,4.34Z"/><path class="cls-3" d="M294,241.28H282.66a25,25,0,0,0,3.91.35,9.41,9.41,0,0,0,2-.17,1,1,0,0,0,.48.71,12.46,12.46,0,0,0,5.8,1.13c2.6,0,5.21-.5,6.33-1.57,0,0,.06-.07.1-.1a5.5,5.5,0,0,0,3.81,1.47,9.44,9.44,0,0,0,5.18-1.82H295.7C295.12,241.31,294.54,241.3,294,241.28Z"/><path class="cls-3" d="M146.62,171h-3.51c0,.7.1,1.58.14,2.71h3.5C146.71,172.65,146.67,171.75,146.62,171Z"/><path class="cls-3" d="M145.84,166.92a19,19,0,0,1-1.12-3.2h-3.6a22.52,22.52,0,0,0,1.69,4.93,10.22,10.22,0,0,1,.28,2h3.51C146.43,168.37,146.18,167.47,145.84,166.92Z"/><path class="cls-3" d="M254.65,237.06c-.87-.38-1.72-.78-2.57-1.18H247.6c2,1.07,4.11,2.08,6.25,3a42.74,42.74,0,0,0,4.69,1.68H267A62.9,62.9,0,0,1,254.65,237.06Z"/><path class="cls-3" d="M245,241.28c1.05.3,2.19.6,3.46.91,4.78,1.16,10.4,2.4,16.51,3.52h12.4c-7.61-1-15.64-2.51-24-4.43Z"/><path class="cls-3" d="M143,183.41c.25-.44.63-1,1-1.66.51-.79,1-1.51,1.35-2.19h-4.1c-.07.1-.13.21-.19.29-.44.68-.85,1.32-1.15,1.86a5.27,5.27,0,0,0-.64,2h3.58A1.78,1.78,0,0,1,143,183.41Z"/><path class="cls-3" d="M146.8,175.61v-.25c0-.33,0-.64,0-.94h-3.5c0,.33,0,.66,0,1v.25a10.83,10.83,0,0,1-1.57,3.16h4.05A6.9,6.9,0,0,0,146.8,175.61Z"/><path class="cls-3" d="M144.4,162.05a9.27,9.27,0,0,1,1.74-2.5,3.85,3.85,0,0,0,.51-.56h-4.53a19.19,19.19,0,0,0-1,1.71,4.75,4.75,0,0,0-.09,2.72h3.57A6.91,6.91,0,0,1,144.4,162.05Z"/><path class="cls-3" d="M183.14,295.38c0-.62,0-1.55.1-2.67h-3.51c0,1.1-.09,2-.09,2.65a16.43,16.43,0,0,0,.07,1.78h3.52A11.65,11.65,0,0,1,183.14,295.38Z"/><path class="cls-3" d="M159.46,145.64c1.08-.22,2.4-.36,3.79-.52,3.05-.34,6.47-.74,8.94-2H155a18.64,18.64,0,0,0-5.75,3.27,9.83,9.83,0,0,0-1.6,1.62H153C155.14,146.55,156.49,146.23,159.46,145.64Z"/><path class="cls-3" d="M151.37,149.16c.33-.26.64-.48.93-.69h-5a34.17,34.17,0,0,0-2.74,4.67h3.95A14.06,14.06,0,0,1,151.37,149.16Z"/><path class="cls-3" d="M147.34,156.23a2.38,2.38,0,0,1,.27-1.44l.49-.94h-3.88a5.64,5.64,0,0,0-.33,2.94.18.18,0,0,1,0,.13,8.34,8.34,0,0,0-1.22,1.36h4.45A3.58,3.58,0,0,0,147.34,156.23Z"/><path class="cls-3" d="M332.72,224.69a2.51,2.51,0,0,0-1,.71H335A2.3,2.3,0,0,0,332.72,224.69Z"/><path class="cls-3" d="M291.35,235.88h-5.58c.74,1.36,1.44,2.78,1.87,3.72-1.71.13-5.59-.24-6.62-.79a14.7,14.7,0,0,1,.75-2.93h-5.4c.45.65.95,1.38,1.53,2.25l.06.08a15,15,0,0,1-4.33.29h0a4.36,4.36,0,0,1-2.45-1.15c.19-.53.38-1,.55-1.47h-3.87c.06.35.11.69.15,1a5,5,0,0,1-4.65-1h-2.21a2.6,2.6,0,0,0,.79,1.42h0a6.87,6.87,0,0,0,4.65,1.77,5.7,5.7,0,0,0,2.41-.48,2.63,2.63,0,0,0,.41-.26,1.31,1.31,0,0,0,.17.24,6.4,6.4,0,0,0,3.87,1.93s.6,0,1.42,0a10.62,10.62,0,0,0,4.36-.72,2,2,0,0,0,.87.75h10.54C290.85,239.19,291.1,237.56,291.35,235.88Zm-11.92.93-.38-.56.51.08C279.52,236.49,279.47,236.65,279.43,236.81Zm9.37.65.29,0c0,.14,0,.29-.07.42Z"/><path class="cls-3" d="M303.88,225.85h-13c-.2,1.21-.45,2.76-.72,4.43h2c.26-1.62.49-3.09.68-4.2H293c.6,1.07,1.37,2.6,2.14,4.19h2.21c-.71-1.5-1.31-2.72-1.81-3.69a62.47,62.47,0,0,0,8.12,1.25c-.27.21-.69.7-1.21,2.44h2.09c0-.12.08-.26.12-.36l.23.36h2.25a6.39,6.39,0,0,0-1.66-2.36h.16a12.8,12.8,0,0,0,7.07-1.7c.19-.12.34-.25.51-.37h-6A21.12,21.12,0,0,1,303.88,225.85Z"/><path class="cls-3" d="M142,194a11.33,11.33,0,0,1-1-3.22,3.52,3.52,0,0,1,.2-1.32h-3.6a6.71,6.71,0,0,0-.09,1.51,10.93,10.93,0,0,0,.82,3.32h3.77A2.49,2.49,0,0,1,142,194Z"/><path class="cls-3" d="M306.21,233.18c.37.87.72,1.68,1.05,2.28l.16.29h2.27c-.24-.45-.47-.89-.68-1.27a19.82,19.82,0,0,1-1-2.09c-.3-.68-.57-1.29-.83-1.84H305C305.43,231.36,305.9,232.46,306.21,233.18Z"/><path class="cls-3" d="M181.89,303l.47.71c.63,1,1.39,2.14,2.27,3.72h4a48.74,48.74,0,0,0-2.53-4.43Z"/><path class="cls-3" d="M185.29,301.79a11,11,0,0,1-1.95-3.94h-3.55a11.05,11.05,0,0,0,1.65,4.43h4.17Z"/><path class="cls-3" d="M143,196.53l-.06-.19c-.14-.46-.31-.91-.48-1.35h-3.76c0,.11.08.22.13.33.29.7.56,1.38.76,2l.06.18a18.18,18.18,0,0,0,.64,1.88h4.14A6,6,0,0,1,143,196.53Z"/><path class="cls-3" d="M330.63,236.77c-.91.64-4,2.23-7,.66.09-.53.18-1.05.27-1.55h-2c-.07.39-.14.77-.21,1.19-.2-.28-.46-.64-.77-1a1.53,1.53,0,0,1,.21-.14h-2.85c.93,1.13,1.78,2.24,2.07,2.69a4.4,4.4,0,0,1-2.66,1.72,4.89,4.89,0,0,1-2.73-.18.48.48,0,0,1-.32-.54c.26-1.51.5-2.72.7-3.69h-2c-.07.33-.14.69-.22,1.08-.7.08-2.1.2-2.64.23-.21-.43-.44-.87-.67-1.31h-2.27c.63,1.16,1.39,2.66,1.85,3.59a10.91,10.91,0,0,1-1.95,1.1h3.67a1.8,1.8,0,0,0,.28-1.44l1.36-.12c0,.07,0,.14,0,.22a2.44,2.44,0,0,0,.14,1.34h8.47a3.57,3.57,0,0,0,.92-1.23,3.45,3.45,0,0,0,.11-.4l.14.11a7.89,7.89,0,0,0,4,1.07,9.33,9.33,0,0,0,3.1-.56c1.11-.4,2.8-1.29,3.08-2a2.55,2.55,0,0,0-.06-1.2,8.2,8.2,0,0,0,1.94-.46H330.4A7.38,7.38,0,0,1,330.63,236.77Z"/><path class="cls-3" d="M142.21,187.72l.1-.15a3.76,3.76,0,0,0,.49-2.64,4.11,4.11,0,0,1,0-.93h-3.52a8,8,0,0,0,0,1.24c0,.15,0,.35,0,.46l0,.05a9.74,9.74,0,0,0-1.6,3.39h3.66A8.42,8.42,0,0,1,142.21,187.72Z"/><path class="cls-3" d="M222.15,292h2.31c-.9-1.56-1.76-3-2.59-4.43h-2.33C220.38,289,221.24,290.44,222.15,292Z"/><path class="cls-3" d="M223.58,294.47c.5.86,1,1.75,1.55,2.67h2.31l-2.13-3.67-.44-.76h-2.31Z"/><path class="cls-3" d="M226.49,299.48l1.73-1c-.13-.21-.24-.41-.36-.62h-2.32Z"/><path class="cls-3" d="M334.78,235.75a13.63,13.63,0,0,0,3.54-2.12,1.77,1.77,0,0,0,.53-2s-.18-.45-.46-1.07l.1,0h-2.33a15.3,15.3,0,0,1,.76,1.64,9.35,9.35,0,0,1-4.94,2.2c-.22-.68-.5-1.41-.8-2.16.12-.57.26-1.14.41-1.68h-3.3a49.74,49.74,0,0,1,2.07,5.2Z"/><path class="cls-3" d="M322.56,232.32a22.58,22.58,0,0,1-2.89,2.11c-1.34-1.66-2.92-3.38-3.83-3.56a1.18,1.18,0,0,0-.95.2c-.32.23-.73.55-1.58,4.68h2.05c.24-1.16.44-2,.59-2.48a31.08,31.08,0,0,1,2.22,2.48h3.13l.69-.46c0,.15-.05.31-.08.46h2c.38-2.05.78-3.81,1.15-5.2H323c-.14.54-.28,1.13-.43,1.79Z"/><path class="cls-3" d="M268.74,178.85H273c-.94-1.34-2.07-2.95-3.09-4.43h-4.23C266.43,175.54,267.42,177,268.74,178.85Z"/><path class="cls-3" d="M291,129.42c.45.81.9,1.62,1.34,2.43h2.29l-.65-1.19,2.88,1.19h5.32c-2.57-1-5.85-2.37-9.07-3.72h-5.19Z"/><path class="cls-3" d="M269.64,126.27l-.06,0-.06.19c-.21.32-.42.65-.62,1H273l-1.39-.47c.3-.44.6-.88.92-1.31l2.28-3h-2.52c-.52.68-1,1.28-1.35,1.78S270.05,125.65,269.64,126.27Z"/><path class="cls-3" d="M284.18,127.42c-.71-1.26-1.64-2.83-2.83-4.77H279c1,1.7,2,3.33,2.86,4.77Z"/><path class="cls-3" d="M278.54,105.16c-.43.55-.86,1.11-1.29,1.69h2.52q2-2.52,3.76-4.62h-2.64l-1.1,1.35a13,13,0,0,0-3.22-1.35H262.89a70.75,70.75,0,0,0-11,2.92l.63,1.7h.56C256,105.84,271.21,101,278.54,105.16Z"/><path class="cls-3" d="M267.21,134.43c.35-.64.68-1.26,1-1.86H266l-.5.91c-.84,1.56-1.73,3.21-2.73,4.94h5.11l-2.38-.76C266.07,136.55,266.65,135.47,267.21,134.43Z"/><path class="cls-3" d="M277.85,136.42c-.65-1.25-1.44-2.57-2.25-3.85h-2.4a60.64,60.64,0,0,1,3.44,5.85h2.23l1.08-1.49,3.3,1.49h4.93c-2.43-1.07-4.9-2.18-7-3.15.81-1.13,1.35-1.89,1.7-2.42,1.21.39,2.08.67,2.36.74l1.15-.42a.86.86,0,0,0,.19-.6h-5.92Z"/><path class="cls-3" d="M286.37,128.13h-4.11c.67,1.17,1.24,2.19,1.64,3-2-.66-5.41-1.8-8.81-3h-6.64c-.72,1.19-1.41,2.43-2.12,3.72h2.29c.62-1.1,1.22-2.16,1.86-3.18l.08,0c.74,1,1.47,2.09,2.17,3.15h2.41c-.46-.71-.92-1.41-1.36-2,1.92.65,4.11,1.4,6.07,2h6.53a16.21,16.21,0,0,0-1.06-2.35Z"/><path class="cls-3" d="M248.38,153.14c1.51-1.59,2.91-3.16,4.18-4.67h-2.63c-1.33,1.53-2.78,3.09-4.32,4.67Z"/><path class="cls-3" d="M280.69,112h2.58l1.88-2.26,1.34,2.26h5.05c-1.32-.57-2.62-1.18-3.75-1.75-.2-.34-.4-.68-.6-1a9,9,0,0,1,.83-1.68h-3.66C283.12,109,281.89,110.52,280.69,112Z"/><path class="cls-3" d="M288.51,106.85a13.89,13.89,0,0,1,4.08-3.85c.94,1.39,1.77,2.68,2.5,3.85h2.34c-.79-1.32-1.75-2.84-2.95-4.62H289c-1.31,1.44-2.67,3-4,4.62Z"/><path class="cls-3" d="M263.68,127.42H266c.86-1.5,1.79-3.08,2.84-4.77h-2.35C265.44,124.34,264.53,125.91,263.68,127.42Z"/><path class="cls-3" d="M277,116.66h2.56c1.06-1.34,2.13-2.66,3.18-4h-2.58C279,114.06,278,115.39,277,116.66Z"/><path class="cls-3" d="M268.37,119.64c-.59.91-1.14,1.79-1.67,2.64h2.36l1-1.55q1.26-2,2.48-3.76h-2.4Z"/><path class="cls-3" d="M273,112.7c-.87,1.27-1.77,2.58-2.68,4h2.4q1.39-2.07,2.73-4Z"/><path class="cls-3" d="M284.39,127.42h7L288,126l1.95-2.54a9.78,9.78,0,0,0,1.35.11,3.16,3.16,0,0,0,1.26-.2,1.3,1.3,0,0,0,.66-.72h-7c.51.14,1,.28,1.5.39Z"/><path class="cls-3" d="M247.33,158.28h2.8c1.48-1.53,2.83-3,4.07-4.43h-2.67C250.25,155.28,248.86,156.75,247.33,158.28Z"/><path class="cls-3" d="M230.55,221.08h-3.27c1.54,1.51,3.12,2.94,4.75,4.32h3.15c-1.57-1.25-3.11-2.56-4.59-3.93C230.58,221.4,230.56,221.26,230.55,221.08Z"/><path class="cls-3" d="M335.83,224.3c-.13.38-.24.75-.35,1.1h2.1a37,37,0,0,1,1.62-4.32H337c-.16.4-.33.83-.5,1.28a5.43,5.43,0,0,1-1.55-1.28h-2.06C333.05,222.57,334.66,223.6,335.83,224.3Z"/><path class="cls-3" d="M239.49,159c-1.71,1.54-3.47,3-5.22,4.43h3.13c1.71-1.42,3.4-2.91,5-4.43Z"/><path class="cls-3" d="M219.64,172.35c-1.34.44-2.59.89-3.75,1.36h5.85A36.7,36.7,0,0,0,227,171h-4.1A23.28,23.28,0,0,1,219.64,172.35Z"/><path class="cls-3" d="M223.53,170.68h4a87.55,87.55,0,0,0,9.52-7H233.9A69.09,69.09,0,0,1,223.53,170.68Z"/><path class="cls-3" d="M252.16,153.14h2.65l.7-.83c.24.24.49.52.76.83h7.08c-3.05-1-5.64-2.15-6.12-3,.45-.58.88-1.15,1.3-1.71H256C254.87,150,253.59,151.52,252.16,153.14Z"/><path class="cls-3" d="M258.88,148c1.25-1.7,2.36-3.33,3.35-4.89h-2.38c-1,1.56-2.17,3.19-3.46,4.89Z"/><path class="cls-3" d="M232,173.71c.77-.51,1.55-1.05,2.36-1.63.1.49.18,1,.25,1.63h2.62l-.71-.41c-.11-.88-.24-1.65-.38-2.3h-3.71q-2.19,1.53-4.18,2.71Z"/><path class="cls-3" d="M251.14,147.06l-.8.93H253c1.43-1.73,2.66-3.34,3.75-4.89h-2.47C253.32,144.36,252.29,145.67,251.14,147.06Z"/><path class="cls-3" d="M240.28,158.28h2.93c1.56-1.46,3.06-2.95,4.49-4.43h-2.79C243.43,155.34,241.87,156.83,240.28,158.28Z"/><path class="cls-3" d="M260.84,132.57c-1.1,2-2.18,3.89-3.41,5.85h2.35c1.18-1.94,2.24-3.85,3.34-5.85Z"/><path class="cls-3" d="M314.28,242h0a7.24,7.24,0,0,0,2.41.42,5.65,5.65,0,0,0,1.52-.19,8.75,8.75,0,0,0,2.11-.94h-7.09A2.51,2.51,0,0,0,314.28,242Z"/><path class="cls-3" d="M256.85,236.68h.08a9.63,9.63,0,0,0,3.39-.8h-5.91A5.5,5.5,0,0,0,256.85,236.68Z"/><path class="cls-3" d="M254.43,142.85h2.47c1-1.37,1.82-2.69,2.62-4h-2.36C256.33,140.15,255.44,141.47,254.43,142.85Z"/><path class="cls-3" d="M210.7,184h-2a25.42,25.42,0,0,0,0,5.14h2.05A25.09,25.09,0,0,1,210.7,184Z"/><path class="cls-3" d="M182.85,247.22l-.49-.8H180l1.14,1.85.95,1.54h2.39C183.8,248.78,183.28,247.92,182.85,247.22Z"/><path class="cls-3" d="M198.28,195c-.47,1.49-.87,3-1.23,4.43h2.06c.37-1.47.79-2.95,1.28-4.43Z"/><path class="cls-3" d="M185.36,235.88h-3.19a42.74,42.74,0,0,0,7,4.69h4.71A35.19,35.19,0,0,1,185.36,235.88Z"/><path class="cls-3" d="M179.35,230.55H176.6a52.87,52.87,0,0,0,5.43,5.2h3.16A49.45,49.45,0,0,1,179.35,230.55Z"/><path class="cls-3" d="M180.68,243.71l-1.5-2.43h-2.34c.58,1,1.34,2.18,2.14,3.48l.59,1h2.35Z"/><path class="cls-3" d="M188.77,255.58h-2.56c1.34,1.71,3,3.68,5,5.93H194C191.89,259.28,190.18,257.31,188.77,255.58Z"/><path class="cls-3" d="M233.75,259.41l-.7,2.1h25.87C247,260.7,235.2,259.84,233.75,259.41Z"/><path class="cls-3" d="M243.63,269.78c-2.85.63-5.62,1.18-8.23,1.65h10a87.85,87.85,0,0,0,13.52-4.61h-5.42A75.74,75.74,0,0,1,243.63,269.78Z"/><path class="cls-3" d="M218.36,272.89a23.14,23.14,0,0,1-2.75-.75H208a55.87,55.87,0,0,1,4.18,4.43h2.54a42.83,42.83,0,0,0-3.21-3.75,48.6,48.6,0,0,0,6.46,2,16.73,16.73,0,0,0,3,.22c5.34,0,14-1.42,21.22-2.94H231C225.18,273,220.56,273.31,218.36,272.89Z"/><path class="cls-3" d="M166.68,228.51a1.74,1.74,0,0,0,1.15.05c3.36-1.07,6-1.15,6.84-.23l.61.72c.35.41.72.82,1.09,1.23h2.72c-.77-.8-1.53-1.64-2.28-2.53-.29-.33-.51-.6-.68-.77a3.89,3.89,0,0,0-2.11-1.13h-3.49a20.34,20.34,0,0,0-2.87.67c0-.21.06-.43.1-.67h-3.95a12.17,12.17,0,0,0,1.54,4.43h2.44A8.56,8.56,0,0,1,166.68,228.51Z"/><path class="cls-3" d="M206.71,270.92l.56.51h6.25c-3.31-1.18-7.49-2.89-11.12-4.61H198C200.5,268.2,203.63,269.64,206.71,270.92Z"/><path class="cls-3" d="M193.22,263.62a19.09,19.09,0,0,0,4.21,2.91h4.37c-3.3-1.59-6.05-3.16-7.13-4.29l-.37-.39h-2.73C192.1,262.43,192.64,263,193.22,263.62Z"/><path class="cls-3" d="M213.57,278.34c.81,1.15,1.57,2.27,2.3,3.37h2.39c-.94-1.45-1.92-2.91-3-4.43h-2.5C213.05,277.63,213.32,278,213.57,278.34Z"/><path class="cls-3" d="M185.7,251.57h-2.44c.69,1,1.54,2.19,2.57,3.52h2.55C187.32,253.78,186.44,252.6,185.7,251.57Z"/><path class="cls-3" d="M221.74,183.7h2c0-.86.07-1.91.06-3.18.83,1,1.77,2.08,2.72,3.18h2.68c-1.13-1.27-2.35-2.69-3.58-4.14h-3.84C221.8,181.05,221.79,182.5,221.74,183.7Z"/><path class="cls-3" d="M165.8,221.08h-2a17.25,17.25,0,0,0,0,4.32h2A15.57,15.57,0,0,1,165.8,221.08Z"/><path class="cls-3" d="M197.78,204.89h-2.07a16.61,16.61,0,0,1-1.91,4.82h2.3A25.27,25.27,0,0,0,197.78,204.89Z"/><path class="cls-3" d="M198.49,202c.17-.72.35-1.46.54-2.21H197c-.15.59-.29,1.18-.42,1.75-.26,1.07-.5,2.09-.76,3.06h2.07C198.07,203.73,198.28,202.87,198.49,202Z"/><path class="cls-3" d="M205.16,183.7h5.57c0-.34.08-.61.11-.82,1.1-.4,2.27-.76,3.57-1.15l.87-.26,2.07,2.23h2.76c-.82-.86-1.76-1.86-2.72-2.89,1.08-.35,2.24-.77,3.45-1.25h-6.17l-.84.26C210.47,180.83,207.66,181.67,205.16,183.7Z"/><path class="cls-3" d="M221.64,185.26,220.4,184h-2.77a38,38,0,0,0,3.94,3.83,1.27,1.27,0,0,0,.58.16,1.12,1.12,0,0,0,.58-.17c.34-.2.83-.51,1-3.82h-2C221.7,184.47,221.68,184.9,221.64,185.26Z"/><path class="cls-3" d="M225,178.85c-.23-.26-.45-.53-.67-.79a61.09,61.09,0,0,0,6.53-3.64H227a54.09,54.09,0,0,1-10.08,4.43Z"/><path class="cls-3" d="M172,217.51c1.79-1.16,5.54-1.57,9.23-1.94h-9.82c-.17.09-.35.17-.5.27a10.53,10.53,0,0,0-3.73,4.87h2.18A8,8,0,0,1,172,217.51Z"/><path class="cls-3" d="M204.72,186.9a12.22,12.22,0,0,1,3.63-2.9h-3.53c-.24.2-.47.4-.71.63l0,0c.13-.19.26-.39.41-.58h-2.43a12.72,12.72,0,0,0-1.83,5.14h2.81A18.45,18.45,0,0,1,204.72,186.9Z"/><path class="cls-3" d="M202.91,189.45h-2.65c0,.26,0,.48,0,.64a33,33,0,0,0-1.73,4.19h2.12A26.3,26.3,0,0,1,202.91,189.45Z"/><path class="cls-3" d="M209.15,179.56H205.9a19.32,19.32,0,0,0-3.59,4.14h2.46A20.61,20.61,0,0,1,209.15,179.56Z"/><path class="cls-3" d="M219.77,174.42h-5.56a33.82,33.82,0,0,0-7.47,4.43h3.45A41.63,41.63,0,0,1,219.77,174.42Z"/><path class="cls-3" d="M194.54,212a7.63,7.63,0,0,0,1.17-1.53h-2.48l-.09.11c-2,2-7.24,2.55-11.82,3-3.61.37-7,.72-9.37,1.73H184C188.3,214.78,192.4,214.07,194.54,212Z"/><path class="cls-3" d="M241.88,163.42h5.05a5.82,5.82,0,0,1-1.17-.85q2-1.83,3.67-3.58h-2.82C245.15,160.42,243.58,161.9,241.88,163.42Z"/><path class="cls-3" d="M308.34,207.37a4.24,4.24,0,0,1-4.06-1.48l.47-1h-2.21l-.15.32a1.67,1.67,0,0,0,.12,1.65,6.19,6.19,0,0,0,5.12,2.58,5.38,5.38,0,0,0,1.29-.15,1.78,1.78,0,0,0,1-.71,9,9,0,0,0,1.43-3.32l.72.3c-1,1.71-1.6,3.22-1.48,4.15h2.17a.92.92,0,0,1-.2-.3c-.05-.63.91-2.41,2.28-4.52h-5.46A7,7,0,0,1,308.34,207.37Z"/><path class="cls-3" d="M167,221.08a21.85,21.85,0,0,0-1.17,4.32h2a18.67,18.67,0,0,1,1.3-4.32Z"/><path class="cls-3" d="M264,163.42h2.41c-1-1.44-2-3-3.11-4.43h-2.42C261.9,160.45,263,162,264,163.42Z"/><path class="cls-3" d="M309.45,204.57h5.61c1-1.56,2.25-3.26,3.46-4.81H316c-.67.88-1.37,1.83-2,2.81l-3-1.28-.65-1.53h-2.19q.47,1,1,2.37A4.51,4.51,0,0,1,309.45,204.57Z"/><path class="cls-3" d="M273.16,149.75c-.23-.41-.46-.84-.72-1.28H270.1c1,1.76,1.93,3.36,2.6,4.67h2.17c-.09-.22-.19-.44-.31-.68a17.12,17.12,0,0,0,.75-4h-2A10.66,10.66,0,0,1,273.16,149.75Z"/><path class="cls-3" d="M273.86,155.75a52.23,52.23,0,0,1-8.27-1.9h-6c.93.39,1.94.78,3,1.14a17.39,17.39,0,0,1-1.38,1.27c-.65-.87-1.27-1.67-1.85-2.41h-2.51c1,1.23,2.22,2.78,3.44,4.43h2.42l-.3-.41a14.66,14.66,0,0,0,2.24-2.23,50.24,50.24,0,0,0,9.9,2.13h.2a1.28,1.28,0,0,0,1.05-.72c.24-.51,0-1.58-.65-3.19h-2.13A13.86,13.86,0,0,1,273.86,155.75Z"/><path class="cls-3" d="M268.12,169.92c-4.35-.26-15.92-3.62-20.67-6.2h-5.91l-.73.66a99.31,99.31,0,0,1-7.93,6.3h3.38c1-.73,1.93-1.5,3-2.33.28.77.54,1.56.79,2.33h2.12c-.13-.43-.28-.87-.44-1.36.89.57,1.66,1,2.33,1.36h4.91c.2-1-.53-2.91-1.44-4.74a70.23,70.23,0,0,0,13.93,4.74h9.12c-.26-1.14-1.88-3.86-4-7h-2.41C265.9,166.29,267.38,168.6,268.12,169.92Zm-26.88-3.28c.29-.26.58-.49.89-.76l2.05-1.84a29.34,29.34,0,0,1,2.73,5.75A29.46,29.46,0,0,1,241.24,166.64Z"/><path class="cls-3" d="M291.48,201.75a6.38,6.38,0,0,0,1.65-.21,4.7,4.7,0,0,0,1-.4,2.49,2.49,0,0,0-.08.35.13.13,0,0,0,0,.06c0,.25-.07,2,2.51,3h5.4a3.72,3.72,0,0,0,.37-.3,4.15,4.15,0,0,0,1.11-2.37l.47.19-1.17,2.48h2.21l2.27-4.81h-5.72c.19,2-.27,2.79-.57,3.08-.12.12-.49.48-1.53.36-2.59-.31-3.28-1.15-3.35-1.49a6.54,6.54,0,0,1,.93-2H286.28C286.94,200.82,289.29,201.75,291.48,201.75Z"/><path class="cls-3" d="M280,197.66h0a9.27,9.27,0,0,0,4.27,1.76h5.17a4.5,4.5,0,0,1-1.43-.65,2.44,2.44,0,0,1,.17-.6,0,0,0,0,1,0,0,21.52,21.52,0,0,1,1.69-3.15h-4.42a13.35,13.35,0,0,1,.87,2.31c-.55.34-2.82.43-5.08-1.21,0-.39.06-.75.09-1.1h-2c0,.34,0,.67-.08,1A1.88,1.88,0,0,0,280,197.66Z"/><path class="cls-3" d="M270.22,181l1.92,2.73h4.26c-.77-1.13-1.74-2.51-2.89-4.14h-4.27Z"/><path class="cls-3" d="M275.28,188.45a2.09,2.09,0,0,0,.33.46c0,.08,0,.15,0,.23h8.6A2.93,2.93,0,0,0,282.3,188h0a1.47,1.47,0,0,0-1.09.4,26.27,26.27,0,0,1-2.9-1.71c-.31-.59-.9-1.5-1.71-2.7h-4.25A52,52,0,0,1,275.28,188.45Z"/><path class="cls-3" d="M330.11,212.74a14.44,14.44,0,0,1-6-.44,14.1,14.1,0,0,1,.56-1.88h-3.3c0,.13,0,.26,0,.38s0,.93-1.62,1.08a11.67,11.67,0,0,1-6-1.46h-2.88c1.13,2,5.51,3.48,8.4,3.48a5.74,5.74,0,0,0,.6,0,4.37,4.37,0,0,0,2.34-.78c.6,1.41,3.41,1.75,5.78,1.75.61,0,1.19,0,1.69-.06,0,.16,0,.33,0,.49h2a11,11,0,0,1,.29-1.68,10,10,0,0,1,1.18-2.2c.2-.31.4-.64.6-1h-3.46c.11.43.22.87.32,1.31A7.44,7.44,0,0,0,330.11,212.74Z"/><path class="cls-3" d="M263.85,171.22a13.79,13.79,0,0,0,1.37,2.49h4.21c-.46-.67-.88-1.3-1.23-1.84l.74,0a3.81,3.81,0,0,0,.84-.07l.78-.74s0-.06,0-.09h-7.72Z"/><path class="cls-3" d="M284,230a1.46,1.46,0,0,0-1.48.2l-.05.05h1.91A2.47,2.47,0,0,0,284,230Z"/><path class="cls-3" d="M297.84,142.55c-1.86-.73-5.16-2.15-8.68-3.69h-4.94l.24.1a10.78,10.78,0,0,1,.51,2.73c-1.33-.25-4.15-1.14-5.65-1.64a8.83,8.83,0,0,0-.37-1.19h-2.1a6.69,6.69,0,0,1,.6,1.73c-1.33.08-4.72-.73-8.16-1.73h-6.82c-.75,1.28-1.56,2.61-2.46,4h2.38c.74-1.17,1.42-2.31,2.05-3.41l.06,0c.73,1.12,1.46,2.26,2.18,3.39h2.38c-.49-.78-1-1.59-1.55-2.43,1.77.55,3.81,1.13,5.68,1.55l-.71.88H275l.35-.45a13.31,13.31,0,0,0,1.92.18,3.61,3.61,0,0,0,.94-.1,1.46,1.46,0,0,0,.73-.43l1.45.46,0,.34h6.24a5,5,0,0,0,.09-2.85c2.75,1.22,4.88,2.15,6.54,2.85h6.74a32.4,32.4,0,0,0-1.76-4h-2.26C296.81,140.35,297.44,141.63,297.84,142.55Z"/><path class="cls-3" d="M299.27,145.05h.07l.86-.57c.11-.2.23-.44,0-1.37h-6.23C298.19,144.89,299,145.05,299.27,145.05Z"/><path class="cls-3" d="M168.32,233.5l1.16-1.63a8.06,8.06,0,0,1-1.45-1.32H165.5A10.45,10.45,0,0,0,168.32,233.5Z"/><path class="cls-3" d="M276,112c1.12-1.57,2.2-3,3.26-4.43h-2.51q-1.56,2.09-3.2,4.43Z"/><path class="cls-3" d="M165.94,220.32l-1.94-.48c0,.07-.09.39-.17.87h2C165.9,220.47,165.94,220.33,165.94,220.32Z"/><path class="cls-3" d="M292.72,132.57c1.13,2.06,2.21,4.09,3.11,5.85h2.27c-.76-1.51-1.77-3.43-3.09-5.85Z"/><path class="cls-3" d="M329.78,216.56a11,11,0,0,0,3.32,3,5.73,5.73,0,0,0-.2,1.17h2a20.64,20.64,0,0,1,2.12-5.14h-2.24c-.32.63-.66,1.34-1,2.06a14.07,14.07,0,0,1-2.18-1.87,1.2,1.2,0,0,1,0-.19h-2A2.71,2.71,0,0,0,329.78,216.56Z"/><path class="cls-3" d="M177.45,238.4l-1.77.91c.11.22.37.67.73,1.26h2.34C178.1,239.51,177.6,238.68,177.45,238.4Z"/><path class="cls-3" d="M324.92,209.71c.54-1.5,1.26-3.32,1.89-4.82h-2.16l-.74,1.81-.66-.27c0-.5-.07-1-.11-1.54h-2c.13,1.79.22,3.5.23,4.82Z"/><path class="cls-3" d="M248.26,171.65a1.36,1.36,0,0,0,.55-.65h-4.16a6.91,6.91,0,0,0,2.79.87A1.47,1.47,0,0,0,248.26,171.65Z"/><path class="cls-3" d="M288.81,96.76h-2.94c-1.54,1.52-3.14,3.27-4.82,5.28h2.64A60.82,60.82,0,0,1,288.81,96.76Z"/><path class="cls-3" d="M264.06,102h11.76A32.27,32.27,0,0,0,264.06,102Z"/><path class="cls-3" d="M233.55,190.63a1.59,1.59,0,0,0,.53.08,1.62,1.62,0,0,0,1.22-.57,2.65,2.65,0,0,0,.44-.69H232A6.06,6.06,0,0,0,233.55,190.63Z"/><path class="cls-3" d="M280.48,143.1a20.59,20.59,0,0,1,0,3,62.85,62.85,0,0,1-5.69-2.89l0-.08h-2.57c-.57.71-1.19,1.46-1.74,2.13-.41-.68-.86-1.39-1.32-2.13h-2.37c1.05,1.68,2.07,3.34,3,4.89h2.35l-.55-.94,1.44-1.74a15.82,15.82,0,0,1,.26,2.68h2a16,16,0,0,0-.17-2.33A35.79,35.79,0,0,0,280,148a3.24,3.24,0,0,0,1,.24,1.32,1.32,0,0,0,.26,0,1.41,1.41,0,0,0,.49-.21c.48-.35,1-1.39.73-4.86a17.45,17.45,0,0,0,2.7.61h.16a1.51,1.51,0,0,0,1.19-.56.36.36,0,0,1,0-.09Z"/><path class="cls-3" d="M295.41,92.13h-4a39.71,39.71,0,0,0-5.33,4.43H289A27.73,27.73,0,0,1,295.41,92.13Z"/><path class="cls-3" d="M232.05,215.57h-2.29a11.37,11.37,0,0,0-1.15,4c-1.31-1.29-2.57-2.64-3.81-4h-2.69c1.55,1.78,3.13,3.5,4.78,5.14h3.65A8.73,8.73,0,0,1,232.05,215.57Z"/><path class="cls-3" d="M349.41,235.75H353a30.6,30.6,0,0,0,.77-5.2h-3.51A28.55,28.55,0,0,1,349.41,235.75Z"/><path class="cls-3" d="M265.57,128.13h-2.29l-1.55,2.81-.5.91h2.28C264.18,130.64,264.85,129.41,265.57,128.13Z"/><path class="cls-3" d="M348,240.57h3.69c.51-1.59.94-3.17,1.29-4.69h-3.6C349,237.4,348.53,239,348,240.57Z"/><path class="cls-3" d="M243,173.71c-.16-.74-.4-1.64-.73-2.71H240.1c.31,1,.58,1.9.79,2.71Z"/><path class="cls-3" d="M345.94,225.4H348a14.68,14.68,0,0,0,.2-1.94h0a12.59,12.59,0,0,1,.27,1.25c0,.19.05.42.08.68h4.53a16.5,16.5,0,0,0-2.27-4.32h-4.89A9.8,9.8,0,0,1,345.94,225.4Z"/><path class="cls-3" d="M346,245.71h3.8c.58-1.43,1.13-2.92,1.63-4.43h-3.7C347.22,242.81,346.63,244.3,346,245.71Z"/><path class="cls-3" d="M348.07,230.28h2.07q.09-.34.15-.69c0,.22,0,.46,0,.69h3.52a15.13,15.13,0,0,0,0-1.66,13.07,13.07,0,0,0-.55-2.77h-4.65A13.83,13.83,0,0,1,348.07,230.28Z"/><path class="cls-3" d="M319.86,263.47c-7.14,1.58-19.26,1.23-25.59.48-2.38-.29-11.35-.87-21.73-1.55l-8.44-.55H232.93l-.29.87c1.58.53,10.89,1.26,25.49,2.24-1.15.49-2.46,1-3.89,1.57h5.32c1.13-.49,2.09-.94,2.81-1.28l9.94.65,1.15.07c0,.18.05.37.07.56h3.53c0-.11,0-.23,0-.33l5,.33h40.15a66.06,66.06,0,0,0,13.25-4.68h-9.53C323.91,262.47,321.9,263,319.86,263.47Z"/><path class="cls-3" d="M220.5,210.42H218c1.25,1.68,2.55,3.29,3.88,4.85h2.67C223.15,213.71,221.8,212.1,220.5,210.42Z"/><path class="cls-3" d="M326.9,261.51h9.16a29.23,29.23,0,0,0,8.33-5.93h-5.27A47.17,47.17,0,0,1,326.9,261.51Z"/><path class="cls-3" d="M344.06,249.81H348q.78-1.59,1.53-3.39h-3.8C345.17,247.66,344.61,248.8,344.06,249.81Z"/><path class="cls-3" d="M234.83,183.7h2c.08-1.32.11-2.73.09-4.14h-2C234.94,181,234.91,182.41,234.83,183.7Z"/><path class="cls-3" d="M342.42,252.48a13.77,13.77,0,0,1-2.66,2.61h5c.15-.17.3-.35.44-.53a26.12,26.12,0,0,0,1.84-3h-4C342.83,251.9,342.62,252.21,342.42,252.48Z"/><path class="cls-3" d="M241.29,175.76a27.63,27.63,0,0,1-2.78-1.34h-3.84c.14,1.36.22,2.88.25,4.43h2c0-1.06-.07-2.11-.15-3.11a26.44,26.44,0,0,0,4.71,2.18,1.9,1.9,0,0,0,.4.05,1.33,1.33,0,0,0,1-.44c.2-.23.65-.75.23-3.11h-2A10.47,10.47,0,0,1,241.29,175.76Z"/><path class="cls-3" d="M211.47,199.42h2.19A37.11,37.11,0,0,1,212,195h-2.12A37.9,37.9,0,0,0,211.47,199.42Z"/><path class="cls-3" d="M321.12,195.36a1.85,1.85,0,0,0-2,.53c-.4.45-1.54,1.81-2.86,3.53h2.51c.56-.71,1.12-1.39,1.65-2,.06.56.13,1.24.21,2h2c-.09-.9-.18-1.74-.26-2.47A1.85,1.85,0,0,0,321.12,195.36Z"/><path class="cls-3" d="M297.55,195.62v0l-.54-.25-.74-.35h-3a5.06,5.06,0,0,1,.83,2.36,1.94,1.94,0,0,1-1,2.07h4.08A36,36,0,0,1,300,195.8a29.26,29.26,0,0,1,1.37,3.62h5.94l.33-.68.3.68h2.19c-1-2.17-1.55-3.41-1.58-3.48a1,1,0,0,0-.9-.56h0a1,1,0,0,0-.9.57l-1.41,3-2.32-1c-.33-1-.8-2.07-1.18-2.95h-3.78Z"/><path class="cls-3" d="M272.75,229.83a1.3,1.3,0,0,0-.56.45h2.26C273.68,229.61,273.22,229.62,272.75,229.83Z"/><path class="cls-3" d="M300.48,193a1,1,0,0,0-.88.29c-.12.12-.45.47-.89,1h2.83c-.14-.31-.25-.55-.32-.69A1,1,0,0,0,300.48,193Z"/><path class="cls-3" d="M278.86,199.42c-.12-1.71-.24-3.18-.37-4.43h-2c.13,1.25.26,2.7.38,4.43Z"/><path class="cls-3" d="M340.06,218.07h0a2.74,2.74,0,0,0-2.41,1.7,8.28,8.28,0,0,0-.46.94h2.23a1.6,1.6,0,0,1,.56-.64s.23.07.58.64h2.23c0-.1-.07-.19-.12-.29a6.89,6.89,0,0,0-.57-1,7.17,7.17,0,0,0,0-1.23c1,.55,2.14,1.24,2.83,1.72a7.84,7.84,0,0,1,.9.77.07.07,0,0,1,0,.05h4.69a20.21,20.21,0,0,0-3.59-3.69s-1-.72-2.29-1.45h-5.29A9.86,9.86,0,0,1,340.06,218.07Z"/><path class="cls-3" d="M276.41,194.28h2c-.16-1.52-.33-2.7-.48-3.66.6.35,1.24.69,1.86,1-.15.73-.28,1.62-.39,2.66h2a11.61,11.61,0,0,1,1-4.2c.67.42,1.84,2.36,2.73,4.2h5.21c.34-.51.7-1,1.08-1.58a15.1,15.1,0,0,1,1.35,1.58h2.36a15.33,15.33,0,0,0-3.23-3.85,1,1,0,0,0-.75-.22,1,1,0,0,0-.69.4c-.23.31-.42.59-.63.89a25.48,25.48,0,0,0-4.79-1.39c-.16-.23-.34-.45-.51-.66h-8.82C275.92,190.56,276.16,192,276.41,194.28Z"/><path class="cls-3" d="M334.67,211.16a7.64,7.64,0,0,1,1,2.62c-.18.31-.47.85-.8,1.49h2.26c.15-.27.29-.54.44-.8a1.78,1.78,0,0,1,.6-.7s.36.11.89,1.22a2.36,2.36,0,0,1,.12.28h4.91a10.1,10.1,0,0,0-3.34-1.38c-.36-.71-1.15-2.06-2.49-2.12a2.11,2.11,0,0,0-1,.23,16.25,16.25,0,0,0-.76-1.58h-2.25Z"/><path class="cls-3" d="M234,188.6a44,44,0,0,1-4.5-4.6h-2.69c1.72,1.95,3.47,3.86,4.82,5.14h4.27a18.56,18.56,0,0,0,.92-5.14h-2A13,13,0,0,1,234,188.6Z"/><path class="cls-3" d="M209.7,194.28h2.1a32.58,32.58,0,0,1-1-4.83h-2A33.26,33.26,0,0,0,209.7,194.28Z"/><path class="cls-3" d="M327.65,200.46a1.2,1.2,0,0,0-1.22.53c-.17.27-.86,1.74-1.64,3.58H327c.23-.55.45-1,.63-1.45a14.36,14.36,0,0,1,.7,1.45h2.16C329.6,202.44,328.61,200.64,327.65,200.46Z"/><path class="cls-3" d="M330.05,209.71h6.13c-.08-.15-.17-.31-.24-.46-.49-1-1-2-1.93-2h0c-.84,0-1.22.74-1.53,1.33l-.22.41c-.07.12-.14.22-.22.34-.37-1.33-.87-3-1.44-4.46h-2.16A41,41,0,0,1,330.05,209.71Z"/><path class="cls-3" d="M321.11,204.57h2c-.12-1.62-.27-3.29-.42-4.81h-2C320.83,201.22,321,202.91,321.11,204.57Z"/></svg>